<?xml version="1.0" encoding="utf-8"?>
<svg xmlns="http://www.w3.org/2000/svg" enable-background="new 0 0 2000 2000" viewBox="0 0 2000 2000">
  <path clip-rule="evenodd" d="M998.3,1542.3c180.4,0,346.5,2.7,478.2,7.2c322.5-184.3,210.8-543.6,95-746.8&#xD;&#xA;			c-161.1-282.8-541.9-384.5-699.4-158.8c-213.8,306.3-420,199.4-531.3,432c-111.4,232.6,57.8,455.6,179.2,473.6&#xD;&#xA;			C651.8,1545,817.8,1542.3,998.3,1542.3z" fill="#e9eef7" fill-rule="evenodd"/>
  <ellipse clip-rule="evenodd" cx="998.3" cy="1576.3" fill="#d1deed" fill-rule="evenodd" rx="775.7" ry="34"/>
  <path clip-rule="evenodd" d="M1248.4,604.6c193.7,43.2,317,221.3,329.1,307.3c5,35.3-4.2-47.3-103.1-122.5&#xD;&#xA;			c-88.3-67.2-157.1-79.7-262.2-87.8c-74.3-5.7-152-14.9-146.5-59.2C1070.1,607.5,1123.3,576.7,1248.4,604.6z" fill="#fff" fill-rule="evenodd"/>
  <path clip-rule="evenodd" d="M498.6,1464c-8.8-11.1-21.3-20.2-24.9-33.9c-4.3-16.2,5.2-33.2,2.8-49.7c-3-20.8-23-34.4-33.9-52.4&#xD;&#xA;			c-10.7-17.6-5.7-23.6-6.6-44.2c-1.5-31-26.9-70.2-60.8-59.7c-34.4,10.7-28.8,42.7-22.7,66.8c4.3,17.1,1.5,19.6-2.7,36.8&#xD;&#xA;			c-5.1,20.7-21.4,40.8-14.6,61c4.2,12.5,16.5,21,20.9,33.4c5,14.1-1.1,29.4-3.4,44.2c-4.9,31.1,2.1,57,24.8,82.7&#xD;&#xA;			c2.4,2.3,5,4.5,7.6,6.4c31.7-1.8,67.3-3.4,106.4-4.9l0.3-0.3C512.3,1527.7,518.5,1488.9,498.6,1464z" fill="#d1deed" fill-rule="evenodd"/>
  <path clip-rule="evenodd" d="M390.7,1252.2c-0.5-1.4-2.1-2.1-3.5-1.6c-1.4,0.5-2.1,2.1-1.6,3.5c2.7,7,4.9,14.4,6.9,22.1&#xD;&#xA;			c-0.8-0.7-1.6-1.4-2.4-2.1c-3.7-3-7.9-5.6-12.6-7.8c-1.4-0.6-3-0.1-3.6,1.3c-0.6,1.4-0.1,3,1.3,3.6c4.3,2,8.1,4.4,11.5,7.1&#xD;&#xA;			c3.2,2.6,5.9,5.4,8.3,8.6c3.5,16.6,5.7,34.5,7.8,53.3c-3.2-4.9-6.5-9.3-10.1-13.2c-6.2-6.8-13.1-12-20.6-15.7&#xD;&#xA;			c-1.3-0.7-3-0.1-3.6,1.2c-0.7,1.3-0.1,3,1.2,3.6c6.9,3.4,13.3,8.3,19,14.6c5.7,6.2,10.9,13.9,15.5,22.9l0.5,5.1&#xD;&#xA;			c1.2,11.2,2.3,22.7,3.7,34.5c0,0.1,0,0.2,0,0.3c1.5,12.3,3.2,24.8,5.3,37.6c-5.9-9.1-12.2-17.1-19-24.1&#xD;&#xA;			c-9.9-10.2-20.8-18.2-32.7-23.9c-1.4-0.6-3-0.1-3.6,1.3c-0.6,1.4-0.1,3,1.3,3.6c11.3,5.4,21.6,13,31.1,22.8&#xD;&#xA;			c9.5,9.7,18,21.6,25.7,35.6c3.3,16.9,7.6,34.1,13.3,51.5l0,0l0,0.1v0c2.8,8.5,5.9,17.1,9.4,25.7c-8.2-7.1-17-13.2-26.2-18.3&#xD;&#xA;			c-12.9-7.2-26.7-12.5-41.5-15.9c-1.5-0.3-2.9,0.6-3.3,2c-0.3,1.5,0.6,2.9,2,3.3c14.3,3.3,27.7,8.4,40.1,15.3&#xD;&#xA;			c12.3,6.8,23.6,15.4,34.1,25.8c2.4,5.4,5,10.7,7.7,16.1l6-0.3c-9.6-18.5-17.2-37-23.1-55.2c-1-13.3,0.6-26.5,4.7-39.8&#xD;&#xA;			c4.2-13.4,11.1-26.9,20.7-40.4c0.9-1.2,0.6-2.9-0.6-3.8c-1.2-0.9-2.9-0.6-3.8,0.6c-9.9,13.9-17,27.9-21.4,41.9&#xD;&#xA;			c-2.5,7.9-4.1,15.9-4.8,23.8c-8.2-29.5-12.7-58.3-16-85.8c3.2-11.7,6.8-21.5,10.7-29.6c3.9-8,8.2-14.2,12.8-18.6&#xD;&#xA;			c1.1-1,1.1-2.7,0.1-3.8c-1-1.1-2.7-1.1-3.8-0.1c-5.1,4.8-9.7,11.5-13.9,20.1c-2.6,5.4-5.1,11.5-7.4,18.3&#xD;&#xA;			c-0.8-7.3-1.5-14.4-2.3-21.5l-0.6-5.5c0-0.1,0-0.2,0-0.3C405.7,1315.1,401.8,1281.1,390.7,1252.2z" fill="#fff" fill-rule="evenodd"/>
  <path clip-rule="evenodd" d="M407.5,1478.6c-9.4-5.1-20.8-7.8-27.4-16.2c-7.8-10-6.2-24.6-12.8-35.5c-8.2-13.6-26.2-17.1-39.2-26.4&#xD;&#xA;			c-12.7-9.1-10.9-14.7-17.7-28.8c-10.2-21.2-39.5-40.9-60.1-23.6c-20.8,17.6-7.4,38.3,3.9,53.2c8.1,10.7,6.9,13.2,9,26.4&#xD;&#xA;			c2.6,16-2.8,34.8,7.9,46.8c6.7,7.5,17.7,9.7,24.5,17.1c7.7,8.3,8,20.8,10.7,31.8c3.6,14.6,10,26.3,20.1,35.8c27.1-2.1,59-4,95-5.7&#xD;&#xA;			c2.8-3.9,5-8.2,6.6-12.8C435.9,1518.9,428.7,1490.1,407.5,1478.6z" fill="#c4ddf7" fill-rule="evenodd"/>
  <path clip-rule="evenodd" d="M269.6,1363c-0.8-0.8-2.1-0.8-2.9-0.1c-0.8,0.8-0.8,2.1-0.1,2.9c4,4.1,7.7,8.6,11.3,13.3&#xD;&#xA;			c-0.8-0.3-1.5-0.5-2.3-0.7c-3.5-1-7.1-1.5-11.1-1.7c-1.1,0-2.1,0.8-2.1,2c0,1.1,0.8,2.1,2,2.1c3.6,0.1,7,0.7,10.1,1.5&#xD;&#xA;			c3,0.8,5.7,2,8.3,3.5c7.3,10.5,14.2,22.3,21.2,34.8c-3.6-2.5-7.3-4.5-10.9-6.2c-6.3-2.9-12.7-4.5-19-4.9c-1.1-0.1-2.1,0.8-2.2,1.9&#xD;&#xA;			c-0.1,1.1,0.8,2.1,1.9,2.2c5.8,0.3,11.7,1.8,17.6,4.5c5.9,2.6,11.7,6.4,17.6,11.4l1.9,3.4c4.1,7.5,8.4,15.1,12.8,22.9&#xD;&#xA;			c0,0.1,0.1,0.2,0.1,0.2c4.7,8.1,9.6,16.3,14.9,24.6c-6.8-4.6-13.6-8.3-20.3-11.1c-9.9-4.2-19.9-6.5-29.8-7c-1.1-0.1-2.1,0.8-2.2,2&#xD;&#xA;			c-0.1,1.1,0.8,2.1,2,2.2c9.5,0.4,18.9,2.7,28.4,6.6c9.5,4,19,9.7,28.5,17.2c7.3,10.8,15.4,21.5,24.5,31.9l0,0l0,0l0,0&#xD;&#xA;			c4.5,5.1,9.2,10.2,14.2,15.1c-7.8-2.5-15.7-4.2-23.7-5c-11.1-1.2-22.3-0.8-33.6,1.2c-1.1,0.2-1.9,1.3-1.7,2.4&#xD;&#xA;			c0.2,1.1,1.3,1.9,2.4,1.7c11-1.9,21.8-2.3,32.5-1.2c10.6,1.1,21,3.8,31.4,7.9c3.6,3.3,7.3,6.6,11.2,9.7l6.1-0.3&#xD;&#xA;			c-13.5-10.8-25.2-22.2-35.5-34.1c-4.6-8.9-7.5-18.6-8.5-29.1c-1-10.6-0.2-22,2.4-34.3c0.2-1.1-0.5-2.2-1.6-2.4&#xD;&#xA;			c-1.1-0.2-2.2,0.5-2.4,1.6c-2.8,12.6-3.6,24.5-2.5,35.5c0.6,6.3,1.8,12.3,3.7,18c-14.4-18.1-26.1-36.8-36.6-55&#xD;&#xA;			c-1.2-9.1-1.7-17-1.3-23.8c0.3-6.8,1.5-12.3,3.4-16.7c0.5-1,0-2.3-1.1-2.7c-1-0.5-2.3,0-2.7,1.1c-2.1,4.9-3.4,10.9-3.7,18.1&#xD;&#xA;			c-0.2,4.5-0.1,9.5,0.3,15c-2.7-4.8-5.3-9.6-7.9-14.3l-2-3.7c0-0.1-0.1-0.1-0.1-0.2C298.7,1402.4,285.9,1379.9,269.6,1363z" fill="#fff" fill-rule="evenodd"/>
  <path clip-rule="evenodd" d="M1463.7,1453.5c9.7-12.1,23.2-22.1,27.2-37c4.7-17.6-5.7-36.2-3.1-54.3c3.2-22.7,25.1-37.5,37-57.1&#xD;&#xA;			c11.6-19.3,6.2-25.7,7.3-48.2c1.6-33.9,29.4-76.6,66.4-65.1c37.6,11.7,31.4,46.6,24.8,72.9c-4.7,18.7-1.6,21.4,2.9,40.1&#xD;&#xA;			c5.5,22.6,23.4,44.5,15.9,66.6c-4.6,13.7-18,22.9-22.8,36.5c-5.5,15.4,1.2,32.1,3.7,48.2c5.4,34-2.3,62.2-27,90.3&#xD;&#xA;			c-3,2.8-6.1,5.5-9.4,7.8c-34.1-1.7-72.2-3.3-113.6-4.7c-0.6-0.6-1.1-1.2-1.7-1.8C1448.7,1523,1442,1480.7,1463.7,1453.5z" fill="#d1deed" fill-rule="evenodd"/>
  <path clip-rule="evenodd" d="M1581.4,1222.3c0.6-1.5,2.3-2.3,3.8-1.7c1.5,0.6,2.3,2.3,1.7,3.8c-2.9,7.7-5.4,15.7-7.5,24.1&#xD;&#xA;			c0.9-0.8,1.7-1.5,2.6-2.2c4-3.2,8.6-6.1,13.7-8.5c1.5-0.7,3.3-0.1,3.9,1.4c0.7,1.5,0.1,3.2-1.4,3.9c-4.7,2.2-8.9,4.8-12.6,7.8&#xD;&#xA;			c-3.5,2.8-6.5,5.9-9,9.4c-3.8,18.1-6.3,37.6-8.5,58.1c3.4-5.3,7.1-10.1,11-14.4c6.8-7.4,14.3-13.1,22.5-17.2&#xD;&#xA;			c1.5-0.7,3.2-0.1,4,1.3c0.7,1.5,0.1,3.2-1.3,4c-7.5,3.7-14.5,9-20.8,15.9c-6.3,6.8-11.9,15.2-16.9,25l-0.6,5.6&#xD;&#xA;			c-1.3,12.2-2.6,24.8-4.1,37.6c0,0.1,0,0.3,0,0.4c-1.6,13.4-3.5,27.1-5.8,41c6.4-9.9,13.3-18.7,20.7-26.3&#xD;&#xA;			c10.8-11.2,22.7-19.8,35.6-26.1c1.5-0.7,3.3-0.1,4,1.4c0.7,1.5,0.1,3.3-1.4,4c-12.3,5.9-23.6,14.2-34,24.8&#xD;&#xA;			c-10.3,10.6-19.7,23.6-28,38.9c-3.7,18.4-8.3,37.2-14.5,56.2l0,0l0,0.1l0,0c-3,9.3-6.4,18.7-10.3,28.1c9-7.7,18.5-14.4,28.6-20&#xD;&#xA;			c14.1-7.8,29.2-13.6,45.3-17.3c1.6-0.4,3.2,0.6,3.6,2.2c0.4,1.6-0.6,3.2-2.2,3.6c-15.6,3.6-30.2,9.2-43.8,16.7&#xD;&#xA;			c-13.4,7.5-25.8,16.9-37.2,28.2c-2.8,6.2-5.8,12.5-9.1,18.8l-6.6-0.3c10.8-20.6,19.2-41.2,25.9-61.5c1.1-14.5-0.6-29-5.2-43.4&#xD;&#xA;			c-4.6-14.7-12.1-29.4-22.6-44.1c-0.9-1.3-0.6-3.2,0.7-4.1c1.3-0.9,3.2-0.6,4.1,0.7c10.8,15.2,18.6,30.5,23.4,45.7&#xD;&#xA;			c2.7,8.7,4.5,17.3,5.3,26c8.9-32.2,13.8-63.6,17.5-93.6c-3.5-12.7-7.4-23.5-11.7-32.3c-4.3-8.8-8.9-15.5-13.9-20.3&#xD;&#xA;			c-1.2-1.1-1.2-3-0.1-4.2c1.1-1.2,3-1.2,4.2-0.1c5.6,5.3,10.6,12.6,15.2,22c2.9,5.8,5.5,12.5,8,20c0.9-7.9,1.7-15.7,2.5-23.4l0.6-6&#xD;&#xA;			c0-0.1,0-0.2,0-0.3C1565.1,1291,1569.3,1253.9,1581.4,1222.3z" fill="#fff" fill-rule="evenodd"/>
  <path clip-rule="evenodd" d="M1563,1469.5c10.3-5.6,22.7-8.5,29.9-17.7c8.5-10.9,6.8-26.9,13.9-38.7c9-14.9,28.6-18.7,42.7-28.8&#xD;&#xA;			c13.8-10,11.9-16.1,19.3-31.4c11.1-23.1,43.2-44.7,65.5-25.7c22.7,19.3,8.1,41.8-4.3,58.1c-8.8,11.6-7.5,14.4-9.8,28.8&#xD;&#xA;			c-2.9,17.4,3.1,37.9-8.7,51.1c-7.3,8.1-19.3,10.6-26.7,18.6c-8.4,9.1-8.7,22.7-11.7,34.7c-4,16.2-11.1,29.1-22.4,39.5&#xD;&#xA;			c-29.6-2-64-3.9-102.4-5.6c-3.4-4.6-6.1-9.7-8-15.1C1532.1,1513.4,1539.9,1481.9,1563,1469.5z" fill="#c4ddf7" fill-rule="evenodd"/>
  <path clip-rule="evenodd" d="M1713.5,1343.3c0.9-0.9,2.3-0.9,3.2-0.1c0.9,0.9,0.9,2.3,0.1,3.2c-4.3,4.5-8.4,9.3-12.4,14.5&#xD;&#xA;			c0.8-0.3,1.7-0.5,2.5-0.8c3.8-1.1,7.8-1.7,12.1-1.9c1.2,0,2.3,0.9,2.3,2.2c0,1.2-0.9,2.3-2.2,2.3c-3.9,0.2-7.6,0.7-11,1.7&#xD;&#xA;			c-3.2,0.9-6.3,2.2-9.1,3.8c-8,11.5-15.5,24.3-23.2,38c4-2.7,8-5,11.9-6.8c6.9-3.1,13.8-4.9,20.8-5.3c1.2-0.1,2.3,0.9,2.4,2.1&#xD;&#xA;			c0.1,1.2-0.9,2.3-2.1,2.4c-6.4,0.4-12.8,2-19.2,4.9c-6.4,2.9-12.8,7-19.2,12.4l-2.1,3.7c-4.5,8.2-9.1,16.5-14,25&#xD;&#xA;			c0,0.1-0.1,0.2-0.1,0.2c-5.1,8.9-10.4,17.8-16.2,26.8c7.4-5,14.8-9.1,22.2-12.2c10.9-4.6,21.7-7.1,32.5-7.6&#xD;&#xA;			c1.2-0.1,2.3,0.9,2.3,2.1c0.1,1.2-0.9,2.3-2.1,2.3c-10.3,0.5-20.7,2.9-31,7.2c-10.3,4.3-20.7,10.6-31.1,18.8&#xD;&#xA;			c-8,11.8-16.8,23.5-26.7,34.9l0,0l0,0l0,0c-4.9,5.6-10,11.1-15.5,16.5c8.5-2.7,17.2-4.5,25.9-5.4c12.1-1.3,24.3-0.8,36.7,1.3&#xD;&#xA;			c1.2,0.2,2,1.4,1.8,2.6c-0.2,1.2-1.4,2-2.6,1.8c-12-2.1-23.8-2.5-35.4-1.3c-11.5,1.2-23,4.1-34.3,8.6c-4.2,3.9-8.7,7.8-13.3,11.6&#xD;&#xA;			l-6.8-0.3c15.2-12,28.3-24.9,39.9-38.2c5.1-9.8,8.2-20.4,9.3-31.8c1.1-11.6,0.2-24.1-2.7-37.4c-0.3-1.2,0.5-2.4,1.7-2.7&#xD;&#xA;			c1.2-0.3,2.4,0.5,2.7,1.7c3,13.8,3.9,26.7,2.7,38.8c-0.7,6.8-2,13.4-4,19.7c15.7-19.8,28.5-40.2,39.9-60&#xD;&#xA;			c1.3-9.9,1.8-18.5,1.4-25.9c-0.4-7.4-1.6-13.4-3.7-18.2c-0.5-1.1,0-2.5,1.2-3c1.1-0.5,2.5,0,3,1.2c2.3,5.3,3.7,11.9,4.1,19.8&#xD;&#xA;			c0.3,4.9,0.1,10.4-0.3,16.3c3-5.3,5.8-10.5,8.7-15.6l2.2-4c0-0.1,0.1-0.1,0.1-0.2C1681.9,1386.3,1695.8,1361.7,1713.5,1343.3z" fill="#fff" fill-rule="evenodd"/>
  <path clip-rule="evenodd" d="M941.9,728.7c-2.8,38.1-8.4,43.4-44.7,46.3c36.3,2.9,41.9,8.2,44.7,46.3c2.8-38.1,8.4-43.4,44.7-46.3&#xD;&#xA;			C950.3,772.1,944.7,766.8,941.9,728.7L941.9,728.7z M1089.6,829.2c-1.5,20.3-4.5,23.1-23.9,24.7c19.4,1.6,22.4,4.4,23.9,24.7&#xD;&#xA;			c1.5-20.3,4.5-23.1,23.9-24.7C1094.1,852.4,1091.1,849.6,1089.6,829.2L1089.6,829.2z M1024.9,672.7c-1.5,20.6-4.5,23.4-24.2,25&#xD;&#xA;			c19.6,1.6,22.7,4.4,24.2,25c1.5-20.6,4.5-23.4,24.2-25C1029.5,696.1,1026.4,693.3,1024.9,672.7z" fill="#fff" fill-rule="evenodd"/>
  <path clip-rule="evenodd" d="M888.4,1353.4c2.2,30.9,6.8,35.1,36.2,37.5c-29.4,2.4-34,6.6-36.2,37.5c-2.2-30.9-6.8-35.1-36.2-37.5&#xD;&#xA;			C881.6,1388.5,886.1,1384.3,888.4,1353.4L888.4,1353.4z M768.8,1434.8c1.2,16.5,3.6,18.8,19.3,20c-15.7,1.3-18.1,3.5-19.3,20&#xD;&#xA;			c-1.2-16.5-3.6-18.8-19.3-20C765.1,1453.6,767.6,1451.3,768.8,1434.8L768.8,1434.8z M821.1,1308c1.2,16.7,3.7,19,19.6,20.3&#xD;&#xA;			c-15.9,1.3-18.4,3.6-19.6,20.3c-1.2-16.7-3.7-19-19.6-20.3C817.5,1327,819.9,1324.7,821.1,1308z" fill="#fff" fill-rule="evenodd"/>
  <path clip-rule="evenodd" d="M1358.5,1277.3c-1.7,23.6-5.2,26.9-27.7,28.7c22.5,1.8,26,5.1,27.7,28.7c1.7-23.6,5.2-26.9,27.7-28.7&#xD;&#xA;			C1363.7,1304.2,1360.3,1301,1358.5,1277.3L1358.5,1277.3z M1450.1,1339.7c-0.9,12.6-2.8,14.4-14.8,15.3c12,1,13.9,2.7,14.8,15.3&#xD;&#xA;			c0.9-12.6,2.8-14.4,14.8-15.3C1452.9,1354,1451,1352.3,1450.1,1339.7L1450.1,1339.7z M1410,1242.6c-0.9,12.8-2.8,14.5-15,15.5&#xD;&#xA;			c12.2,1,14.1,2.7,15,15.5c0.9-12.8,2.8-14.5,15-15.5C1412.8,1257.1,1410.9,1255.3,1410,1242.6z" fill="#fff" fill-rule="evenodd"/>
  <path clip-rule="evenodd" d="M593.9,496.4h632.7c49.4,0,89.8,40.4,89.8,89.8v869.7c0,49.4-40.4,89.8-89.8,89.8H593.9&#xD;&#xA;			c-49.4,0-89.8-40.4-89.8-89.8V586.2C504.1,536.8,544.5,496.4,593.9,496.4z" fill="#4f8dcb" fill-rule="evenodd"/>
  <path clip-rule="evenodd" d="M593.9,521.8h632.7c35.4,0,64.4,29,64.4,64.4v869.7c0,35.4-29,64.4-64.4,64.4H593.9&#xD;&#xA;			c-35.4,0-64.4-29-64.4-64.4V586.2C529.5,550.8,558.4,521.8,593.9,521.8z" fill="#d1e4f6" fill-rule="evenodd"/>
  <rect clip-rule="evenodd" fill="#eef8fb" fill-rule="evenodd" height="656.4" transform="matrix(.00792 -1 1 .00792 -89.054 1887.693)" width="897.2" x="458.2" y="660.5"/>
  <path clip-rule="evenodd" d="M753.1,456.8h111.3v-23.4c0-25.2,20.7-45.9,45.9-45.9l0,0c25.2,0,45.9,20.7,45.9,45.9v23.4h111.3&#xD;&#xA;			c15.3,0,27.7,12.5,27.7,27.7v52.8c0,15.3-12.5,27.7-27.7,27.7H753.1c-15.3,0-27.7-12.5-27.7-27.7v-52.8&#xD;&#xA;			C725.3,469.2,737.8,456.8,753.1,456.8L753.1,456.8z M910.2,414.8c-11.2,0-20.3,9.1-20.3,20.3c0,11.2,9.1,20.3,20.3,20.3&#xD;&#xA;			c11.2,0,20.3-9.1,20.3-20.3C930.5,423.9,921.5,414.8,910.2,414.8z" fill="#4f8dcb" fill-rule="evenodd"/>
  <path clip-rule="evenodd" d="M734.2,607.8h459.1c1.8,0,3.2,1.4,3.2,3.2l0,0c0,1.8-1.5,3.2-3.2,3.2H734.2c-1.8,0-3.2-1.4-3.2-3.2l0,0&#xD;&#xA;		C731,609.2,732.4,607.8,734.2,607.8z" fill="#8ab9e8" fill-rule="evenodd"/>
  <path clip-rule="evenodd" d="M734.2,639.4h339.1c1.8,0,3.2,1.4,3.2,3.2l0,0c0,1.8-1.5,3.2-3.2,3.2H734.2c-1.7,0-3.2-1.4-3.2-3.2l0,0&#xD;&#xA;		C731,640.8,732.4,639.4,734.2,639.4z" fill="#8ab9e8" fill-rule="evenodd"/>
  <path clip-rule="evenodd" d="M734.2,1175.2h459.1c1.8,0,3.2,1.4,3.2,3.2l0,0c0,1.8-1.5,3.2-3.2,3.2H734.2c-1.8,0-3.2-1.4-3.2-3.2l0,0&#xD;&#xA;		C731,1176.6,732.4,1175.2,734.2,1175.2z" fill="#8ab9e8" fill-rule="evenodd"/>
  <g>
    <path clip-rule="evenodd" d="M649.8,1174.5c0-10.9,8.8-19.7,19.7-19.7c10.9,0,19.7,8.8,19.7,19.7c0,10.9-8.8,19.7-19.7,19.7&#xD;&#xA;			C658.6,1194.1,649.8,1185.3,649.8,1174.5L649.8,1174.5z M669.5,1197.5c12.7,0,23.1-10.3,23.1-23.1c0-12.7-10.3-23.1-23.1-23.1&#xD;&#xA;			c-12.7,0-23.1,10.3-23.1,23.1C646.4,1187.2,656.7,1197.5,669.5,1197.5z" fill="#98c4f1" fill-rule="evenodd"/>
    <path clip-rule="evenodd" d="M669.5,1163.8c-5.9,0-10.6,4.8-10.6,10.6c0,5.9,4.8,10.6,10.6,10.6c5.9,0,10.6-4.8,10.6-10.6&#xD;&#xA;			C680.1,1168.6,675.4,1163.8,669.5,1163.8z" fill="#8ab9e8" fill-rule="evenodd"/>
  </g>
  <path clip-rule="evenodd" d="M734.2,1271.9h416.2c1.8,0,3.2,1.4,3.2,3.2l0,0c0,1.8-1.5,3.2-3.2,3.2H734.2c-1.7,0-3.2-1.4-3.2-3.2l0,0&#xD;&#xA;		C731,1273.3,732.4,1271.9,734.2,1271.9z" fill="#8ab9e8" fill-rule="evenodd"/>
  <g>
    <path clip-rule="evenodd" d="M649.8,1271.1c0-10.9,8.8-19.7,19.7-19.7c10.9,0,19.7,8.8,19.7,19.7c0,10.9-8.8,19.7-19.7,19.7&#xD;&#xA;			C658.6,1290.8,649.8,1282,649.8,1271.1L649.8,1271.1z M669.5,1294.2c12.7,0,23.1-10.3,23.1-23.1c0-12.7-10.3-23.1-23.1-23.1&#xD;&#xA;			c-12.7,0-23.1,10.3-23.1,23.1C646.4,1283.9,656.7,1294.2,669.5,1294.2z" fill="#98c4f1" fill-rule="evenodd"/>
    <path clip-rule="evenodd" d="M669.5,1260.5c-5.9,0-10.6,4.8-10.6,10.6c0,5.9,4.8,10.6,10.6,10.6c5.9,0,10.6-4.8,10.6-10.6&#xD;&#xA;			C680.1,1265.3,675.4,1260.5,669.5,1260.5z" fill="#8ab9e8" fill-rule="evenodd"/>
  </g>
  <path clip-rule="evenodd" d="M734.2,1368.5h459.1c1.8,0,3.2,1.4,3.2,3.2l0,0c0,1.8-1.5,3.2-3.2,3.2H734.2c-1.8,0-3.2-1.4-3.2-3.2l0,0&#xD;&#xA;		C731,1370,732.4,1368.5,734.2,1368.5z" fill="#8ab9e8" fill-rule="evenodd"/>
  <g>
    <path clip-rule="evenodd" d="M649.8,1367.8c0-10.9,8.8-19.7,19.7-19.7c10.9,0,19.7,8.8,19.7,19.7c0,10.9-8.8,19.7-19.7,19.7&#xD;&#xA;			C658.6,1387.5,649.8,1378.7,649.8,1367.8L649.8,1367.8z M669.5,1390.9c12.7,0,23.1-10.3,23.1-23.1c0-12.7-10.3-23.1-23.1-23.1&#xD;&#xA;			c-12.7,0-23.1,10.3-23.1,23.1C646.4,1380.5,656.7,1390.9,669.5,1390.9z" fill="#98c4f1" fill-rule="evenodd"/>
    <path clip-rule="evenodd" d="M669.5,1357.2c-5.9,0-10.6,4.8-10.6,10.6c0,5.9,4.8,10.6,10.6,10.6c5.9,0,10.6-4.8,10.6-10.6&#xD;&#xA;			C680.1,1361.9,675.4,1357.2,669.5,1357.2z" fill="#8ab9e8" fill-rule="evenodd"/>
  </g>
  <path clip-rule="evenodd" d="M734.2,677.1h459.1c1.8,0,3.2,1.4,3.2,3.2l0,0c0,1.8-1.5,3.2-3.2,3.2H734.2c-1.8,0-3.2-1.4-3.2-3.2l0,0&#xD;&#xA;		C731,678.6,732.4,677.1,734.2,677.1z" fill="#8ab9e8" fill-rule="evenodd"/>
  <g>
    <path clip-rule="evenodd" d="M906.3,738.3c0,0,31.1-51.4,93.6-52c55.8-0.6,94.7,51.7,95.2,112.8c0.7,70.7-51,155-186.3,229&#xD;&#xA;			c-136.6-71.5-189.8-154.8-190.3-225.7c-0.6-61.1,37.4-113.9,93.1-114.4C874.2,687.5,906.3,738.3,906.3,738.3z" fill="#fb9674" fill-rule="evenodd"/>
    <path clip-rule="evenodd" d="M730.4,860.3l78.2-1.6L866,770c1.8-2.8,5.6-3.6,8.4-1.8c1.7,1.1,2.7,2.9,2.8,4.8l7.5,164.3l81-131.2&#xD;&#xA;			c1.8-2.8,5.5-3.7,8.3-2c1.4,0.8,2.3,2.1,2.7,3.6l0,0l13,48.3l89.6,0.7l5.2,0.2l-5,11.9l-94.1-0.7c-2.8,0.2-5.5-1.6-6.3-4.5&#xD;&#xA;			l-10.5-39.2l-83.8,135.7c-1,1.8-2.8,3-5,3.1c-3.3,0.1-6.2-2.5-6.3-5.8l-7.5-165L817,867.9l0,0c-1.1,1.6-2.9,2.7-5,2.8l-76.1,2.2&#xD;&#xA;			L730.4,860.3z" fill="#fff" fill-rule="evenodd"/>
  </g>
  <g>
    <path clip-rule="evenodd" d="M678.1,694.9h-42.9l2,24.7c0.3,3.4-4,5.3-6.3,2.7l-24.9-27.4H390.3c-11.1,0-20.2-9-20.2-20.2l0-78.6&#xD;&#xA;			c0-11.1,9-20.2,20.2-20.2h287.8c11.1,0,20.2,9,20.2,20.2v78.6C698.3,685.9,689.3,694.9,678.1,694.9z" fill="#fb9674" fill-rule="evenodd"/>
    <path clip-rule="evenodd" d="M669.2,615.6h-38.5c-2.3,0-4.2-1.9-4.2-4.2c0-2.3,1.9-4.2,4.2-4.2l38.5,0c2.3,0,4.2,1.9,4.2,4.2&#xD;&#xA;			C673.4,613.7,671.6,615.6,669.2,615.6L669.2,615.6z M506.2,663.6H399.4c-2.3,0-4.2-1.9-4.2-4.2c0-2.3,1.9-4.2,4.2-4.2h106.8&#xD;&#xA;			c2.3,0,4.2,1.9,4.2,4.2C510.4,661.7,508.5,663.6,506.2,663.6L506.2,663.6z M627.4,663.6h-104c-2.3,0-4.2-1.9-4.2-4.2&#xD;&#xA;			c0-2.3,1.9-4.2,4.2-4.2h104c2.3,0,4.2,1.9,4.2,4.2C631.6,661.7,629.7,663.6,627.4,663.6L627.4,663.6z M465.5,639.6h-66.1&#xD;&#xA;			c-2.3,0-4.2-1.9-4.2-4.2c0-2.3,1.9-4.2,4.2-4.2h66.1c2.3,0,4.2,1.9,4.2,4.2C469.7,637.7,467.8,639.6,465.5,639.6L465.5,639.6z&#xD;&#xA;			 M669.2,639.6H484c-2.3,0-4.2-1.9-4.2-4.2c0-2.3,1.9-4.2,4.2-4.2h185.2c2.3,0,4.2,1.9,4.2,4.2&#xD;&#xA;			C673.4,637.7,671.6,639.6,669.2,639.6L669.2,639.6z M613,615.6H399.4c-2.3,0-4.2-1.9-4.2-4.2c0-2.3,1.9-4.2,4.2-4.2l213.5,0&#xD;&#xA;			c2.3,0,4.2,1.9,4.2,4.2C617.2,613.7,615.3,615.6,613,615.6z" fill="#fdfdfd" fill-rule="evenodd"/>
  </g>
  <g>
    <path clip-rule="evenodd" d="M959.3,1035.7h52.2l-2.4-30.1c-0.3-4.2,4.8-6.4,7.6-3.3l30.3,33.4h262.4c13.5,0,24.5,11,24.5,24.5l0,95.7&#xD;&#xA;			c0,13.5-11,24.5-24.5,24.5H959.3c-13.5,0-24.5-11-24.5-24.5v-95.7C934.8,1046.7,945.8,1035.7,959.3,1035.7z" fill="#86bdf4" fill-rule="evenodd"/>
    <path clip-rule="evenodd" d="M1298.4,1132.2h-46.8c-2.8,0-5.1,2.3-5.1,5.1c0,2.8,2.3,5.1,5.1,5.1l46.8,0c2.8,0,5.1-2.3,5.1-5.1&#xD;&#xA;			C1303.5,1134.5,1301.2,1132.2,1298.4,1132.2L1298.4,1132.2z M1100,1073.8H970.2c-2.8,0-5.1,2.3-5.1,5.1c0,2.8,2.3,5.1,5.1,5.1&#xD;&#xA;			H1100c2.8,0,5.1-2.3,5.1-5.1C1105.2,1076.1,1102.9,1073.8,1100,1073.8L1100,1073.8z M1247.5,1073.8H1121c-2.8,0-5.1,2.3-5.1,5.1&#xD;&#xA;			c0,2.8,2.3,5.1,5.1,5.1h126.5c2.8,0,5.1-2.3,5.1-5.1C1252.6,1076.1,1250.3,1073.8,1247.5,1073.8L1247.5,1073.8z M1050.6,1103&#xD;&#xA;			h-80.4c-2.8,0-5.1,2.3-5.1,5.1c0,2.8,2.3,5.1,5.1,5.1h80.4c2.8,0,5.1-2.3,5.1-5.1C1055.7,1105.3,1053.4,1103,1050.6,1103&#xD;&#xA;			L1050.6,1103z M1298.4,1103h-225.3c-2.8,0-5.1,2.3-5.1,5.1c0,2.8,2.3,5.1,5.1,5.1h225.3c2.8,0,5.1-2.3,5.1-5.1&#xD;&#xA;			C1303.5,1105.3,1301.2,1103,1298.4,1103L1298.4,1103z M1229.9,1132.2H970.2c-2.8,0-5.1,2.3-5.1,5.1c0,2.8,2.3,5.1,5.1,5.1l259.8,0&#xD;&#xA;			c2.8,0,5.1-2.3,5.1-5.1C1235,1134.5,1232.7,1132.2,1229.9,1132.2z" fill="#fdfdfd" fill-rule="evenodd"/>
  </g>
  <g>
    <path clip-rule="evenodd" d="M1159.1,1327.1c-69.4,25-98.4,86.4-70.7,153.6c27.7,67.2,96.8,92.5,164.5,62.4&#xD;&#xA;			c67.7-30.1,63.8-97.3,45.4-150.6C1280,1339.2,1228.5,1302.1,1159.1,1327.1z" fill="#f47a44" fill-rule="evenodd"/>
    <path clip-rule="evenodd" d="M1173.6,1332.5c-59,30-90.6,81.8-64.5,145.3c26.1,63.4,91.4,87.3,155.2,58.9c63.8-28.4,60.2-91.8,42.9-142.1&#xD;&#xA;			C1289.9,1344.2,1232.6,1302.5,1173.6,1332.5z" fill="#ffe1db" fill-rule="evenodd"/>
    <path clip-rule="evenodd" d="M1263,1351.7c7,4.6,11.3,9.5,13.4,14.6c2.6,6.4,1.9,12.8-1,18.9c-2.8,5.9-7.6,11.5-13.1,16.4&#xD;&#xA;			c-10.6,9.2-24,15.7-31.5,16.4c-3.1,0.3-5.8-0.7-7.9-2.4c-2.5-2-4.1-4.9-4.4-7.4c-1.2-9.2-0.4-24.2,3.6-37.1&#xD;&#xA;			c2.2-7.1,5.4-13.7,9.7-18.3c4.4-4.8,10.1-7.5,17-6.7C1253.1,1346.5,1257.8,1348.3,1263,1351.7L1263,1351.7z M1308.1,1446.2&#xD;&#xA;			L1308.1,1446.2c1.5-4,2-9,1.3-15.2c-0.9-8.3-3.5-14.3-7-18.5c-4.5-5.2-10.6-7.4-17.4-7.6c-6.6-0.2-13.7,1.6-20.5,4.4&#xD;&#xA;			c-13,5.3-24.8,14.5-28.8,20.8c-1.7,2.6-1.9,5.5-1.4,8.1c0.7,3.1,2.6,5.9,4.7,7.3c7.6,5.2,21.5,11.1,34.8,13.4&#xD;&#xA;			c7.4,1.2,14.6,1.3,20.7-0.5C1300.7,1456.5,1305.6,1452.7,1308.1,1446.2L1308.1,1446.2z M1266.3,1521.9L1266.3,1521.9&#xD;&#xA;			c-6.7,1.9-12.7,0.2-17.9-3.7c-5-3.8-9.3-9.7-12.7-16.4c-6.1-12-9.6-26.7-9.9-36c-0.1-2.5,1-5.7,3.1-8.1c1.8-2,4.2-3.5,7.3-3.7&#xD;&#xA;			c7.5-0.6,21.9,3.5,33.9,10.8c6.3,3.8,12,8.5,15.7,13.9c3.9,5.5,5.7,11.8,4.2,18.5c-1.2,5.3-4.5,10.9-10.7,16.6&#xD;&#xA;			C1274.7,1518.2,1270.4,1520.8,1266.3,1521.9L1266.3,1521.9z M1202.4,1542.1L1202.4,1542.1c6.2,0.3,11.2-0.6,15.1-2.3&#xD;&#xA;			c6.4-2.9,9.9-8,11.3-14.4c1.4-6.1,0.8-13.4-0.9-20.7c-3.1-13.2-9.9-26.6-15.6-33.9c-1.6-2-4.4-3.7-7.6-4.2c-2.6-0.4-5.5,0.1-8,1.9&#xD;&#xA;			c-6.1,4.4-14.5,16.8-18.9,30.1c-2.4,7-3.7,14.2-3.1,20.8c0.6,6.7,3.2,12.7,8.7,16.9C1187.8,1539.5,1194,1541.7,1202.4,1542.1&#xD;&#xA;			L1202.4,1542.1z M1128.4,1498.9L1128.4,1498.9c-5.3-6.5-7.9-12.5-8.4-17.9c-0.6-6.9,2.1-12.8,6.6-17.8c4.4-4.8,10.7-8.7,17.4-11.7&#xD;&#xA;			c12.8-5.6,27.6-7.7,35-6.2c3.1,0.6,5.3,2.4,6.8,4.6c1.8,2.7,2.4,5.9,2,8.4c-1.6,9.1-6.9,23.2-14.6,34.3&#xD;&#xA;			c-4.3,6.2-9.2,11.4-14.7,14.5c-5.7,3.2-11.8,4.1-18.2,1.3C1136.4,1506.8,1132.4,1503.7,1128.4,1498.9L1128.4,1498.9z&#xD;&#xA;			 M1114.9,1403.5c3.6-7.6,7.9-12.4,12.7-15.2c6-3.5,12.5-3.6,18.9-1.5c6.3,2,12.4,6,18,10.8c10.5,9.3,18.7,21.7,20.5,29.1&#xD;&#xA;			c0.7,3,0,5.8-1.3,8.1c-1.7,2.7-4.3,4.7-6.8,5.4c-8.9,2.5-24,3.6-37.3,1.3c-7.4-1.2-14.3-3.5-19.4-7.2c-5.3-3.8-8.7-9-8.9-16&#xD;&#xA;			C1111.1,1414,1112.2,1409.1,1114.9,1403.5L1114.9,1403.5L1114.9,1403.5z M1174.1,1342.2c-5.9,2-10.2,4.7-13.1,7.8&#xD;&#xA;			c-4.9,5-6.2,11.1-5.1,17.6c1,6.2,4.2,12.7,8.5,18.8c7.7,11.1,19.1,21,27.1,25.6c2.2,1.3,5.5,1.8,8.6,1.1c2.6-0.6,5-2.1,6.7-4.7&#xD;&#xA;			c4-6.4,7.1-21,6.3-35c-0.4-7.3-1.9-14.6-4.9-20.4c-3.1-6-7.7-10.6-14.4-12.4C1188.5,1339.1,1182,1339.4,1174.1,1342.2&#xD;&#xA;			L1174.1,1342.2L1174.1,1342.2z M1201.2,1416.4c-6.2,3.1-10.9,7.5-13.2,12.8c-2.2,4.9-2.4,10.6,0.2,16.9c0.1,0.3,0.2,0.6,0.3,0.7&#xD;&#xA;			c2.7,6.1,7.2,10.3,12.7,12.3c5.4,2,11.7,1.9,17.9-0.6c0.3-0.1,0.6-0.2,0.8-0.3c5.8-2.6,8.9-6.6,10.3-11.2&#xD;&#xA;			c1.7-5.7,0.6-12.2-1.3-17.9c-0.3-1-0.7-1.9-1.2-2.8c-2.1-4.1-5.5-7.7-9.6-9.9c-4.2-2.2-9.1-2.9-14.3-1.1&#xD;&#xA;			C1203,1415.6,1202.1,1415.9,1201.2,1416.4L1201.2,1416.4z" fill="#fabea7" fill-rule="evenodd"/>
    <path clip-rule="evenodd" d="M1223,1434.1c-0.6-1,12.7-23.7,21.1-13.1C1252.6,1431.5,1224.2,1436.2,1223,1434.1z" fill="#ea7b37" fill-rule="evenodd"/>
    <path clip-rule="evenodd" d="M1199.4,1416.7c-1.2,0.2-18.5-19.4-5.9-24.2C1206.1,1387.8,1201.7,1416.3,1199.4,1416.7z" fill="#ea7b37" fill-rule="evenodd"/>
    <path clip-rule="evenodd" d="M1208.7,1456.7c1.2,0,14,22.9,0.6,24.9C1195.9,1483.5,1206.3,1456.7,1208.7,1456.7z" fill="#ea7b37" fill-rule="evenodd"/>
    <path clip-rule="evenodd" d="M1202.6,1379c0,1.7,1.4,3.1,3.2,3c1.7,0,3.1-1.4,3-3.2c0-0.1-0.4-46.9-33.9-30c-1.5,0.8-2.1,2.6-1.4,4.2&#xD;&#xA;			c0.8,1.5,2.6,2.1,4.2,1.4C1202.2,1342,1202.6,1378.9,1202.6,1379z" fill="#fff5df" fill-rule="evenodd"/>
    <path clip-rule="evenodd" d="M1162,1413.3c1.1,1.3,3,1.6,4.4,0.5c1.3-1.1,1.6-3,0.5-4.4c-0.1-0.1-29-36.9-45.2-3&#xD;&#xA;			c-0.7,1.5-0.1,3.4,1.5,4.1c1.5,0.7,3.4,0.1,4.1-1.5C1139.1,1384.2,1162,1413.2,1162,1413.3z" fill="#fff5df" fill-rule="evenodd"/>
    <path clip-rule="evenodd" d="M1247.1,1398.1c-1.4,1-1.7,2.9-0.7,4.3c1,1.4,2.9,1.7,4.3,0.7c0.1-0.1,38-27.5,4.9-45&#xD;&#xA;			c-1.5-0.8-3.4-0.2-4.2,1.3c-0.8,1.5-0.2,3.4,1.3,4.2C1277,1376.4,1247.2,1398,1247.1,1398.1z" fill="#fff5df" fill-rule="evenodd"/>
    <path clip-rule="evenodd" d="M1266.4,1448.2c-1.7-0.4-3.3,0.6-3.8,2.3c-0.4,1.7,0.6,3.3,2.3,3.8c0.1,0,45.5,11.6,37.7-25.1&#xD;&#xA;			c-0.4-1.7-2-2.7-3.7-2.4c-1.7,0.4-2.7,2-2.4,3.7C1302.2,1457.2,1266.5,1448.2,1266.4,1448.2z" fill="#fff5df" fill-rule="evenodd"/>
    <path clip-rule="evenodd" d="M1242.1,1486c-0.5-1.6-2.2-2.6-3.8-2.1c-1.6,0.5-2.6,2.2-2.1,3.8c0,0.1,12.6,45.2,40.5,20.2&#xD;&#xA;			c1.3-1.1,1.4-3.1,0.2-4.4c-1.1-1.3-3.1-1.4-4.4-0.2C1252,1521.7,1242.1,1486.1,1242.1,1486z" fill="#fff5df" fill-rule="evenodd"/>
    <path clip-rule="evenodd" d="M1196.7,1496.6c1-1.4,0.7-3.3-0.6-4.3c-1.4-1-3.3-0.7-4.3,0.6c-0.1,0.1-28.2,37.5,8.6,44.5&#xD;&#xA;			c1.7,0.3,3.3-0.8,3.6-2.5c0.3-1.7-0.8-3.3-2.5-3.6C1174.5,1526.2,1196.6,1496.7,1196.7,1496.6z" fill="#fff5df" fill-rule="evenodd"/>
    <path clip-rule="evenodd" d="M1157.8,1460.6c1.7-0.4,2.6-2.1,2.2-3.8c-0.4-1.7-2.1-2.6-3.8-2.2c-0.1,0-45.5,11.3-21.3,40&#xD;&#xA;			c1.1,1.3,3.1,1.5,4.4,0.4c1.3-1.1,1.5-3.1,0.4-4.4C1121.9,1469.5,1157.7,1460.6,1157.8,1460.6z" fill="#fff5df" fill-rule="evenodd"/>
    <path clip-rule="evenodd" d="M1206.7,1421.3c-1.7-0.4-3.3,0.5-3.8,2.2c-0.4,1.7,0.5,3.4,2.2,3.8c0.1,0,22.7,5.8,5.7,23.1&#xD;&#xA;			c-1.2,1.2-1.2,3.2,0,4.4c1.2,1.2,3.2,1.2,4.4,0C1239.8,1429.8,1206.8,1421.3,1206.7,1421.3z" fill="#fff5df" fill-rule="evenodd"/>
  </g>
  <g>
    <path clip-rule="evenodd" d="M996,1264.1c-5.2,0.1-9.6-4-9.8-9.2c-0.1-5.3,4-9.6,9.2-9.8c0.2,0,54.7-2.9,43.6,127.1&#xD;&#xA;			c-0.5,5.2-5.1,9.1-10.3,8.6c-5.2-0.5-9.1-5.1-8.6-10.3C1029.4,1262,996.1,1264.1,996,1264.1z" fill="#fb9674" fill-rule="evenodd"/>
    <path clip-rule="evenodd" d="M1029.8,1325.8c0,0-155.1-48.7-119.9,133.7c32.3,167.5,124.7,94.8,146.5,102.3&#xD;&#xA;			c21.8,7.5,109.9,15.9,117.8-109.6C1182.1,1326.7,1142.4,1287.7,1029.8,1325.8z" fill="#fb9674" fill-rule="evenodd"/>
    <path clip-rule="evenodd" d="M955.8,1557.6c38.9,30.7,85.8-0.8,100.6,4.2c21.8,7.5,109.9,15.9,117.8-109.6&#xD;&#xA;			c5.9-93.9-14.8-139.3-72.7-140.4c20.7,12.4,27.8,41.8,26.9,97.3c-0.9,55.5-19.8,140.1-82.5,124.6&#xD;&#xA;			C999.8,1522.3,981.5,1562.3,955.8,1557.6z" fill="#f47a44" fill-rule="evenodd"/>
    <path clip-rule="evenodd" d="M1106.5,1528.6c2-0.7,4.1,0.4,4.8,2.4c0.7,2-0.4,4.1-2.4,4.8c-4.7,1.6-7.8,2.6-10.7,3.4&#xD;&#xA;			c-2.9,0.8-5.5,1.4-9.2,2.2c-2.1,0.4-4.1-0.9-4.5-3c-0.4-2.1,0.9-4.1,3-4.5c3.6-0.7,6-1.3,8.7-2&#xD;&#xA;			C1098.6,1531.2,1101.7,1530.2,1106.5,1528.6L1106.5,1528.6z M1141,1371.9c-0.5-2,0.7-4.1,2.8-4.6c2-0.5,4.1,0.7,4.6,2.8&#xD;&#xA;			c0.1,0.3,30.4,116.6-22.6,155.3c-1.7,1.2-4.1,0.9-5.3-0.8c-1.2-1.7-0.9-4.1,0.8-5.3C1170,1483.5,1141,1372.2,1141,1371.9&#xD;&#xA;			L1141,1371.9z" fill="#e9f2db" fill-rule="evenodd"/>
    <path clip-rule="evenodd" d="M927,1402.8c0.3-1.6,1.7-2.6,3.3-2.4c1.6,0.2,2.6,1.7,2.4,3.3c-0.2,1.4-0.4,2.3-0.5,3.1&#xD;&#xA;			c-0.1,0.8-0.2,1.7-0.3,3.2c-0.1,1.6-1.5,2.7-3.1,2.6c-1.6-0.1-2.7-1.5-2.6-3.1c0.1-1.5,0.2-2.5,0.3-3.5&#xD;&#xA;			C926.7,1405.1,926.8,1404.2,927,1402.8L927,1402.8z M992.6,1340.4c1.6-0.1,2.9,1.2,3,2.7c0.1,1.6-1.2,2.9-2.7,3&#xD;&#xA;			c-14.3,0.6-26.6,5.1-36.3,12.7c-10,7.8-17.3,19-21.3,32.5c-0.2,0.8-0.4,1.5-0.6,2.3c-0.2,0.8-0.4,1.5-0.6,2.3&#xD;&#xA;			c-0.4,1.5-1.9,2.5-3.4,2.1c-1.5-0.4-2.5-1.9-2.1-3.4c0.2-0.8,0.4-1.7,0.6-2.5c0.2-0.9,0.5-1.7,0.7-2.4&#xD;&#xA;			c4.4-14.7,12.3-26.8,23.3-35.4C963.7,1345.9,977.1,1341,992.6,1340.4L992.6,1340.4z" fill="#fdfdfd" fill-rule="evenodd"/>
    <path clip-rule="evenodd" d="M1087.2,1229.2c35-7.2,65.2-31.4,70.4-32.2c1.6-0.3,3,0.1,2.6,3.2c-13.9,105.5-98,120.3-115.8,95.5&#xD;&#xA;			C1035.1,1261,1054.4,1239.3,1087.2,1229.2z" fill="#f47a44" fill-rule="evenodd"/>
    <path clip-rule="evenodd" d="M1087.2,1229.2c35-7.2,65.2-31.4,70.4-32.2c0.3-0.1,0.6-0.1,0.9-0.1c-23.4,55.8-79.3,93.4-113.2,100&#xD;&#xA;			c-0.4-0.4-0.7-0.8-1-1.3C1035.1,1261,1054.4,1239.3,1087.2,1229.2z" fill="#fb9674" fill-rule="evenodd"/>
    <path clip-rule="evenodd" d="M1049.9,1295c-1.6,0.3-3-0.7-3.3-2.3c-0.3-1.5,0.8-3,2.3-3.3c0.1,0,51.2-8.5,101.2-82.4&#xD;&#xA;			c0.9-1.3,2.7-1.7,4-0.8c1.3,0.9,1.7,2.7,0.8,4C1103.4,1286.1,1050,1295,1049.9,1295z" fill="#fff" fill-rule="evenodd"/>
    <path clip-rule="evenodd" d="M1076.7,1284.8c-1.4-0.7-2-2.4-1.4-3.8c0.7-1.4,2.4-2,3.8-1.4c0,0,15.7,7.6,28.9,5.1c1.5-0.3,3,0.7,3.3,2.3&#xD;&#xA;			c0.3,1.5-0.7,3-2.3,3.3C1094.1,1293.2,1076.8,1284.9,1076.7,1284.8z" fill="#fff" fill-rule="evenodd"/>
    <path clip-rule="evenodd" d="M1060.4,1288.1c0.2,1.6-1,3-2.6,3.1c-1.6,0.2-3-1-3.1-2.6c0-0.1-2.3-22.4,7.8-39.1c0.8-1.3,2.6-1.8,3.9-1&#xD;&#xA;			c1.4,0.8,1.8,2.6,1,3.9C1058.3,1267.6,1060.4,1288,1060.4,1288.1z" fill="#fff" fill-rule="evenodd"/>
    <path clip-rule="evenodd" d="M1090.1,1273.3c0.1,1.6-1.1,2.9-2.6,3c-1.6,0.1-2.9-1.1-3-2.6c0-0.1-1.9-25.1,8.2-41.8c0.8-1.3,2.6-1.8,3.9-1&#xD;&#xA;			c1.3,0.8,1.8,2.6,1,3.9C1088.3,1250,1090.1,1273.2,1090.1,1273.3z" fill="#fff" fill-rule="evenodd"/>
    <path clip-rule="evenodd" d="M1116.1,1255.5c-1.4-0.7-2-2.4-1.4-3.8c0.7-1.4,2.4-2,3.8-1.4c0,0,9.3,4.5,17.4,3c1.5-0.3,3,0.7,3.3,2.3&#xD;&#xA;			c0.3,1.5-0.7,3-2.3,3.3C1127.1,1260.8,1116.1,1255.5,1116.1,1255.5z" fill="#fff" fill-rule="evenodd"/>
    <path clip-rule="evenodd" d="M1115.2,1227c0.5-1.5,2.1-2.4,3.6-1.9c1.5,0.5,2.4,2.1,1.9,3.6c0,0-3.1,9.9-0.5,17.6c0.5,1.5-0.3,3.1-1.8,3.6&#xD;&#xA;			c-1.5,0.5-3.1-0.3-3.6-1.8C1111.5,1238.6,1115.1,1227,1115.2,1227z" fill="#fff" fill-rule="evenodd"/>
    <path clip-rule="evenodd" d="M908.1,1326.1c1-1.2,2.8-1.5,4-0.5c1.2,1,1.4,2.8,0.5,4c-13.5,17.1-21.1,32.3-24.1,49.1&#xD;&#xA;			c-3,16.8-1.3,35.3,3.9,59.1c0.3,1.5-0.6,3.1-2.2,3.4c-1.5,0.3-3.1-0.6-3.4-2.2c-5.4-24.4-7.1-43.6-4-61.3&#xD;&#xA;			C886,1360,894,1344,908.1,1326.1z" fill="#fb9674" fill-rule="evenodd"/>
    <path clip-rule="evenodd" d="M866.9,1365.8c0.3-1.6,1.8-2.6,3.3-2.3c1.5,0.3,2.6,1.8,2.3,3.3c-3.8,21.2-2.8,41.5,0.9,60.1&#xD;&#xA;			c3.7,18.6,10,35.4,16.9,49.7c0.7,1.4,0.1,3.1-1.3,3.8c-1.4,0.7-3.1,0.1-3.8-1.3c-7.1-14.7-13.6-32-17.4-51.1&#xD;&#xA;			C864,1408.8,862.9,1387.8,866.9,1365.8z" fill="#fb9674" fill-rule="evenodd"/>
  </g>
  <g>
    <path clip-rule="evenodd" d="M1135.5,451.6h304.1c10.6,0,19.3,8.7,19.3,19.3v157.2c0,10.6-8.7,19.3-19.3,19.3h-304.1&#xD;&#xA;			c-10.6,0-19.3-8.7-19.3-19.3V470.9C1116.2,460.3,1124.9,451.6,1135.5,451.6z" fill="#fff" fill-rule="evenodd"/>
    <path clip-rule="evenodd" d="M1135.5,450.3h54c-0.5,0.7-0.7,1.6-0.7,2.4h-53.2c-9.9,0-18.1,8.1-18.1,18.1v41.6c-0.8-0.5-1.6-0.7-2.4-0.7&#xD;&#xA;			v-40.9C1115,459.6,1124.2,450.3,1135.5,450.3L1135.5,450.3z M1117.4,555.1v73c0,9.9,8.1,18.1,18.1,18.1h134.6&#xD;&#xA;			c0.1,0.7,0.3,1.3,0.4,1.9l-0.7,0.5h-134.3c-11.3,0-20.5-9.2-20.5-20.5v-73C1115.8,555.4,1116.6,555.4,1117.4,555.1L1117.4,555.1z&#xD;&#xA;			 M1374.5,646.2h65.1c9.9,0,18.1-8.1,18.1-18.1V519c1-0.1,1.8-0.6,2.4-1.3v110.4c0,11.3-9.2,20.5-20.5,20.5h-63.4&#xD;&#xA;			C1375.9,647.6,1375.3,646.7,1374.5,646.2L1374.5,646.2z M1457.5,468.3c-1.3-8.7-8.8-15.5-17.9-15.5h-184.9&#xD;&#xA;			c0.3-0.8,0.4-1.6,0.3-2.4h184.6c10.4,0,19.1,7.8,20.4,17.9C1459.2,468.3,1458.2,468.2,1457.5,468.3z" fill="#1e77d0" fill-rule="evenodd"/>
  </g>
  <g>
    <path clip-rule="evenodd" d="M530.8,1013.2c-3-1.4-19.1-1.1-35.2,2.2c1.7-2.6,3.1-6,4.1-10.2c28.7-4.3,25.9-11.4,24.9-14.7&#xD;&#xA;			c-5.8-15.4-9.3-25.2-5.1-29.8c2.1,1,6.7,3.4,8.4,10.1c1.8-1.1,4.1-2.5,4.4-4.6c0.7-6.2,0.5-19,7.5-20.1c1.4,5.6,2.6,11.6,3.7,18&#xD;&#xA;			c2.8,2.3,13.5,42.9-12.8,46.4L530.8,1013.2z" fill="#ffb17d" fill-rule="evenodd"/>
    <path clip-rule="evenodd" d="M524.6,990.5c1.1,3.2-4.2,10.3-25.4,16.8c-3.2-0.5-5.8-3.7-8.6-5c-8.7-4-15.5-10.9-16.9-14.5&#xD;&#xA;			c-16.8-28.1-1.2-41.5,7.3-46.6c1.9-29.1,45.5-6.5,65.5-21.9c9.1,10.9-0.2,26.1-6.6,26.8c-7.1,1.1-6.9,13.9-7.5,20.1&#xD;&#xA;			c-0.3,2.1-2.6,3.5-4.4,4.6c-1.2-4.8-3.7-7-5.9-8.4c-1.9-1.2-2.4-1.9-3.4,0.2C516.2,967.8,519.3,976.6,524.6,990.5z" fill="#284190" fill-rule="evenodd"/>
    <path clip-rule="evenodd" d="M481.3,948.1c3.1-3.4,3.5-6.2,1.4-8.6c-6.6-0.9-12.1,0.6-16.6,4.5C469.3,943.3,474.4,944.7,481.3,948.1z" fill="#284190" fill-rule="evenodd"/>
    <path clip-rule="evenodd" d="M486.9,942.3c-1.5,3-3.4,4.1-5.5,3.2c-2.4-4.3-2.8-8.5-1.3-12.6C480.4,935.4,482.7,938.5,486.9,942.3z" fill="#284190" fill-rule="evenodd"/>
    <path clip-rule="evenodd" d="M488.1,928.7c-0.2,7.9,3.8,12.5,12.1,13.8c14.4-5,22.7-12.4,24.7-22.4C520,924.3,507.7,927.2,488.1,928.7z" fill="#284190" fill-rule="evenodd"/>
    <path clip-rule="evenodd" d="M485.4,996.8c1.4-8.1,7.6-12.2,18.5-12.2c24.5-15.5,21.8,6.3,20.4,19.4&#xD;&#xA;			C518.9,998.9,510.3,1001.7,485.4,996.8z" fill="#284190" fill-rule="evenodd"/>
    <path clip-rule="evenodd" d="M519.6,1001c-2-3.9-6.1-5.2-12.3-3.8c-16.6-5-11.8,5.8-8.9,12.4C500.9,1006.2,506.1,1006.6,519.6,1001z" fill="#284190" fill-rule="evenodd"/>
    <path clip-rule="evenodd" d="M449.2,1039.6c8-7.5,30.2-15.7,43.5-19.7c13.8-1.8,29-2.6,45.4-2.3c27.8-0.3,57.6,0,89.5,0.9&#xD;&#xA;			c31.5-15.3,39.8-16.7,55.8-23.9c4.7-2.1,13.3-6.6,20.1-10.3c3.1,1.6,7.2,8.6,8.4,14.6c-33.5,32.1-54.9,44.9-67.1,51.9&#xD;&#xA;			c-23.7,6.4-46.4,9.9-63.7,11.6c-5,31.8-8.7,62.5-11.3,92.1c5.3,31.1,7.8,52.3,7.5,63.6c-48.6,7.2-87.6,7.4-117.1,0.6&#xD;&#xA;			c0.8-8.9,4.5-21.4,6.8-31c-3.2-39.9-8.3-65.9-11.1-84.3c-9,18.3-17.5,32-25.5,41.2c6.2,16.1,12.1,35.9,17.7,59.3&#xD;&#xA;			c-3.4,4.5-8.3,7.6-14.7,9.2c-7.7-13.4-24.5-44.1-28.9-67C401.2,1127.5,438,1054,449.2,1039.6z" fill="#619fdf" fill-rule="evenodd"/>
    <path clip-rule="evenodd" d="M496.4,1014.7c-1.6,1.5-3.2,3.3-4.7,5.5l1-0.3c13.5-1.8,28.2-2.5,44.1-2.3c-1.6-2.1-3.3-3.9-4.9-5.1&#xD;&#xA;			C528.9,1011,512.6,1011.3,496.4,1014.7z" fill="#4f8dcb" fill-rule="evenodd"/>
    <path clip-rule="evenodd" d="M711.6,997.5c8.3-4.1,14.8-6.9,19.4-11.2c1.7-5.3,4.9-5.5,4-10.1c7.7-9,9.4-9.2,13-10.9&#xD;&#xA;			c-3.1-5.1-10.3-1-21.9,10.3c-7.9,4.6-11.3,3.6-10.1-3c4.8-4.6,4.7-8.5,3.3-10.6c-0.6,0.6-3.2,3.7-7.8,8.5&#xD;&#xA;			c-3.3,5.1-5.6,10-5.5,12.5c-0.1,0.9-0.4,1.6-0.8,2.3C707.6,987.9,710.3,992.9,711.6,997.5z" fill="#ffb17d" fill-rule="evenodd"/>
    <path clip-rule="evenodd" d="M446.5,1205.4c3.3,4.1,7.4,6.3,13.8,12.4l-0.1,0.7l1,0.2c1.4,1.4,2.9,3,4.6,4.8c-3.3,2.7-7.5,0.8-12.7-5.5&#xD;&#xA;			c-0.2,7,1.6,12.3,5.5,15.7c1.9,2.2,3.5,3.9,4.7,5.1c-3.7,6.3-11.3,3.8-23-7.4c-2.3-4.4-2.1-8.7-3.5-12.7c-0.5-2-1.2-4-2.1-6.3&#xD;&#xA;			C439.5,1211,443.4,1208.7,446.5,1205.4L446.5,1205.4z" fill="#ffb17d" fill-rule="evenodd"/>
    <path clip-rule="evenodd" d="M464,1219.3c-5.8,39.4-8.5,101.5-8.2,161.4c-5.6,28.4-5.3,73.9,0.9,166.1c11,2.2,20.5,2.6,28.5,1.3&#xD;&#xA;			c14.3-86,19.7-130.9,16.3-164.2c4.4-24,10.3-67.9,17.9-102.2c7.6,34.2,13.6,78.2,17.9,102.2c-3.4,33.4,2.1,78.2,16.3,164.2&#xD;&#xA;			c8,1.3,17.5,0.9,28.5-1.3c6.2-92.2,6.5-137.7,0.9-166.1c0.4-60.5-2.4-123.1-8.3-162.5C529.4,1224.8,492.5,1225.1,464,1219.3z" fill="#4567c5" fill-rule="evenodd"/>
    <path clip-rule="evenodd" d="M558.5,1564.7c-2.7,2.1-3.4,11.9-1.2,19.4c8.9,4,17.7,2.9,26.2-1.2c4.3-1.7,9.5-4.5,9.4-7.6&#xD;&#xA;			c-0.2-5.9-0.3-6-12.4-12.2c0.2,1.2,0.4,2.3,0.6,3.3l0,0c-0.5,1.4-1.6,2.4-3.6,1.1c-2.2-1.4-1.5-6.1-7.7-6.2&#xD;&#xA;			c-5.2-0.1-5.2,4.9-7.8,6.5C559.2,1569.8,558.6,1566.9,558.5,1564.7z" fill="#284190" fill-rule="evenodd"/>
    <path clip-rule="evenodd" d="M480.7,1564.7c2.7,2.1,3.4,12,1.2,19.4c-8.9,4-17.7,2.9-26.2-1.2c-1.3-0.6-6.5-2.3-6.9-3.7&#xD;&#xA;			c-1.5-5-0.2-11.7,9.9-16.1c-0.2,1.2-0.4,2.3-0.6,3.3l0,0c0.5,1.4,1.6,2.4,3.6,1.1c2.2-1.4,1.5-6.1,7.7-6.2&#xD;&#xA;			c5.2-0.1,5.2,4.9,7.8,6.5C480,1569.7,480.6,1566.9,480.7,1564.7z" fill="#284190" fill-rule="evenodd"/>
    <path clip-rule="evenodd" d="M558.3,1548.7c0.9,7.3,1.2,13.6,0.8,18.8c0.5,1,1.4,1.5,2.9,0.4c2.5-1.7,2.6-6.6,7.8-6.5&#xD;&#xA;			c6.3,0.1,5.5,4.8,7.7,6.2c2,1.3,3.1,0.3,3.6-1.1c-1-4.5-1.5-10.8-1.7-19C571.6,1548.7,564.5,1549.2,558.3,1548.7z" fill="#ffb17d" fill-rule="evenodd"/>
    <path clip-rule="evenodd" d="M480.9,1548.7c-0.9,7.3-1.2,13.6-0.8,18.8c-0.5,1-1.4,1.5-2.9,0.4c-2.5-1.7-2.6-6.6-7.8-6.5&#xD;&#xA;			c-6.3,0.1-5.5,4.8-7.7,6.2c-2,1.3-3.1,0.3-3.6-1.1c1-4.5,1.5-10.8,1.7-19C467.7,1548.7,474.7,1549.2,480.9,1548.7z" fill="#ffb17d" fill-rule="evenodd"/>
    <path clip-rule="evenodd" d="M581,1062.2c-3.6,11.4-23.3,90.5-28.3,94c-14,9.8-24,17.1-29.9,21.9c11.5-6.5,21.2-11,27.7-15.7&#xD;&#xA;			c21.5-15.5,19.4,27,26.8,55.4c0.3-11.3-2.2-32.5-7.5-63.6C572.3,1124.7,576,1094.1,581,1062.2L581,1062.2z M634.8,1014.9&#xD;&#xA;			c4.4,2.2,7.8,4.7,10.2,7.5c-5.3-2.1-11.1-3.4-17.5-4C630.1,1017.2,632.5,1016,634.8,1014.9L634.8,1014.9z M453.5,1087.9&#xD;&#xA;			c0.2,3.2,0.9,8.3,2.3,15.2c2.8,18.5,7.9,44.4,11.1,84.3c-2.2,9.6-5.9,22.1-6.8,31c0.6,0.1,1.2,0.3,1.9,0.4&#xD;&#xA;			c1.1-5.5,3.5-12.8,7-21.9c3.2-8.4,7-2.7,18.2,0.6c-14.3-12.7-11.3-8.7-14.9-27.8C466.4,1138.5,460.2,1111.2,453.5,1087.9z" fill="#4f8dcb" fill-rule="evenodd"/>
  </g>
  <g>
    <path clip-rule="evenodd" d="M1242,710.2h304.1c10.6,0,19.3,8.7,19.3,19.3v157.2c0,10.6-8.7,19.3-19.3,19.3H1242&#xD;&#xA;				c-10.6,0-19.3-8.7-19.3-19.3V729.5C1222.7,718.9,1231.4,710.2,1242,710.2z" fill="#fff" fill-rule="evenodd"/>
    <path clip-rule="evenodd" d="M1242,709h54c-0.5,0.7-0.7,1.6-0.7,2.4H1242c-9.9,0-18.1,8.1-18.1,18.1v41.6c-0.8-0.5-1.5-0.7-2.4-0.7&#xD;&#xA;				v-40.9C1221.5,718.3,1230.8,709,1242,709L1242,709z M1224,813.8v73c0,9.9,8.1,18.1,18.1,18.1h134.6c0.1,0.7,0.3,1.3,0.4,1.9&#xD;&#xA;				l-0.7,0.5H1242c-11.3,0-20.5-9.2-20.5-20.5v-73C1222.3,814,1223.2,814,1224,813.8L1224,813.8z M1481,904.8h65.1&#xD;&#xA;				c9.9,0,18.1-8.1,18.1-18.1V777.7c1-0.1,1.8-0.6,2.4-1.3v110.4c0,11.3-9.2,20.5-20.5,20.5h-63.4&#xD;&#xA;				C1482.5,906.3,1481.9,905.4,1481,904.8L1481,904.8z M1564,727c-1.3-8.7-8.8-15.5-17.9-15.5h-184.9c0.3-0.8,0.4-1.6,0.3-2.4h184.6&#xD;&#xA;				c10.4,0,19.1,7.8,20.4,17.9C1565.7,726.9,1564.8,726.9,1564,727z" fill="#1e77d0" fill-rule="evenodd"/>
    <path clip-rule="evenodd" d="M1336.7,826.2c4.6,7.7,11.9,16.3,18.8,23c6.2,6,13.1,12,20.5,16.4c3.1,1.9,5.2,2.8,9,4l0.2,0l-6.4,6.4&#xD;&#xA;			c-1,1-2.8,0.3-4,0c-2.4-0.7-4.8-2-7-3.3c-7.4-4.4-14.4-10.4-20.6-16.6c-6.4-6.4-13.1-14-17.6-21.6c-1.3-2.2-2.6-4.6-3.3-7&#xD;&#xA;			c-0.4-1.2-1.1-2.9,0-4l6.4-6.4C1333.4,819.9,1335.2,823.6,1336.7,826.2L1336.7,826.2z M1336.2,813.5c-0.4,0.4-0.4,0.9-0.4,1.5l0,0&#xD;&#xA;			c0.1,2.9,2.1,6.8,3.8,9.5c4.8,8.1,11.5,15.6,18.3,22.3c6,5.9,12.9,11.7,19.9,15.9c2.7,1.6,9.2,5.1,11,3.3c1.1-1.1,0.3-4.3-2-8.7&#xD;&#xA;			c-2.5-4.7-6.6-10.5-11.9-16.6l-3.6,3.6l-0.8,0.8l-1-0.5c-2.2-1.1-4.3-2.6-6.3-4.5c-2-1.9-3.8-4.3-5.5-7.3l-0.6-1.1l0.9-0.9&#xD;&#xA;			l3.6-3.6c-6.1-5.3-11.9-9.5-16.6-11.9C1340.4,813.2,1337.3,812.4,1336.2,813.5L1336.2,813.5z M1374.9,836.2l12.6-12.6l21.9-21.9&#xD;&#xA;			l12.6-12.6l1.2-1.2l3.9-3.9c-0.9-1.6-2-3-3.4-4.5l-0.1-0.1l-0.1-0.1l-0.1-0.1l-0.1-0.1l-0.1-0.1h0l-0.1-0.1l0,0l-0.1-0.1h0&#xD;&#xA;			l-0.1-0.1l0,0l-0.1-0.1v0l-0.1-0.1l0,0l-0.1-0.1l0,0l-0.1-0.1l0,0l-0.1-0.1l0,0l-0.1-0.1l0,0l-0.1-0.1l0,0l-0.1-0.1v0l-0.1-0.1&#xD;&#xA;			l0,0l-0.1-0.1v0l-0.1-0.1l0,0l-0.1-0.1l0,0l-0.1-0.1l0,0l-0.1-0.1h0l-0.1-0.1h0l-0.1-0.1h0l-0.1-0.1l0,0l-0.1-0.1l0,0l-0.1-0.1v0&#xD;&#xA;			l-0.1-0.1l0,0l-0.1-0.1l0,0l-0.1-0.1l0,0l-0.1-0.1l0,0l-0.1-0.1l0,0l-0.1-0.1l0,0l-0.1-0.1l0,0l-0.1-0.1l0,0l-0.1-0.1l0,0&#xD;&#xA;			l-0.1-0.1l0,0l-0.1-0.1l0,0l-0.1-0.1l0,0l-0.1-0.1l0,0l-0.1-0.1l0,0l-0.1-0.1l0,0l-0.1-0.1l0,0l-0.1-0.1l0,0l-0.1-0.1l0,0&#xD;&#xA;			l-0.1-0.1l0,0l-0.1-0.1l0,0l-0.1-0.1l0,0l-0.1-0.1l0,0l-0.1-0.1l0,0l-0.1-0.1l0,0l-0.1-0.1l0,0l-0.1-0.1l0,0l-0.1-0.1l0,0&#xD;&#xA;			l-0.1-0.1l0,0l-0.1-0.1l0,0l-0.1-0.1l0,0l-0.1-0.1l0,0l-0.1-0.1l0,0l-0.1-0.1l-0.1-0.1l0,0l-0.1-0.1l0,0l-0.2-0.1l-3.9,3.9&#xD;&#xA;			l-1.2,1.2l0,0l-12.6,12.6l-21.9,21.9l-12.6,12.6l0,0l-1.2,1.2l-3.9,3.9l0.1,0.2l0,0l0.1,0.1l0,0l0.1,0.1l0.1,0.1l0,0l0.1,0.1l0,0&#xD;&#xA;			l0.1,0.1l0,0l0.1,0.1l0,0l0.1,0.1l0,0l0.1,0.1l0,0l0.1,0.1l0,0l0.1,0.1l0,0l0.1,0.1l0,0l0.1,0.1l0,0l0.1,0.1l0,0l0.1,0.1l0,0&#xD;&#xA;			l0.1,0.1l0,0l0.1,0.1l0,0l0.1,0.1l0,0l0.1,0.1l0,0l0.1,0.1l0,0l0.1,0.1l0,0l0.1,0.1l0,0l0.1,0.1l0,0l0.1,0.1l0,0l0.1,0.1l0,0&#xD;&#xA;			l0.1,0.1l0,0l0.1,0.1l0,0l0.1,0.1l0,0l0.1,0.1l0,0l0.1,0.1l0,0l0.1,0.1l0,0l0.1,0.1l0,0l0.1,0.1l0,0l0.1,0.1h0l0.1,0.1l0,0&#xD;&#xA;			l0.1,0.1l0,0l0.1,0.1v0l0.1,0.1l0,0l0.1,0.1h0l0.1,0.1l0,0l0.1,0.1h0l0.1,0.1l0,0l0.1,0.1v0l0.1,0.1l0,0l0.1,0.1l0,0l0.1,0.1h0&#xD;&#xA;			l0.1,0.1v0l0.1,0.1l0,0l0.1,0.1v0l0.1,0.1l0,0l0.1,0.1l0,0l0.1,0.1h0l0.1,0.1l0,0l0.1,0.1l0,0l0.1,0.1l0,0l0.1,0.1h0l0.1,0.1v0&#xD;&#xA;			l0.1,0.1l0,0l0.1,0.1l0.1,0.1l0.1,0.1l0.1,0.1l0.1,0.1c1.4,1.4,2.9,2.5,4.5,3.4l3.9-3.9L1374.9,836.2L1374.9,836.2z M1326.9,836&#xD;&#xA;			c-1.3-2.1-2.5-4.6-3.3-6.9c-0.8-0.2-2.5-0.5-3.2,0.2c-0.7,0.8-0.3,2.7-0.1,3.6c0.6,2.5,2.1,5.2,3.4,7.4c2.2,3.8,4.8,7.3,7.6,10.7&#xD;&#xA;			c2.8,3.4,6,6.9,9.5,10.5c6.4,6.4,13.5,12.6,21.1,17.1c0,0,11.1,6.7,11.4,2.2c0-0.6,0-1.2-0.2-2c-2.3-0.8-4.8-2.1-6.9-3.3&#xD;&#xA;			c-7.6-4.5-14.8-10.7-21.3-17.1C1338.3,851.6,1331.5,843.8,1326.9,836L1326.9,836z M1369.5,885.3c-11-2.2-23.3-13.9-31-21.6&#xD;&#xA;			c-3.8-3.8-7.2-7.6-10.1-11.2c-2.7-3.3-5.3-6.9-7.5-10.5c-1-1.7-1.9-3.4-2.7-5.1l0,0c-0.6-1.3-1-2.7-1.3-4.1l-6.4,6.4&#xD;&#xA;			c-1.3,1.3,0,5.4,3.3,11c3.6,6,9.4,13.3,16.6,20.6c6.4,6.5,13.8,13,21.6,17.6c5.6,3.3,9.7,4.7,11,3.3L1369.5,885.3L1369.5,885.3z&#xD;&#xA;			 M1324.4,869l-6.6,6.6c-2.4,2.4-2.4,6.4,0,8.8c2.4,2.4,6.4,2.4,8.8,0l6.6-6.6c-1.7-1.5-3.3-3.1-4.9-4.8&#xD;&#xA;			C1326.9,871.8,1325.6,870.4,1324.4,869L1324.4,869z M1412.1,750.8c-2.6-1.5-6.2-3.4-9.2-4l6.4-6.4c1-1,2.8-0.3,4,0&#xD;&#xA;			c2.4,0.7,4.8,2,7,3.3c7.6,4.5,15.2,11.1,21.6,17.6c6.2,6.2,12.2,13.2,16.6,20.6c1.3,2.2,2.6,4.6,3.3,7c0.4,1.2,1.1,2.9,0,4&#xD;&#xA;			l-6.4,6.4l0-0.2c-1.2-3.9-2.1-5.9-3.9-9c-4.4-7.4-10.4-14.4-16.4-20.5C1428.4,762.7,1419.8,755.4,1412.1,750.8L1412.1,750.8z&#xD;&#xA;			 M1399.4,750.2c0.4-0.4,0.9-0.4,1.5-0.4h0c2.9,0.1,6.8,2.1,9.5,3.8c8.1,4.8,15.6,11.5,22.3,18.3c5.9,6,11.7,12.9,15.9,19.9&#xD;&#xA;			c1.6,2.7,5.1,9.2,3.3,11c-1.1,1.1-4.3,0.3-8.7-2c-4.7-2.5-10.5-6.6-16.6-11.9l3.6-3.6l0.8-0.8l-0.5-1c-1.1-2.2-2.6-4.3-4.5-6.3&#xD;&#xA;			c-1.9-2-4.3-3.8-7.3-5.5l-1.1-0.6l-0.9,0.9l-3.6,3.6c-5.3-6.1-9.5-11.9-11.9-16.6C1399.2,754.5,1398.3,751.3,1399.4,750.2&#xD;&#xA;			L1399.4,750.2z M1421.9,741c-2.1-1.3-4.6-2.5-6.9-3.3c-0.2-0.8-0.5-2.5,0.2-3.2c0.8-0.7,2.7-0.3,3.6-0.1c2.5,0.6,5.2,2.1,7.4,3.4&#xD;&#xA;			c3.8,2.2,7.3,4.8,10.7,7.6c3.4,2.8,6.9,6,10.5,9.5c6.4,6.4,12.6,13.5,17.1,21.1c0,0,6.7,11.1,2.2,11.4c-0.6,0-1.2,0-2-0.2&#xD;&#xA;			c-0.8-2.3-2.1-4.8-3.3-6.9c-4.5-7.6-10.7-14.8-17.1-21.3C1437.5,752.3,1429.7,745.6,1421.9,741L1421.9,741z M1471.2,783.6&#xD;&#xA;			c-2.2-11-13.9-23.3-21.6-31c-3.8-3.8-7.6-7.2-11.2-10.1c-3.3-2.7-6.9-5.3-10.5-7.5c-1.7-1-3.4-1.9-5.1-2.7l0,0&#xD;&#xA;			c-1.3-0.6-2.7-1-4.1-1.3l6.4-6.4c1.3-1.3,5.4,0,11,3.3c6,3.6,13.3,9.4,20.6,16.6c6.5,6.4,13,13.8,17.6,21.6&#xD;&#xA;			c3.3,5.6,4.7,9.7,3.3,11L1471.2,783.6L1471.2,783.6z M1455,738.4c1.4,1.3,2.7,2.6,4.1,3.9c1.6,1.6,3.2,3.3,4.8,4.9l6.6-6.6&#xD;&#xA;			c2.4-2.4,2.4-6.4,0-8.8c-2.4-2.4-6.4-2.4-8.8,0L1455,738.4z" fill="#1e77d0" fill-rule="evenodd"/>
  </g>
  <g>
    <rect clip-rule="evenodd" fill="#1e77d0" fill-rule="evenodd" height="8.9" width="177.9" x="1198.6" y="596.2"/>
    <rect clip-rule="evenodd" fill="#1e77d0" fill-rule="evenodd" height="54.7" width="23.7" x="1198.6" y="535.1"/>
    <rect clip-rule="evenodd" fill="#1e77d0" fill-rule="evenodd" height="68.8" width="23.7" x="1248.3" y="521.1"/>
    <rect clip-rule="evenodd" fill="#1e77d0" fill-rule="evenodd" height="77.9" width="23.7" x="1298" y="511.9"/>
    <rect clip-rule="evenodd" fill="#1e77d0" fill-rule="evenodd" height="96" width="23.7" x="1347.7" y="493.9"/>
  </g>
  <g>
    <path clip-rule="evenodd" d="M1398.1,996.3c10.7-20.4,5.9-40.1-7.4-46C1391,976.1,1389.9,1014.5,1398.1,996.3z" fill="#284190" fill-rule="evenodd"/>
    <path clip-rule="evenodd" d="M1351,1555.1c7.7,2.1-0.7,6.6,4,9.1c12.4-3.6,22.2-18.8,28.2-25.1c3.2-3.3,3.8,1.9,3.7,7.6&#xD;&#xA;				c-0.1,12.3-3.6,27.7-7.4,31.9c-1.2-4-0.6-15.2-1-22.3c-13,7.3-13,18.4-20.2,20.7c-15.8-1.7-24.3-3.1-36.1-5.4&#xD;&#xA;				C1321.8,1561.2,1341.5,1569,1351,1555.1z" fill="#284190" fill-rule="evenodd"/>
    <path clip-rule="evenodd" d="M1467.9,1564.3c8,0.4,0.7,6.6,5.9,8c11.3-6.2,17.6-23.1,22.1-30.6c2.4-3.9,4.1,1.1,5.3,6.7&#xD;&#xA;				c2.5,12,2.4,27.9-0.4,32.8c-2.1-3.6-3.9-14.7-5.7-21.5c-11.1,9.9-8.7,20.8-15.3,24.5c-15.8,1.8-24.4,2.2-36.4,2.4&#xD;&#xA;				C1440.7,1576.4,1461.6,1579.9,1467.9,1564.3z" fill="#284190" fill-rule="evenodd"/>
    <path clip-rule="evenodd" d="M1457.8,1014.2c-2.4-2-3.8-8.8-4-14.9c0.3-2.2,0.5-5,0.6-8.4c11.6-12.2,12-19.4,1.2-21.7&#xD;&#xA;				c-1.8,1.5-3.5,5.5-5.2,11.9c-2.4,0.4-4.4-0.4-6.1-2.5c0.7-10.3,0.9-18.6,0.4-24.9c-8.8-8.5-24.8-6.6-45,0.5&#xD;&#xA;				c0.2,5.7,0.7,11.8,1.4,18.1c-3,4.2,0.2,16.6,6.7,30.4c0.1,8.6,6.1,12,18.1,10.2l-0.9,3c-3.7,0.5-7.6,1.1-11.4,1.8&#xD;&#xA;				c-19.9,40.4,18.3,56.7,54.9-1.6C1465.4,1015.6,1461.9,1015,1457.8,1014.2z" fill="#ffb17d" fill-rule="evenodd"/>
    <path clip-rule="evenodd" d="M1397.2,963.6c18.1-0.9,31.3-15.9,47.8-2.1c0,6.9-0.3,7.2-0.7,17.1c1.7,2.1,3.8,2.9,6.1,2.5&#xD;&#xA;				c1.7-6.4,3.5-10.4,5.2-11.9c10.8,2.3,10.4,9.6-1.2,21.7c-0.1,3.4-0.3,6.2-0.6,8.4c0.2,6,1.6,12.9,4,14.9c4.1,0.8,7.6,1.5,10.5,2&#xD;&#xA;				c4.9,1.1,9.6,2.4,14,3.9c10.7,3.6,19.6,8.5,25.2,14.5c5.7,17.8,10.3,39.3,13.7,64.4c4.4-2.4,8.5-5.8,12.7-11.4&#xD;&#xA;				c17.2-23.2-13.5-6.3-10.1-43.1c2.5-26.6-31.6-17.6-33.6-50.4c-3.2-53.6-25.4-59.5-36.1-60.4c-12.8-11.8-30.1-13.3-47.9-7.6&#xD;&#xA;				C1388.1,931.7,1383.2,962.9,1397.2,963.6L1397.2,963.6z M1485.3,1081.5c0.7,10.6,1.9,20.3,3.4,29.1c-0.8,0.4-1.5,0.7-2.3,1.1&#xD;&#xA;				c-4.2,2.1-8.8,2.2-13.4,1.1C1475.5,1100.8,1479.6,1090.4,1485.3,1081.5L1485.3,1081.5z M1400.2,980.5c0.8,5.8,3.6,13.7,7.5,22.1&#xD;&#xA;				c0.1,8.6,6.1,12,18.1,10.2l-0.9,3c-3.7,0.5-7.6,1.1-11.4,1.8c-9.3,1.7-14.5,4.7-16.1,6.9c-3.2,1.7-6,3.4-8.4,5.1&#xD;&#xA;				c0.7-4.5,2.7-8.8,5.3-13c6-9.9-10-3-3-18.4C1395.3,989.5,1397.6,986,1400.2,980.5z" fill="#284190" fill-rule="evenodd"/>
    <path clip-rule="evenodd" d="M1454.7,1302c-12.5,24.2-24.1,46.8-34.8,67.8c15.7,17.4,31.1,53.6,46.2,108.4h25.2&#xD;&#xA;				c-5.8-73.7-13.6-115-29.2-124C1460.1,1336.5,1457.6,1319.1,1454.7,1302z" fill="#4567c5" fill-rule="evenodd"/>
    <path clip-rule="evenodd" d="M1415.3,1246.3c-9.6,15.8-17.6,33.8-23.8,54c-6.3,20.4-10.8,43.1-13.6,68c2.8,22.2,2.2,66.1-4.3,130.5h21&#xD;&#xA;				c15.4-52.3,23.8-95.3,25.3-129c10.7-20.9,22.3-43.5,34.8-67.8c3.6-6.9,9.4-20.8,14.6-25.7c8.2-7.7,14.9-15.3,20.4-23&#xD;&#xA;				C1469.7,1235.6,1445,1233.2,1415.3,1246.3z" fill="#4567c5" fill-rule="evenodd"/>
    <path clip-rule="evenodd" d="M1394.5,1140.7c-32.5,55.4-32.6,79.8-14.8,126.9c40.4-19.6,71.7-18.1,94.1,4.3c6.4-6.4,11.7-12.6,15.8-18.6&#xD;&#xA;				c27.1-38.1,20.6-75.8-19.6-113.1C1424.4,1160.4,1399.3,1160.5,1394.5,1140.7z" fill="#4567c5" fill-rule="evenodd"/>
    <path clip-rule="evenodd" d="M1464,1264.2c3,2.1,5.9,4.6,8.6,7.3c6.4-6.4,11.7-12.6,15.9-18.6c27.1-38.1,20.5-75.8-19.6-113.1&#xD;&#xA;				c-3,1.3-5.8,2.5-8.6,3.7C1492.7,1174.9,1495.6,1217.1,1464,1264.2L1464,1264.2z" fill="#3b5bb2" fill-rule="evenodd"/>
    <path clip-rule="evenodd" d="M1544.7,1119.8c-8.4,9.2-14.8,16.2-19.2,21.1c-3.2-43.9-9.2-79.3-17.9-106.4c-5.7-6-14.5-10.8-25.2-14.5&#xD;&#xA;				c-11.5,2.5-11.9,75,3,61.5c3.1,45.9,13.8,74.5,31.9,85.5c10.6,1.9,21.4-3.8,32.2-17.1l-8.1-5L1544.7,1119.8z" fill="#619fdf" fill-rule="evenodd"/>
    <path clip-rule="evenodd" d="M1395.1,1118.3c-4.9-35.6-34.8-53,1.8-93c0.1-0.2,0.2-0.5,0.4-0.7c-15.5,8.4-20.1,15.1-22.2,22.6&#xD;&#xA;				c-8.8,30.2-12.1,65.3-14.9,104c-11.2,10.3-22.4,22.7-35.3,44.4l19.6,6.7l3.2,2.6c12.7-11.5,24.3-22.4,34.6-41.9&#xD;&#xA;				C1388.2,1149.8,1392.4,1135,1395.1,1118.3z" fill="#619fdf" fill-rule="evenodd"/>
    <path clip-rule="evenodd" d="M1389.4,1097.5c-1.5,40.4-10.3,71.3-26.2,92.4c6.8-7.3,13.1-15.7,19.1-27c5.9-13.2,10-28,12.8-44.6&#xD;&#xA;				C1394,1110.7,1391.8,1103.9,1389.4,1097.5z" fill="#4f8dcb" fill-rule="evenodd"/>
    <path clip-rule="evenodd" d="M1378.3,1439.1c11.5,3.2,21.8,4.2,31,3.1c-3.7,14-9.5,40.8-17.3,80.5c-7.6,1-15.9-0.1-22.2-2.7&#xD;&#xA;				C1372.9,1493.8,1376.7,1467,1378.3,1439.1z" fill="#4567c5" fill-rule="evenodd"/>
    <path clip-rule="evenodd" d="M1371.3,1520.4c4.9,2,10.1,2.9,15.8,2.7c-1.1,3.5-2.3,7.1-3.4,10.7c-0.2,1.4,0,2.9,0.4,4.5&#xD;&#xA;				c-0.3,0.2-0.6,0.4-1,0.8c-6,6.3-15.8,21.5-28.2,25.1c-4.1-2.2,1.7-5.8-1.8-8.2c6.8-6.1,12.3-14,16.7-23.7&#xD;&#xA;				C1370.4,1528.3,1370.9,1524.3,1371.3,1520.4z" fill="#ffb17d" fill-rule="evenodd"/>
    <path clip-rule="evenodd" d="M1451.8,1431.8c12.3-9.5,23.7-11.7,34.3-6.6c2.8,30.7,6.4,62.1,10.8,94.2c-6.4,3-13.5,3.9-21.5,2.6&#xD;&#xA;				C1469.4,1488.3,1461.5,1458.2,1451.8,1431.8z" fill="#4567c5" fill-rule="evenodd"/>
    <path clip-rule="evenodd" d="M1477.2,1522.3c6.2,0.8,11.9,0.2,17.1-1.7c0.3,5.1,0.6,10.3,0.9,15.7c0,1.6,0.4,3.2,1.2,4.8&#xD;&#xA;				c-0.2,0.2-0.4,0.5-0.5,0.8c-4.5,7.5-10.8,24.4-22.1,30.6c-4.5-1.2,0.4-6-3.4-7.6c7.4-11.8,10.9-20.6,10.5-26.6&#xD;&#xA;				C1479.6,1532.7,1478.4,1527.4,1477.2,1522.3z" fill="#ffb17d" fill-rule="evenodd"/>
    <path clip-rule="evenodd" d="M1413.4,1017.7c-19.9,40.4,18.3,56.7,54.9-1.6c4.9,1.1,9.6,2.4,14,3.9c-3.5,0.8-5.9,7.8-7.2,17&#xD;&#xA;				c-3.1,20.3-4,37.1-2.8,50.4c-7,15-11,33.7-12,56c0.2,0.2,0.4,0.4,0.7,0.6c-39.8,16.2-62,15.1-66.4-3.4c1.5-8.3,1.5-15.7,0.6-22.4&#xD;&#xA;				c-1-7.6-3.2-14.4-5.7-20.8c-9-23.3-21.3-40.8,7.5-72.2c0.1-0.2,0.2-0.5,0.4-0.7C1398.9,1022.4,1404.1,1019.4,1413.4,1017.7z" fill="#619fdf" fill-rule="evenodd"/>
    <path clip-rule="evenodd" d="M1460.2,1143.4c1-22.3,5-41,12-56c-1.2-13.3-0.3-30.2,2.8-50.4c-3.1,21.3-0.2,53.9,10.2,44.5&#xD;&#xA;				c-5.7,8.9-9.8,19.3-12.3,31.4c-1.7,8.4-2.7,17.5-2.9,27.4c-3.1,1.4-6.2,2.7-9.1,3.9C1460.7,1143.9,1460.5,1143.7,1460.2,1143.4z" fill="#4f8dcb" fill-rule="evenodd"/>
    <path clip-rule="evenodd" d="M1427.4,1024.9c7.9,1.6,21.1-3.6,30.4-10.8c4.1,0.8,7.6,1.5,10.5,2c-36.6,58.3-74.8,41.9-54.9,1.6&#xD;&#xA;				c3.9-0.7,7.7-1.3,11.4-1.8C1425.5,1020,1426.1,1023.1,1427.4,1024.9z" fill="#4f8dcb" fill-rule="evenodd"/>
    <path clip-rule="evenodd" d="M1544.7,1119.8c-9.7,16.8-12.3,30.9-7.8,42.1c9.1-5.3,17.2-12.6,24.3-22&#xD;&#xA;				C1549.5,1134.5,1543.9,1127.8,1544.7,1119.8z" fill="#4f8dcb" fill-rule="evenodd"/>
    <path clip-rule="evenodd" d="M1324.9,1195.6c18.2-9.7,29-9.6,32.5,0.3c-3.9,2.7-8.9,7.9-14.5,17.5&#xD;&#xA;				C1337.9,1210.9,1331.4,1206.2,1324.9,1195.6z" fill="#4f8dcb" fill-rule="evenodd"/>
    <path clip-rule="evenodd" d="M1324.9,1195.6c5.4,8.7,10.7,13.5,15.2,16.3c-7,6.5-14.2,13.7-21.7,23c4.7,9.4,1.7,12.2-3.1,14.4&#xD;&#xA;				c-2.1,1-12.6,3-16.8-0.8c-4.7-2.5-0.3-18.6,8.7-19.2C1313.5,1216,1319.4,1204.9,1324.9,1195.6z" fill="#ffb17d" fill-rule="evenodd"/>
    <path clip-rule="evenodd" d="M1557.8,1138.2c-9.4-5.1-13.8-11.2-13-18.4c7.4-8.1,16.3-17.9,26.7-29.3c6.2-5.6,12.7-8.2,19.7-7.8&#xD;&#xA;				c-0.7,1.9-2.3,3.7-4.9,5.2c8.5,1.2,14.2-0.7,17-5.5c3.6-2.3,9.7,12.3,3.6,19c-7.4,8.1-16.1,8.1-30.4,0.2&#xD;&#xA;				C1570.2,1116.3,1563.9,1128.4,1557.8,1138.2z" fill="#ffb17d" fill-rule="evenodd"/>
    <path clip-rule="evenodd" d="M1377.7,1262.2c4.2,11.8,8.8,24.5,13.8,38.1c10.4-27.1,20.8-51.9,31.1-74.4&#xD;&#xA;				C1407.8,1244.6,1392.9,1256.7,1377.7,1262.2z" fill="#3b5bb2" fill-rule="evenodd"/>
    <path clip-rule="evenodd" d="M1413.6,1365.6c15.1-32.5,32.3-66.2,51.6-101c3,2.1,5.9,4.6,8.6,7.3c-1.5,1.5-3,2.9-4.5,4.4&#xD;&#xA;				c-5.2,4.9-11,18.8-14.6,25.7c-12.5,24.2-24.1,46.8-34.8,67.8c-0.9,20.7-4.5,44.8-10.6,72.5&#xD;&#xA;				C1415,1414.2,1416.4,1388.7,1413.6,1365.6z" fill="#3b5bb2" fill-rule="evenodd"/>
    <path clip-rule="evenodd" d="M1425.8,1012.9c6.1-1.2,11.1-3.4,14.8-6.5c-5,5.4-10.3,8.6-15.8,9.5L1425.8,1012.9z" fill="#ef8161" fill-rule="evenodd"/>
    <path clip-rule="evenodd" d="M1452.8,936c-4-0.9-5.8-2.7-5.5-5.5c4.3-4.1,9.1-5.8,14.4-5.3C1459,926.2,1456,929.9,1452.8,936z" fill="#284190" fill-rule="evenodd"/>
    <path clip-rule="evenodd" d="M1445.3,937.6c3.6,1.9,6.2,1.7,7.7-0.7c-0.7-5.9-3.3-10.3-7.6-13.3C1446.7,926.1,1446.7,930.8,1445.3,937.6&#xD;&#xA;				z" fill="#284190" fill-rule="evenodd"/>
    <path clip-rule="evenodd" d="M1470,1019.9c6.7,2,12.7,4.1,17.9,6.5c5.2,2.4,9.7,5,13.4,7.9l0.6,0.7c1.6,3.3,2.8,6.7,3.7,10.3v0&#xD;&#xA;			c0.9,3.5,1.4,7.2,1.6,11c-6.3,0.3-3.6-2.9-5.4-10h0c-0.8-3.1-1.9-6.2-3.2-9.1c-3.4-2.6-7.5-4.9-12.3-7.1&#xD;&#xA;			C1478.7,1026.5,1468.1,1026.4,1470,1019.9z" fill="#4f8dcb" fill-rule="evenodd"/>
    <path clip-rule="evenodd" d="M1405.3,1026.9c-6.8,3.5-12.1,7.4-15.8,11.4c-6.6,7-3.9,12.9-10.5,11.8c0.9-5.1,3.5-9.9,7.7-14.4&#xD;&#xA;			C1390.4,1031.5,1401.6,1019.9,1405.3,1026.9z" fill="#4f8dcb" fill-rule="evenodd"/>
    <path clip-rule="evenodd" d="M1398.2,1139.5c-0.3-0.5-0.2-1.2,0.3-1.5c0.5-0.3,1.2-0.2,1.5,0.3c4,6.2,9.9,9.4,17.9,9.7&#xD;&#xA;			c8.2,0.3,18.5-2.5,31-8.3c0.6-0.3,1.2,0,1.5,0.5c0.3,0.6,0,1.2-0.5,1.5c-12.8,6-23.4,8.8-32,8.5&#xD;&#xA;			C1409.1,1149.8,1402.6,1146.3,1398.2,1139.5z" fill="#4f8dcb" fill-rule="evenodd"/>
    <path clip-rule="evenodd" d="M1421.4,1045.7c1.3,0,2.4,1.1,2.4,2.4c0,1.3-1.1,2.4-2.4,2.4c-1.3,0-2.4-1.1-2.4-2.4&#xD;&#xA;			C1419,1046.8,1420,1045.7,1421.4,1045.7z" fill="#8ab9e8" fill-rule="evenodd"/>
    <path clip-rule="evenodd" d="M1429.9,1044.5c1,0,1.8,0.8,1.8,1.8c0,1-0.8,1.8-1.8,1.8s-1.8-0.8-1.8-1.8&#xD;&#xA;			C1428.1,1045.3,1428.9,1044.5,1429.9,1044.5z" fill="#8ab9e8" fill-rule="evenodd"/>
    <path clip-rule="evenodd" d="M1415.3,1042.7c0.8,0,1.4,0.6,1.4,1.4c0,0.8-0.6,1.4-1.4,1.4c-0.8,0-1.4-0.6-1.4-1.4&#xD;&#xA;			C1413.9,1043.4,1414.5,1042.7,1415.3,1042.7z" fill="#8ab9e8" fill-rule="evenodd"/>
    <path clip-rule="evenodd" d="M1412.5,1038.7c0.4,0,0.7,0.3,0.7,0.7c0,0.4-0.3,0.7-0.7,0.7s-0.7-0.3-0.7-0.7&#xD;&#xA;			C1411.8,1039,1412.2,1038.7,1412.5,1038.7z" fill="#8ab9e8" fill-rule="evenodd"/>
    <path clip-rule="evenodd" d="M1436.3,1043.1c0.5,0,0.8,0.4,0.8,0.8s-0.4,0.8-0.8,0.8c-0.5,0-0.8-0.4-0.8-0.8S1435.9,1043.1,1436.3,1043.1z" fill="#8ab9e8" fill-rule="evenodd"/>
  </g>
</svg>