<?xml version="1.0" encoding="utf-8"?>
<svg xmlns="http://www.w3.org/2000/svg" enable-background="new 0 0 2000 2000" viewBox="0 0 2000 2000">
  <path clip-rule="evenodd" d="M998.1,1503c184.5,0,354.3,2.8,489.1,7.4c329.8-188.5,215.6-555.9,97.2-763.7&#xD;&#xA;			c-164.8-289.2-554.2-393.2-715.2-162.4c-218.6,313.2-429.5,203.9-543.4,441.8C211.8,1264,384.8,1492,509,1510.4&#xD;&#xA;			C643.8,1505.8,813.6,1503,998.1,1503L998.1,1503z M709.1,700.9c-84.4,64.2-224,114-270.4,45.7c-34.6-51,8-146.8,91.6-219.3&#xD;&#xA;			c83.5-72.5,195.4-116.4,256.4-63C859.1,527.7,774.1,651.5,709.1,700.9z" fill="#e9eef7" fill-rule="evenodd"/>
  <ellipse clip-rule="evenodd" cx="998.1" cy="1537.8" fill="#d1deed" fill-rule="evenodd" rx="793.2" ry="34.7"/>
  <path clip-rule="evenodd" d="M1253.9,544c198.1,44.1,324.2,226.3,336.5,314.3c5.1,36.1-4.3-48.4-105.4-125.3&#xD;&#xA;			c-90.3-68.7-160.6-81.5-268.1-89.8c-75.9-5.9-155.5-15.2-149.8-60.5C1071.6,547,1126,515.5,1253.9,544L1253.9,544z M735.8,470.3&#xD;&#xA;			c34.1,2,54.9,30.1,56.3,62.4c0.6,13.7-10.2-22.2-48-27.2c-23.5-3.1-27,3.8-35.4-5.9C700.4,490,708.3,468.7,735.8,470.3z" fill="#fff" fill-rule="evenodd"/>
  <path clip-rule="evenodd" d="M487.1,1423c-9-11.3-21.8-20.7-25.5-34.7c-4.4-16.5,5.3-33.9,2.9-50.9c-3-21.3-23.6-35.1-34.7-53.6&#xD;&#xA;			c-10.9-18-5.8-24.1-6.8-45.2c-1.5-31.7-27.5-71.8-62.2-61c-35.2,10.9-29.5,43.6-23.3,68.3c4.4,17.5,1.5,20.1-2.8,37.6&#xD;&#xA;			c-5.2,21.2-21.9,41.7-14.9,62.4c4.3,12.8,16.9,21.4,21.4,34.2c5.1,14.4-1.1,30.1-3.5,45.2c-5.1,31.8,2.2,58.3,25.3,84.6&#xD;&#xA;			c2.5,2.4,5.1,4.6,7.7,6.6c32.4-1.8,68.8-3.5,108.8-5l0.3-0.3C501.1,1488,507.4,1448.4,487.1,1423z" fill="#d1deed" fill-rule="evenodd"/>
  <path clip-rule="evenodd" d="M376.8,1206.3c-0.5-1.4-2.2-2.2-3.6-1.6c-1.4,0.5-2.2,2.2-1.6,3.6c2.7,7.2,5.1,14.7,7,22.6&#xD;&#xA;			c-0.8-0.7-1.6-1.4-2.5-2.1c-3.8-3-8.1-5.7-12.9-8c-1.4-0.7-3-0.1-3.7,1.3c-0.7,1.4-0.1,3,1.3,3.7c4.4,2.1,8.3,4.5,11.8,7.3&#xD;&#xA;			c3.2,2.6,6.1,5.5,8.5,8.8c3.6,17,5.9,35.2,8,54.5c-3.2-5-6.7-9.5-10.3-13.5c-6.4-6.9-13.4-12.3-21.1-16.1c-1.4-0.7-3-0.1-3.7,1.3&#xD;&#xA;			c-0.7,1.4-0.1,3,1.3,3.7c7.1,3.5,13.6,8.5,19.5,14.9c5.9,6.4,11.2,14.2,15.9,23.4l0.5,5.2c1.2,11.5,2.4,23.2,3.8,35.3&#xD;&#xA;			c0,0.1,0,0.2,0,0.3c1.5,12.6,3.3,25.4,5.5,38.4c-6-9.3-12.5-17.5-19.4-24.6c-10.2-10.4-21.3-18.6-33.4-24.4&#xD;&#xA;			c-1.4-0.7-3-0.1-3.7,1.3c-0.7,1.4-0.1,3,1.3,3.7c11.5,5.5,22.1,13.3,31.8,23.3c9.7,10,18.4,22.1,26.3,36.5&#xD;&#xA;			c3.4,17.3,7.8,34.9,13.6,52.7l0,0l0,0.1v0c2.8,8.7,6,17.5,9.6,26.3c-8.4-7.2-17.4-13.5-26.8-18.7c-13.2-7.3-27.3-12.8-42.4-16.3&#xD;&#xA;			c-1.5-0.3-3,0.6-3.3,2.1c-0.3,1.5,0.6,3,2.1,3.3c14.6,3.4,28.3,8.6,41,15.7c12.6,7,24.2,15.8,34.9,26.4c2.5,5.5,5.1,11,7.9,16.5&#xD;&#xA;			l6.1-0.3c-9.9-18.9-17.5-37.8-23.6-56.5c-1-13.6,0.6-27.1,4.8-40.7c4.3-13.8,11.4-27.5,21.2-41.3c0.9-1.3,0.6-3-0.7-3.9&#xD;&#xA;			c-1.3-0.9-3-0.6-3.9,0.7c-10.1,14.3-17.4,28.6-21.9,42.9c-2.6,8.1-4.2,16.3-4.9,24.4c-8.3-30.1-13-59.6-16.4-87.7&#xD;&#xA;			c3.3-11.9,6.9-22,10.9-30.2c4-8.2,8.4-14.5,13.1-19c1.1-1.1,1.2-2.8,0.1-3.9c-1-1.1-2.8-1.2-3.9-0.1c-5.2,4.9-10,11.8-14.3,20.6&#xD;&#xA;			c-2.7,5.5-5.2,11.7-7.5,18.8c-0.8-7.4-1.6-14.7-2.3-22l-0.6-5.6c0-0.1,0-0.2,0-0.3C392.1,1270.6,388.1,1235.8,376.8,1206.3z" fill="#fff" fill-rule="evenodd"/>
  <path clip-rule="evenodd" d="M394,1437.9c-9.7-5.2-21.3-8-28-16.6c-8-10.2-6.4-25.2-13.1-36.3c-8.4-14-26.8-17.5-40-27&#xD;&#xA;			c-12.9-9.3-11.2-15.1-18.1-29.5c-10.4-21.7-40.4-41.9-61.4-24.1c-21.3,18-7.6,39.1,4,54.5c8.3,10.9,7,13.5,9.2,27&#xD;&#xA;			c2.7,16.3-2.9,35.6,8.1,47.9c6.8,7.6,18.1,9.9,25,17.5c7.9,8.5,8.1,21.3,11,32.5c3.7,14.9,10.2,26.9,20.5,36.6&#xD;&#xA;			c27.7-2.1,60.4-4.1,97.2-5.8c2.8-4,5.1-8.4,6.8-13.1C423,1479.1,415.7,1449.6,394,1437.9z" fill="#c4ddf7" fill-rule="evenodd"/>
  <path clip-rule="evenodd" d="M252.9,1319.7c-0.8-0.8-2.1-0.9-3-0.1c-0.8,0.8-0.9,2.1-0.1,3c4,4.2,7.9,8.8,11.6,13.6&#xD;&#xA;			c-0.8-0.3-1.5-0.5-2.3-0.7c-3.5-1-7.3-1.6-11.3-1.7c-1.2,0-2.1,0.9-2.2,2c0,1.2,0.9,2.1,2,2.2c3.7,0.1,7.1,0.7,10.3,1.6&#xD;&#xA;			c3,0.9,5.9,2.1,8.5,3.6c7.5,10.8,14.5,22.8,21.7,35.6c-3.7-2.5-7.5-4.6-11.2-6.3c-6.5-2.9-13-4.6-19.5-5c-1.2-0.1-2.2,0.8-2.2,2&#xD;&#xA;			c-0.1,1.2,0.8,2.2,2,2.2c6,0.3,12,1.9,18,4.6c6,2.7,12,6.6,18,11.6l1.9,3.5c4.2,7.6,8.6,15.5,13.1,23.4c0,0.1,0.1,0.2,0.1,0.2&#xD;&#xA;			c4.8,8.3,9.8,16.7,15.2,25.1c-6.9-4.7-13.9-8.5-20.8-11.4c-10.2-4.3-20.3-6.6-30.5-7.1c-1.2-0.1-2.1,0.8-2.2,2&#xD;&#xA;			c-0.1,1.2,0.8,2.1,2,2.2c9.7,0.5,19.4,2.7,29.1,6.8c9.7,4.1,19.4,9.9,29.1,17.6c7.5,11,15.8,22,25.1,32.7l0,0l0,0l0,0&#xD;&#xA;			c4.6,5.2,9.4,10.4,14.5,15.5c-8-2.5-16.1-4.2-24.2-5.1c-11.4-1.2-22.8-0.8-34.4,1.3c-1.1,0.2-1.9,1.3-1.7,2.4&#xD;&#xA;			c0.2,1.1,1.3,1.9,2.4,1.7c11.2-2,22.3-2.4,33.2-1.2c10.8,1.1,21.5,3.8,32.1,8.1c3.7,3.4,7.5,6.7,11.4,10l6.3-0.3&#xD;&#xA;			c-13.8-11-25.7-22.7-36.3-34.9c-4.7-9.1-7.6-19.1-8.7-29.8c-1.1-10.9-0.2-22.5,2.5-35.1c0.2-1.1-0.5-2.3-1.6-2.5&#xD;&#xA;			c-1.1-0.2-2.3,0.5-2.5,1.6c-2.8,12.9-3.7,25.1-2.6,36.4c0.6,6.4,1.9,12.6,3.8,18.5c-14.7-18.5-26.7-37.7-37.4-56.3&#xD;&#xA;			c-1.3-9.3-1.7-17.4-1.3-24.3c0.4-6.9,1.5-12.6,3.5-17.1c0.5-1.1,0-2.3-1.1-2.8c-1.1-0.5-2.3,0-2.8,1.1c-2.2,5-3.4,11.2-3.8,18.6&#xD;&#xA;			c-0.2,4.6-0.1,9.7,0.3,15.3c-2.8-4.9-5.5-9.8-8.1-14.6l-2.1-3.7c0-0.1-0.1-0.1-0.1-0.2C282.6,1359.9,269.5,1336.9,252.9,1319.7z" fill="#fff" fill-rule="evenodd"/>
  <path clip-rule="evenodd" d="M1474,1412.2c9.9-12.4,23.8-22.6,27.8-37.9c4.8-18-5.8-37-3.2-55.5c3.3-23.3,25.7-38.3,37.9-58.4&#xD;&#xA;			c11.9-19.7,6.3-26.3,7.4-49.3c1.6-34.6,30-78.3,67.9-66.6c38.4,11.9,32.1,47.6,25.4,74.5c-4.8,19.1-1.7,21.9,3,41.1&#xD;&#xA;			c5.7,23.2,23.9,45.5,16.3,68.1c-4.7,14-18.4,23.4-23.4,37.3c-5.6,15.7,1.2,32.8,3.8,49.3c5.5,34.7-2.4,63.6-27.6,92.3&#xD;&#xA;			c-3.1,2.9-6.2,5.6-9.6,8c-34.9-1.8-73.9-3.4-116.2-4.8c-0.6-0.6-1.2-1.2-1.7-1.8C1458.7,1483.2,1451.8,1440,1474,1412.2z" fill="#d1deed" fill-rule="evenodd"/>
  <path clip-rule="evenodd" d="M1594.4,1175.8c0.6-1.6,2.4-2.4,3.9-1.8c1.6,0.6,2.3,2.4,1.7,3.9c-3,7.8-5.5,16.1-7.7,24.6&#xD;&#xA;			c0.9-0.8,1.8-1.6,2.7-2.3c4.1-3.3,8.8-6.2,14-8.7c1.5-0.7,3.3-0.1,4,1.5c0.7,1.5,0.1,3.3-1.4,4c-4.8,2.3-9.1,4.9-12.8,7.9&#xD;&#xA;			c-3.5,2.8-6.6,6-9.2,9.6c-3.9,18.5-6.4,38.5-8.7,59.5c3.5-5.5,7.3-10.4,11.3-14.7c6.9-7.5,14.6-13.4,23-17.6&#xD;&#xA;			c1.5-0.7,3.3-0.1,4.1,1.4c0.7,1.5,0.1,3.3-1.4,4.1c-7.7,3.8-14.8,9.2-21.3,16.3c-6.4,7-12.2,15.5-17.3,25.6l-0.6,5.7&#xD;&#xA;			c-1.3,12.5-2.6,25.4-4.2,38.5c0,0.1,0,0.3,0,0.4c-1.6,13.7-3.6,27.7-6,41.9c6.6-10.1,13.6-19.1,21.2-26.9&#xD;&#xA;			c11.1-11.4,23.2-20.3,36.4-26.7c1.5-0.7,3.3-0.1,4.1,1.4c0.7,1.5,0.1,3.3-1.4,4.1c-12.6,6.1-24.2,14.5-34.7,25.4&#xD;&#xA;			c-10.6,10.9-20.1,24.1-28.7,39.8c-3.7,18.9-8.5,38.1-14.8,57.5l0,0l0,0.1l0,0c-3.1,9.5-6.6,19.1-10.5,28.7&#xD;&#xA;			c9.2-7.9,18.9-14.7,29.3-20.4c14.4-8,29.8-13.9,46.3-17.7c1.6-0.4,3.3,0.6,3.6,2.3c0.4,1.6-0.6,3.3-2.3,3.6&#xD;&#xA;			c-16,3.7-30.9,9.4-44.7,17.1c-13.7,7.6-26.4,17.2-38.1,28.8c-2.9,6.4-6,12.8-9.3,19.2l-6.7-0.3c11.1-21.1,19.7-42.1,26.5-62.9&#xD;&#xA;			c1.1-14.8-0.6-29.6-5.3-44.4c-4.7-15-12.4-30-23.1-45.1c-1-1.4-0.6-3.3,0.7-4.2c1.4-1,3.3-0.6,4.2,0.7c11,15.6,19,31.2,23.9,46.8&#xD;&#xA;			c2.8,8.9,4.6,17.7,5.4,26.6c9.1-32.9,14.2-65,17.8-95.7c-3.6-13-7.5-24-11.9-33c-4.4-9-9.1-15.9-14.2-20.7&#xD;&#xA;			c-1.2-1.1-1.3-3.1-0.1-4.3c1.1-1.2,3.1-1.3,4.3-0.1c5.7,5.4,10.9,12.9,15.6,22.5c2.9,6,5.7,12.8,8.2,20.5c0.9-8.1,1.7-16.1,2.5-24&#xD;&#xA;			l0.6-6.1c0-0.1,0-0.2,0-0.3C1577.7,1246,1582.1,1208,1594.4,1175.8z" fill="#fff" fill-rule="evenodd"/>
  <path clip-rule="evenodd" d="M1575.7,1428.5c10.5-5.7,23.2-8.7,30.6-18.1c8.7-11.1,6.9-27.5,14.2-39.6c9.2-15.2,29.3-19.1,43.7-29.5&#xD;&#xA;			c14.1-10.2,12.2-16.5,19.8-32.1c11.4-23.6,44.1-45.7,67-26.3c23.2,19.7,8.3,42.7-4.4,59.4c-9,11.9-7.6,14.8-10.1,29.5&#xD;&#xA;			c-2.9,17.8,3.1,38.8-8.9,52.3c-7.4,8.3-19.8,10.8-27.3,19c-8.6,9.3-8.9,23.2-12,35.5c-4.1,16.5-11.4,29.7-22.9,40.4&#xD;&#xA;			c-30.3-2.1-65.5-4-104.8-5.7c-3.5-4.7-6.2-9.9-8.2-15.4C1544,1473.5,1552,1441.3,1575.7,1428.5z" fill="#c4ddf7" fill-rule="evenodd"/>
  <path clip-rule="evenodd" d="M1729.6,1299.5c0.9-0.9,2.3-0.9,3.3-0.1c0.9,0.9,0.9,2.3,0.1,3.2c-4.4,4.6-8.6,9.6-12.6,14.9&#xD;&#xA;			c0.8-0.3,1.7-0.6,2.6-0.8c3.9-1.1,8-1.7,12.4-1.9c1.3,0,2.3,0.9,2.4,2.2c0,1.3-0.9,2.3-2.2,2.4c-4,0.2-7.8,0.7-11.3,1.7&#xD;&#xA;			c-3.3,0.9-6.4,2.2-9.3,3.9c-8.2,11.8-15.9,24.9-23.7,38.8c4.1-2.8,8.1-5.1,12.2-6.9c7.1-3.2,14.2-5,21.2-5.4&#xD;&#xA;			c1.3-0.1,2.4,0.9,2.4,2.2c0.1,1.3-0.9,2.3-2.2,2.4c-6.5,0.4-13,2.1-19.6,5c-6.5,3-13.1,7.2-19.6,12.7l-2.1,3.8&#xD;&#xA;			c-4.6,8.3-9.3,16.9-14.3,25.6c0,0.1-0.1,0.2-0.1,0.3c-5.2,9.1-10.7,18.2-16.6,27.4c7.6-5.1,15.1-9.3,22.7-12.4&#xD;&#xA;			c11.1-4.7,22.2-7.3,33.3-7.8c1.3-0.1,2.3,0.9,2.4,2.2c0.1,1.3-0.9,2.3-2.2,2.4c-10.6,0.5-21.1,3-31.7,7.4&#xD;&#xA;			c-10.6,4.4-21.2,10.8-31.8,19.2c-8.2,12-17.2,24-27.3,35.6l0,0l0,0l0,0c-5,5.7-10.2,11.4-15.8,16.9c8.7-2.8,17.5-4.6,26.4-5.6&#xD;&#xA;			c12.4-1.3,24.9-0.9,37.5,1.4c1.3,0.2,2.1,1.4,1.9,2.7c-0.2,1.3-1.4,2.1-2.7,1.9c-12.2-2.2-24.3-2.6-36.2-1.3&#xD;&#xA;			c-11.8,1.3-23.5,4.2-35.1,8.8c-4.3,4-8.9,7.9-13.6,11.8l-6.9-0.3c15.5-12.3,29-25.4,40.8-39c5.2-10,8.3-20.8,9.5-32.5&#xD;&#xA;			c1.2-11.9,0.3-24.6-2.7-38.3c-0.3-1.2,0.5-2.5,1.8-2.7c1.2-0.3,2.5,0.5,2.7,1.8c3.1,14.1,4,27.3,2.8,39.7&#xD;&#xA;			c-0.7,7-2.1,13.7-4.1,20.1c16.1-20.2,29.1-41.1,40.8-61.4c1.4-10.1,1.9-19,1.5-26.5c-0.4-7.5-1.7-13.8-3.8-18.6&#xD;&#xA;			c-0.5-1.2,0-2.5,1.2-3c1.2-0.5,2.5,0,3,1.2c2.4,5.4,3.8,12.2,4.2,20.3c0.3,5,0.1,10.6-0.3,16.7c3-5.4,6-10.7,8.9-15.9l2.3-4.1&#xD;&#xA;			c0-0.1,0.1-0.2,0.1-0.2C1697.2,1343.4,1711.4,1318.3,1729.6,1299.5z" fill="#fff" fill-rule="evenodd"/>
  <path clip-rule="evenodd" d="M940.5,671c-2.8,39-8.6,44.3-45.7,47.3c37.1,3,42.9,8.4,45.7,47.3c2.8-39,8.6-44.3,45.7-47.3&#xD;&#xA;			C949.1,715.3,943.3,710,940.5,671L940.5,671z M1091.5,773.8c-1.5,20.8-4.6,23.7-24.4,25.3c19.8,1.6,22.9,4.5,24.4,25.3&#xD;&#xA;			c1.5-20.8,4.6-23.7,24.4-25.3C1096.1,797.5,1093,794.6,1091.5,773.8L1091.5,773.8z M1025.4,613.7c-1.5,21.1-4.6,24-24.7,25.6&#xD;&#xA;			c20.1,1.6,23.2,4.5,24.7,25.6c1.5-21.1,4.6-24,24.7-25.6C1030,637.6,1026.9,634.7,1025.4,613.7z" fill="#fff" fill-rule="evenodd"/>
  <path clip-rule="evenodd" d="M885.7,1309.9c2.3,31.6,7,35.9,37.1,38.4c-30.1,2.4-34.8,6.8-37.1,38.4c-2.3-31.6-7-35.9-37.1-38.4&#xD;&#xA;			C878.8,1345.8,883.4,1341.4,885.7,1309.9L885.7,1309.9z M763.4,1393.1c1.2,16.9,3.7,19.2,19.8,20.5c-16.1,1.3-18.6,3.6-19.8,20.5&#xD;&#xA;			c-1.2-16.9-3.7-19.2-19.8-20.5C759.7,1412.3,762.1,1410,763.4,1393.1L763.4,1393.1z M817,1263.4c1.2,17.1,3.8,19.4,20,20.7&#xD;&#xA;			c-16.3,1.3-18.8,3.7-20,20.7c-1.2-17.1-3.8-19.4-20-20.7C813.2,1282.8,815.7,1280.5,817,1263.4z" fill="#fff" fill-rule="evenodd"/>
  <path clip-rule="evenodd" d="M1366.5,1232c-1.8,24.2-5.3,27.5-28.4,29.4c23,1.9,26.6,5.2,28.4,29.4c1.8-24.2,5.3-27.5,28.4-29.4&#xD;&#xA;			C1371.8,1259.5,1368.3,1256.2,1366.5,1232L1366.5,1232z M1460.2,1295.8c-0.9,12.9-2.8,14.7-15.1,15.7c12.3,1,14.2,2.8,15.1,15.7&#xD;&#xA;			c0.9-12.9,2.8-14.7,15.1-15.7C1463,1310.5,1461.1,1308.7,1460.2,1295.8L1460.2,1295.8z M1419.2,1196.5c-1,13.1-2.9,14.9-15.3,15.9&#xD;&#xA;			c12.5,1,14.4,2.8,15.3,15.9c1-13.1,2.9-14.9,15.3-15.9C1422,1211.3,1420.1,1209.5,1419.2,1196.5z" fill="#fff" fill-rule="evenodd"/>
  <g>
    <polygon clip-rule="evenodd" fill="#fb9674" fill-rule="evenodd" points="471.1 729.1 1546.6 752.1 1583.6 1518.3 486.9 1554"/>
    <polygon clip-rule="evenodd" fill="#ffe1db" fill-rule="evenodd" points="531.1 762.8 545.1 1493.4 1548.8 1460.7 1516.1 783.8"/>
    <polygon clip-rule="evenodd" fill="#ef6a30" fill-rule="evenodd" points="485.9 1505.9 388.6 1506.8 471.1 729.1"/>
    <path clip-rule="evenodd" d="M1333.1,747.5c1.3-14.2,4.9-33.4,11.9-48.3c7.3-15.4,18.3-26.8,34.6-26.8c14.6,0,27.1,11,35.5,28.8&#xD;&#xA;			c7.2,15.3,11.7,36.2,11.7,58.9s-4.5,43.7-11.7,59c-8.4,17.8-20.9,28.8-35.5,28.8c-6.1,0-11-4.9-11-11c0-6.1,4.9-11,11-11&#xD;&#xA;			c5.3,0,10.9-6.2,15.6-16.1c5.9-12.5,9.5-30,9.5-49.6c0-19.6-3.6-37.1-9.5-49.6c-4.7-10-10.3-16.1-15.6-16.1c-6,0-10.9,6-14.7,14.2&#xD;&#xA;			c-5.6,11.9-8.5,27.5-9.7,39.4L1333.1,747.5L1333.1,747.5z M682.4,733.7c1.6-13.6,5.1-30.6,11.4-44.1c7.3-15.4,18.3-26.8,34.6-26.8&#xD;&#xA;			c14.6,0,27.1,11,35.5,28.8c7.2,15.3,11.7,36.2,11.7,58.9c0,22.8-4.5,43.7-11.7,59c-8.4,17.8-20.9,28.8-35.5,28.8&#xD;&#xA;			c-6.1,0-11-4.9-11-11c0-6.1,4.9-11,11-11c5.3,0,10.9-6.2,15.6-16.1c5.9-12.5,9.5-30,9.5-49.6c0-19.6-3.6-37.1-9.5-49.6&#xD;&#xA;			c-4.7-10-10.3-16.1-15.6-16.1c-6,0-10.9,6-14.7,14.2c-5,10.5-7.8,23.9-9.2,35.1L682.4,733.7L682.4,733.7z M899,738.3&#xD;&#xA;			c1.3-14.2,4.8-33.5,11.9-48.4c7.3-15.4,18.3-26.8,34.6-26.8c14.6,0,27.1,11,35.5,28.8c7.2,15.3,11.7,36.2,11.7,58.9&#xD;&#xA;			c0,22.8-4.5,43.7-11.7,59c-8.4,17.8-20.9,28.8-35.5,28.8c-6.1,0-11-4.9-11-11c0-6.1,4.9-11,11-11c5.3,0,10.9-6.2,15.6-16.1&#xD;&#xA;			c5.9-12.5,9.5-30,9.5-49.6c0-19.6-3.6-37.1-9.5-49.6c-4.7-10-10.3-16.1-15.6-16.1c-6,0-10.9,6-14.7,14.2&#xD;&#xA;			c-5.6,11.9-8.5,27.5-9.7,39.5L899,738.3L899,738.3z M1116,742.9c1.3-14.2,4.9-33.4,11.9-48.4c7.3-15.4,18.3-26.8,34.6-26.8&#xD;&#xA;			c14.6,0,27.1,11,35.5,28.8c7.2,15.3,11.7,36.2,11.7,58.9c0,22.8-4.5,43.7-11.7,59c-8.4,17.8-20.9,28.8-35.5,28.8&#xD;&#xA;			c-6.1,0-11-4.9-11-11c0-6.1,4.9-11,11-11c5.3,0,10.9-6.2,15.6-16.1c5.9-12.5,9.5-30,9.5-49.6c0-19.6-3.6-37.1-9.5-49.6&#xD;&#xA;			c-4.7-10-10.3-16.1-15.6-16.1c-6,0-10.9,6-14.7,14.2c-5.6,11.9-8.5,27.5-9.7,39.5L1116,742.9z" fill="#ef6a30" fill-rule="evenodd"/>
    <path clip-rule="evenodd" d="M647.9,935.8c28.5,0.3,57,0.6,85.6,0.9c3.4,0,6.1,2.8,6.2,6.2c0.2,30.7,0.5,61.5,0.7,92.2c0,3.4-2.8,6-6.2,6&#xD;&#xA;			c-28.7-0.1-57.6-0.2-86.2-0.3c-3.4,0-6.1-2.8-6.1-6.2c0-30.9,0-61.9,0-92.8C641.9,938.5,644.5,935.8,647.9,935.8L647.9,935.8z&#xD;&#xA;			 M648,1101.8c28.8,0,57.7,0,86.7,0c3.4,0,6.2,2.8,6.2,6.1c0.2,30.8,0.4,61.5,0.6,92.2c0,3.3-2.8,6.1-6.2,6.1&#xD;&#xA;			c-29.1,0.2-58.3,0.4-87.3,0.6c-3.5,0-6.2-2.8-6.2-6.1c0-30.9,0-61.8,0-92.8C641.9,1104.5,644.6,1101.8,648,1101.8L648,1101.8z&#xD;&#xA;			 M1343.2,1101.7c28.8,0,57.7,0,86.7,0c3.4,0,6.4,2.5,6.6,5.7c1.8,29.4,3.6,58.7,5.3,88.1c0.2,3.2-2.5,5.8-6,5.9&#xD;&#xA;			c-29.1,0.2-58.2,0.4-87.3,0.6c-3.4,0-6.3-2.6-6.5-5.8c-1.5-29.5-3.2-59.1-4.7-88.7C1337.2,1104.2,1339.8,1101.7,1343.2,1101.7&#xD;&#xA;			L1343.2,1101.7z M1204.2,1101.7c28.8,0,57.7,0,86.7,0c3.4,0,6.3,2.6,6.5,5.9c1.5,29.6,2.9,59.3,4.4,88.9c0.2,3.2-2.5,5.9-6,5.9&#xD;&#xA;			c-29.1,0.2-58.2,0.4-87.3,0.6c-3.4,0-6.3-2.6-6.5-5.9c-1.2-29.8-2.5-59.7-3.7-89.5C1198.1,1104.3,1200.8,1101.7,1204.2,1101.7&#xD;&#xA;			L1204.2,1101.7z M1065.1,1101.7c28.8,0,57.7,0,86.7,0c3.4,0,6.3,2.6,6.4,5.9c1.2,29.9,2.3,59.8,3.5,89.7c0.1,3.3-2.6,5.9-6.1,5.9&#xD;&#xA;			c-29.1,0.2-58.2,0.4-87.3,0.6c-3.3,0-6.2-2.6-6.3-5.9c-0.9-30.1-1.9-60.2-2.8-90.3C1059.1,1104.4,1061.7,1101.7,1065.1,1101.7&#xD;&#xA;			L1065.1,1101.7z M926.1,1101.7c28.8,0,57.7,0,86.7,0c3.4,0,6.2,2.7,6.3,5.9c0.8,30.2,1.7,60.4,2.5,90.6c0.1,3.3-2.7,6-6,6&#xD;&#xA;			c-29.2,0.2-58.2,0.4-87.3,0.6c-3.5,0-6.3-2.7-6.4-5.9c-0.6-30.4-1.3-60.7-1.9-91.2C920,1104.5,922.7,1101.7,926.1,1101.7&#xD;&#xA;			L926.1,1101.7z M787.1,1101.8c28.8,0,57.7,0,86.7,0c3.4,0,6.3,2.7,6.3,6c0.5,30.5,1.1,60.9,1.6,91.4c0.1,3.3-2.8,6-6.2,6&#xD;&#xA;			c-29.2,0.2-58.3,0.4-87.3,0.6c-3.5,0-6.3-2.7-6.3-6c-0.3-30.6-0.7-61.3-1-92C780.9,1104.5,783.7,1101.8,787.1,1101.8L787.1,1101.8&#xD;&#xA;			z M648.1,1267.7c29.1-0.3,58.4-0.6,87.7-1c3.4,0,6.3,2.7,6.3,6c0.2,30.7,0.4,61.5,0.6,92.3c0,3.3-2.8,6.1-6.2,6.1&#xD;&#xA;			c-29.5,0.5-59,1-88.4,1.5c-3.5,0.1-6.2-2.6-6.2-6c0-30.9,0-61.9,0-92.8C641.9,1270.5,644.6,1267.8,648.1,1267.7L648.1,1267.7z&#xD;&#xA;			 M1351.7,1260.2c29.2-0.3,58.5-0.6,87.7-1c3.5,0,6.4,2.5,6.6,5.7c1.8,29.4,3.5,58.8,5.3,88.2c0.2,3.2-2.4,5.8-5.9,5.9&#xD;&#xA;			c-29.5,0.5-59,1-88.3,1.5c-3.5,0.1-6.5-2.4-6.7-5.7c-1.6-29.5-3.2-59.1-4.7-88.7C1345.5,1262.9,1348.3,1260.3,1351.7,1260.2&#xD;&#xA;			L1351.7,1260.2z M1210.9,1261.7c29.2-0.3,58.5-0.6,87.7-0.9c3.5,0,6.4,2.5,6.6,5.7c1.5,29.7,2.8,59.4,4.4,89&#xD;&#xA;			c0.2,3.2-2.4,5.8-5.9,5.9c-29.5,0.5-59,1-88.4,1.5c-3.5,0.1-6.5-2.5-6.6-5.7c-1.2-29.8-2.5-59.7-3.7-89.5&#xD;&#xA;			C1204.8,1264.4,1207.5,1261.7,1210.9,1261.7L1210.9,1261.7z M1070.2,1263.2c29.2-0.3,58.4-0.7,87.6-1c3.5,0,6.4,2.6,6.5,5.9&#xD;&#xA;			c1.2,29.9,2.3,59.8,3.5,89.8c0.1,3.2-2.5,5.9-6,5.9c-29.5,0.5-59,1-88.4,1.5c-3.4,0.1-6.4-2.5-6.5-5.8&#xD;&#xA;			c-0.9-30.1-1.9-60.3-2.8-90.4C1064.1,1265.9,1066.9,1263.3,1070.2,1263.2L1070.2,1263.2z M929.6,1264.7&#xD;&#xA;			c29.1-0.3,58.4-0.6,87.6-0.9c3.4,0,6.3,2.6,6.4,5.9c0.8,30.2,1.6,60.4,2.5,90.6c0.1,3.3-2.6,6-6,6c-29.5,0.5-59,1-88.3,1.5&#xD;&#xA;			c-3.5,0.1-6.4-2.5-6.5-5.9c-0.7-30.4-1.3-60.8-1.9-91.2C923.4,1267.5,926.1,1264.8,929.6,1264.7L929.6,1264.7z M788.8,1266.2&#xD;&#xA;			c29.1-0.3,58.4-0.6,87.7-0.9c3.4,0,6.3,2.6,6.3,5.9c0.5,30.5,1,61,1.6,91.4c0.1,3.3-2.7,6-6.2,6.1c-29.5,0.5-59,1-88.4,1.5&#xD;&#xA;			c-3.5,0.1-6.4-2.6-6.4-5.9c-0.3-30.7-0.7-61.4-1-92C782.6,1269,785.4,1266.2,788.8,1266.2L788.8,1266.2z M1334.8,943.1&#xD;&#xA;			c28.5,0.3,57,0.6,85.6,0.9c3.4,0,6.4,2.7,6.6,5.9c1.8,29.4,3.6,58.7,5.3,88.1c0.2,3.2-2.5,5.8-5.9,5.8&#xD;&#xA;			c-28.7-0.1-57.5-0.2-86.2-0.3c-3.4,0-6.3-2.7-6.5-5.9c-1.5-29.6-3-59.1-4.6-88.7C1328.9,945.6,1331.4,943,1334.8,943.1&#xD;&#xA;			L1334.8,943.1z M1197.4,941.6c28.5,0.3,57.1,0.6,85.6,0.9c3.4,0,6.3,2.8,6.5,6c1.5,29.6,3,59.3,4.5,88.9c0.2,3.2-2.5,5.8-5.9,5.8&#xD;&#xA;			c-28.8-0.1-57.6-0.2-86.3-0.3c-3.4,0-6.3-2.7-6.4-5.9c-1.2-29.9-2.4-59.7-3.7-89.5C1191.4,944.2,1194.1,941.6,1197.4,941.6&#xD;&#xA;			L1197.4,941.6z M1060,940.2c28.4,0.3,57,0.6,85.6,0.9c3.4,0,6.3,2.8,6.4,6c1.2,29.9,2.3,59.8,3.5,89.8c0.1,3.2-2.6,5.9-6,5.9&#xD;&#xA;			c-28.7-0.1-57.6-0.2-86.2-0.3c-3.3,0-6.2-2.7-6.3-6c-0.9-30.1-1.8-60.2-2.8-90.3C1054.1,942.8,1056.7,940.1,1060,940.2L1060,940.2&#xD;&#xA;			z M922.7,938.7c28.5,0.3,57.1,0.6,85.6,0.9c3.3,0,6.1,2.8,6.2,6.1c0.9,30.2,1.7,60.4,2.6,90.6c0.1,3.3-2.7,6-6,5.9&#xD;&#xA;			c-28.8-0.1-57.6-0.2-86.2-0.3c-3.4,0-6.3-2.8-6.3-6.1c-0.6-30.4-1.2-60.8-1.9-91.2C916.6,941.3,919.4,938.7,922.7,938.7&#xD;&#xA;			L922.7,938.7z M785.3,937.3c28.4,0.3,57,0.6,85.6,0.9c3.3,0,6.2,2.8,6.2,6.1c0.5,30.5,1.1,61,1.6,91.4c0.1,3.3-2.7,6-6.1,6&#xD;&#xA;			c-28.8-0.1-57.6-0.2-86.3-0.3c-3.4,0-6.1-2.8-6.2-6.1c-0.3-30.6-0.6-61.3-1-92C779.2,939.9,782,937.2,785.3,937.3z" fill="#fff" fill-rule="evenodd"/>
  </g>
  <path clip-rule="evenodd" d="M926.1,1101.7c-3.4,0-6.1,2.7-6.1,6c0.6,30.4,1.3,60.8,1.9,91.2c0.1,3.3,2.9,6,6.4,5.9l87.3-0.6&#xD;&#xA;		c3.3,0,6.1-2.7,6-6c-0.8-30.2-1.7-60.4-2.5-90.6c-0.1-3.3-2.9-5.9-6.3-5.9H926.1z" fill="#fb9674" fill-rule="evenodd"/>
  <path clip-rule="evenodd" d="M1059.2,1107.6l2.8,90.3c0.1,3.3,3,5.9,6.3,5.9l87.3-0.6c3.5,0,6.2-2.7,6.1-5.9l-3.5-89.7&#xD;&#xA;		c-0.1-3.3-3-5.9-6.4-5.9h-86.6C1061.7,1101.7,1059.1,1104.4,1059.2,1107.6z" fill="#fb9674" fill-rule="evenodd"/>
  <path clip-rule="evenodd" d="M1198.2,1107.6l3.7,89.5c0.1,3.2,3.1,5.9,6.5,5.9l87.3-0.6c3.5,0,6.2-2.7,6-5.9l-4.4-88.9&#xD;&#xA;		c-0.2-3.2-3.1-5.9-6.5-5.9l-86.6,0C1200.8,1101.7,1198.1,1104.3,1198.2,1107.6z" fill="#fb9674" fill-rule="evenodd"/>
  <g>
    <path clip-rule="evenodd" d="M632.6,1427.1c0.8,0,1.5-0.3,2.2-0.8c1.4-1.2,1.7-3.4,0.4-4.8c-16.5-19.8-25.6-45-25.6-70.8&#xD;&#xA;			c0-12.4,2-24.5,6-36.1c0.6-1.8-0.3-3.7-2.1-4.3c-1.8-0.6-3.7,0.3-4.3,2.1c-4.2,12.3-6.4,25.2-6.4,38.3c0,27.4,9.6,54.1,27.2,75.2&#xD;&#xA;			C630.6,1426.7,631.6,1427.1,632.6,1427.1z" fill="#fff" fill-rule="evenodd"/>
    <path clip-rule="evenodd" d="M561.8,1383c27.4,5.2,61.7,15.9,103,32c-2.8,0.7-5.4,1.6-7.9,2.7c-57-20.7-94.8-31.1-113.3-31.2&#xD;&#xA;			c3.3-1.1,6.6-1.9,9.9-2.3c-0.3-30.3-1.8-57.2-4.7-80.6C555.7,1339.8,560.1,1366.3,561.8,1383z" fill="#4f8dcb" fill-rule="evenodd"/>
    <path clip-rule="evenodd" d="M664.8,1415c12.7-3.8,23.9-3,33.7,2.5l-8.2,28.6c-0.9,3.2,0.9,5.8,4.1,5.6l-7.6,0.3c-3.4-1.9-7-3.1-10.6-3.6&#xD;&#xA;			c-7,4.4-16.1,3.5-27.4-2.9c-0.8-11.4,2.1-20.6,8.6-27.7c-0.2-0.1-0.3-0.1-0.5-0.2C659.3,1416.6,662,1415.7,664.8,1415z" fill="#ffb17d" fill-rule="evenodd"/>
    <path clip-rule="evenodd" d="M570.3,1466.1c-1.8-10.3-3.5-21.3-5.2-33.1c21.5,5.6,49.4,11,83.9,16c-0.1-1.2-0.3-2.3-0.3-3.4&#xD;&#xA;			c11.3,6.3,20.5,7.3,27.4,2.9c3.6,0.5,7.2,1.7,10.6,3.6l-77.1,3.2c0.9,5.2,3.2,9.2,6.7,11.6&#xD;&#xA;			C600.1,1467.6,584.8,1467.3,570.3,1466.1z" fill="#4f8dcb" fill-rule="evenodd"/>
    <path clip-rule="evenodd" d="M698.5,1417.5c-7.4-4.1-15.5-5.6-24.5-4.5c-14.7-31.9-5.6-77.1-26.4-146.3c15,7.5,32.4,43.9,52.3,109.1&#xD;&#xA;			c2.2,1.8,5.1,3.9,8.8,6.2L698.5,1417.5z" fill="#619fdf" fill-rule="evenodd"/>
    <path clip-rule="evenodd" d="M647.6,1266.7c20.8,69.1,11.6,114.4,26.4,146.3c-3,0.4-6.1,1-9.3,2c-41.3-16.1-75.6-26.8-103-32&#xD;&#xA;			c-1.7-16.7-6.1-43.2-13.1-79.4c2.9,23.4,4.4,50.2,4.7,80.6c-3.3,0.4-6.6,1.2-9.9,2.3c18.6,0.1,56.3,10.5,113.3,31.2l0.5,0.2&#xD;&#xA;			c-6.6,7.1-9.4,16.3-8.6,27.7c0.1,1.1,0.2,2.3,0.3,3.4c-34.4-5-62.4-10.4-83.9-16c-17.7-4.6-31-9.5-39.9-14.5&#xD;&#xA;			c-23.3-38.7-26.9-88.7-10.9-150c8.7-11,28-15.2,58-12.4c31.3,26.4,45.6,27.7,42.9,3.8C629,1260.2,639.8,1262.5,647.6,1266.7z" fill="#619fdf" fill-rule="evenodd"/>
    <path clip-rule="evenodd" d="M648.6,1267.2c18.5,38.4,21.8,116.5,30.3,125c3.2,3.9,10.8,8.6,22.8,14.3l-0.2,0.8l-3,10.2&#xD;&#xA;			c-7.4-4.1-15.5-5.6-24.5-4.5c-14.7-31.9-5.6-77.1-26.4-146.3C648,1266.9,648.3,1267,648.6,1267.2z" fill="#4f8dcb" fill-rule="evenodd"/>
    <path clip-rule="evenodd" d="M813.1,1461.8l-186.2,7.8c-9.6,0.4-15.6-4.9-17.2-14.3l209.6-8.7l0.6,0c2-0.1,5,0.8,4,6.5&#xD;&#xA;			C823,1457.6,818.2,1461.6,813.1,1461.8z" fill="#1e77d0" fill-rule="evenodd"/>
    <path clip-rule="evenodd" d="M843.6,1346.5l-120.3,5c-3.2,0.1-6.6,2.9-7.5,6.1l-25.5,88.4c-0.9,3.2,0.9,5.8,4.1,5.6l120.3-5&#xD;&#xA;			c3.2-0.1,6.6-2.9,7.5-6.1l25.5-88.4C848.6,1348.9,846.8,1346.4,843.6,1346.5z" fill="#86bdf4" fill-rule="evenodd"/>
    <path clip-rule="evenodd" d="M832.8,1382.4l-15.7,54.4c-0.8,2.7-3.6,5.2-6.5,5.3l-109.8,4.6c-2.8,0.1-4.1-2.1-3.3-4.6l10.5-36.3&#xD;&#xA;			c9,1.1,18.5,1.7,28.2,1.7c7.3,0,14.4-0.3,21.3-1c1.4,3.7,4.9,6.2,9.4,6.2c5.7,0,11.2-4.1,13.1-9.5&#xD;&#xA;			C801,1399,819.2,1391.7,832.8,1382.4z" fill="#1e77d0" fill-rule="evenodd"/>
    <path clip-rule="evenodd" d="M868.9,1477.3c-9.2-6-16.3-11.5-21.3-16.6c-7.8,3.5-15.2,6.7-22.3,9.5c-17.1-2.2-37.1-4.3-60-6.4l47.8-2&#xD;&#xA;			c5.1-0.2,10-4.2,10.8-8.8c0.9-5.6-2-6.5-4-6.5l-0.6,0l-4.6,0.2c3.2-0.1,6.6-2.9,7.5-6.1l12.6-43.7c7.7-0.4,14.5-0.6,20.4-0.4&#xD;&#xA;			c33.8,12.2,62.8,62.4,125.6,104.2c-1,11-6.4,17.9-14.8,24.9c-32.9-14.1-66.1-29.8-85.5-41.1C876.3,1482,872.4,1479.6,868.9,1477.3&#xD;&#xA;			z" fill="#4567c5" fill-rule="evenodd"/>
    <path clip-rule="evenodd" d="M1048,1505.3c-25,22-43.5,35.3-54.4,40.4c-11.8,5.5-15.2,1.3-18-12.4c32.9-10.5,15-17.7,27.4-25.9&#xD;&#xA;			c13.2-0.8,28.3-7,45.1-18.5C1058.5,1487.7,1059.7,1494.2,1048,1505.3z" fill="#3b5bb2" fill-rule="evenodd"/>
    <path clip-rule="evenodd" d="M1041.4,1476.6c-1.1,7.7-1.8,11.4-2.7,18.1h0l-0.5,0.3l-0.2,0.1l-0.3,0.2l-0.5,0.3l0,0l-0.5,0.3l-0.2,0.1&#xD;&#xA;			l-0.3,0.2l-0.5,0.3l0,0l-0.5,0.3l-0.2,0.1l-1.3,0.7l-0.2,0.1l-0.3,0.2l-0.4,0.2l-0.1,0.1l-0.5,0.3l-0.1,0.1l-0.4,0.2l-0.4,0.2&#xD;&#xA;			l-0.1,0.1l-0.5,0.2l-0.1,0.1l-0.4,0.2l-0.4,0.2l-0.1,0.1l-0.5,0.2l-0.1,0l-0.4,0.2l-0.3,0.2l-0.2,0.1l-0.5,0.2l-0.1,0l-0.4,0.2&#xD;&#xA;			l-0.3,0.1l-0.7,0.3l0,0l-0.7,0.3l-0.2,0.1l-0.5,0.2l0,0l-0.5,0.2l-0.2,0.1l-0.2,0.1l-0.5,0.2l0,0l-0.5,0.2l-0.2,0.1l-0.3,0.1&#xD;&#xA;			l-0.4,0.2l0,0l-0.5,0.2l-0.2,0.1l-0.3,0.1l-0.4,0.2l-0.1,0l-0.5,0.2l-0.2,0.1l-0.3,0.1l-0.4,0.1l-0.1,0l-0.5,0.2l-0.1,0l-0.3,0.1&#xD;&#xA;			l-0.5,0.1l-0.5,0.1l-0.1,0l-0.3,0.1l-0.3,0.1l-0.1,0l-0.5,0.1l-0.1,0l-0.4,0.1l-0.3,0.1l-0.1,0l-0.5,0.1l-0.1,0l-0.4,0.1l-0.3,0.1&#xD;&#xA;			l-0.2,0l-0.5,0.1l-0.9,0.2l-0.4,0.1l0,0l-0.4,0.1l-0.2,0.1l-0.2,0l-0.4,0.1l0,0l-0.4,0.1l-0.4,0.1l0,0l-0.4,0.1l0,0l-0.4,0.1&#xD;&#xA;			l-0.2,0l-0.2,0c0.1-0.8,0.2-1.7,0.5-2.7c9.5-9.2,17.9-19.2,23.2-38.9C1039.3,1457.3,1043.1,1460.5,1041.4,1476.6L1041.4,1476.6z&#xD;&#xA;			 M1035.3,1516.2c-1.9,10.6-4.3,20.4-6.6,25.5c-4.9,10.8-14.1,5.2-24.1-2.3C1012.8,1534.1,1023.1,1526.4,1035.3,1516.2z" fill="#3b5bb2" fill-rule="evenodd"/>
    <path clip-rule="evenodd" d="M1020.9,1503.3l-0.3,0.1l-0.1,0l-0.5,0.2l-0.2,0.1l-0.3,0.1l-0.4,0.1l-0.1,0l-0.5,0.2l-0.1,0l-0.3,0.1&#xD;&#xA;			l-0.5,0.1l-0.5,0.1l-0.1,0l-0.3,0.1l-0.3,0.1l-0.1,0l-0.5,0.1l-0.1,0l-0.4,0.1l-0.3,0.1l-0.1,0l-0.5,0.1l-0.1,0l-0.4,0.1l-0.3,0.1&#xD;&#xA;			l-0.2,0l-0.5,0.1l-0.9,0.2l-0.4,0.1l0,0l-0.4,0.1l-0.2,0.1l-0.2,0l-0.4,0.1h0l-0.4,0.1l-0.4,0.1l0,0l-0.4,0.1l0,0l-0.4,0.1l-0.2,0&#xD;&#xA;			l-0.2,0c0.1-0.8,0.2-1.7,0.5-2.7c9.5-9.2,17.9-19.2,23.2-38.9c1.9-2,3.6-3.3,5-3.8C1035.8,1477.5,1030.5,1491.5,1020.9,1503.3z" fill="#284190" fill-rule="evenodd"/>
    <path clip-rule="evenodd" d="M978.7,1532.2c-3-4-6.2-7.1-9.8-9.1c5.7-5.3,9.7-10.8,11.3-18.3c6.5,3.4,12.8,5.4,19,6&#xD;&#xA;			C994.8,1517.4,1003,1523.7,978.7,1532.2z" fill="#ffb17d" fill-rule="evenodd"/>
    <path clip-rule="evenodd" d="M630.1,1536.6c-40.2-2.5-56.5-32.6-55.8-70.2c13.3,1,27.3,1.1,42,0.5c2.8,1.9,6.3,2.8,10.5,2.7l138.4-5.8&#xD;&#xA;			c22.9,2,42.9,4.2,60,6.4c10.5,1.4,19.9,2.7,28.2,4.2c5.9,1.6,14.8,4.9,26.6,9.9l0.4,0.2c19.4,11.3,52.6,27,85.5,41.1&#xD;&#xA;			c1-0.8,1.9-1.6,2.8-2.5c3.6,2,6.9,5.1,9.8,9.1c-1,0.3-2.1,0.7-3.2,1.1c0,0.2,0.1,0.5,0.1,0.7c-93.8,8.5-124.7-5.7-149.6-13.3&#xD;&#xA;			C744.7,1535.2,705.4,1540.5,630.1,1536.6z" fill="#4567c5" fill-rule="evenodd"/>
    <path clip-rule="evenodd" d="M583.9,1209c3.1-12.7,3.7-27.1,7.8-32.7c33.8-11.9,37.6,6.8,52.5,10.4c0.4,12.4-5.9,47.8-18.7,53.6&#xD;&#xA;			c-2.7,2.9-7.2,4.6-13.4,5.1c0.6,2.6,2.4,12.1,3.2,14.5v0c2.7,23.9-11.7,22.6-42.9-3.8l-0.1,0c0.2-8.4,0.9-14.8,0.8-21.2&#xD;&#xA;			c-0.1-4.3-0.3-8.1-0.5-11.5c-11.2-11.7-13.4-21.1-6.6-28.4c8.9-4.2,14,1.8,15.4,17.9C583.9,1211.9,582.1,1212.8,583.9,1209z" fill="#ffb17d" fill-rule="evenodd"/>
    <path clip-rule="evenodd" d="M644.3,1186.7c-14.9-3.6-18.7-22.3-52.5-10.4c-4.2,5.6-4.8,20-7.8,32.7c-1.8,3.8,0,2.9-2.6,3.9&#xD;&#xA;			c-1.4-16.1-6.6-22.1-15.4-17.9c-6.8,7.2-4.6,16.7,6.7,28.4c0.3,3.3,0.4,7.2,0.5,11.5c-31.5-29.1-25.1-68.5-6-81.5&#xD;&#xA;			c-4.7,0.5-9.4,2.3-14.3,5.4c7-9.4,16.4-12.6,28.2-9.8c-1.3-6.6-1-11.5,0.7-14.7c0.5,4.5,1.4,7.9,2.7,10.4&#xD;&#xA;			c7.6-6.9,22.2-8.6,37.1-2.9c19.3,7.3,21.9,6.9,29.6,1.6C671.6,1157.3,656.9,1190.9,644.3,1186.7z" fill="#284190" fill-rule="evenodd"/>
    <path clip-rule="evenodd" d="M592.2,1239.6c5.6,3.6,12.3,5.5,19.9,5.7c0.3,1.5,1,5,1.7,8.3C604.2,1251.1,597,1246.4,592.2,1239.6z" fill="#ef8161" fill-rule="evenodd"/>
    <path clip-rule="evenodd" d="M823.6,1448.5c10.6-3.7,19.7-8.2,27.3-13.4c3.5,3.4,7.1,6.8,10.6,10.1c34.5,32.1,67.8,56.7,99.8,71.9&#xD;&#xA;			c3.2,1.5,6.3,2.9,9.5,4.2c-0.6,0.6-1.2,1.2-1.9,1.8l-2.8,2.5c-6.5-2.8-13-5.6-19.4-8.5c-26.1-11.6-50.5-23.5-66.1-32.6&#xD;&#xA;			c-0.1-0.1-0.3-0.2-0.4-0.2c-4-2.4-7.8-4.7-11.2-6.9c-2.6-1.7-5.1-3.4-7.4-5c-5.7-4.1-10.4-8-13.9-11.6c-7.8,3.5-15.2,6.7-22.3,9.5&#xD;&#xA;			c-9.6-1.2-20.2-2.5-31.7-3.6c-8.9-0.9-18.3-1.8-28.3-2.7l28.3-1.2l19.5-0.8c5.1-0.2,10-4.2,10.8-8.8&#xD;&#xA;			C824.2,1450.9,824.1,1449.5,823.6,1448.5z" fill="#3b5bb2" fill-rule="evenodd"/>
    <path clip-rule="evenodd" d="M635.9,1517c23.4,6.6,56,7.4,97.6,2.4c7.1-0.8,14-1.6,20.6-2.4c14.2-1.8,27.4-3.6,39.4-5.4&#xD;&#xA;			c12-1.8,22.8-3.7,32.6-5.5c7.1,4.2,15.3,7.8,24.6,10.9c3.4,1.1,7,2.2,10.8,3.2c29.3,7.8,67.7,10.9,115.2,9.4&#xD;&#xA;			c0.7,0.8,1.3,1.6,2,2.5c-1,0.4-2.1,0.7-3.2,1.1l0.1,0.7c-57.1,5.2-90.8,1.9-114.1-3.1c-15-3.2-25.7-7.2-35.4-10.2&#xD;&#xA;			c-11.6,2.1-22.4,4-32.5,5.7c-60.9,10.2-98.9,13.6-163.4,10.2c-18-1.1-31.2-7.8-40.2-18.2c-11.2-12.8-16-31.3-15.5-52&#xD;&#xA;			c1.8,0.1,3.6,0.2,5.5,0.4c3.7,0.2,7.4,0.3,11.2,0.4C592.4,1492.4,607.3,1509,635.9,1517z" fill="#3b5bb2" fill-rule="evenodd"/>
    <path clip-rule="evenodd" d="M770.1,1392.9c-4.5,0-8.7,3.6-9.5,8.1c-0.7,4.5,2.3,8.1,6.8,8.1c4.5,0,8.7-3.6,9.5-8.1&#xD;&#xA;			C777.7,1396.5,774.6,1392.9,770.1,1392.9z" fill="#1e77d0" fill-rule="evenodd"/>
    <path clip-rule="evenodd" d="M646.5,1163.2c8.7,6.6,11.1,13.1,7.1,19.5c-15,5-28.6,4-40.9-3.2C620.6,1179.9,631.8,1174.4,646.5,1163.2z" fill="#284190" fill-rule="evenodd"/>
    <path clip-rule="evenodd" d="M621.2,1166c4.9,3,6.5,6.3,4.7,9.9c-7.6,3.4-14.8,3.5-21.6,0.4C608.4,1176.1,614,1172.7,621.2,1166z" fill="#284190" fill-rule="evenodd"/>
  </g>
  <g>
    <path clip-rule="evenodd" d="M1604.9,1387.5c0,0-33.1-42.3-33-42.1c-2.4,1.6-15.1,11.6-17.9,10.3l-16.5-7.3c-2.6-1.1-4.3-3.3-4.9-5.8&#xD;&#xA;			c-1.5,0.1-30.5,1.5-24.7-16c-7.1,19.7,1.7,30.1,1.7,30.1s47.5,36.6,60.5,42.9c13,6.3,28.4,57.8,28.4,57.8l27.7-12.5L1604.9,1387.5&#xD;&#xA;			z" fill="#ffb17d" fill-rule="evenodd"/>
    <path clip-rule="evenodd" d="M1356,1097c8.1-20.3,27.9-32.4,48.6-31.6l-35,88C1354,1139.7,1347.9,1117.3,1356,1097z" fill="#1e77d0" fill-rule="evenodd"/>
    <path clip-rule="evenodd" d="M1578.8,1250.8l75.3,30c4,1.6,8.6-0.4,10.2-4.4l38.5-96.7c1.6-4-0.4-8.6-4.4-10.2l-75.3-30L1578.8,1250.8z" fill="#619fdf" fill-rule="evenodd"/>
    <rect clip-rule="evenodd" fill="#1e77d0" fill-rule="evenodd" height="48.4" transform="rotate(-68.291 1623.437 1204.122)" width="119.7" x="1563.6" y="1179.9"/>
    <path clip-rule="evenodd" d="M1328.5,1255.6l116-291.5c32.3,77.2,94.4,141.9,178.3,175.4l-44.3,111.3&#xD;&#xA;			C1494.6,1217.4,1405.1,1221.7,1328.5,1255.6z" fill="#619fdf" fill-rule="evenodd"/>
    <path clip-rule="evenodd" d="M1623,1268.7l-62.7,122.5c-3,4.6-8.8,6.4-13.9,4.4l-43.2-17.2c-6.8-2.7-9.4-11-5.4-17.1l80.9-110.2&#xD;&#xA;			L1623,1268.7z" fill="#1e77d0" fill-rule="evenodd"/>
    <path clip-rule="evenodd" d="M1443.5,966.8l-114.9,288.8c75.3-33.3,163.3-38,246.1-6.4C1549.3,1232.1,1393.4,1119.5,1443.5,966.8z" fill="#1e77d0" fill-rule="evenodd"/>
    <path clip-rule="evenodd" d="M1532.6,1342.6L1532.6,1342.6L1532.6,1342.6l0.7,0l-0.1,0c5.9,0,9.5-4.7,9.5-4.7s16.9-16.9,26-29.9&#xD;&#xA;			c9.1-13,2.6-20.7,2.6-20.7l-2.4-1.1l-13.1-6.2c0,0-23.4,4.9-41.2,33.3c-3,4.9-5.2,9.3-6.6,13.4&#xD;&#xA;			C1502,1344.1,1531.1,1342.7,1532.6,1342.6z" fill="#ffb17d" fill-rule="evenodd"/>
    <path clip-rule="evenodd" d="M1633.1,1366.9c0-2.4-0.4-62.1-0.4-62.1l-46.5-46.9c0,0-10.2-1.6-15,0c-4.7,1.6,0,35.1,19.7,43.3&#xD;&#xA;			c-3.1,6.6-8.3,16.8-10.3,32.4l-3.1,23.5l8.8,27.8c0,0,4.9,0,7.2-2.2l11.6,10.6l15.4,54.7l36.9-19.3&#xD;&#xA;			C1657.4,1428.9,1633.1,1369.3,1633.1,1366.9z" fill="#ffb17d" fill-rule="evenodd"/>
    <path clip-rule="evenodd" d="M1677.9,1412.6l-92,41.8l22.4,80.9c48.2,0.5,93.3,1.4,134,2.5L1677.9,1412.6z" fill="#1e77d0" fill-rule="evenodd"/>
  </g>
</svg>