<?xml version="1.0" encoding="utf-8"?>
<svg xmlns="http://www.w3.org/2000/svg" id="MC009" version="1.1" viewBox="0 0 3000 3000">
  <defs>
    <linearGradient gradientUnits="userSpaceOnUse" id="linear-gradient" x1="1507.689" x2="1837.716" y1="298.499" y2="1366.744">
      <stop offset="0" stop-color="#c7effa"/>
      <stop offset="1" stop-color="#59cfef"/>
    </linearGradient>
  </defs>
  <path d="M2593.353,2713.243c.775,64.942-488.107,110.748-1091.95,102.311-603.843-8.437-1093.982-67.922-1094.757-132.863-.775-64.942,488.108-110.748,1091.95-102.311,603.843,8.437,1093.982,67.922,1094.757,132.863Z" fill="#d0f6f7" id="Shadow"/>
  <g id="Window">
    <path d="M1300.472,1142.915v-560.043c0-208.825,169.791-380.663,378.584-376.965,201.995,3.577,365.217,169.005,365.217,371.838v565.17c0,19.177-15.546,34.723-34.723,34.723h-674.355c-19.177,0-34.723-15.546-34.723-34.723Z" fill="#d0f6f7"/>
    <path d="M1672.372,248.057h0c181.96,0,329.689,147.729,329.689,329.689v557.68h-659.379v-557.68c0-181.96,147.729-329.689,329.689-329.689Z" fill="url(#linear-gradient)"/>
    <path d="M2002.056,577.728v557.701h-104.311c61.344-215.139,31.221-588.544,8.07-790.459,59.487,59.601,96.241,141.936,96.241,232.757Z" fill="#47c4d9" opacity=".25"/>
  </g>
  <g id="Doctor">
    <g>
      <g>
        <polygon fill="#ff97a6" points="800.769 2398.019 800.47 2522.858 903.249 2535.192 926.386 2418.958 800.769 2398.019"/>
        <g id="Foot">
          <g>
            <path d="M1061.815,2589.014c-15.326-2.305-35.565-4.06-56.353-6.965-34.969-4.886-71.492-13.032-88.798-32.543,0,0,9.133-43.892,8.785-65.293l-134.023,2.467c2.467,70.712,2.015,188.734,9.67,191.195,10.559,3.396,274.891-3.66,298.718-15.795,23.827-12.136,3.109-66.882-37.998-73.066Z" fill="#36477e"/>
            <path d="M935.13,2575.025c5.973,5.973,21.265-6.316,17.239-8.631-4.026-2.315-22.794,3.076-17.239,8.631Z" fill="#192c51"/>
            <path d="M974.269,2585.738c5.973,5.973,21.373-10.573,17.347-12.888-4.026-2.315-22.902,7.333-17.347,12.888Z" fill="#192c51"/>
            <path d="M793.07,2546.703c2.467,63.312,2.278,129.318,8.023,131.178,5.273,1.693,73.844.777,144.135-2.067-13.084-34.23-45.014-115.555-152.158-129.11Z" fill="#192c51" opacity=".5"/>
            <path d="M1099.805,2662.078c-7.96,4.083-42.859,7.545-86.144,10.257-9.924-50.781,10.299-75.82,24.333-86.61,8.491,1.168,16.549,2.191,23.804,3.298,41.116,6.172,61.849,60.937,38.007,73.054Z" fill="#192c51" opacity=".5"/>
            <path d="M791.239,2654.175c-.02,5.192,1.118,28.161,10.534,29.495,9.414,1.334,307.696-12.16,309.44-16.352,1.744-4.192,5.753-21.84-4.216-22.828-3.06-.303-315.758,9.685-315.758,9.685Z" fill="#ceaf2e"/>
          </g>
        </g>
      </g>
      <path d="M677.471,1254.957c-26.934,117.688,113.768,512.877,113.768,512.877l-8.857,704.868,162.847-10.609s56.009-469.301,61.991-688.815c3.179-116.639-4.109-435.261-21.763-518.321h-307.986Z" fill="#e5c74a"/>
      <path d="M1007.219,1773.294c0,.228,0,.454-.038.682-24.325-7.161-44.028-13.261-44.786-17.77-1.174-6.745,21.37-355.824-11.215-423.76-6.101-12.693-45.468,12.011-45.468,12.011,0,0-15.118,366.395,0,376.739,15.08,10.306,39.898,23.53,39.898,23.53,0,0-51.947,16.331-54.107,24.022-2.122,7.654-83.092,595.25-58.351,629.275,16.975,23.303,70.248,49.825,113.48,52.25-.909,7.692-1.402,11.822-1.402,11.822l-162.85,10.609,8.866-704.865s-140.723-395.191-113.783-512.878h308.007c17.657,83.055,24.932,401.671,21.749,518.334Z" fill="#ceaf2e" opacity=".5"/>
      <g id="Foot1">
        <path d="M639.674,2427.824c-.205,6.952,3.512,112.012,4.793,140.478,13.636,14.321,100.962,21.418,109.069,6.581.697-23.535,16.401-143.208,16.401-143.208l-130.263-3.852Z" fill="#ff97a6"/>
        <path d="M640.079,2686.392c10.318,4.872,234.121,5.264,256.14,5.759,22.02.495,15.299-78.895-52.66-81.964l-74.54-65.129c-3.237-15.947,6.042-48.276,1.85-55.501-7.504-12.935-136.478-7.641-138.135,4.317-2.306,16.569-2.987,187.648,7.344,192.518Z" fill="#36477e"/>
        <path d="M748.327,2578.728c5.973,5.973,46.938-15.739,42.912-18.054-4.026-2.315-48.467,12.499-42.912,18.054Z" fill="#192c51"/>
        <path d="M777.954,2598.062c5.973,5.973,46.938-15.739,42.912-18.054-4.026-2.315-48.467,12.499-42.912,18.054Z" fill="#192c51"/>
        <path d="M634.644,2666.176c.004-.168,98.603,6.771,153.8,7.71,6.166.105,11.515-15.589,66.778-15.119,38.272-.237,50.953,12.171,52.266,13.545,2.454,2.566,6.747,26.481-4.114,28.147-10.86,1.665-259.382-1.585-263.482-5.924-8.117-8.591-5.248-28.357-5.248-28.357Z" fill="#ceaf2e"/>
      </g>
      <path d="M593.82,1254.957c.449,385.781,33.453,1216.198,33.453,1216.198l155.108,1.547,123.33-1217.745h-311.892Z" fill="#e5c74a"/>
      <path d="M593.82,1254.957c.45,385.782,33.46,1216.198,33.46,1216.198l31.274.313c-25.045-148.471-30.803-664.306-15.956-670.507,16.65-6.972,72.15,3.472,98.055-17.417,25.905-20.889-25.905-386.451,5.55-426.481,31.455-40.042,94.351-15.667,118.397-15.667l.957,310.023,40.151-396.463h-311.888Z" fill="#ceaf2e" opacity=".5"/>
      <path d="M827.213,1786.337c10.803-27.293-64.392-5.473-66.636,8.335-2.243,13.808,64.297-2.424,66.636-8.335Z" fill="#ceaf2e" opacity=".5"/>
      <path d="M917.534,1785.161c-10.803-27.294,64.392-5.473,66.636,8.335,2.243,13.808-64.297-2.424-66.636-8.335Z" fill="#ceaf2e" opacity=".5"/>
    </g>
    <g>
      <g>
        <path d="M1416.941,1070.779s73.51-24.19,82.684-13.677c9.173,10.513-22.057,26.114-25.543,28.954l-.006.052c7.514,1.551,85.258,17.896,84.079,30.052-1.079,11.112-37.685,6.143-47.085,4.314,7.203,2.743,53.034,14.499,50.372,24.124-3.788,13.7-56.874-1.872-56.874-1.872,5.847,4.363,45.311,14.561,40.285,26.46-3.827,9.06-47.829-5.856-47.829-5.856,0,0,29.392,12.129,26.262,21.031-4.567,12.988-43.903-3.001-43.903-3.001l-73.635-13.318s-5.75-1.261-7.951-3.48c-1.089-1.097-32.06-27.74-29.705-49.394,2.407-22.135,38.174-39.295,40.06-40.568,3.73-2.519,8.792-3.821,8.792-3.821Z" fill="#ff97a6"/>
        <path d="M1179.31,890.332l22.704,93.922s155.217,77.034,200.665,88.647c-6.595,22.785-28.376,59.871-4.884,91.662,12.871,17.418-230.119,6.482-299.206-39.743-37.487-25.082-75.911-158.06-68.406-183.42,7.505-25.36,149.126-51.067,149.126-51.067Z" fill="#e5c74a"/>
        <path d="M1098.572,1124.809c-37.473-25.083-75.893-158.038-68.391-183.425,4.206-14.171,50.318-28.455,90.178-38.269-8.412,43.838-24.932,138.45-15.497,162.851,11.063,28.606,176.263,76.651,282.279,66.648.152,10.761,3.031,21.635,10.647,31.941,12.882,17.429-230.105,6.48-299.217-39.746Z" fill="#ceaf2e" opacity=".5"/>
        <path d="M1200.592,987.891c10.043,7.732-58.645,20.757-52.314,14.81,6.331-5.947,44.299-20.981,52.314-14.81Z" fill="#ceaf2e"/>
        <path d="M1483.617,1167.261c-.084.725.16,1.477.726,2.019.961.922,2.485.892,3.406-.067.773-.805,18.944-20.125,20.553-58.747.056-1.331-.979-2.454-2.31-2.51-1.331-.054-2.461.966-2.509,2.311-1.522,36.67-19.034,55.419-19.212,55.604-.378.395-.595.886-.653,1.39Z" fill="#ef8499"/>
        <path d="M1432.644,1111.328c-.137,1.191.629,2.324,1.824,2.616.314.076,31.462,7.247,41.914-27.133.402-1.289-.331-2.623-1.605-3.01-1.274-.387-2.623.332-3.009,1.606-9.107,29.95-35.062,24.112-36.163,23.848-1.294-.309-2.596.486-2.908,1.78-.023.098-.042.196-.053.294Z" fill="#ef8499"/>
      </g>
      <path d="M1023.785,581.288s49.859,18.229,61.59,30.834c59.754,64.207,110.841,285.757,110.841,285.757,0,0-44.367,19.189-152.706,55.167-51.539-40.489-71.94-200.468-71.94-200.468l52.215-171.291Z" fill="#d0f6f7"/>
      <path d="M1136.348,920.924c-23.302,8.449-53.955,19.21-92.83,32.131-51.53-40.504-71.953-200.476-71.953-200.476l37.132-121.854c11.367,56.494,24.401,117.307,24.401,117.307l103.25,172.892Z" fill="#6ae0e5" opacity=".35"/>
      <path d="M1029.058,1231.103c-22.433,113.485-437.016,48.31-425.646-66.813,2.366-23.721,177.478-612.224,177.478-612.224,0,0,18.675-6.263,52.765-1.214l165.963,24.581c9.488,1.405,12.49,2.965,12.49,2.965,0,0,23.406,620.304,16.95,652.705Z" fill="#e5c74a"/>
      <path d="M955.624,688.188c-26.789,9.291-115.681-28.027-124.487-2.516-8.806,25.511-13.42,101.922-8.499,125.277,4.921,23.354,99.04,72.49,111.673,55.087,12.634-17.402,41.63-184.895,21.313-177.848Z" fill="#ceaf2e" opacity=".35"/>
      <g opacity=".5">
        <path d="M833.204,959.765c.532,1.375,7.963.026,19.421-3.805,11.451-3.822,26.879-10.251,43.17-18.851,16.283-8.615,30.286-17.739,39.896-25.046,9.62-7.308,14.921-12.688,14.085-13.902-1.788-2.541-27.111,12.496-59.073,29.312-31.901,16.933-58.59,29.383-57.498,32.292Z" fill="#ceaf2e"/>
      </g>
      <g opacity=".5">
        <path d="M897.491,896.893c.356-1.502-3.131-3.646-8.666-6.492-2.767-1.4-6.034-3.053-9.656-4.887-3.592-1.859-7.508-3.906-11.567-6.156-4.044-2.276-7.841-4.538-11.307-6.621-3.461-2.123-6.582-4.038-9.225-5.66-5.326-3.221-8.98-5.065-10.073-3.975-1.04,1.031.744,4.875,5.102,9.866,2.167,2.5,5.015,5.22,8.406,7.975,3.413,2.721,7.383,5.455,11.781,7.93,4.413,2.448,8.823,4.393,12.93,5.873,4.124,1.442,7.934,2.441,11.199,2.975,6.535,1.094,10.744.597,11.076-.829Z" fill="#ceaf2e"/>
      </g>
      <path d="M678.437,1248.157c83.518,63.931,239.726,71.512,329.055,15.951-133.321,22.28-198.637,19.077-329.055-15.951Z" fill="#ceaf2e"/>
      <path d="M908.231,1231.02c22.345-132.606,86.773-536.117,103.981-644.037.799,66.312,5.861,498.729,3.863,652.952-.031,2.419-.064,4.763-.099,7.044l-107.745-15.958Z" fill="#ceaf2e" opacity=".5"/>
      <path d="M1012.107,578.398s-20.717,362.212-27.882,698.114c-3.961,185.707,13.474,366.247,0,466.286,0,0,72.295,32.43,126.277-1.055,16.447-64.693-32.587-263.57-42.078-456.195-13.968-283.477,10.128-599.735-40.736-699.185-2.755-5.388-12.599-4.484-15.58-7.964Z" fill="#d0f6f7"/>
      <path d="M1110.507,1741.731c-14.057,8.715-29.403,12.959-44.369,14.474,27.395-117.193-17.402-398.362-17.402-398.362,23.113-30.804-18.556-261.68-18.556-261.68l33.192-19.324c.493,69.111,1.667,139.89,5.04,208.698,9.51,192.632,58.54,391.516,42.096,456.193Z" fill="#6ae0e5" opacity=".35"/>
      <path d="M1077.144,1365.89c-7.498,8.796-44.535,1.942-61.326-11.898-5.37-4.419-8.319-7.993-7.435-10.043,4.657-10.366,82.617,5.686,68.761,21.941Z" fill="#47c4d9"/>
      <path d="M816.12,548.255l-32.731.629s-236.331,480.304-226.111,648.689c1.18,19.443-35.275,49.405-19.404,97.564,19.404,134.961-38.995,285.001-19.16,419.607,29.065,48.272,209.433,83.199,224.575,19.107,19.388-82.068-14.027-245.869,8.136-464.782,34.691-342.657,64.696-720.815,64.696-720.815Z" fill="#d0f6f7"/>
      <path d="M761.011,1172.285c4.957-50.988,9.759-101.898,14.327-151.421-23.757-4.979-47.418-10.532-70.726-17.114-33.453-9.447-66.081-21.48-98.434-34.14-30.751,90.456-52.131,174.764-48.9,227.948,1.174,19.475-35.276,49.408-19.4,97.566,19.4,134.963-38.989,285.008-19.172,419.63,9.51,15.762,35.2,30.122,65.966,40.087-17.278-98.21-10.988-418.19-8.715-427.473,2.614-10.685,155.69-16.293,145.043-25.993-10.647-9.7-154.401-59.335-145.043-70.248,9.359-10.95,47.893,20.991,54.296,15.838,6.366-5.153-26.826-82.676-17.24-112.722,0,0,85.025,17.619,147.998,38.041Z" fill="#6ae0e5" opacity=".35"/>
      <path d="M710.565,1360.406c1.306,9.888-95.778,50.673-109.321,27.85-6.453-10.876,106.908-46.125,109.321-27.85Z" fill="#47c4d9"/>
      <g id="Head">
        <g id="Neck">
          <path d="M811.265,299.606c6.776-43.134,45.924-47.912,45.924-47.912-12.423-22.727,31.852-58.417,62.057-38.74,5.166-20.907,26.366-33.592,47.257-28.312,11.748,2.941,20.804,10.882,25.688,21.043,17.028-18.769,44.741-25.392,69.196-14.697,30.717,13.565,44.627,49.321,31.177,80.054-1.353,2.967-2.904,5.672-4.569,8.361,1.918.504,3.72.992,5.588,1.839,14.31,6.342,20.845,23.05,14.487,37.475-4.125,9.359-12.694,15.403-22.223,16.634-.316,5.568,21.862,116.783-115.32,89.297-.321,5.195-1.497,10.129-3.674,14.633-23.93,49.51-85.781,49.158-101.75,34.691-15.969-14.467-9.81-39.763-9.81-39.763,0,0-26.483,4.883-38.057-19.957-7.82-16.784,6.401-40.036,16.452-53.362-12.092-13.379-26.497-35.355-22.423-61.284Z" fill="#192c51"/>
          <path d="M958.015,487.187s-.445,50.071-1.572,99.94c1.304,29.092-47.706,56.283-47.706,56.283,0,0-52.294-40.111-46.888-73.853,16.673-61.775,27.55-160.257,27.55-160.257l68.616,77.887Z" fill="#ff97a6"/>
          <path d="M956.458,587.114c1.113-49.848,1.557-99.944,1.557-99.944l-36.623-41.561c-8.769,32.65-27.699,125.642,35.065,141.505Z" fill="#ed7e94"/>
        </g>
        <g id="Face">
          <path d="M881.949,446.091c10.376,44.613,66.884,107.383,123.362,93.11,70.305-17.768,68.838-154.221,66.762-197.063-26.17-6.857-51.303-23.924-57.719-35.947-46.962,30.477-71.241,41.679-94.504,40.973-5.006,70.821-22.637,32.466-29.738,14.486-5.909,27.427-8.91,50.698-8.163,84.442Z" fill="#ff97a6"/>
        </g>
        <path d="M933.12,432.188c-.993,9.416,8.264,18.11,20.675,19.418,12.411,1.308,23.277-5.265,24.27-14.681.992-9.416-8.264-18.11-20.675-19.418-12.411-1.308-23.277,5.264-24.27,14.681Z" fill="#ed7e94"/>
        <path d="M1042.465,444.893c-.992,9.416,8.264,18.11,20.675,19.418,12.411,1.309,23.277-5.264,24.269-14.68.993-9.417-8.264-18.11-20.675-19.418-12.411-1.308-23.277,5.264-24.269,14.68Z" fill="#ed7e94"/>
        <g id="Mouth">
          <path d="M1001.089,512.334c1.317-2.011,1.892-4.255,1.706-6.607-.077-2.207-.931-4.394-2.237-6.129-2.83-3.757-7.844-4.851-12.202-3.268-2.459.945-4.5,2.596-5.726,4.878-.685,1.195.114,2.858,1.219,3.273,1.34.576,2.587-.023,3.272-1.219.18-.362-.307.344.144-.109.145-.109.163-.236.325-.471.145-.109.307-.344.452-.453,0,0,.289-.218,0,0-.289.218,0,0,.145-.109.289-.217.578-.435.867-.653.127.018.145-.109.271-.091.289-.218-.416.2-.144.109.144-.109.416-.2.56-.309.416-.2.687-.291,1.085-.364.542-.182-.398.073.127.018.253.036.398-.073.651-.037.398-.073.778-.02,1.176-.093.525-.055-.507-.071.127.018.253.036.38.053.634.089.253.036.38.054.634.089.127.018.615.216.253.036-.362-.18.253.036.362.18.253.036.363.18.616.216.127.017.236.162.362.18.236.162-.235-.162-.109-.144.127.018.344.307.471.325.109.145.345.307.453.452.127.017.109.145.236.162.217.289.017-.127-.109-.145.253.036.544.723.653.867.109.145.344.307.309.56,0,0-.2-.416-.109-.145-.017.126.109.145.218.289.218.289.291.687.364,1.085-.018.126.164.669.074.398-.074-.398.091.271.073.398.073.398.128.922.057,1.429-.018.127-.036.253,0,0,.054-.38,0,0-.018.127-.036.253-.071.507-.089.633-.036.254-.054.38-.089.633-.036.254.091.271.017-.126-.017.126-.036.253-.18.362-.036.253-.18.362-.216.616-.018.127-.505.833-.163.235-.342.598-.667,1.069-.52,1.865.037.651.455,1.356.926,1.68.454.452,2.263.448,3.074-.73h0Z" fill="#ed7e94"/>
          <path d="M980.361,452.18s30.747,22.03,60.479,24.667c-.018.127-47.294,45.924-60.479-24.667Z" fill="#e9e9f2"/>
          <path d="M1017.571,413.029c-6.42,1.551,9.841,26.45-2.406,27.181-12.121.748,6.655,7.785,10.256-1.269,3.618-9.181-2.099-27.298-7.85-25.912Z" fill="#192c51"/>
        </g>
        <g id="Eyes">
          <g>
            <path d="M1043.215,397.2c.016,8.142,3.611,14.72,8.008,14.693,4.397-.027,7.911-6.638,7.895-14.78-.016-8.141-3.612-14.72-8.008-14.693-4.379-.1-7.894,6.511-7.895,14.78Z" fill="#192c51"/>
            <path d="M1066.011,369.274c.833.505,2.08-9.268-2.825-10.217-5.014-1.094-18.479-2.732-19.974.546-1.477,3.151-2.844,7.351-.003,7.364,2.858-.114,15.428-2.22,22.802,2.307Z" fill="#192c51"/>
            <path d="M1051.622,394.379c.006,2.714,1.874,5.044,4.208,4.985,2.334-.059,4.193-2.252,4.188-4.966-.005-2.714-1.873-5.044-4.207-4.985-2.316-.068-4.176,2.125-4.188,4.966Z" fill="#fff"/>
          </g>
          <g>
            <path d="M964.991,393.32c-.581,7.799,3.014,14.378,7.991,14.82,4.976.442,9.56-5.501,10.268-13.282.581-7.799-3.014-14.378-8.008-14.694-4.958-.569-9.542,5.375-10.251,13.156Z" fill="#192c51"/>
            <path d="M983.194,357.641s1.333,6.131.07,7.762c-1.263,1.631-7.926-.599-15.209,3.414-7.157,4.031-13.537,7.138-13.537,7.138,0,0-5.876-6.9-1.237-12.319,4.621-5.292,29.252-11.385,29.914-5.994Z" fill="#192c51"/>
            <path d="M975.479,390.404c.023,2.587,2.18,4.7,4.768,4.677,2.587-.023,4.699-2.18,4.677-4.768-.024-2.587-2.181-4.7-4.768-4.677-2.587.023-4.7,2.181-4.677,4.768Z" fill="#fff"/>
          </g>
        </g>
        <g id="Ears">
          <path d="M882.19,439.782c-42.66,19.032-59.587-75.9-21.772-86.069,10.921-2.889,31.516-1.787,33.767,19.557,2.293,23.01-2.686,62.289-11.995,66.512Z" fill="#ff97a6"/>
          <path d="M867.544,371.871c7.474,7.831,19.553,32.081,6.778,47.159,0,0,1.857-11.221-3.021-18.825l-13.928-9.155,15.036,1.287-4.864-20.467Z" fill="#192c51"/>
        </g>
      </g>
    </g>
    <g>
      <g>
        <path d="M1004.066,837.566c-24.167,6.453-51.489,1.39-52.901,1.125l1.041-4.896c.408.078,40.942,7.555,65.132-7.141,24.014-14.612,27.214-65.983,27.244-66.499l5.379.303c-.131,2.218-3.402,54.408-29.641,70.371-4.988,3.034-10.53,5.21-16.249,6.733h-.003v.003Z" fill="#47c4d9"/>
        <path d="M954.547,832.764c1.455,4.587-1.357,9.369-6.286,10.684-4.929,1.318-10.106-1.331-11.565-5.921-1.455-4.584,1.361-9.363,6.287-10.681,4.929-1.315,10.106,1.334,11.564,5.918h0Z" fill="#192c51"/>
      </g>
      <g>
        <path d="M1011.86,842.655c-1.781-.036-43.881-1.243-65.709-22.167-21.988-21.084-13.352-72.713-12.978-74.896l5.318.829c-.088.512-8.587,51.332,11.509,70.606,20.298,19.456,61.537,20.631,61.948,20.643l-.088,4.982h0v.003Z" fill="#47c4d9"/>
        <path d="M1009.899,836.17c-2.46,4.169-.8,9.431,3.716,11.748,4.512,2.319,10.165.819,12.625-3.354,2.463-4.166.802-9.425-3.712-11.741-4.511-2.319-10.165-.819-12.628,3.347h0Z" fill="#192c51"/>
      </g>
      <path d="M1052.139,764.708l-10.65-1.431c4.874-33.911.077-59.26-13.951-75.313-12.533-14.325-28.276-16.13-29.553-16.285-49.887-1.418-57.313,75.7-57.391,76.525l-10.728-.903c.297-3.456,7.943-81.927,62.639-85.447-.915-17.51-8.812-76.383-35.786-101.127,0,0,.355-11.62.514-14.007,37.444,24.241,45.252,97.508,46.154,115.727,7.118,1.586,21.004,6.163,32.403,19.212,16.13,18.374,21.61,46.289,16.349,83.049Z" fill="#36477e"/>
    </g>
    <g>
      <g>
        <path d="M816.979,705.011c12.497-5.799,27.324-.373,33.123,12.123,5.8,12.493.373,27.323-12.124,33.123-12.493,5.796-27.326.369-33.119-12.123-5.802-12.494-.373-27.323,12.12-33.12v-.003Z" fill="#36477e"/>
        <path d="M845.972,719.051c4.743,10.214.303,22.338-9.91,27.076-10.214,4.743-22.339.306-27.076-9.91-4.741-10.213-.303-22.338,9.91-27.076,10.214-4.741,22.338-.306,27.079,9.91h-.002Z" fill="#192c51" opacity=".25"/>
      </g>
      <path d="M813.834,718.697l9.95.134c-.624-55.069,1.804-141.063,45.845-179.749l2.043-12.727c-58.033,36.615-58.769,131.454-57.838,192.342h0Z" fill="#36477e"/>
      <path d="M830.581,713.313c3.669,7.909.233,17.3-7.679,20.969-7.91,3.672-17.302.238-20.973-7.674-3.672-7.913-.233-17.301,7.677-20.973,7.913-3.671,17.304-.238,20.976,7.675h0v.003Z" fill="#192c51"/>
      <path d="M813.051,709.115c-10.81-.007-9.562,14.926-6.613,14.212,2.952-.711,14.644-14.204,6.613-14.212Z" fill="#47c4d9"/>
    </g>
    <g>
      <g>
        <path d="M787.488,800.369c1.175-5.64,6.883-9.747,12.745-9.171l296.235,29.273c5.811.573,9.447,5.582,8.13,11.177l-94.026,399.069c-1.229,5.229-6.78,9.042-12.395,8.526l-286.277-26.436c-5.669-.518-9.377-5.212-8.276-10.478l83.864-401.963h0v.002Z" fill="#192c51"/>
        <path d="M906.427,790.655l11.316,1.117c6.852-11.772,19.697-19.401,33.049-18.279l21.425,1.796c13.767,1.153,23.843,11.271,26.152,24.42l13.445,1.325c5.636.555,9.239,5.862,8.038,11.832-1.19,5.956-6.704,10.324-12.311,9.775l-104.824-10.314c-5.619-.553-9.357-5.835-8.346-11.812,1.011-5.993,6.404-10.416,12.056-9.859h0Z" fill="#192c51"/>
        <path d="M793.122,811.566c1.175-5.64,6.883-9.749,12.746-9.168l296.237,29.271c5.81.573,9.443,5.582,8.128,11.177l-94.026,399.067c-1.229,5.231-6.782,9.042-12.397,8.527l-286.275-26.434c-5.67-.518-9.377-5.212-8.276-10.48l83.866-401.96h-.002Z" fill="#36477e"/>
        <path d="M1110.237,842.847l-88.271,374.62c-16.046-14.487-38.263-34.241-50.29-43.54-20.213-15.645-144.59-.678-179.76,6.455-29.135,5.917-36.729,31.681-39.184,46.874l-35.2-3.246c-5.668-.52-9.379-5.211-8.27-10.478l83.858-401.97c1.176-5.634,6.887-9.747,12.748-9.163l28.93,2.862c-13.589,38.783-43.504,133.812-23.824,169.207,24.973,44.943,208.379,75.963,233.009,38.251,16.282-24.95,30.044-120.928,37.501-183.084l20.617,2.038c5.814.571,9.449,5.582,8.136,11.177v-.002Z" fill="#192c51" opacity=".5"/>
        <g>
          <path d="M1067.838,1101.404c-2.428,3.185-9.847,1.983-9.847,1.983,0,0,6.605,11.904-3.063,20.371-7.81,6.841-42.106-2.685-42.106-2.685l-61.052-26.82-50.24-9.016,43.141-88.789s11.756.257,28.755,3.632c5.578-9.915,60.977-43.034,61.081-35.4,6.835,10.749-20.13,40.345-20.13,40.345l30.939,3.374.921.109c9.66,1.231,34.327,9.556,34.327,9.556,0,0,13.024,7.382,7.439,17.517-2.531,4.596-19.204,8.465-19.204,8.465,0,0,17.981,11.234,6.969,29.928-1.919,3.254-11.154,2.219-11.154,2.219,0,0,13.418,11.838,3.225,25.211h0Z" fill="#ff97a6"/>
          <g>
            <path d="M1001.776,1001.599c.136-.861,9.987-.035,22.008,1.843,12.021,1.878,21.657,4.095,21.523,4.956-.133.859-9.987.033-22.008-1.845-12.019-1.876-21.657-4.093-21.521-4.954h-.002Z" fill="#ef8499"/>
            <path d="M1055.759,1042.233c.133-.859,2.843-1.149,6.055-.649,3.209.503,5.703,1.605,5.568,2.465-.134.859-2.844,1.147-6.055.647-3.209-.501-5.705-1.605-5.566-2.464h-.002v.002Z" fill="#ef8499"/>
            <path d="M1048.895,1073.725c.134-.859,3.271-1.083,7.006-.501,3.735.585,6.651,1.753,6.517,2.613-.134.859-3.269,1.083-7.004.498-3.735-.582-6.651-1.753-6.519-2.611Z" fill="#ef8499"/>
            <path d="M1043.524,1100.347c.23-.838,3.182-.76,6.593.175,3.409.935,5.987,2.373,5.757,3.213-.228.839-3.182.76-6.591-.175-3.41-.935-5.989-2.373-5.759-3.213Z" fill="#ef8499"/>
          </g>
        </g>
        <path d="M537.873,829.833s66.152,41.185,183.46,47.45c0,0,17.377-26.157-76.525-50.963-93.905-24.801-106.936,3.513-106.936,3.513h0Z" fill="#6ae0e5"/>
        <path d="M964.941,994.685l-277.564-52.631,42.032-122.958-173.249-13.774c-29.267,63.808-53.767,131.351-69.908,210.019-7.997,38.98,282.616,158.289,459.684,90.55h0c26.314-10.067,19.006-111.206,19.006-111.206h0Z" fill="#e5c74a"/>
        <path d="M945.938,1105.887c-177.081,67.74-467.682-51.563-459.676-90.548,3.38-16.455,7.466-32.546,12.22-48.247,22.758,37.984,212.408,149.414,465.274,97.266-.988,20.858-6.445,37.177-17.819,41.531h0l.002-.002Z" fill="#ceaf2e" opacity=".5"/>
        <path d="M624.802,955.254c14.369-6.967,29.497-9.134,40.448-10.379,11.031-1.214,18.123-1.517,18.478-3.409.374-1.839-6.539-5.05-18.46-6.347-5.95-.657-13.149-.719-21.137.269-7.953,1.097-16.771,3.228-25.347,7.45-8.617,4.095-15.993,9.891-21.459,16.136-5.517,6.229,12.966,3.055,27.475-3.717l.002-.002h0Z" fill="#ceaf2e"/>
      </g>
      <path d="M783.388,548.884c-18.24,122.596-59.467,322.383-59.467,322.383-52.577-39.848-151.9-39.903-186.046-41.434,23.982-69.006,121.737-198.823,136.228-222.714,27.714-45.699,109.285-58.234,109.285-58.234Z" fill="#d0f6f7"/>
      <path d="M738.671,800.632c-8.625,42.118-14.75,70.641-14.75,70.641-12.905-9.779-28.616-17.155-45.496-22.756l60.246-47.885h0Z" fill="#6ae0e5" opacity=".35"/>
      <path d="M722.101,878.392c-2.833-.475-.407-23.143,8.908-54.223,9.317-31.079,19.165-55.887,21.998-55.413,2.833.475-2.42,26.052-11.731,57.133-9.317,31.077-16.34,52.976-19.175,52.502h0Z" fill="#6ae0e5"/>
    </g>
    <path d="M606.175,1219.559c-1.256,2.147-11.484-1.521-22.269-9.055-10.807-7.505-17.775-15.871-16.183-17.785,1.609-1.943,10.881,3.061,21.37,10.343,10.467,7.315,18.361,14.322,17.081,16.497Z" fill="#fff"/>
    <path d="M676.556,1290.929c.123,1.983-7.803,4.458-20.966,5.684-13.126,1.14-31.511,1.002-51.421-2.557-19.92-3.42-37.44-9.52-49.256-15.681-11.881-6.118-18.053-11.87-17.09-13.58,1.036-1.883,8.748.434,20.932,3.763,12.172,3.395,29.03,7.555,47.975,10.813,37.854,6.72,69.525,7.267,69.826,11.558Z" fill="#fff"/>
  </g>
  <g id="Infus">
    <path d="M2209.181,2676.759l9.549-21.385h60.993c16.771-1.92,35.536-2.998,55.353-2.998s38.582,1.078,55.353,2.998h60.994l9.549,21.385c1.902,2.115,2.93,4.31,2.93,6.562,0,17.09-57.677,30.944-128.825,30.944s-128.825-13.854-128.825-30.944c0-2.252,1.027-4.446,2.93-6.562Z" fill="#6ae0e5"/>
    <ellipse cx="2335.077" cy="2655.375" fill="#e4eaef" rx="116.347" ry="27.946"/>
    <g>
      <path d="M2165.652,781.506h17.249v-21.018c0-2.206,1.743-3.946,3.949-3.946s3.949,1.74,3.949,3.946v21.018l126.102-.115v-111.704c0-8.826,7.198-15.908,15.908-15.908,8.825,0,15.908,7.198,15.908,15.908v111.588l127.38-.118v-20.782c0-2.206,1.74-3.949,3.945-3.949s3.949,1.743,3.949,3.949v20.782h22.297c5.455,0,9.866,4.414,9.866,9.987,0,5.458-4.411,9.872-9.866,9.872l-147.122.113c-5.457,0-9.869,4.414-9.869,9.872l1.376,1827.65c.006,8.213-6.65,14.874-14.863,14.874h0c-8.204,0-14.857-6.648-14.863-14.852l-1.375-1827.672c0-5.458-4.414-9.872-9.869-9.872l-144.566.116c-6.001,0-10.735-5.331-9.735-11.52.784-4.853,5.334-8.219,10.25-8.219Z" fill="#6ae0e5"/>
      <g>
        <path d="M2153.713,806.171h46.097v-28.735c0-2.012,1.59-3.602,3.602-3.602h5.698c2.012,0,3.605,1.59,3.605,3.602v28.735h35.034c25.062,0,44.591,21.707,41.991,46.684l-7.457,70.321-10.394,97.729c-2.262,21.454-20.366,37.714-41.991,37.714h-2.012v22.291c0,5.199-4.186,9.388-9.385,9.388s-9.388-4.189-9.388-9.388v-19.948h-16.511v19.948c0,5.199-4.19,9.388-9.388,9.388s-9.388-4.189-9.388-9.388v-22.291h-2.009c-21.541,0-39.645-16.261-41.992-37.714l-10.728-99.154-7.46-68.812c-2.596-24.977,16.933-46.768,42.076-46.768h0Z" fill="#c1dbea"/>
        <g>
          <path d="M2183.214,1085.525c2.596,0,4.693-2.096,4.693-4.696v-24.643h25.899v24.643c0,2.599,2.096,4.696,4.693,4.696s4.696-2.096,4.696-4.696v-26.986h6.704c19.195,0,35.284-14.418,37.295-33.525l8.72-81.552c-9.472,8.885-23.975,16.177-46.184,16.177h0c-4.527,0-9.22-.337-14.165-.922-30.507-3.771-47.102-14.165-59.174-21.71-8.463-5.277-14.668-9.135-22.375-9.135-2.933,0-6.205.587-9.722,1.677l10.306,95.545c2.096,19.11,18.104,33.525,37.296,33.525h6.704v26.989c-.084,2.515,2.012,4.611,4.611,4.611h.003Z" fill="#fff" opacity=".5"/>
          <path d="M2260.992,880.263s-67.887,2.765-107.951-2.178c0,0,1.34,107.698,12.406,113.062,0,0,65.291,4.442,77.525-2.346,0,.084,21.291-89.597,18.02-108.538Z" fill="#f6f8f9"/>
          <g>
            <path d="M2166.369,896.018c0,6.704-4.949,9.473,2.009,11.066,6.958,1.509,76.354,4.358,76.691,0,.25-4.358,0-8.463,0-8.463l-78.7-2.602h0Z" fill="#e4eaef"/>
            <path d="M2169.721,914.46c0,6.701-4.527,9.469,1.843,11.063,6.371,1.509,69.818,4.358,70.068,0,.25-4.358,0-8.463,0-8.463l-71.911-2.599h0Z" fill="#e4eaef"/>
            <path d="M2209.785,941.196c-.506,7.71-.925,21.288.081,31.513,1.006,9.385,23.803,1.509,23.803,1.509,0,0,5.364-30.007,4.611-31.013-.756-1.006-28.495-2.009-28.495-2.009Z" fill="#e4eaef"/>
          </g>
        </g>
      </g>
    </g>
  </g>
  <g id="Shield">
    <path d="M1258.31,494.23l.013-8.777c0-8.914,7.25-16.177,16.164-16.177h.931c18.895-.05,41.218-1.416,63.515-11.211,19.848-8.705,38.156-22.005,54.439-39.516.747-.804,1.792-1.268,2.889-1.268h0c1.097,0,2.142.464,2.889,1.268,16.283,17.511,34.591,30.811,54.439,39.516,22.298,9.795,44.62,11.161,63.516,11.211h.931c8.914,0,16.164,7.263,16.164,16.177l.013,8.777c2.309,53.323-3.737,100.774-17.989,140.689-9.249,25.898-22.049,48.519-38.027,67.241-22.787,26.711-51.021,45.562-81.818,54.714v.074c-.039-.011-.078-.025-.117-.037-.039.012-.078.026-.117.037v-.074c-30.797-9.152-59.032-28.003-81.818-54.714-15.978-18.722-28.778-41.343-38.027-67.241-14.253-39.915-20.299-87.366-17.99-140.689Z" fill="#47c4d9"/>
    <path d="M1329.768,602.031c-.157-.202-.312-.404-.459-.613-.181-.258-.351-.524-.519-.793-.135-.215-.27-.429-.395-.65-.158-.281-.301-.57-.444-.86-.11-.224-.224-.445-.325-.674-.134-.306-.249-.62-.365-.935-.084-.228-.175-.452-.25-.683-.109-.339-.194-.686-.282-1.033-.056-.22-.122-.436-.169-.659-.085-.404-.142-.817-.199-1.23-.024-.176-.062-.347-.08-.525-.062-.59-.095-1.188-.095-1.794,0-.005,0-.011,0-.016,0-.096.013-.195.015-.292.009-.515.032-1.025.085-1.528.004-.036.003-.073.006-.111.051-.461.131-.913.219-1.361.009-.05.014-.101.024-.151.11-.534.244-1.058.403-1.569.006-.021.01-.042.016-.063.033-.103.076-.2.111-.302,2.26-6.802,8.663-11.713,16.225-11.713h14.622c7.466,0,13.519-6.052,13.519-13.518v-14.173c0-8.78,6.432-16.484,15.16-17.447,10.318-1.138,19.05,6.91,19.05,16.998v14.622c0,7.466,6.052,13.518,13.519,13.518h14.622c7.561,0,13.965,4.911,16.224,11.713.035.102.078.199.111.302.006.021.01.043.016.063.159.511.294,1.035.403,1.569.011.049.015.101.024.151.088.448.167.9.218,1.361.004.038.003.075.006.111.054.503.077,1.013.086,1.528.002.097.015.195.015.292,0,.005.001.011.001.016,0,.606-.034,1.204-.095,1.794-.019.177-.056.348-.08.525-.056.413-.113.826-.199,1.23-.047.223-.114.439-.169.659-.087.347-.173.694-.282,1.033-.075.231-.166.455-.25.683-.116.315-.231.629-.365.935-.101.229-.215.45-.325.674-.143.29-.286.579-.445.86-.125.221-.26.434-.394.65-.168.269-.338.534-.52.793-.147.209-.302.411-.459.613-.191.247-.386.49-.59.726-.168.195-.341.383-.517.57-.214.226-.433.446-.659.66-.187.177-.376.35-.57.518-.235.204-.477.399-.723.59-.203.158-.406.313-.616.461-.257.181-.52.351-.787.518-.216.136-.432.272-.655.398-.278.157-.563.3-.851.441-.227.112-.451.227-.683.329-.3.132-.61.246-.919.361-.233.086-.462.179-.699.255-.329.106-.667.19-1.004.276-.229.059-.454.127-.687.177-.379.081-.768.134-1.156.189-.2.028-.396.07-.598.091-.58.062-1.168.094-1.765.096-.015,0-.029.002-.044.002h-14.622c-7.466,0-13.519,6.053-13.519,13.519v14.173c0,8.781-6.433,16.484-15.16,17.447-10.318,1.138-19.05-6.91-19.05-16.998v-14.622c0-7.466-6.053-13.519-13.519-13.519h-14.622c-.015,0-.029-.002-.044-.002-.596-.001-1.185-.034-1.765-.096-.202-.021-.398-.063-.598-.091-.389-.055-.777-.108-1.156-.189-.233-.05-.457-.118-.686-.177-.337-.086-.675-.17-1.004-.276-.237-.076-.466-.169-.698-.255-.309-.115-.618-.229-.919-.361-.232-.102-.456-.217-.683-.329-.287-.142-.573-.285-.851-.441-.223-.126-.438-.262-.655-.398-.266-.167-.53-.336-.787-.518-.21-.148-.413-.303-.616-.461-.246-.191-.488-.386-.723-.59-.195-.168-.384-.341-.57-.518-.226-.214-.445-.434-.659-.66-.176-.187-.349-.375-.517-.57-.204-.236-.399-.479-.591-.726Z" fill="#30b2bf" opacity=".5"/>
    <path d="M1337.493,596.513c-.156-.202-.312-.404-.459-.614-.182-.258-.351-.524-.519-.793-.134-.215-.27-.428-.395-.649-.158-.28-.301-.57-.444-.86-.11-.224-.224-.445-.325-.674-.134-.306-.248-.62-.365-.935-.084-.228-.176-.452-.25-.683-.109-.338-.194-.685-.282-1.032-.056-.22-.122-.435-.169-.659-.085-.404-.142-.817-.198-1.23-.024-.176-.062-.347-.08-.524-.062-.59-.096-1.188-.096-1.794,0-.006.001-.011.001-.016,0-.096.013-.195.015-.292.009-.514.032-1.025.086-1.527.004-.037.002-.074.006-.111.051-.461.131-.913.218-1.361.01-.05.014-.102.024-.151.11-.533.244-1.057.403-1.569.006-.021.01-.042.016-.063.033-.102.077-.199.111-.302,2.26-6.802,8.664-11.713,16.225-11.713h14.622c7.466,0,13.519-6.052,13.519-13.518v-14.173c0-8.78,6.433-16.484,15.16-17.447,10.318-1.138,19.05,6.91,19.05,16.998v14.622c0,7.466,6.053,13.518,13.519,13.518h14.623c7.561,0,13.964,4.911,16.225,11.713.034.102.078.199.11.302.006.021.011.043.016.063.16.512.294,1.035.404,1.569.01.05.014.101.024.151.088.448.168.9.219,1.361.004.037.002.074.006.111.054.503.077,1.013.085,1.527.002.097.015.195.015.292,0,.006,0,.011,0,.016,0,.606-.033,1.204-.095,1.794-.019.178-.057.349-.08.524-.056.414-.113.827-.198,1.23-.047.224-.114.439-.169.659-.088.347-.174.694-.282,1.032-.074.232-.166.456-.25.683-.116.315-.231.629-.365.935-.1.229-.215.45-.325.674-.142.29-.286.579-.444.86-.125.221-.26.435-.395.649-.168.269-.337.535-.52.793-.147.209-.302.411-.459.614-.191.247-.386.49-.591.726-.168.194-.341.383-.517.569-.214.226-.433.446-.658.66-.187.177-.376.35-.57.518-.235.204-.477.399-.724.59-.203.157-.406.313-.616.461-.257.181-.521.351-.788.518-.216.136-.432.271-.654.398-.278.157-.564.3-.851.441-.227.112-.451.227-.683.33-.3.132-.609.245-.919.36-.232.087-.461.179-.698.256-.329.106-.667.19-1.004.276-.229.059-.454.127-.686.177-.38.08-.768.133-1.157.189-.2.028-.396.07-.598.091-.58.061-1.169.094-1.765.095-.015,0-.029.003-.044.003h-14.623c-7.466,0-13.519,6.052-13.519,13.519v14.173c0,8.781-6.432,16.484-15.16,17.447-10.319,1.138-19.051-6.91-19.051-16.998v-14.622c0-7.466-6.053-13.519-13.519-13.519h-14.622c-.015,0-.029-.003-.044-.003-.596-.001-1.185-.034-1.765-.095-.202-.021-.398-.063-.598-.091-.388-.055-.777-.109-1.156-.189-.233-.049-.458-.118-.687-.177-.337-.086-.675-.17-1.003-.276-.238-.077-.466-.169-.699-.256-.309-.115-.618-.229-.919-.36-.232-.103-.456-.217-.683-.33-.287-.141-.573-.284-.851-.441-.223-.126-.438-.262-.655-.398-.266-.167-.531-.337-.787-.518-.21-.148-.413-.304-.616-.461-.246-.191-.488-.386-.723-.59-.194-.168-.383-.341-.57-.518-.226-.214-.445-.434-.659-.66-.177-.186-.349-.375-.517-.569-.204-.236-.399-.479-.591-.726Z" fill="#fff"/>
  </g>
  <g id="Lights">
    <path d="M2197.739,587.093c-17.48,5.504-30.103,21.845-30.103,41.107,0-19.262-12.782-35.604-30.262-41.107,17.48-5.504,30.262-21.85,30.262-41.108,0,19.257,12.624,35.604,30.103,41.108Z" fill="#e4eaef"/>
    <path d="M2526.483,1145.586c-16.948,5.336-29.186,21.179-29.186,39.854,0-18.674-12.393-34.518-29.34-39.854,16.946-5.337,29.34-21.185,29.34-39.855,0,18.67,12.239,34.518,29.186,39.855Z" fill="#e4eaef"/>
    <path d="M1246.892,1353.156c-13.205,4.158-22.742,16.504-22.742,31.055,0-14.551-9.656-26.897-22.862-31.055,13.206-4.158,22.862-16.507,22.862-31.055,0,14.548,9.537,26.897,22.742,31.055Z" fill="#e4eaef"/>
    <path d="M665.33,442.296c-14.65,4.613-25.231,18.309-25.231,34.452,0-16.143-10.712-29.839-25.361-34.452,14.65-4.613,25.361-18.312,25.361-34.452,0,16.14,10.581,29.84,25.231,34.452Z" fill="#e4eaef"/>
  </g>
  <g id="Grandma_sitting">
    <path d="M1405.046,1801.277c-1.808,0-3.352-1.371-3.532-3.206l-17.574-179.147c-.191-1.954,1.235-3.692,3.189-3.883,1.985-.201,3.688,1.239,3.883,3.189l17.574,179.147c.191,1.954-1.235,3.692-3.189,3.883-.118.012-.236.017-.35.017Z" fill="#fff"/>
    <g>
      <polygon fill="#6ae0e5" points="1556.135 2697.637 1521.812 2697.637 1588.735 2173.697 1687.894 2173.697 1556.135 2697.637"/>
      <g id="Seat">
        <polygon fill="#6ae0e5" points="2077.082 2697.637 2111.405 2697.637 2044.482 2173.697 1945.323 2173.697 2077.082 2697.637"/>
        <path d="M2057.823,2278.244c-15.727,13.821-36.353,22.188-58.964,22.188h-21.658l-31.878-126.745h99.156l13.344,104.558Z" fill="#2fa7c3" opacity=".5"/>
        <polygon fill="#6ae0e5" points="1887.2 2750.489 1921.523 2750.489 1854.6 2173.697 1755.441 2173.697 1887.2 2750.489"/>
        <polygon fill="#2fa7c3" opacity=".5" points="1869.307 2300.432 1784.395 2300.432 1755.43 2173.687 1854.612 2173.687 1869.307 2300.432"/>
        <polygon fill="#6ae0e5" points="1173.077 2750.489 1138.751 2750.489 1205.675 2173.697 1304.836 2173.697 1173.077 2750.489"/>
        <path d="M2089.725,1869.558h-523.444c-44.748,0-78.345-43.113-75.036-96.297l29.217-469.807c3.306-53.183,42.264-96.296,87.014-96.296h523.444c44.748,0,78.345,43.113,75.036,96.296l-29.217,469.807c-3.309,53.183-42.264,96.297-87.014,96.297Z" fill="#2fa7c3"/>
        <path d="M2205.941,1303.46l-29.213,469.796c-3.296,53.198-42.247,96.316-86.995,96.316h-523.449c-44.748,0-78.356-43.118-75.022-96.316l29.213-469.796c3.297-53.198,42.247-96.316,86.995-96.316h359.158l-68.618,604.721,243.897-12.958s13.83-327.861,16.065-471.539c.947-61.837-7.54-98.173-17.505-119.505,39.898,5.608,68.581,46.264,65.474,95.596Z" fill="#36477e" opacity=".1"/>
        <path d="M1971.833,1869.558h-523.444c-44.748,0-78.342-43.113-75.036-96.297l29.217-469.807c3.306-53.183,42.264-96.296,87.014-96.296h523.444c44.748,0,78.342,43.113,75.036,96.296l-29.217,469.807c-3.306,53.183-42.264,96.297-87.014,96.297Z" fill="#47c4d9"/>
        <path d="M1179.312,1781.99v355.233h836.528c69.614,0,126.048-56.434,126.048-126.051v-229.182h-962.579.003Z" fill="#2fa7c3"/>
        <path d="M1270.148,2078.806v-205.982c0-50.168-40.668-90.836-90.836-90.836h-27.582c-33.522,0-60.696,27.175-60.696,60.696v301.37c0,69.951,56.708,126.659,126.659,126.659h620.787v-191.907h-568.333Z" fill="#47c4d9"/>
      </g>
    </g>
    <g>
      <g id="Right_foot">
        <g>
          <path d="M1412.571,2718.908c-.066-.161-120.13,8.074-177.052,7.762-6.358-.035-11.508-16.337-68.486-17.133-39.446-1.131-52.805,11.365-54.19,12.75-2.59,2.589-7.569,27.141,3.588,29.11,11.156,1.969,300.681-1.891,305.008-6.269,8.567-8.668-6.23-19.822-8.868-26.22Z" fill="#36477e"/>
          <path d="M1396.702,2628.477h0l-3.421-140.931h-121.374l25.023,144.472c-3.516,1.299-167.1,61.876-154.038,79.688,13.204,18.005,258.422,18.111,263.95,7.529,4.579-8.763-9.498-69.185-10.14-90.758Z" fill="#ff97a6"/>
          <path d="M1406.844,2719.252c-5.532,10.571-250.755,10.458-263.941-7.54-7.995-10.874,49.825-37.662,96.884-57.175,28.986,16.065,49.257,51.151,49.257,51.151,0,0,68.467-4.206,75.211-13.527,6.745-9.358-1.137-86.085-12.352-97.339-7.995-7.995-43.801-11.367-63.617-12.656l-16.368-94.611h121.361l3.41,140.912c.644,21.598,14.739,81.994,10.154,90.784Z" fill="#ef8499" opacity=".5"/>
          <path d="M1112.844,2722.287s61.258-58.006,98.469-58.901c37.211-.895,72.021,54.341,73.222,63.334,1.2,8.993-163.328,7.349-171.69-4.433Z" fill="#e5c74a"/>
        </g>
        <path d="M1159.214,1940.517c48.946-74.562,274.646-137.959,303.421-152.486,11.767-17.452,16.177-46.301,16.177-46.301l339.326,2.329s-234.896,374.923-329.263,374.923l-92.835,3.949s39.176,425.369,24.187,438.163c-32.918,28.097-173.113,0-173.113,0,0,0-161.606-508.299-87.901-620.577Z" fill="#e06e84"/>
        <path d="M1209.528,2121.978c-20.625,6.619-47.082,7.206-63.418,5.538-2.674-19.072-4.711-45.08-5.237-59.445,33.838,15.012,95.794,45.17,68.655,53.907Z" fill="#d35e7a"/>
        <path d="M1818.127,1744.045s-234.877,374.94-329.24,374.94l-92.854,3.945s39.186,425.36,24.2,438.175c-6.09,5.216-15.86,8.472-27.748,10.353-170.69-611.014,65.335-681.698,65.335-681.698,0,0,115.424-56.09,101.258-72.744-10.988-12.947-67.94-28.701-92.801-35.109,9.055-17.342,12.55-40.165,12.55-40.165l339.302,2.304Z" fill="#d35e7a"/>
        <path d="M1607.495,1833.352c-.243,0-.482-.003-.723-.013-6.174-.233-9.053-3.43-10.384-6.073-9.213-18.307,29.607-76.6,37.483-88.101,1.179-1.723,3.529-2.16,5.254-.982,1.722,1.179,2.163,3.531.981,5.254-17.256,25.205-42.555,69.329-36.966,80.432.273.539.908,1.803,3.917,1.917.162.007.327.01.492.01,22.409.005,58.581-56.45,70.712-78.372,1.011-1.826,3.315-2.483,5.138-1.476,1.826,1.011,2.488,3.31,1.476,5.138-4.69,8.475-46.418,82.267-77.38,82.267Z" fill="#ff97a6"/>
      </g>
      <g id="Left_foot">
        <g>
          <path d="M1694.501,2718.908c-.066-.161-120.13,8.074-177.052,7.762-6.358-.035-11.508-16.337-68.486-17.133-39.446-1.131-52.805,11.365-54.19,12.75-2.59,2.589-7.569,27.141,3.588,29.11,11.157,1.969,300.681-1.891,305.008-6.269,8.567-8.668-6.23-19.822-8.868-26.22Z" fill="#36477e"/>
          <path d="M1678.631,2628.477h0l-3.421-140.931h-121.374l25.023,144.472c-3.516,1.299-167.1,61.876-154.038,79.688,13.204,18.005,258.421,18.111,263.95,7.529,4.578-8.763-9.498-69.185-10.14-90.758Z" fill="#ff97a6"/>
          <path d="M1688.782,2719.252c-5.532,10.571-250.755,10.458-263.979-7.54-8.184-11.177,53.236-39.216,100.977-58.881,27.091,15.763,45.316,56.646,45.316,56.646,0,0,80.857.151,89.269-11.556,8.412-11.708-4.206-101.129-15.156-112.192-17.164,3.41-58.123-1.553-75.022-3.865l-16.368-94.308h121.399l3.41,140.912c.644,21.598,14.739,81.994,10.154,90.784Z" fill="#ef8499" opacity=".5"/>
          <path d="M1394.773,2722.287s61.258-58.006,98.468-58.901c37.211-.895,72.021,54.341,73.222,63.334,1.201,8.993-163.327,7.349-171.69-4.433Z" fill="#e5c74a"/>
        </g>
        <path d="M1583.382,1841.736c89.856-.869,81.635-81.015,81.635-81.015,0,0,109.31-36.473,153.121-16.662,6.259,2.83,43.569,77.246,45.771,81.787,57.779,119.107,43.123,296.464-51.243,296.464l-141.528.621s39.176,425.369,24.186,438.163c-32.918,28.097-173.113,0-173.113,0,0,0-110.436-385.912-135.996-487.88-26.717-106.578,84.925-230.393,197.167-231.478Z" fill="#e06e84"/>
        <path d="M1812.673,2122.322l-141.546.609s39.186,425.36,24.2,438.175c-5.189,4.448-13.08,7.493-22.691,9.452-7.149-32.434-21.393-517.738-21.393-517.738,0,0,87.93,63.253,124.733,17.369,36.776-45.885,12.63-215.337-7.387-235.486-14.985-15.065-94.046-10.458-132.755-7.175,33.653-23.247,29.178-66.801,29.178-66.801,0,0,109.323-36.485,153.116-16.68,6.276,2.833,43.581,77.26,45.779,81.787,57.773,119.12,43.131,296.489-51.233,296.489Z" fill="#d35e7a" opacity=".5"/>
        <g>
          <path d="M1547.004,1467.79s-29.452-35.212-76.926-21.567c0,0-51.82,128.042-69.241,188.532,0,0-.001,0-.002,0-80.6,47.82-188.797,103.407-188.797,103.407,0,0,44.928,59.114,76.641,61.304,10.309-5.29,199.162-45.042,217.598-91.319h0c62.624-43.247,40.727-240.359,40.727-240.359Z" fill="#ff97a6"/>
          <path d="M1550.712,1543.492c0,60.473-7.578,139.207-44.445,164.67-6.593,16.52-34.934,32.244-69.149,45.809,11.86-40.467,30.805-111.548,20.688-120.679-9.738-8.867-33.532-21.295-47.552-28.266,21.825-64.981,59.828-158.797,59.828-158.797,47.476-13.64,76.916,21.56,76.916,21.56,0,0,3.714,33.381,3.714,75.704Z" fill="#ef8499" opacity=".5"/>
          <path d="M1602.287,1161.57s-64.814,24.903-71.438,33.478c-79.995,103.556-141.415,365.845-145.193,380.381-3.785,14.54,140.479,67.87,167.085,40.282,12.043-30.058,66.355-335.652,66.355-335.652l-16.809-118.489Z" fill="#e5c74a"/>
          <path d="M1607.151,1156.673s95.95-30.265,150.644-20.48c65.939,11.797,55.657,34.027,55.657,34.027,0,0-16.513,31.415-37.204,36.244-20.691,4.829-166.361-11.627-169.096-21.312-2.736-9.685,0-28.479,0-28.479Z" fill="#d35e7a"/>
          <path d="M1996.864,1415.114s96.969,263.919,83.366,308.671c-17.692,58.203-105.966,65.894-107.408,58.203-1.442-7.691-111.932-305.8-109.344-324.838,2.588-19.038,133.386-42.035,133.386-42.035Z" fill="#ff97a6"/>
          <path d="M2080.223,1723.772c-1.591,5.192-3.714,10.004-6.366,14.398-1.781-56.493-46.112-121.437-46.112-121.437-25.5,11.67-84.077,23.34-104.007,27.092-29.744-83.737-61.647-176.34-60.245-186.684,2.577-19.021,133.372-42.02,133.372-42.02,0,0,96.96,263.903,83.358,308.651Z" fill="#ef8499" opacity=".5"/>
          <path d="M1844.345,1177.637s29.976,3.438,57.581,28.826c27.605,25.388,166.717,286.205,169.232,364.137.675,20.917-153.332,64.347-160.534,57.706-7.202-6.641-94.004-262.078-96.59-300.954-2.586-38.876,30.312-149.714,30.312-149.714Z" fill="#e5c74a"/>
          <path d="M2071.167,1570.583c.303,8.829-26.826,21.635-58.881,32.964-3.41-73.09-48.84-234.424-81.804-302.172-23.795-48.916-53.343-94.044-91.618-104.425,3.259-11.821,5.494-19.323,5.494-19.323,0,0,29.971,3.448,57.555,28.834,27.622,25.386,166.715,286.22,169.254,364.121Z" fill="#ceaf2e" opacity=".5"/>
          <path d="M1538.655,1784.285s-106.952-23.101-60.239-80.343l34.716-175.982s-9.697-22.781-21.575-58.494c13.791-34.905,67.885-199.129,99.251-305.002,39.639-9.339,148.657-12.382,208.088,2.834,56.68,14.508,44.637,236.015,44.637,236.015l72.929,332.095s-117.21,80.994-377.807,48.876Z" fill="#e5c74a"/>
          <path d="M1916.463,1735.404s-112.381,77.674-361.81,50.734c-2.652-.303-5.305-.606-7.957-.909-2.652-.303-5.343-.606-8.033-.947,0,0-106.963-23.113-60.245-80.327l34.707-175.998s-9.7-22.772-21.56-58.502c1.288-3.297,2.955-7.768,4.926-13.224.568-1.478,1.137-3.031,1.705-4.661,16.785,27.319,47.741,77.826,52.515,86.768,6.631,12.428-39.671,95.71-31.676,110.184,7.995,14.512,106.773,26.182,100.067,35.502-6.744,9.321-22.469,39.179-17.96,37.17,4.471-2.046,216.957-38.42,243.215-49.408,26.22-10.988-18.073-36.563-9.965-43.422,8.109-6.858,21.56-24.818,23.833-38.307,2.236-13.489-9.624-146.975-9.624-146.975l3.334-1.44,64.526,293.76Z" fill="#ceaf2e" opacity=".5"/>
          <path d="M1585.994,1736.262c.054,1.907-6.513,4.024-17.454,4.794-10.891.761-26.3-.026-42.662-4.758-16.376-4.713-30.009-12.692-38.393-20.038-8.474-7.337-11.951-13.507-10.65-14.84,1.402-1.481,7.151,1.89,16.276,6.548,9.102,4.711,21.863,10.433,36.718,14.721,14.86,4.302,28.896,6.581,39.207,8.359,10.309,1.772,16.908,3.212,16.958,5.215Z" fill="#ceaf2e"/>
          <path d="M1667.397,1743.678c-.037-4.12,43.374-7.019,95.622-17.304,52.305-9.994,93.652-23.534,95.158-19.699.678,1.762-8.885,7.478-25.454,14.204-16.546,6.731-40.198,14.188-67.006,19.406-26.815,5.182-51.54,7.108-69.402,7.051-17.882-.044-28.889-1.771-28.919-3.659Z" fill="#ceaf2e"/>
          <path d="M1570.75,1566.177c.381-4.103,48.469-2.071,107.043-6.387,58.606-4.019,105.511-12.808,106.777-8.822.567,1.829-10.547,6.434-29.476,11.248-18.903,4.823-45.706,9.563-75.753,11.718-30.051,2.119-57.468,1.236-77.127-.844-19.682-2.068-31.623-5.032-31.463-6.913Z" fill="#ceaf2e"/>
          <path d="M1773.186,1322.441c2.064,41.831-27.691,112.702-71.015,117.699-43.324,4.996-49.761-48.306-67.981-34.226-18.22,14.08-58.812,37.211-69.482,13.074-10.671-24.137,7.749-146.864,19.977-137.796,12.229,9.067,24.878,49.295,89.419,43.26,64.542-6.034,97.89-26.148,99.081-2.011Z" fill="#ceaf2e" opacity=".5"/>
          <path d="M1536.196,1353.156c-7.04-.002-35.206,93.116-44.639,116.311-9.436,23.194,20.785,53.302,20.785,53.302l-24.965,135.752s35.862-134.723,35.406-137.334c-.455-2.618-24.185-38.646-24.185-38.646,0,0,41.957-123.016,37.599-129.385Z" fill="#ceaf2e"/>
          <g>
            <path d="M1947.124,1019.912c.381-37.068-26.913-72.645-62.814-81.879,24.514-14.112,33.446-48.252,22.456-74.315-10.993-26.061-38.548-43.031-66.724-45.463-28.182-2.432-56.42,8.179-79.15,25.012l-90.456,47.054c31.062,43.669-10.975,108.692,12.696,156.772,9.363,19.025,29.01,32.582,50.121,34.585,21.109,1.999,42.957-7.617,55.732-24.542,16.876,33.006,57.571,51.839,93.653,43.348,36.082-8.495,64.102-43.506,64.485-80.572Z" fill="#e4eaef"/>
            <path d="M1947.116,1019.929c-.379,37.056-28.379,72.066-64.489,80.554-36.071,8.487-76.765-10.344-93.626-43.346-12.807,16.937-34.631,26.523-55.736,24.553-21.105-2.009-40.77-15.573-50.128-34.594-23.681-48.082,18.377-113.101-12.693-156.788l37.094-19.286c-16.331,54.865-27.015,127.462,2.463,155.008,49.977,46.756,94.346,0,94.346,0,0,0,76.613,51.795,102.719-4.281,25.462-54.675-20.423-82.335-22.696-83.661,35.882,9.207,63.125,44.786,62.746,81.842Z" fill="#c1dbea" opacity=".5"/>
            <g>
              <path d="M1788.507,1164.511s-29.684,110.854-119.569,90.741c-89.885-20.114-55.209-94.578-55.209-94.578,0,0,52.351-14.493,174.778,3.838Z" fill="#ceaf2e"/>
              <path d="M1788.523,1164.517c-.442-.648-15.265-2.318-35.799-4.339.162-.306.365-.564.524-.873l-22.071-133.267-86.466,11.791-2.536,121.627c-11.241-.962-28.468,1.197-28.468,1.197,0,0-20.211,71.399,62.646,85.621,67.413,11.568,113.658-79.582,112.17-81.758Z" fill="#ff97a6"/>
              <path d="M1676.351,1246.274c-82.874-14.248-62.623-85.601-62.623-85.601,0,0,17.24-2.172,28.476-1.252l1.233-65.577,37.671-10.469s-13.136,73.857-14.201,73.917c-1.073.14-19.208,10.354-49.526,12.517,36.25,119.848,170.916-5.644,171.126-5.3,1.502,2.181-44.747,93.302-112.155,81.763Z" fill="#ef8499"/>
              <g id="Head1">
                <g id="Face1">
                  <path d="M1732.307,1040.507c-31.758,59.418-117.8,71.978-154.129,53.445-32.224-16.44-72.888-90.862-31.642-141.199,33.896-41.368,44.188-92.767,48.153-98.846,1.88-2.966,3.871-5.608,6.012-7.996,17.955,9.633,86.327,21.67,115.299,23.377,5.005,33.914,14.243,62.213,44.976,67.74-1.995,14.61-5.783,30.519-20.079,54.597,3.324,1.512,11.528-2.997,20.794-11.588-8.781,24.035-21.446,45.659-29.384,60.47Z" fill="#ff97a6"/>
                  <g>
                    <path d="M1644.651,965.305c-5.695,6.364,3.971,15.619,9.887,15.891,5.778.264,10.909-6.394,11.297-14.923.389-8.529-3.974-15.62-9.887-15.892-5.916-.272-3.518,6.231-11.297,14.923Z" fill="#192c51"/>
                    <path d="M1640.09,957.159c-.157,3.417,2.599,6.306,6.244,6.472,3.562.161,6.653-2.458,6.807-5.876.155-3.417-2.599-6.306-6.244-6.469-3.561-.164-6.653,2.456-6.807,5.873h0Z" fill="#fff"/>
                  </g>
                  <g>
                    <path d="M1564.049,937.148c-5.695,6.364,3.971,15.619,9.887,15.891,5.778.264,10.908-6.394,11.297-14.923.388-8.529-3.974-15.62-9.887-15.892-5.916-.272-3.518,6.231-11.297,14.924Z" fill="#192c51"/>
                    <path d="M1559.487,929.001c-.157,3.417,2.6,6.306,6.244,6.473,3.562.161,6.653-2.459,6.807-5.876.154-3.417-2.599-6.306-6.244-6.469-3.561-.164-6.652,2.456-6.807,5.873h0Z" fill="#fff"/>
                  </g>
                  <path d="M1619.633,888.524c.993-1.591,10.264,4.88,23.755,8.184,13.417,3.489,25.715,2.464,25.358,4.216-.157.776-3.485,2.058-8.639,2.763-5.146.713-12.074.662-19.094-1.098-7.012-1.782-12.695-4.915-16.365-7.854-3.684-2.937-5.456-5.506-5.014-6.211Z" fill="#ed7e94"/>
                  <path d="M1606.11,896.057c1.046-1.564,14.122,6.864,32.201,12.527,18.01,5.851,33.865,6.655,33.672,8.49-.084.814-4.218,1.681-10.82,1.642-6.589-.029-15.618-1.16-25.032-4.152-9.406-3.013-17.292-7.279-22.528-11.023-5.252-3.744-7.959-6.793-7.493-7.486Z" fill="#ed7e94"/>
                  <path d="M1673.041,1005.577c-1.433,9.789-15.26,15.87-30.885,13.584-15.625-2.286-27.129-12.076-25.697-21.865,1.432-9.789,15.26-15.87,30.885-13.584,15.625,2.287,27.13,12.076,25.697,21.865Z" fill="#ef8499"/>
                  <path d="M1580.023,980.556c-3.662,9.19-18.522,11.902-33.192,6.057-14.67-5.845-23.593-18.034-19.931-27.225,3.662-9.19,18.523-11.902,33.193-6.056,14.67,5.845,23.593,18.034,19.931,27.224Z" fill="#ef8499"/>
                  <path d="M1572.491,907.951c-17.796-2.605-34.302,9.72-36.901,27.478-2.605,17.796,9.677,34.334,27.474,36.939,17.796,2.605,34.339-9.715,36.943-27.511,2.599-17.759-9.719-34.302-27.516-36.907ZM1564.305,963.882c-13.085-1.915-22.149-14.087-20.229-27.21,1.915-13.085,14.087-22.149,27.172-20.234,13.123,1.921,22.186,14.092,20.271,27.178-1.921,13.123-14.092,22.187-27.214,20.266Z" fill="#6ae0e5"/>
                  <path d="M1659.083,935.263c-17.796-2.605-34.302,9.72-36.901,27.479-2.605,17.796,9.677,34.334,27.474,36.939,17.796,2.605,34.339-9.715,36.944-27.511,2.599-17.759-9.72-34.302-27.516-36.907ZM1650.897,991.194c-13.085-1.915-22.149-14.087-20.229-27.21,1.915-13.085,14.087-22.149,27.173-20.234,13.123,1.92,22.186,14.092,20.271,27.177-1.921,13.123-14.092,22.187-27.215,20.266Z" fill="#6ae0e5"/>
                  <path d="M1582.559,1021.327c9.571-2.223,20.301,1.12,27.511,8.577,4.999,5.172,8.341,12.449,7.947,19.703-.389,7.253-4.987,14.187-11.576,15.925-7.417,1.955-15.48-2.888-20.09-9.641-4.612-6.755-6.495-15.065-8.13-23.145-.449-2.235-.891-4.544-.495-6.758.402-2.211,1.86-4.329,3.948-4.693" fill="#ef8499"/>
                  <path d="M1632.591,1026.172c-1.96-1.834-13.439,11.881-33.332,11.83-19.896-.003-33.254-13.759-34.965-11.926-.908.7,1.036,5.388,7.081,10.707,5.891,5.267,16.37,10.703,28.536,10.736,12.163,0,21.9-5.407,27.069-10.654,5.316-5.308,6.616-9.987,5.612-10.693Z" fill="#192c51"/>
                  <path d="M1578.037,1094.928c-.152.731,1.115,1.682,3.561,2.783,1.221.55,2.74,1.137,4.518,1.753,1.785.588,3.81,1.325,6.115,1.828,9.139,2.326,22.165,4.377,36.778,3.962,7.296-.136,14.263-1.119,20.498-2.424,6.235-1.401,11.725-3.304,16.135-5.34,4.399-2.112,7.714-4.318,9.764-6.165,1.017-.948,1.737-1.75,2.132-2.414.097-.163.187-.322.244-.46.023-.129.044-.243.063-.349.039-.235.074-.461.029-.639-.043-.183-.167-.319-.433-.384-.134-.036-.302-.049-.508-.036-.169-.003-.333-.005-.524.008-.76.065-1.785.26-3.018.591-2.5.622-5.979,1.613-10.287,2.659-4.342.975-9.514,1.974-15.329,2.747-5.835.675-12.267,1.306-19.105,1.429-27.316.708-49.975-2.796-50.632.449Z" fill="#ef8499"/>
                </g>
                <g id="Ears1">
                  <path d="M1727.74,1033.012c21.877,31.817,74.815-27.782,52.504-51.296-6.443-6.791-21.503-14.878-32.248-.815-11.593,15.172-25.045,45.145-20.256,52.111Z" fill="#ff97a6"/>
                  <path d="M1721.949,1064.137c2.346,4.297,5.605,6.911,9.264,7.726,1.669.371,3.427.36,5.268-.041,10.247-2.436,18.903-17.086,19.96-33.636-2.241.982-4.532,1.89-6.829,2.523-1.671,13.243-8.561,23.301-14.67,24.706-2.777.66-5.209-.826-7.233-4.444-4.013-7.094.898-14.022,5.667-18.486,3.27-3.179,6.539-5.148,6.617-5.2,1.557-.935,2.014-2.989,1.082-4.545-.935-1.556-2.91-2.062-4.467-1.129-3.254,1.905-7.322,5.04-10.638,9.02-5.39,6.351-8.89,14.804-4.021,23.505Z" fill="#e5c74a"/>
                  <path d="M1767.452,991.424c-8.603,2.259-27.638,14.218-25.151,30.332,0,0,3.546-8.667,10.329-12.011l13.755-.475-11.196-5.633,12.262-12.214Z" fill="#192c51"/>
                </g>
                <path d="M1615.398,957.504c4.476,4.344-20.68,17.004-11.029,23.404,9.651,6.401-9.173,3.27-7.769-5.953,1.403-9.224,14.825-21.303,18.798-17.45Z" fill="#192c51" id="Nose"/>
                <path d="M1761.692,980.037c-9.266,8.59-33.71,45.65-37.034,44.137,8.907-27.844,7.265-45.198,9.257-59.811-24.684-15.961-22.077-44.343-7.303-63.727-28.97-1.707-131.845-21.965-146.041-49.119-10.948-20.938,81.848-87.058,183.029-15.662,68.187,48.131,27.534,116.861-1.909,144.18Z" fill="#e4eaef"/>
                <path d="M1724.664,1024.173c1.516-1.099,2.956-2.236,4.357-3.335-2.122,2.349-3.675,3.638-4.357,3.335Z" fill="#c1dbea" opacity=".5"/>
                <path d="M1761.682,980.032c-1.213,1.136-2.69,2.766-4.357,4.736,32.434-72.521-35.919-169.633-37.663-172.096,14.247,5.116,29.024,12.656,43.952,23.188,68.164,48.121,27.508,116.853-1.932,144.171Z" fill="#c1dbea" opacity=".5"/>
              </g>
            </g>
            <path d="M1737.333,819.507s75.129,47.383,60.874,99.553c0,0,24.378-26.567,8.568-66.121-15.806-39.551-69.442-33.431-69.442-33.431Z" fill="#e5c74a"/>
            <path d="M1556.517,896.41c.732,4.025,10.981,5.575,21.516,10.88,10.721,4.937,18.319,11.98,21.922,10.046,1.65-.995,1.752-4.594-.708-9.324-2.406-4.691-7.635-10.226-14.939-13.749-7.309-3.512-14.891-4.156-20.058-3.109-5.232,1.022-7.985,3.344-7.734,5.255Z" fill="#e4eaef"/>
            <path d="M1660.609,929.04c.732,4.025,10.981,5.575,21.515,10.882,10.721,4.934,18.321,11.978,21.923,10.044,1.65-.994,1.754-4.593-.707-9.323-2.406-4.692-7.636-10.222-14.942-13.75-7.305-3.512-14.89-4.154-20.057-3.109-5.232,1.025-7.984,3.345-7.732,5.256Z" fill="#e4eaef"/>
          </g>
        </g>
        <path d="M1461.844,2342.837c-1.609,0-9.755-22.151-13.542-34.068-20.931-65.85-55.961-176.063-65.814-234.932-9.398-56.15,7.199-114.325,45.533-159.611,41.188-48.654,101.852-76.559,166.438-76.559,2.087,0,3.779,1.693,3.779,3.78s-1.693,3.779-3.779,3.779c-62.358,0-120.919,26.93-160.668,73.884-36.896,43.586-52.878,99.526-43.848,153.477,9.764,58.342,75.021,269.455,73.029,270.077-.375.118-.755.172-1.128.172Z" fill="#ff97a6"/>
        <g>
          <path d="M1463.278,2089.534c-5.774,0-9.368-.782-9.497-.812-2.034-.47-3.3-2.503-2.829-4.535.473-2.035,2.51-3.297,4.536-2.827,1.701.382,42.117,8.859,69.452-41.251,1-1.831,3.295-2.512,5.128-1.506,1.833.999,2.508,3.295,1.509,5.128-21.954,40.241-52.889,45.803-68.3,45.803Z" fill="#d35e7a"/>
          <path d="M1494.245,2101.335c-1.225,0-2.411-.106-3.546-.335-2.046-.413-3.37-2.409-2.956-4.454.412-2.045,2.402-3.359,4.453-2.958,9.107,1.86,26.639-9.252,32.623-13.681,1.677-1.248,4.044-.891,5.287.787,1.243,1.676.891,4.043-.786,5.286-2.276,1.688-21.148,15.354-35.074,15.354Z" fill="#d35e7a"/>
        </g>
        <path d="M1639.474,2035.212c-.962-1.853-.241-4.134,1.609-5.096,1.85-.962,4.134-.246,5.096,1.607.342.654,33.548,75.795,30.471,153.625-7.87-65.534-36.844-149.498-37.176-150.136Z" fill="#d35e7a"/>
      </g>
      <g>
        <path d="M1857.531,1170.932c19.396,68.708-60.718,267.642-68.232,277.302-7.513,9.66-21.054-5.049-21.054-5.049,0,0-7.926,20.581-21.88,21.938-13.954,1.357-20.93-11.791-20.93-11.791,0,0-12.203,10.799-29.376,6.44-17.173-4.358,45.967-194.897,50.26-208.85,4.294-13.953,104.114-105.128,111.211-79.99Z" fill="#d35e7a"/>
        <path d="M1573.068,1157.956s-20.317,76.008-32.036,110.74c-11.719,34.732,48.365,78.985,122.146,75.581,73.781-3.404,150.6-77.207,157.01-93.068,6.41-15.862-137.694,87.395-193.293,48.815-55.599-38.579-53.827-142.068-53.827-142.068Z" fill="#d35e7a"/>
        <path d="M1573.068,1157.956s24.77-18.131,39.337-10.493c14.566,7.638-20.985,48.171,19.446,91.288,40.432,43.118,103.44,13.616,120.727-6.808,17.287-20.424,37.006-66.279,46.436-73.988,9.43-7.709,50.973,6.778,59.409,11.689,8.436,4.91-30.689,111.399-124.868,145.853s-180.155-15.994-175.746-27.648c4.409-11.654-29.492-110.838,15.258-129.893Z" fill="#e06e84"/>
      </g>
    </g>
    <g id="Armrest_left_">
      <path d="M2162.773,1781.988h-207.587c-50.481,0-91.402,40.924-91.402,91.402v392.206h66.712c183.712,0,272.901-148.927,272.901-332.639v-110.35c0-22.432-18.186-40.618-40.618-40.618h-.005Z" fill="#2fa7c3"/>
      <path d="M1863.796,2259.194c8.488,3.031,17.619,5.191,27.356,6.403h-27.356v-6.403Z" fill="#36477e" opacity=".2"/>
      <path d="M2203.403,1822.589v110.373c0,183.69-89.193,332.635-272.921,332.635,240.639-26.826,226.074-349.306,196.065-483.626h36.238c22.431,0,40.618,18.187,40.618,40.618Z" fill="#36477e" opacity=".1"/>
      <path d="M1925.18,1781.988h-31.972c-50.168,0-90.838,40.67-90.838,90.838v205.98h-.165v191.907h52.619c69.951,0,126.659-56.708,126.659-126.659v-305.76c0-31.097-25.209-56.306-56.306-56.306h.002Z" fill="#47c4d9"/>
      <path d="M1956.953,1785.437c.817,6.394,216.895,12.321,218.34.072,1.445-12.248-219.529-9.373-218.34-.072Z" fill="#47c4d9"/>
    </g>
    <g>
      <path d="M1836.229,1761.298c15.76-29.869,48.494-65.458,79.195-79.795,63.991-29.885,121.72-43.107,128.079-24.149,9.072,27.044,31.357,90.334,10.175,103.368-26.719,16.441-130.024,43.75-130.024,43.75,0,0-104.191-19.107-87.425-43.173Z" fill="#ff97a6"/>
      <g>
        <g>
          <path d="M1842.546,1756.512c-22.536,13.528-63.412,82.517-38.709,87.612,15.127-16.685,19.392-32.496,30.942-27.374,12.045,5.342,9.597,9.3,8.805,13.621-4.905,26.766-31.89,76.92-19.535,82.556,6.563,2.993,20.256-8.114,31.755-24.968,6.03.777,11.202-.074,15.64-2.04,18.678,3.713,29.667-3.321,36.115-13.389l-.513,1.629c32.626,10.562,35.067-56.616,35.067-56.616,0,0,1.77-43.232-12.952-57.164-15.896-15.042-64.414-17.193-86.616-3.866Z" fill="#ff97a6"/>
          <path d="M1846.866,1901.968c-.669,0-1.336-.266-1.833-.79-.955-1.012-.91-2.606.101-3.561.256-.244,25.739-24.796,29.75-65.559.135-1.383,1.358-2.375,2.753-2.261,1.386.135,2.397,1.368,2.261,2.753-4.203,42.715-30.2,67.688-31.304,68.731-.487.457-1.107.686-1.727.686Z" fill="#ef8499"/>
          <path d="M1866.057,1890.179c-.081,0-.136,0-.17-.002-1.39-.061-2.468-1.237-2.406-2.628.059-1.376,1.186-2.433,2.589-2.409.396-.002,20.46-.704,30.864-54.526.263-1.366,1.597-2.262,2.95-1.996,1.368.263,2.262,1.585,1.996,2.95-11.031,57.073-33.467,58.61-35.822,58.61Z" fill="#ef8499"/>
          <path d="M1890.242,1888.673c-.12,0-.204-.005-.246-.007-1.388-.091-2.441-1.292-2.35-2.68.091-1.373,1.282-2.397,2.631-2.352.416-.002,18.546-.62,28.895-54.164.263-1.366,1.589-2.259,2.95-1.996,1.368.263,2.261,1.585,1.996,2.95-10.901,56.396-31.265,58.249-33.876,58.249Z" fill="#ef8499"/>
        </g>
        <path d="M1940.681,1825.768c-.069,0-.14-.002-.209-.007-1.388-.116-2.419-1.334-2.306-2.719,3.79-45.899-13.753-60.188-13.93-60.326-1.093-.854-1.297-2.434-.45-3.529.846-1.095,2.407-1.309,3.514-.472.817.62,19.931,15.765,15.891,64.74-.111,1.316-1.211,2.313-2.51,2.313Z" fill="#ef8499"/>
      </g>
      <path d="M1915.427,1684.022c-.864,0-1.705-.445-2.175-1.245-.704-1.198-.303-2.744.896-3.447,1.43-.839,35.404-20.515,62.761-19.781,1.39.039,2.485,1.198,2.448,2.589-.039,1.393-1.247,2.394-2.591,2.451-.467-.015-.945-.02-1.42-.02-25.783,0-58.315,18.912-58.647,19.107-.398.236-.839.347-1.272.347Z" fill="#ef8499"/>
    </g>
    <g>
      <path d="M1282.884,1770.351c11.349,23.709,7.434,103.802-15.987,94.438-3.427-22.26,1.729-37.803-10.731-39.895-12.995-2.181-13.133,2.471-14.854,6.513-10.66,25.037-18.366,66.891-31.782,64.783-7.126-1.119-9.848-3.066-10.154-23.467-5.46-2.675-9.306-6.236-11.926-10.322-17.632-7.197-22.924-19.123-22.755-31.077l-.47,1.642c-33.045-9.168,1.943-66.567,1.943-66.567,0,0,28.131-28.86,48.094-32.37,21.554-3.79,57.442,12.965,68.622,36.322Z" fill="#ff97a6"/>
      <path d="M1200.502,1889.76c-1.143,0-2.178-.782-2.451-1.944-.347-1.479-8.275-36.646,11.758-74.605.648-1.23,2.17-1.7,3.404-1.053,1.23.65,1.702,2.175,1.052,3.406-19.118,36.223-11.388,70.759-11.308,71.103.316,1.354-.525,2.709-1.88,3.027-.193.044-.386.066-.576.066Z" fill="#ef8499"/>
      <path d="M1191.034,1869.376c-.44,0-.887-.116-1.293-.359-.858-.514-20.732-13.226,2.268-68.738.533-1.284,2.008-1.897,3.292-1.363,1.286.531,1.896,2.005,1.363,3.292-21.013,50.717-4.504,62.385-4.332,62.489,1.193.716,1.581,2.264.865,3.457-.471.787-1.307,1.223-2.163,1.223Z" fill="#ef8499"/>
      <path d="M1171.702,1854.799c-.423,0-.851-.106-1.245-.33-.803-.458-19.394-11.846,3.625-67.402.533-1.287,2.007-1.9,3.292-1.363,1.286.531,1.896,2.005,1.363,3.292-20.994,50.672-5.943,61.005-5.785,61.093,1.209.689,1.63,2.229.941,3.438-.464.815-1.315,1.272-2.191,1.272Z" fill="#ef8499"/>
    </g>
    <path d="M1288.956,1816.908c-.076,0-.153-.002-.23-.01-1.385-.126-2.408-1.351-2.282-2.739,2.018-22.237-5.828-42.688-5.908-42.892-.504-1.294.135-2.756,1.432-3.263,1.289-.5,2.754.136,3.262,1.43.343.876,8.361,21.725,6.234,45.183-.119,1.307-1.218,2.291-2.507,2.291Z" fill="#ef8499"/>
    <path d="M1455.298,1653.32c-.615,0-1.23-.224-1.715-.674-17.84-16.582-51.105-14.208-51.435-14.173-1.419.094-2.6-.928-2.708-2.316-.11-1.388.926-2.598,2.313-2.709,1.454-.103,35.788-2.593,55.26,15.507,1.02.947,1.078,2.542.131,3.561-.496.534-1.17.804-1.845.804Z" fill="#ef8499"/>
    <path d="M1910.623,1628.306c-.47.433-3.425-1.595-7.395-6.471-4.044-4.818-9.022-12.47-13.922-22.458-9.972-19.939-19.699-49.026-27.629-81.646-15.713-65.348-20.201-119.661-17.332-120.017,3.086-.447,12.374,52.868,27.908,117.438,7.839,32.246,16.22,61.053,24.094,81.114,7.549,20.27,15.483,30.95,14.276,32.041Z" fill="#ceaf2e"/>
    <path d="M1757.325,984.768c-5.835,13.035-14.891,25.235-28.228,35.958,7.01-7.654,19.892-26.106,28.228-35.958Z" fill="#c1dbea" opacity=".5"/>
    <path d="M1891.152,2265.597h39.33c-14.133,1.592-27.205,1.516-39.33,0Z" fill="#36477e" opacity=".2"/>
  </g>
</svg>