<?xml version="1.0" encoding="utf-8"?>
<svg xmlns="http://www.w3.org/2000/svg" id="MC002" version="1.1" viewBox="0 0 3000 3000">
  <defs>
    <linearGradient gradientUnits="userSpaceOnUse" id="linear-gradient" x1="1500" x2="1500" y1="480.178" y2="2634.88">
      <stop offset="0" stop-color="#c7effa"/>
      <stop offset="1" stop-color="#59cfef"/>
    </linearGradient>
    <linearGradient href="#linear-gradient" id="linear-gradient1" x1="1858.622" x2="1946.816" y1="858.26" y2="754.03"/>
    <linearGradient href="#linear-gradient" id="linear-gradient2" x1="1783.721" x2="1879.008" y1="743.223" y2="829.259"/>
    <linearGradient href="#linear-gradient" id="linear-gradient3" x1="1950.426" x2="2264.443" y1="206.271" y2="604.026"/>
    <linearGradient href="#linear-gradient" id="linear-gradient4" x1="803.159" x2="1416.92" y1="81.069" y2="674.846"/>
    <linearGradient href="#linear-gradient" id="linear-gradient5" x1="1209.196" x2="1708.195" y1="315.815" y2="798.567"/>
  </defs>
  <g id="Screen">
    <path d="M2456.312,781.521v-110.016c0-41.62-33.723-75.343-75.342-75.343H619.031c-41.619,0-75.343,33.723-75.343,75.343v110.016h1912.624Z" fill="#75e4ef"/>
    <path d="M543.688,781.133v928.951c0,41.62,33.723,75.342,75.343,75.342h1761.938c41.62,0,75.342-33.722,75.342-75.342v-928.951H543.688Z" fill="url(#linear-gradient)"/>
    <path d="M2216.412,1397.834c.138-.176.274-.354.404-.537.16-.226.31-.459.458-.694.119-.188.238-.375.348-.568.139-.245.266-.498.391-.752.097-.196.198-.39.287-.591.118-.268.22-.543.322-.819.075-.2.156-.396.222-.598.096-.296.172-.601.25-.905.05-.193.109-.381.15-.578.075-.354.127-.716.178-1.079.022-.154.055-.304.072-.461.056-.517.087-1.042.089-1.574v-.014c0-.084-.011-.17-.012-.256-.007-.451-.026-.899-.071-1.34-.004-.032,0-.064-.004-.098-.043-.405-.113-.801-.188-1.195-.008-.043-.012-.089-.021-.132-.095-.469-.211-.928-.349-1.377-.005-.019-.009-.037-.014-.056-.028-.09-.066-.175-.097-.265-1.965-5.972-7.569-10.297-14.202-10.316l-12.826-.038c-6.549-.019-11.843-5.344-11.823-11.893l.037-12.432c.023-7.702-5.6-14.476-13.253-15.343-9.048-1.025-16.729,6.012-16.755,14.861l-.038,12.826c-.019,6.549-5.344,11.843-11.893,11.823l-12.827-.038c-6.631-.02-12.262,4.272-14.262,10.233-.03.089-.068.174-.097.264-.005.019-.009.037-.015.055-.141.448-.261.907-.359,1.375-.009.043-.012.089-.022.132-.078.394-.149.789-.195,1.194-.004.033-.003.065-.005.098-.048.441-.069.888-.079,1.34-.002.085-.013.172-.013.256v.014c-.002.531.026,1.056.079,1.574.016.156.049.306.069.461.048.364.097.726.171,1.08.041.196.099.386.147.579.076.304.15.609.244.906.065.204.144.401.218.6.102.276.201.553.318.821.087.202.188.396.284.593.124.255.249.508.387.755.109.194.227.382.344.57.146.236.295.471.453.697.129.183.265.361.401.54.167.218.337.431.515.639.146.171.298.337.452.5.187.199.38.392.576.581.163.156.329.307.499.456.206.179.418.351.633.519.178.139.355.275.54.406.224.16.456.309.689.456.19.119.378.24.574.35.243.139.493.265.745.389.198.1.395.2.599.291.262.117.534.218.806.318.204.076.404.158.612.226.287.094.584.169.88.245.201.053.398.112.602.156.333.071.673.119,1.013.168.175.025.347.063.525.082.509.055,1.025.086,1.547.089.014,0,.026.003.039.003l12.826.038c6.549.019,11.842,5.344,11.823,11.893l-.037,12.432c-.023,7.703,5.6,14.476,13.253,15.343,9.049,1.025,16.729-6.012,16.755-14.861l.038-12.826c.019-6.549,5.344-11.842,11.893-11.823l12.827.038c.014,0,.026-.002.038-.002.523.002,1.039-.027,1.548-.08.178-.018.348-.054.525-.079.341-.047.682-.093,1.015-.162.204-.042.401-.102.603-.153.295-.075.592-.148.881-.24.209-.066.41-.147.613-.222.272-.101.543-.2.808-.314.204-.09.401-.189.6-.287.253-.123.504-.248.747-.384.196-.111.385-.229.576-.347.234-.146.467-.294.692-.453.184-.129.364-.265.542-.402.217-.167.429-.337.636-.516.171-.148.337-.298.502-.453.198-.187.392-.379.58-.578.155-.163.308-.328.455-.497.18-.207.352-.419.52-.636h-.005Z" fill="#fff" opacity=".5"/>
    <g opacity=".5">
      <path d="M985.026,1448.79c-5.356-34.729-42.763-139.625-77.489-137.571-14.849.803-21.103,10.116-23.438,20.482-4.031-2.166-8.888-4.111-14.505-4.95v-55.083c0-3.034-2.499-5.534-5.535-5.534s-5.534,2.5-5.534,5.534v54.994c-5.136.649-10.672,2.369-16.477,5.532-2.238-10.565-8.481-20.158-23.607-20.975-34.727-2.054-72.134,102.842-77.49,137.571-5.356,34.726,55.439,27.318,76.15,22.675,20.622-4.732,19.997-23.39,19.997-23.39l4.018-86.863s1.85-7.535,1.985-16.736c10.156-6.903,20.328-8.837,30.243-5.582,3.89,1.271,7.099,3.131,9.555,4.853.03,9.53,1.962,17.466,1.962,17.466l4.017,86.863s-.625,18.658,19.998,23.39c20.711,4.642,81.506,12.051,76.149-22.675ZM835.494,1355.23c-3.571,6.964-9.552,11.517-15.891,15.624-.089.089-.269.179-.356.269h-.09c-.714.446-1.338.892-2.054,1.338-8.837,5.625-15.979,11.071-20.354,20.176.357.269.625.625.625,1.25-.447,6.159-.358,12.319,1.16,18.391,1.25,4.73,3.482,9.194,4.822,14.015,1.874,6.873,1.606,13.927-3.304,19.462-1.34,1.605-3.661-.716-2.321-2.321,6.874-7.856,1.785-17.945-1.072-26.247-1.965-5.536-2.767-11.159-2.767-16.874-4.822,16.158-7.321,37.672-26.514,42.405-1.963.353-2.854-2.679-.802-3.215,22.051-5.446,19.907-34.817,28.478-50.975,3.57-6.786,9.374-11.248,15.534-15.265-2.679.089-5.357-.179-8.124-.715-7.945-1.517-26.603-6.337-26.157,7.768.09,2.053-3.124,2.053-3.214,0-.178-6.516,4.553-11.338,10.624-12.855,11.426-2.946,22.763,6.427,33.924.892.268-.088.536-.178.803-.178,5.713-3.838,11.07-8.214,14.283-14.551.983-1.875,3.75-.179,2.767,1.605ZM959.852,1442.541c-19.194-4.732-21.694-26.247-26.515-42.404-.09,5.714-.893,11.248-2.767,16.872-2.857,8.393-7.945,18.391-1.071,26.247,1.338,1.608-.893,3.84-2.321,2.321-4.822-5.535-5.088-12.588-3.303-19.462,1.249-4.732,3.571-9.194,4.821-14.015,1.607-6.07,1.696-12.142,1.161-18.391,0-.625.178-.982.625-1.25-4.375-9.105-11.427-14.551-20.354-20.175-.714-.446-1.429-.894-2.053-1.34h-.089c-.178-.089-.268-.177-.356-.269-6.339-4.105-12.32-8.66-15.892-15.622h.002c-.893-1.786,1.964-3.392,2.857-1.517,3.213,6.337,8.569,10.623,14.283,14.551.268,0,.535,0,.803.179,11.159,5.535,22.497-3.84,33.923-.893,6.071,1.607,10.802,6.428,10.624,12.855-.09,2.053-3.303,2.053-3.214,0,.446-14.194-18.212-9.285-26.157-7.766-2.767.535-5.534.804-8.124.715,6.159,4.105,11.963,8.481,15.534,15.265,8.571,16.159,6.428,45.619,28.478,50.975,2.054.537,1.16,3.661-.893,3.125Z" fill="#fff"/>
    </g>
    <g>
      <path d="M1290.045,1270.628s-48.375,72.238-60.552,98.44c-3.831,8.241-9.539,22.408-8.521,35.344,2.553,32.431,27.089,59.446,59.487,62.385,37.837,3.432,70.282-25.6,71.571-63.049.43-12.509-4.636-26.445-8.416-34.471-11.959-25.389-53.567-98.649-53.567-98.649h-.002Z" fill="#fff" opacity=".5"/>
      <path d="M1339.857,1399.637c-1.026,29.82-26.877,52.952-57.029,50.217-4.921-.44-9.631-1.604-14.015-3.349,19.957-4.656,41.533-14.466,48.011-35.107,10.057-31.954-11.345-86.362-21.532-109.308,9.543,16.953,30.589,54.623,37.861,70.074,3.002,6.398,7.049,17.494,6.705,27.474h-.002Z" fill="#47c4d9" opacity=".35"/>
    </g>
    <g opacity=".5">
      <rect fill="#fff" height="364.108" opacity=".5" rx="43.818" ry="43.818" width="402.768" x="660.202" y="1206.463"/>
      <rect fill="#fff" height="364.108" opacity=".35" rx="43.818" ry="43.818" width="402.768" x="1085.811" y="1206.463"/>
      <rect fill="#fff" height="364.108" opacity=".35" rx="43.818" ry="43.818" width="402.768" x="1511.42" y="1206.463"/>
      <rect fill="#fff" height="364.108" opacity=".5" rx="43.818" ry="43.818" width="402.768" x="1937.03" y="1206.463"/>
    </g>
    <g>
      <g>
        <path d="M911.451,1008.165c0,21.509-5.731,41.662-15.759,59.045-20.459,35.453-58.758,59.312-102.617,59.312s-82.159-23.878-102.598-59.331c-10.029-17.364-15.759-37.537-15.759-59.026,0-65.368,52.99-118.376,118.357-118.376s118.376,53.008,118.376,118.376Z" fill="#fff" opacity=".5"/>
        <circle cx="793.08" cy="968.117" fill="#47c4d9" r="50.515"/>
        <path d="M895.692,1067.21c-20.459,35.453-58.758,59.312-102.617,59.312s-82.159-23.878-102.598-59.331c24.355-29.608,61.28-48.482,102.598-48.482s78.261,18.873,102.617,48.501Z" fill="#47c4d9"/>
      </g>
      <path d="M1004.906,962.543h63.531c7.526,0,13.626-6.1,13.626-13.625s-6.1-13.623-13.626-13.623h-63.531c-7.525,0-13.626,6.1-13.626,13.623s6.1,13.625,13.626,13.625Z" fill="#fff"/>
      <path d="M1118.986,935.295c-7.523,0-13.623,6.1-13.623,13.623s6.1,13.625,13.623,13.625h127.963c7.525,0,13.625-6.1,13.625-13.625s-6.1-13.623-13.625-13.623h-127.963Z" fill="#fff" opacity=".5"/>
      <path d="M1004.906,1021.779h173.934c7.523,0,13.622-6.1,13.622-13.623s-6.1-13.623-13.622-13.623h-173.934c-7.525,0-13.626,6.1-13.626,13.623s6.1,13.623,13.626,13.623Z" fill="#fff" opacity=".5"/>
      <path d="M1294.009,994.532h-64.623c-7.523,0-13.623,6.1-13.623,13.623s6.101,13.623,13.623,13.623h64.623c7.525,0,13.624-6.1,13.624-13.623s-6.099-13.623-13.624-13.623Z" fill="#fff"/>
      <path d="M1460.668,994.532h-117.893c-7.115,0-13.469,5.2-14.146,12.283-.776,8.125,5.593,14.964,13.56,14.964h117.772c7.184,0,13.653-5.245,14.277-12.401.703-8.073-5.643-14.846-13.57-14.846Z" fill="#fff" opacity=".5"/>
      <path d="M1004.906,1081.016h153.967c7.524,0,13.626-6.1,13.626-13.623s-6.102-13.624-13.626-13.624h-153.967c-7.525,0-13.626,6.099-13.626,13.624s6.1,13.623,13.626,13.623Z" fill="#fff"/>
      <path d="M1459.154,1053.769h-249.733c-7.524,0-13.624,6.099-13.624,13.624s6.1,13.623,13.624,13.623h249.733c7.525,0,13.624-6.1,13.624-13.623s-6.099-13.624-13.624-13.624Z" fill="#fff" opacity=".5"/>
    </g>
  </g>
  <path d="M1644.96,2622.906c-103.474,0-202.406,1.463-293.367,4.126-51.624-9.952-108.686-18.024-168.877-23.443-239.433-21.555-437.679,7.038-442.795,63.863-5.115,56.825,184.836,120.365,424.27,141.92,239.433,21.555,437.679-7.037,442.795-63.863.024-.263.035-.527.05-.79,12.57.044,25.211.067,37.925.067,447.072,0,694.838-25.543,694.838-59.199s-247.766-62.681-694.838-62.681Z" fill="#d0f6f7" id="Shadow"/>
  <g id="Foreground">
    <path d="M1608.694,2202.372c-84.628-104.202-84.225-255.872-112.374-216.127-28.149,39.742-27.396,54.594-27.396,54.594,0,0-64.18-166.2-112.066-130.984-47.889,35.216,7.063,139.318,7.063,139.318,0,0-52.723-21.952-63.215,7.483-10.488,29.438,129.517,60.93,129.517,60.93,0,0-72.81,96.461-14.424,101.115,58.386,4.657,91.37-29.61,91.37-29.61l101.524,13.282Z" fill="#d0f6f7"/>
    <path d="M1507.167,2189.089s-32.985,34.266-91.365,29.608c-58.391-4.647,14.419-101.115,14.419-101.115,0,0-140.006-31.487-129.518-60.932,10.401-29.163,62.235-7.882,63.212-7.492-.706-1.357-53.777-102.678-8.176-138.453-2.758,25.819-7.166,106.392,38.359,148.171l-35.395,11.585s30.889,33.452,99.085,34.103c0,0-37.317,37.957-15.439,63.69,21.878,25.743,64.819,20.835,64.819,20.835Z" fill="#e4eaef"/>
    <path d="M2141.274,2158.787c71.367-123.598,45.499-282.767,81.72-245.762,36.22,37.002,37.921,52.721,37.921,52.721,0,0,39.498-185.259,95.681-156.32,56.186,28.939,15.957,147.453,15.957,147.453,0,0,51.67-31.893,67.624-2.75,15.95,29.147-125.756,85.699-125.756,85.699,0,0,92.626,89.057,32.108,103.739-60.517,14.685-100.896-15.758-100.896-15.758l-104.361,30.977Z" fill="#d0f6f7"/>
    <path d="M2314.423,2039.823s92.631,89.061,32.115,103.739c-60.532,14.695-100.903-15.746-100.903-15.746l-83.339,24.736c35.111-21.245,62.094-49.264,62.094-49.264,0,0,74.382,25.501,78.638,0,4.24-25.501-27.636-42.506-27.636-42.506,57.361-51.32,74.334-181.262,79.355-252.233.606.255,1.227.558,1.849.876,55.782,28.736,16.528,145.752,15.97,147.442,1.084-.653,51.83-31.557,67.608-2.741,15.954,29.151-125.75,85.698-125.75,85.698Z" fill="#e4eaef"/>
    <path d="M1586.445,2238.163c.276,2.284-3.145,4.903-9.247,6.682-3.042.899-6.739,1.52-10.874,1.787-4.132.231-8.699.084-13.43-.581-4.726-.691-9.151-1.835-13.051-3.219-3.893-1.419-7.266-3.055-9.933-4.773-5.355-3.424-7.902-6.899-6.994-9.013.931-2.179,5.018-2.663,10.791-2.334,2.889.178,6.23.508,9.864.981,3.644.439,7.588,1.002,11.727,1.61,4.142.581,8.085,1.15,11.706,1.754,3.621.568,6.919,1.191,9.742,1.832,5.632,1.308,9.418,2.922,9.699,5.274Z" fill="#d0f6f7"/>
    <path d="M1628.076,2175.964c-1.844,1.369-8.071-3.336-16.172-12.593-4.058-4.618-8.518-10.407-13.111-17.086-4.557-6.7-9.226-14.302-13.649-22.544-4.397-8.256-8.126-16.361-11.166-23.872-3.003-7.529-5.34-14.453-6.926-20.392-3.198-11.878-3.653-19.67-1.49-20.443,2.236-.802,6.652,5.49,12.56,15.903,1.482,2.603,3.042,5.472,4.732,8.538,1.642,3.087,3.447,6.354,5.263,9.824,3.674,6.907,7.711,14.497,11.949,22.465,4.272,7.95,8.342,15.522,12.045,22.413,1.877,3.437,3.592,6.753,5.247,9.833,1.611,3.108,3.13,5.999,4.472,8.677,5.377,10.696,8.156,17.863,6.248,19.277Z" fill="#d0f6f7"/>
    <path d="M2113.379,2066.512c-3.313-1.117-3.217-10.688-1.611-25.255.395-3.647.914-7.603,1.421-11.848.56-4.22,1.158-8.726,1.787-13.468,1.21-9.441,2.541-19.814,3.937-30.704,1.222-10.911,2.386-21.304,3.445-30.764.512-4.756.997-9.276,1.453-13.509.513-4.243.945-8.209,1.425-11.847,1.889-14.533,4.062-23.855,7.545-24.155,3.347-.295,7.389,8.647,10.014,23.753.647,3.773,1.234,7.923,1.611,12.395.467,4.472.662,9.26.818,14.308.178,10.089-.287,21.205-1.651,32.78-1.416,11.569-3.596,22.479-6.158,32.239-1.347,4.868-2.67,9.473-4.183,13.708-1.426,4.255-2.978,8.148-4.5,11.66-6.127,14.055-12.171,21.786-15.353,20.707Z" fill="#d0f6f7"/>
  </g>
  <g id="Doctor">
    <g id="Doctor_Character">
      <path d="M1719.386,572.914l-35.639,11.696-261.751,319.79s-42.707,196.467,123.621,181.079c71.783-6.641,104.468-41.787,104.468-41.787l69.301-470.777Z" fill="#fff"/>
      <g>
        <g>
          <polygon fill="#ff97a6" points="1842.491 2425.322 1842.772 2542.814 1746.042 2554.421 1724.267 2445.028 1842.491 2425.322"/>
          <g id="Foot">
            <g>
              <path d="M1596.807,2605.076c14.424-2.169,33.472-3.82,53.037-6.554,32.911-4.599,67.285-12.264,83.573-30.628,0,0-8.595-41.309-8.268-61.451l126.136,2.322c-2.322,66.55-1.896,177.627-9.101,179.943-9.938,3.196-258.713-3.445-281.138-14.866-22.425-11.421-2.926-62.945,35.762-68.766Z" fill="#36477e"/>
              <path d="M1849.737,2565.255c-2.322,59.586-2.145,121.708-7.551,123.458-4.962,1.593-69.498.731-135.652-1.946,12.314-32.216,42.365-108.754,143.203-121.512Z" fill="#192c51" opacity=".5"/>
              <path d="M1561.053,2673.84c7.491,3.842,40.337,7.101,81.074,9.653,9.34-47.792-9.693-71.358-22.901-81.513-7.992,1.1-15.575,2.062-22.403,3.105-38.696,5.809-58.209,57.35-35.77,68.755Z" fill="#192c51"/>
              <path d="M1851.46,2666.402c.019,4.886-1.052,26.503-9.913,27.759-8.86,1.255-289.587-11.445-291.229-15.39-1.641-3.945-5.414-20.555,3.968-21.485,2.88-.285,297.174,9.115,297.174,9.115Z" fill="#ceaf2e"/>
            </g>
          </g>
        </g>
        <path d="M1640.8,1235.797s-45.079,276.241-32.501,429.481c18.02,219.559,109.375,823.891,109.375,823.891l177.145-30.886-78.968-762.364s165.15-353.357,96.566-443.872c-41.082-54.22-271.618-16.251-271.618-16.251Z" fill="#e5c74a"/>
        <path d="M1815.846,1695.923l78.978,762.359-87.597,15.265c-4.571-181.579-67.292-1086.229-80.511-1104.696-7.33-10.24-32.049-15.24-37.272-16.977,0,0,.687,390.016-9.759,412.646-9.52,20.646-33.521,34.044-56.152,45.47-6.725-56.452-12.092-106.44-15.239-144.715-12.575-153.242,32.503-429.483,32.503-429.483,0,0,230.536-37.961,271.618,16.258,68.584,90.509-96.568,443.874-96.568,443.874Z" fill="#ceaf2e" opacity=".5"/>
        <g id="Foot1">
          <path d="M1994.105,2453.372c.193,6.543-3.305,105.42-4.511,132.211-12.833,13.479-95.02,20.158-102.65,6.194-.656-22.15-15.436-134.78-15.436-134.78l122.597-3.625Z" fill="#ff97a6"/>
          <path d="M1993.724,2696.723c-9.71,4.585-220.342,4.954-241.066,5.42-20.723.466-14.398-74.252,49.56-77.14l70.153-61.296c3.047-15.008-5.686-45.435-1.741-52.234,7.062-12.173,128.446-7.191,130.005,4.063,2.17,15.594,2.811,176.604-6.912,181.188Z" fill="#36477e"/>
          <path d="M1802.218,2625.003s52.576-6.333,62.05,59.72c0,0-78.497,26.253-122.216-1.254,0,0-.097-56.834,60.166-58.467Z" fill="#192c51"/>
          <path d="M1998.839,2677.696c-.004-.158-92.8,6.372-144.749,7.256-5.803.099-10.837-14.672-62.848-14.23-36.02-.223-47.955,11.455-49.19,12.747-2.309,2.415-6.35,24.923,3.872,26.49,10.22,1.568,244.117-1.492,247.975-5.576,7.64-8.086,4.939-26.689,4.939-26.689Z" fill="#ceaf2e"/>
        </g>
        <path d="M1740.625,1245.083l119.171,1250.526,145.979-1.548s35.07-937.732,31.191-1283.328l-296.342,34.35Z" fill="#e5c74a"/>
        <path d="M2005.77,2494.062l-29.434.313c23.571-148.502,28.99-664.445,15.017-670.648-15.67-6.973-67.904,3.474-92.285-17.42-24.38-20.894,9.066-419.988-4.291-437.456-34.667,0-89.731-4.785-112.361-4.785l-21.203,97.041-20.585-216.017,296.338-34.357c3.878,345.595-31.197,1283.33-31.197,1283.33Z" fill="#ceaf2e" opacity=".5"/>
        <path d="M1776.987,1590.599c-1.043-29.836-3.632-71.019-7.52-116.477-4.232-49.488-9.131-93.842-13.458-123.966l-.409-2.851-3.626-.623c-.793-.136-1.89-.365-2.842-.581-.986-.224-1.96-.456-2.92-.711-1.92-.494-3.781-1.025-5.56-1.588-3.563-1.12-6.858-2.305-9.809-3.557-5.95-2.466-10.641-5.058-14.312-7.316-7.234-4.601-10.55-7.766-11.576-7.352-.452.178-.143,1.167.914,2.942.487.908,1.316,1.936,2.356,3.144.979,1.242,2.364,2.549,3.959,4.025,3.269,2.892,7.801,6.217,13.876,9.438,3.016,1.63,6.44,3.197,10.226,4.699,1.892.754,3.885,1.476,5.987,2.165.926.31,1.892.603,2.871.893.907,30.154,3.568,73.537,7.69,121.732,3.888,45.459,8.338,86.586,12.391,116.332,4.053,29.746,7.708,48.11,10.005,48.042,2.297-.068,2.801-18.556,1.758-48.392Z" fill="#ceaf2e"/>
        <path d="M1822.563,1836.321c-13.43-33.928,80.046-6.803,82.835,10.362,2.788,17.164-79.928-3.014-82.835-10.362Z" fill="#ceaf2e" opacity=".5"/>
        <path d="M1653.674,1836.321c-13.43-33.928,80.046-6.803,82.835,10.362,2.788,17.164-79.928-3.014-82.835-10.362Z" fill="#ceaf2e" opacity=".5"/>
      </g>
      <path d="M1643.361,1214.778c18.232,54.154,304.959,88.894,368.454-4.046,1.059-22.229-64.128-631.582-64.128-631.582,0,0-16.389-8.337-48.56-8.337h-156.622c-8.954,0-11.94,1.03-11.94,1.03,0,0-88.734,612.133-87.204,642.936Z" fill="#e5c74a"/>
      <path d="M1767.709,680.954c23.467,12.244,110.659-10.06,115.302,14.703,4.643,24.763-1.548,95.956-9.286,116.85-7.738,20.894-101.373,53.395-110.659,35.597-9.286-17.798-13.155-176.436,4.643-167.15Z" fill="#ceaf2e" opacity=".35"/>
      <path d="M1752.156,979.396c16.341,19.315,34.823,161.353,44.883,186.38,10.06,25.026-54.169,27.661-33.275,42.808,20.894,15.147,54.943,27.002,71.967,14.489,17.025-12.513,47.205-229.847,21.668-244.336-25.537-14.489-119.172-15.806-105.242.659Z" fill="#ceaf2e" opacity=".35"/>
      <g opacity=".5">
        <path d="M1843.614,948.487c-.679,1.197-7.357-1.065-17.414-6.17-10.052-5.096-23.419-13.143-37.287-23.312-13.858-10.183-25.542-20.524-33.416-28.586-7.884-8.064-12.044-13.758-11.105-14.764,1.999-2.102,23.326,15.247,50.542,35.148,27.143,20,50.086,35.147,48.68,37.684Z" fill="#ceaf2e"/>
      </g>
      <g opacity=".5">
        <path d="M1792.847,881.635c-.123-1.436,3.39-2.939,8.891-4.81,2.746-.915,5.99-1.994,9.586-3.192,3.571-1.226,7.468-2.581,11.524-4.103,4.046-1.549,7.862-3.118,11.348-4.567,3.486-1.488,6.63-2.829,9.293-3.965,5.358-2.246,8.986-3.449,9.845-2.293.819,1.094-1.354,4.4-6.061,8.413-2.343,2.012-5.346,4.135-8.854,6.215-3.524,2.046-7.564,4.028-11.964,5.711-4.41,1.657-8.749,2.851-12.743,3.655-4.005.768-7.661,1.169-10.749,1.216-6.184.116-10.003-.918-10.115-2.281Z" fill="#ceaf2e"/>
      </g>
      <path d="M1952.383,1253.769c.423,1.34-3.43,3.834-10.868,7.227-15.321,6.838-32.634,11.349-49.839,14.663-78.691,14.251-168.819,1.314-236.1-42.956-20.1-14.39-2.589-9.729,9.818-4.853,63.889,23.792,136.726,37.574,205.271,33.018,17.714-.896,37.384-3.127,54.378-5.585,6.745-.402,24.664-4.568,27.34-1.514Z" fill="#ceaf2e"/>
      <path d="M1737.23,1188.717c-2.498-125.511-6.805-506.948-7.936-608.961-9.807,61.127-73.624,459.752-92.873,602.443-.302,2.238-.592,4.407-.872,6.518h101.681Z" fill="#ceaf2e" opacity=".5"/>
      <path d="M1730.565,571.842s-76.997,894.946-80.48,1159.6c0,0-64.422,19.152-109.692-19.153-15.67-153.22,72.963-992.665,174.695-1135.224,3.282-4.599,12.249-2.418,15.477-5.224Z" fill="#fff"/>
      <path d="M1595.581,1185.503c-16.245,14.704-20.123,181.07-20.123,181.07l.392-.066c-9.167,118.389-16.167,306.132,9.245,326.634,21.011,16.95,47.181,20.437,65.319,20.397-.144,6.242-.248,12.223-.326,17.903,0,0-64.418,19.157-109.692-19.157-8.292-81.042,12.602-354.057,49.179-614.392,16.767-.026,33.535.352,50.288,1.07,16.023.679,32.02,1.659,48.003,2.886-1.959,25.96-3.917,52.13-5.837,78.325-17.877-1.972-72.893-6.934-86.448,5.328Z" fill="#6ae0e5" opacity=".5"/>
      <path d="M1544.714,1322.37c5.721,9.148,72.95-8.188,90.349-18.671,5.563-3.347,8.775-6.243,8.24-8.258-2.882-10.209-109.161,10.023-98.589,26.929Z" fill="#47c4d9"/>
      <path d="M1915.674,570.812l62.055,11.292,125.053,1124.961s-229.257,75.186-234.474,13.929c-17.133-201.215,47.365-1150.183,47.365-1150.183Z" fill="#fff"/>
      <path d="M2102.782,1707.062s-229.256,75.191-234.48,13.934c-.392-4.531-.731-9.441-1.045-14.717,59.521,14.156,160.921,18.883,174.58-35.78,19.157-76.602-50.484-322.103-87.048-365.64-28.624-34.07,40.926-204.745,72.462-277.246l75.531,679.45Z" fill="#d0f6f7"/>
      <g>
        <g>
          <path d="M1924.507,1306.303c23.161,6.947,76.387,36.102,105.379,40.336,1.678-2.556,33.305-75.378,33.305-75.378l18.289-31.546-64.293-45.765s-14.455,19.728-23.32,33.304c-10.224-2.716-28.193.639-47.282,16.213-6.869,5.67-9.344,30.35-10.223,42.251,0,0,0,.08-.08.08-4.393,5.431-9.059,14.994-11.775,20.505Z" fill="#ff97a6"/>
          <path d="M1960.24,1252.169c-.991-.704-7.129,6.23-13.713,15.488-6.581,9.256-11.115,17.332-10.126,18.036.991.705,7.129-6.23,13.712-15.487,6.582-9.257,11.116-17.332,10.127-18.037Z" fill="#ef899d"/>
        </g>
        <path d="M1977.729,582.104l20.585,5.698s292.917,308.955,250.724,421.066c-60.94,161.926-168.182,265.712-168.182,265.712l-93.937-58.304,100.192-240.489-117.967-153.746,8.583-239.936Z" fill="#fff"/>
        <path d="M2249.038,1008.873c-60.944,161.926-168.181,265.702-168.181,265.702l-17.668-10.956c58.881-80.375,167.357-229.793,145.223-304.083-24.498-82.23-145.171-263.573-193.448-353.69,61.454,67.643,270.129,307.215,234.075,403.026Z" fill="#d0f6f7"/>
        <path d="M2021.87,965.995c-2.274.33-8.997-30.184-12.94-68.382-3.993-38.194-3.677-69.363-1.379-69.459,2.38-.108,5.846,30.709,9.816,68.673,3.917,37.968,6.86,68.834,4.503,69.168Z" fill="#47c4d9"/>
        <path d="M2148.109,977.046c.166,1.383-3.017,3.071-8.392,4.466-5.368,1.396-12.935,2.443-21.33,2.555-8.396.105-15.987-.747-21.39-2.005-5.409-1.256-8.634-2.862-8.504-4.248.304-2.834,13.602-3.685,29.762-3.921,16.161-.179,29.477.329,29.854,3.154Z" fill="#47c4d9"/>
      </g>
      <path d="M1912.406,1302.774c-3.025,10.588,85.894,43.865,114.885,48.099,9.265,1.357,15.575,1.437,17.013-.4,7.107-9.424-126.308-67.266-131.898-47.698Z" fill="#47c4d9"/>
    </g>
    <g>
      <g>
        <path d="M1667.908,730.864c-.704-6.317-6.524-11.381-12.992-11.291l-307.755,2.818c-6.456.087-10.68,5.284-9.447,11.584l81.928,417.704c.996,5.089,6.49,9.144,12.27,9.075l293.657-3.623c5.795-.067,10.034-4.252,9.462-9.354l-67.122-416.913Z" fill="#192c51"/>
        <path d="M1659.543,736.093c-.704-6.318-6.524-11.381-12.991-11.292l-307.755,2.819c-6.456.086-10.68,5.284-9.447,11.584l81.928,417.704c.995,5.089,6.49,9.144,12.27,9.075l293.657-3.623c5.795-.067,10.034-4.252,9.462-9.354l-67.122-416.913Z" fill="#36477e"/>
        <path d="M1717.208,1162.363l-293.661,3.617c-5.785.065-11.27-3.983-12.275-9.076l-81.93-417.704c-1.227-6.294,3.004-11.492,9.455-11.583l50.328-.457c7.469,86.787,29.525,278.186,82.648,350.779,41.5,56.726,160.529,54.898,249.915,44.164l4.975,30.897c.574,5.106-3.67,9.298-9.455,9.363Z" fill="#192c51" opacity=".5"/>
        <path d="M1557.924,712.502l-12.642.175c-7.094-12.627-21.044-21.527-35.952-21.52l-23.922.008c-15.37.006-27.038,9.494-30.2,22.749l-15.021.207c-6.296.087-10.542,5.208-9.479,11.418,1.057,6.194,6.994,11.134,13.259,11.049l117.105-1.601c6.278-.087,10.675-5.171,9.822-11.371-.854-6.217-6.657-11.201-12.969-11.114Z" fill="#192c51"/>
      </g>
      <g>
        <path d="M1347.803,930.565s-20.785-5.593-4.176-29.259c16.614-23.666,34.324-15.84,34.103-6.477-.219,9.362.337,15.385-13.415,23.405,0,0,13.805-1.054,15.124,9.48,1.315,10.534-6.112,18.037-6.112,18.037,0,0,12.066-3.472,15.125,1.005,3.06,4.473,1.51,18.069-9.745,26.048,0,0,14.095.553,9.167,16.546-4.927,15.989-7.358,12.309-7.358,12.309l3.718,18.478s-26.578-1.963-24.624-32.984c0,0-18.259-8.439-3.912-27.182,0,0-26.061-9.145-7.898-29.404h.002Z" fill="#ff97a6"/>
        <g>
          <path d="M1348.064,930.56c.737.547,3.949-2.962,8.577-6.289,4.587-3.406,8.86-5.283,8.679-6.065-.152-.879-5.427-.142-10.477,3.601-5.097,3.687-7.427,8.341-6.779,8.752h0Z" fill="#ef899d"/>
          <path d="M1355.078,960.12c.376.236,1.357-.613,2.958-1.884,1.602-1.283,3.865-2.997,6.416-4.876,5.097-3.759,9.299-6.864,8.877-7.609-.401-.724-5.388,1.25-10.69,5.158-2.647,1.95-4.839,4.045-6.158,5.829-1.329,1.789-1.743,3.175-1.403,3.382h0Z" fill="#ef899d"/>
          <path d="M1359.611,987.152c.419.198,1.301-.855,2.868-2.288,1.59-1.432,3.945-3.226,6.74-5.027,5.581-3.618,10.495-6.161,10.177-6.965-.278-.767-5.891.561-11.845,4.413-2.968,1.908-5.368,4.181-6.704,6.17-1.333,2.013-1.582,3.548-1.237,3.696v.002Z" fill="#ef899d"/>
        </g>
      </g>
    </g>
    <g>
      <g>
        <g>
          <path d="M1892.221,845.895c-26.923,5.635-56.619-1.564-58.154-1.939l1.436-5.314c.443.11,44.501,10.753,71.944-3.932,27.244-14.602,33.842-70.817,33.905-71.381l5.889.656c-.276,2.428-7.001,59.537-36.77,75.489-5.659,3.032-11.875,5.088-18.246,6.418h-.004s0,.003,0,.003Z" fill="url(#linear-gradient1)"/>
          <path d="M1838.137,837.65c1.322,5.124-2.052,10.206-7.544,11.354-5.492,1.151-11.017-2.068-12.343-7.195-1.322-5.12,2.056-10.199,7.544-11.35,5.491-1.148,11.017,2.072,12.343,7.192h0Z" fill="#192c51"/>
        </g>
        <g>
          <path d="M1900.473,851.95c-1.954-.146-48.107-3.999-70.819-28.284-22.878-24.471-10.297-80.642-9.754-83.016l5.789,1.229c-.128.557-12.509,55.848,8.4,78.217,21.119,22.582,66.33,26.346,66.781,26.385l-.396,5.464h0v.004Z" fill="url(#linear-gradient2)"/>
          <path d="M1898.709,844.711c-2.951,4.43-1.444,10.308,3.375,13.122,4.815,2.818,11.112,1.509,14.064-2.925,2.954-4.426,1.447-10.3-3.372-13.115-4.814-2.818-11.113-1.509-14.067,2.917h0Z" fill="#192c51"/>
        </g>
        <path d="M1936.412,676.61c-11.732-15.011-26.705-20.871-34.425-23.039.103-20.059-1.824-99.642-41.483-128.506-.997-.722-2.528-1.43-3.6-2.071l-.054,16.086c28.133,28.788,33.27,93.905,33.224,113.186-51.631.499-68.649,63.471-72.801,83.884-.68,3.341,1.597,6.556,4.973,7.027l.056.008c3.083.43,5.965-1.602,6.599-4.65,3.892-18.701,20.096-79.022,66.6-75.151,1.392.247,18.57,3.174,31.472,19.655,13.683,17.499,17.763,43.666,11.869,77.791-.551,3.188,1.529,6.237,4.707,6.842,3.234.616,6.366-1.532,6.926-4.776,6.426-37.207,1.722-66.189-14.063-86.284Z" fill="#36477e"/>
      </g>
      <g>
        <g>
          <path d="M1756.452,765.64c13.155-10.062,31.971-7.558,42.033,5.596,10.063,13.152,7.559,31.971-5.596,42.034-13.152,10.059-31.974,7.555-42.03-5.596-10.066-13.151-7.559-31.971,5.593-42.03v-.004Z" fill="#36477e"/>
          <path d="M1794.138,774.562c8.229,10.752,6.177,26.138-4.574,34.36-10.751,8.229-26.138,6.181-34.36-4.574-8.226-10.751-6.178-26.138,4.574-34.36,10.751-8.226,26.138-6.181,34.363,4.574h-.003Z" fill="#192c51" opacity=".25"/>
        </g>
        <path d="M1756.327,782.522l11.713-2.436c-15.085-64.469-29.61-167.736,11.996-224.618l1.969-19.677c-58.568,58.098-42.64,175.513-25.678,246.73h0Z" fill="#36477e"/>
        <path d="M1774.579,771.839c6.368,8.326,4.782,20.244-3.548,26.611-8.326,6.371-20.244,4.789-26.614-3.541-6.372-8.33-4.783-20.244,3.544-26.615,8.33-6.371,20.247-4.789,26.618,3.541h0v.004Z" fill="#192c51"/>
        <path d="M1752.911,771.48c-12.689,2.809-7.333,20.01-4.057,18.403,3.279-1.604,13.485-20.488,4.057-18.403Z" fill="#47c4d9"/>
      </g>
      <g id="Head">
        <g id="Neck">
          <path d="M1956.401,326.544c-.375-42.724-37.585-52.962-37.585-52.962,15.284-20.219-22.457-61.114-54.516-46.397-2.003-20.978-20.705-36.297-41.685-34.18-11.793,1.162-21.698,7.551-27.883,16.686-13.791-20.61-39.668-30.993-64.874-24.147-31.679,8.727-50.27,41.344-41.656,73.022.884,3.066,1.998,5.907,3.224,8.749-1.928.213-3.743.427-5.673.979-14.761,4.088-23.482,19.324-19.395,34.198,2.651,9.651,10.079,16.73,19.127,19.288-.492,5.436-37.905,109.91,98.826,102.972-.434,5.075-.003,10.019,1.459,14.691,16.065,51.355,75.987,59.882,93.519,48.168,17.532-11.714,15.197-37.083,15.197-37.083,0,0,24.935,8.523,39.7-13.863,9.976-15.125-.456-39.671-8.275-54.012,13.622-11.218,30.717-30.424,30.491-56.108Z" fill="#192c51"/>
          <path d="M1787.456,487.082s-6.748,48.532-12.806,96.966c-5.433,27.973,38.11,61.321,38.11,61.321,0,0,56.371-31.33,55.975-64.766-7.282-62.189-3.692-159.076-3.692-159.076l-77.586,65.556Z" fill="#ff97a6"/>
          <path d="M1774.637,584.033c6.069-48.412,12.821-96.968,12.821-96.968l41.409-34.98c3.807,32.862,8.799,125.592-54.23,131.948Z" fill="#ed7e94"/>
        </g>
        <g id="Face">
          <path d="M1866.979,458.207c-16.44,41.698-80.138,94.357-132.761,72.443-65.508-27.279-44.524-159.154-36.373-200.327,26.315-2.885,53.091-15.803,61.025-26.521,41.089,36.235,62.985,50.559,85.604,53.21-5.307,69.272,17.258,34.672,26.71,18.286,1.788,27.397,1.357,50.352-4.205,82.908Z" fill="#ff97a6"/>
        </g>
        <path d="M1819.439,437.413c-.389,9.257-10.596,16.345-22.797,15.832-12.202-.513-21.777-8.433-21.388-17.69.389-9.257,10.596-16.345,22.797-15.832,12.202.513,21.777,8.433,21.388,17.69Z" fill="#ed7e94"/>
        <path d="M1711.773,434.034c-.389,9.257-10.596,16.345-22.797,15.832-12.201-.513-21.777-8.433-21.388-17.69s10.596-16.345,22.797-15.832c12.202.513,21.777,8.433,21.388,17.69Z" fill="#ed7e94"/>
        <g id="Mouth">
          <path d="M1742.156,505.248c-.987-2.135-1.221-4.391-.704-6.641.391-2.125,1.532-4.12,3.045-5.612,3.278-3.231,8.289-3.571,12.279-1.415,2.245,1.268,3.984,3.158,4.843,5.543.492,1.256-.52,2.751-1.649,2.993-1.38.366-2.501-.393-2.992-1.649-.123-.376.248.378-.124-.126-.125-.126-.124-.251-.247-.503-.125-.126-.248-.377-.372-.504,0,0-.249-.252,0,0,.249.252,0,0-.125-.126-.249-.252-.497-.505-.746-.757-.125-.001-.124-.126-.249-.127-.249-.252.374.253.124.126-.124-.126-.374-.253-.498-.379-.374-.253-.623-.38-.998-.508-.499-.254.375.128-.125,0-.25-.002-.374-.128-.625-.13-.375-.128-.751-.131-1.125-.259-.5-.129.501.004-.126,0-.25-.002-.375-.003-.626-.005-.25-.002-.375-.002-.626-.004-.125,0-.627.121-.25-.002.376-.122-.251-.002-.376.123-.251-.002-.377.122-.627.12-.125,0-.251.123-.376.123-.251.123.251-.124.126-.124-.126-.001-.378.248-.503.247-.126.124-.377.248-.503.372-.126-.001-.127.124-.251.123-.252.249,0-.125.126-.124-.25-.002-.63.622-.757.746-.126.124-.377.247-.379.498,0,0,.253-.374.127-.124,0,.125-.127.124-.252.249-.252.249-.38.623-.508.998-.001.125-.255.624-.128.374.128-.374-.127.249-.128.374-.128.375-.256.875-.26,1.375-.001.126-.002.251,0,0,.003-.375,0,0-.001.126-.002.25-.004.5-.004.626-.002.25-.003.375-.005.626-.002.251-.127.25.001-.125-.001.125-.002.25.122.376-.002.25.123.376.121.627,0,.125.369.879.124.251.246.628.492,1.13.237,1.88-.13.625-.635,1.247-1.137,1.494-.504.372-2.255.109-2.872-1.147h0Z" fill="#ed7e94"/>
          <path d="M1770.844,449.992s-32.921,16.917-62.08,15.206c0,.125,39.196,51.234,62.08-15.206Z" fill="#e9e9f2"/>
          <path d="M1740.439,406.759c5.992,2.421-13.318,24.193-1.568,26.656,11.626,2.461-7.558,6.581-9.746-2.699-2.186-9.406,5.946-26.124,11.314-23.957Z" fill="#192c51"/>
        </g>
        <g id="Eyes">
          <g>
            <path d="M1717.885,387.761c-1.183,7.879-5.606,13.732-9.858,13.075-4.252-.656-6.706-7.559-5.523-15.438,1.183-7.879,5.606-13.732,9.858-13.075,4.253.531,6.707,7.434,5.524,15.438Z" fill="#192c51"/>
            <path d="M1699.822,357.46c-.879.369-.685-9.269,4.199-9.485,5.01-.34,18.279.005,19.256,3.392.978,3.262,1.699,7.524-1.052,7.129-2.75-.52-14.616-4.361-22.402-1.036Z" fill="#192c51"/>
            <path d="M1710.151,383.825c-.394,2.626-2.537,4.614-4.788,4.222-2.251-.392-3.736-2.78-3.342-5.407.394-2.626,2.537-4.614,4.787-4.222,2.251.267,3.737,2.656,3.342,5.407Z" fill="#fff"/>
          </g>
          <g>
            <path d="M1794.161,395.219c-.555,7.633-4.979,13.485-9.859,13.2-4.881-.285-8.465-6.695-8.036-14.329.555-7.633,4.979-13.486,9.859-13.075,4.881.16,8.466,6.57,8.036,14.204Z" fill="#192c51"/>
            <path d="M1781.656,358.073s-2.169,5.744-1.18,7.503c.989,1.76,7.758.556,14.233,5.485,6.35,4.928,12.081,8.85,12.081,8.85,0,0,6.677-5.836,2.963-11.747-3.715-5.785-26.683-15.214-28.097-10.091Z" fill="#192c51"/>
            <path d="M1784.427,390.893c-.393,2.501-2.784,4.237-5.286,3.843-2.501-.393-4.236-2.784-3.844-5.285.394-2.501,2.785-4.237,5.286-3.844,2.501.394,4.237,2.785,3.843,5.286Z" fill="#fff"/>
          </g>
        </g>
        <g id="Ears">
          <path d="M1867.65,452.065c38.565,24.538,68.561-64.928,33.415-80.192-10.157-4.362-30.251-6.248-35.49,14.09-5.519,21.945-6.331,60.68,2.075,66.102Z" fill="#ff97a6"/>
          <path d="M1891.563,388.427c-8.358,6.508-23.526,28.251-13.322,44.678,0,0-.188-11.127,5.623-17.789l14.795-6.865-14.739-.91,7.643-19.115Z" fill="#192c51"/>
        </g>
      </g>
    </g>
  </g>
  <g id="Medicine">
    <g>
      <path d="M1436.112,2349.988l-453.793-65.112c-37.921-5.775-127.575,12.668-127.575,55.014l126.252,273.511c0,15.629,12.674,30.229,28.304,32.61l327.351,110.671c92.527,0,127.757-33.702,127.757-49.331v-324.752c0-15.63-12.67-30.23-28.298-32.61h0Z" fill="#2fa7c3"/>
      <path d="M1358.37,2462.716c-4.333,3.38,73.483,2.167,106.04-28.094-3.197-6.034-106.04,28.094-106.04,28.094Z" fill="#47c4d9"/>
      <path d="M1328.34,2382.574l-444.142-67.648c-16.265-2.477-29.453,8.699-29.453,24.964v316.792c0,16.263,13.189,31.455,29.453,33.933l444.142,67.648c16.26,2.477,29.445-8.699,29.445-24.963v-316.792c0-16.266-13.185-31.457-29.445-33.934h0Z" fill="#47c4d9"/>
      <path d="M854.748,2339.893v316.787c0,16.265,13.18,31.46,29.445,33.937l444.148,67.649c16.265,2.478,29.445-8.697,29.445-24.962v-1.408c-135.39-12.275-395.251-56.459-401.605-68.276-58.484-108.753-36.551-289.698,9.284-336.311l-81.271-12.379c-16.265-2.478-29.445,8.698-29.445,24.962Z" fill="#2fa7c3" opacity=".25"/>
      <path d="M1347.481,2464.311c0,2.014-107.996-12.803-241.215-33.093-133.218-20.291-241.215-38.372-241.215-40.386s107.996,12.802,241.215,33.093c133.218,20.291,241.215,38.372,241.215,40.386Z" fill="#2fa7c3"/>
    </g>
    <path d="M1025.396,2528.429l32.693,4.83c5.647.835,10.223-3.067,10.223-8.712v-32.693c0-12.928,10.481-21.86,23.409-19.951,12.929,1.91,23.41,13.94,23.41,26.868v32.693c0,5.646,4.576,10.898,10.223,11.733l32.693,4.831c12.929,1.91,23.41,13.939,23.41,26.868s-10.481,21.86-23.41,19.951l-32.693-4.831c-5.646-.834-10.223,3.067-10.223,8.713v32.693c0,12.928-10.481,21.86-23.41,19.951-12.928-1.91-23.409-13.939-23.409-26.868v-32.693c0-5.645-4.576-10.898-10.223-11.733l-32.693-4.831c-12.929-1.91-23.41-13.939-23.41-26.867s10.481-21.86,23.41-19.95h0Z" fill="#2fa7c3" opacity=".25"/>
    <path d="M1035.677,2517.325l32.693,4.83c5.645.835,10.223-3.065,10.223-8.711v-32.693c0-12.929,10.481-21.86,23.409-19.951,12.929,1.91,23.409,13.939,23.409,26.867v32.693c0,5.646,4.577,10.898,10.223,11.733l32.693,4.831c12.928,1.91,23.409,13.94,23.409,26.868s-10.481,21.86-23.409,19.951l-32.693-4.831c-5.646-.835-10.223,3.065-10.223,8.711v32.693c0,12.929-10.48,21.86-23.409,19.951-12.928-1.91-23.409-13.939-23.409-26.867v-32.692c0-5.646-4.577-10.899-10.223-11.733l-32.693-4.831c-12.928-1.91-23.409-13.94-23.409-26.868s10.481-21.86,23.409-19.95Z" fill="#e1efef"/>
    <path d="M1245.195,2333.385c-11.138,4.712-34.484,14.136-34.484,15.849s23.56,4.712,29.129,4.712,38.983-13.279,34.698-15.421c-4.285-2.143-29.343-5.141-29.343-5.141h0Z" fill="#175689"/>
    <path d="M1062.71,2306.398c-11.138,4.711-34.484,14.136-34.484,15.849s23.561,4.712,29.13,4.712,38.649-14.564,34.364-16.706c-4.283-2.142-29.01-3.855-29.01-3.855Z" fill="#175689"/>
    <path d="M1248.097,2338.954s-6.888-32.487-12.112-39.41c-17.136-22.703-129.719-29.985-145.523-24.053-3.045,1.143-41.674,36.476-39.532,41.188,2.141,4.712,10.28,3.855,11.994,3.427,1.713-.429,25.036-24.054,28.796-23.989,3.761.065,117.279,13.8,121.562,18.466,4.283,4.666,8.139,33.366,16.278,32.51,8.139-.857,18.538-8.139,18.538-8.139h0Z" fill="#47c4d9"/>
  </g>
  <g id="Icons">
    <g>
      <path d="M2344.414,513.581l-.009-6.534c0-6.635-5.397-12.041-12.032-12.041h-.693c-14.065-.037-30.681-1.054-47.278-8.345-14.773-6.48-28.401-16.379-40.521-29.414-.556-.598-1.334-.944-2.151-.944h0c-.817,0-1.595.346-2.151.944-12.12,13.034-25.748,22.934-40.521,29.414-16.598,7.291-33.213,8.308-47.278,8.345h-.693c-6.635,0-12.032,5.406-12.032,12.041l-.009,6.534c-1.719,39.691,2.782,75.011,13.391,104.721,6.884,19.277,16.412,36.114,28.306,50.05,16.961,19.883,37.977,33.914,60.901,40.726v.055c.029-.009.058-.019.087-.028.029.009.058.019.087.028v-.055c22.924-6.812,43.94-20.844,60.901-40.726,11.893-13.936,21.421-30.773,28.306-50.05,10.609-29.71,15.109-65.03,13.39-104.721Z" fill="#47c4d9"/>
      <path d="M2291.225,593.822c.116-.151.232-.301.342-.457.135-.192.261-.39.386-.59.1-.16.201-.319.294-.484.118-.209.224-.424.331-.64.082-.167.167-.331.242-.502.1-.227.185-.461.272-.696.063-.169.131-.336.186-.508.081-.252.145-.51.21-.769.042-.164.091-.324.126-.49.064-.301.106-.608.148-.916.018-.131.046-.258.06-.39.046-.439.071-.884.071-1.335,0-.004,0-.008,0-.012,0-.071-.01-.145-.011-.217-.007-.383-.024-.763-.064-1.137-.003-.028-.002-.055-.004-.083-.038-.343-.097-.68-.162-1.014-.007-.037-.011-.075-.018-.112-.082-.397-.182-.787-.3-1.168-.005-.015-.007-.031-.012-.047-.024-.077-.057-.149-.082-.225-1.682-5.063-6.449-8.719-12.077-8.719h-10.884c-5.557,0-10.062-4.505-10.062-10.062v-10.55c0-6.536-4.788-12.27-11.284-12.987-7.68-.847-14.18,5.143-14.18,12.652v10.884c0,5.558-4.505,10.062-10.063,10.062h-10.884c-5.628,0-10.394,3.656-12.077,8.719-.026.076-.058.148-.083.225-.004.015-.007.032-.012.047-.118.381-.218.771-.3,1.168-.008.037-.011.075-.018.112-.065.334-.125.67-.163,1.014-.003.028-.002.055-.004.083-.04.374-.057.754-.064,1.137-.001.072-.011.145-.011.217,0,.004,0,.008,0,.012,0,.451.025.896.071,1.335.013.132.042.259.059.39.042.308.085.615.148.916.035.166.085.327.126.49.065.258.129.517.21.769.056.172.123.339.186.508.087.234.172.469.272.696.075.17.16.335.242.502.106.216.213.431.33.64.093.164.194.323.294.484.125.2.252.398.387.59.11.155.225.306.342.457.142.184.287.365.439.54.125.145.254.285.385.424.159.168.322.332.491.491.139.132.279.26.424.385.175.152.355.297.538.439.151.117.302.233.459.343.191.135.388.261.586.386.161.101.321.202.487.296.207.117.419.223.633.329.169.083.336.169.508.245.224.099.454.183.684.269.173.064.343.133.52.19.244.079.496.141.747.206.171.044.338.095.511.132.282.06.572.1.861.14.149.021.295.052.445.068.432.046.87.07,1.314.071.011,0,.021.002.033.002h10.884c5.558,0,10.063,4.505,10.063,10.063v10.55c0,6.536,4.788,12.27,11.284,12.987,7.68.847,14.18-5.144,14.18-12.652v-10.884c0-5.558,4.505-10.063,10.062-10.063h10.884c.011,0,.022-.002.033-.002.443-.001.882-.025,1.313-.071.151-.016.296-.047.445-.068.289-.041.578-.081.861-.14.173-.037.34-.088.511-.132.251-.064.502-.127.747-.206.177-.057.347-.126.52-.19.23-.086.461-.17.684-.269.173-.076.34-.161.508-.245.214-.106.427-.212.634-.329.166-.094.326-.195.487-.296.198-.124.395-.251.586-.386.156-.11.308-.226.459-.343.183-.142.363-.287.539-.439.144-.125.285-.253.424-.385.168-.159.331-.323.49-.491.131-.139.26-.279.385-.424.152-.175.297-.356.44-.54Z" fill="#30b2bf" opacity=".5"/>
      <path d="M2285.475,589.715c.116-.151.232-.301.341-.457.135-.192.262-.39.387-.59.1-.16.201-.319.294-.483.118-.209.224-.424.331-.64.082-.167.167-.332.242-.502.1-.227.185-.461.272-.696.063-.17.131-.336.186-.509.081-.252.145-.51.21-.768.042-.164.091-.324.126-.49.063-.301.106-.608.148-.916.018-.131.046-.259.059-.391.046-.439.071-.884.071-1.335,0-.004,0-.008,0-.012,0-.072-.01-.145-.011-.217-.007-.383-.024-.763-.064-1.137-.003-.028-.002-.055-.004-.083-.038-.343-.097-.68-.163-1.014-.007-.037-.011-.075-.018-.112-.082-.397-.182-.787-.3-1.168-.005-.015-.008-.031-.012-.047-.024-.077-.057-.149-.083-.225-1.682-5.063-6.448-8.719-12.076-8.719h-10.884c-5.557,0-10.063-4.505-10.063-10.062v-10.55c0-6.536-4.788-12.27-11.284-12.987-7.68-.847-14.181,5.144-14.181,12.652v10.884c0,5.557-4.505,10.062-10.062,10.062h-10.884c-5.628,0-10.394,3.656-12.077,8.719-.025.076-.058.148-.082.225-.004.016-.008.032-.012.047-.119.381-.219.771-.3,1.168-.008.037-.011.075-.018.112-.066.334-.125.67-.163,1.014-.003.028-.002.055-.004.083-.04.374-.057.754-.064,1.137-.001.072-.011.145-.011.217,0,.004,0,.008,0,.012,0,.451.025.896.071,1.335.014.132.042.259.06.391.042.308.084.615.148.916.035.166.085.327.126.49.065.258.129.517.21.768.055.172.123.339.186.509.087.234.172.468.272.696.075.17.16.335.242.502.106.216.213.431.331.64.093.164.194.324.294.483.125.2.251.398.387.59.109.156.225.306.341.457.142.184.287.365.44.54.125.145.254.285.385.424.159.168.322.332.49.491.139.132.28.261.424.386.175.152.355.297.538.439.151.117.302.233.459.343.191.135.388.261.586.385.161.101.321.202.487.296.207.117.42.223.633.328.169.084.336.169.509.245.223.098.454.183.684.268.173.065.343.133.52.19.245.079.496.141.747.206.17.044.338.095.511.131.283.06.572.1.861.14.149.021.294.052.445.068.432.046.87.07,1.314.071.011,0,.022.002.033.002h10.884c5.557,0,10.062,4.505,10.062,10.062v10.549c0,6.536,4.788,12.27,11.284,12.987,7.68.847,14.18-5.143,14.18-12.652v-10.884c0-5.558,4.506-10.062,10.063-10.062h10.884c.011,0,.022-.002.032-.002.443-.001.882-.025,1.314-.071.151-.016.296-.047.445-.068.289-.041.578-.081.861-.14.173-.037.341-.088.511-.131.251-.065.502-.127.747-.206.176-.057.347-.126.52-.19.23-.086.46-.17.684-.268.173-.076.34-.162.508-.245.214-.105.427-.211.633-.328.166-.094.326-.195.487-.296.198-.124.395-.251.586-.385.156-.11.308-.226.459-.343.183-.142.363-.287.538-.439.145-.125.285-.254.425-.386.168-.16.331-.323.49-.491.131-.139.26-.279.385-.424.152-.176.297-.357.44-.54Z" fill="#fff"/>
    </g>
    <g>
      <path d="M2133.436,372.276c0,9.441-2.515,18.287-6.917,25.917-8.98,15.562-25.791,26.034-45.042,26.034s-36.062-10.481-45.034-26.043c-4.402-7.622-6.917-16.476-6.917-25.909,0-28.692,23.259-51.959,51.951-51.959s51.96,23.268,51.96,51.959Z" fill="url(#linear-gradient3)"/>
      <circle cx="2081.478" cy="358.658" fill="#fff" r="18.464" transform="rotate(-9.217 2081.58 358.664)"/>
      <path d="M2118.985,394.879c-7.478,12.959-21.477,21.68-37.509,21.68s-30.031-8.728-37.502-21.687c8.902-10.823,22.399-17.721,37.502-17.721s28.606,6.899,37.509,17.728Z" fill="#fff"/>
    </g>
    <g>
      <path d="M1226.495,394.72c0,18.014-4.8,34.892-13.199,49.451-17.134,29.693-49.211,49.675-85.943,49.675s-68.809-19.998-85.928-49.691c-8.399-14.543-13.198-31.437-13.198-49.435,0-54.746,44.38-99.142,99.126-99.142s99.142,44.396,99.142,99.142Z" fill="url(#linear-gradient4)"/>
      <circle cx="1127.357" cy="370.083" fill="#fff" r="33.968" transform="rotate(-77.902 1127.352 370.085)"/>
      <path d="M1196.359,436.719c-13.757,23.841-39.512,39.885-69.005,39.885s-55.247-16.056-68.992-39.897c16.378-19.91,41.208-32.602,68.992-32.602s52.627,12.691,69.005,32.614Z" fill="#fff"/>
    </g>
    <g>
      <path d="M1553.376,570.818c0,14.646-3.902,28.368-10.731,40.205-13.93,24.141-40.009,40.387-69.874,40.387s-55.943-16.259-69.861-40.4c-6.829-11.824-10.731-25.559-10.731-40.192,0-44.51,36.081-80.604,80.591-80.604s80.604,36.095,80.604,80.604Z" fill="url(#linear-gradient5)"/>
      <circle cx="1472.776" cy="550.788" fill="#fff" r="27.617" transform="rotate(-86.871 1472.78 550.787)"/>
      <path d="M1528.875,604.965c-11.185,19.383-32.124,32.427-56.102,32.427s-44.917-13.054-56.092-32.437c13.315-16.187,33.503-26.506,56.092-26.506s42.787,10.318,56.102,26.516Z" fill="#fff"/>
    </g>
  </g>
</svg>