<?xml version="1.0" encoding="utf-8"?>
<svg xmlns="http://www.w3.org/2000/svg" id="Layer_1" version="1.1" viewBox="0 0 3000 3000">
  <g id="Background">
    <path d="M2703.125,2729.846c-255.351,43.034-474.598,26.831-1168.75,26.831s-1256.873-19.024-1256.873-42.491,56.893-79.056,977.023-65.261c391.029,5.862,1434.77-37.881,1426.031,47.8,71.114,5.327,32.451,31.457,22.57,33.122Z" fill="#e4eaef"/>
    <g>
      <path d="M438.893,2168.356s26.463-72.96,8.731-108.146c-17.734-35.187-36.314-34.34-43.915-74.876-7.599-40.536-49.822-102.181-92.047-109.782,0,0,0,78.536,30.401,117.381,21.741,27.78,17.023,53.634,18.577,78.537,1.691,27.023,14.915,65.64,78.25,96.886h.002Z" fill="#d0f6f7"/>
      <path d="M478.867,2356.665c.132,0,.266-.011.4-.035,1.248-.219,2.08-1.409,1.861-2.656-2.454-13.887-60.862-341.012-129.744-419.134-.837-.952-2.29-1.039-3.235-.204-.949.837-1.041,2.286-.204,3.235,68.031,77.164,128.066,413.513,128.667,416.901.195,1.112,1.162,1.894,2.255,1.894h0Z" fill="#e4eaef"/>
      <path d="M524.771,2246.421s-14.534-63.815,4.484-91.665c19.019-27.849,34.686-25.038,45.708-58.569,11.023-33.535,53.805-81.069,90.486-82.753,0,0-8.867,66.632-39.043,96.159-21.582,21.117-20.496,43.583-24.625,64.533-4.483,22.738-19.748,52.936-77.009,72.296h-.002Z" fill="#d0f6f7"/>
      <path d="M469.548,2403.089c.974,0,1.876-.622,2.185-1.598.891-2.808,89.759-281.311,156.117-339.031.956-.832,1.057-2.282.226-3.237-.833-.958-2.282-1.052-3.235-.226-67.325,58.569-153.829,329.596-157.481,341.105-.383,1.208.285,2.498,1.491,2.881.23.071.466.107.694.107h.003Z" fill="#e4eaef"/>
      <path d="M507.26,2114.919s-37.477-65.727-26.875-103.294c10.599-37.567,28.827-40.254,28.563-81.108-.265-40.853,29.157-108.777,68.782-124.141,0,0,14.831,76.371-7.399,119.891-15.897,31.12-6.425,55.371-3.237,79.882,3.461,26.598-4.145,66.423-59.837,108.769h.003Z" fill="#d0f6f7"/>
      <path d="M492.202,2379.04c1.258,0,2.284-1.014,2.293-2.274.026-3.495,3.296-351.165,61.276-497.101.465-1.18-.108-2.51-1.285-2.98-1.178-.461-2.51.108-2.979,1.286-58.293,146.733-61.571,495.257-61.6,498.759-.009,1.268,1.01,2.302,2.277,2.311h.018Z" fill="#e4eaef"/>
      <path d="M418.466,2493.59l26.87-211.301h90.364l26.87,211.301c6.679,52.53-26.065,100.037-68.951,100.037h-6.204c-42.886,0-75.631-47.508-68.951-100.037h.003Z" fill="#75e4ef"/>
      <g>
        <path d="M522.109,2450.647c9.127,12.093,13.428,25.36,12.324,42.072-1.048,15.087-4.717,29.915-3.356,45.128,1.05,11.902,4.615,23.086,10.014,32.709,1.626-1.885,3.202-3.837,4.617-5.916-1.574-2.926-2.937-6.049-4.142-9.365-5.716-15.865-4.195-31.799-2.098-48.446,1.625-12.877,3.041-26.273-.575-38.819-3.251-11.251-9.754-20.421-16.625-28.612-8.128-9.69-17.778-18.599-23.178-31.279-5.925-13.979-5.036-30.302,6.187-39.407,7.71-6.242,16.938-8.842,25.016-14.112,4.877-3.188,9.283-7.414,13.005-12.419l-1.31-10.6c-3.567,5.916-8.022,10.989-13.426,14.893-15.104,10.858-37.233,13.721-39.644,40.058-2.57,28.876,19.299,45.848,33.196,64.119h0l-.005-.002Z" fill="#47c4d9"/>
        <path d="M442.186,2442.454c3.724,20.159-7.814,42.66,2.308,61.39,4.563,8.455,12.377,13.202,17.988,20.421,6.556,8.519,11.539,19.118,14.212,30.366,2.989,12.55,3.146,25.688.735,38.106,2.149.392,4.353.65,6.606.781,1.888-10.145,2.204-20.746.787-31.28-1.415-10.989-4.826-21.719-9.702-31.085-5.454-10.469-12.587-17.495-20.139-25.362-16.989-17.558-1.101-47.014-7.498-69.71-3.357-11.903-10.123-21.201-18.04-28.876l-1.154,9.168c6.61,7.022,11.958,15.541,13.897,26.076h-.002v.007Z" fill="#47c4d9"/>
        <path d="M435.371,2360.649c7.656-.781,15.104-4.226,22.184-9.884,18.408-14.829,32.778-41.817,29.787-68.476h-6.659c3.197,23.93-9.964,48.185-26.432,61.454-5.822,4.681-11.746,7.544-17.778,8.453l-1.102,8.455h0v-.003Z" fill="#47c4d9"/>
      </g>
    </g>
    <rect fill="#d0f6f7" height="110.726" width="403.071" x="365.704" y="2586.044"/>
  </g>
  <g id="Nurse_Leg">
    <g id="Foot">
      <polygon fill="#ff97a6" points="2358.259 2452.474 2373.57 2591.661 2471.75 2588.663 2462.863 2464.679 2358.259 2452.474"/>
      <g>
        <path d="M2474.748,2553.438c11.028-8.137,9.101,121.842,0,125.376-9.101,3.426-241.329,9.529-262.849,0-21.52-9.529-22.805-52.784,13.062-60.065,35.76-7.28,110.814-20.343,133.62-48.929,0,0-.642-43.469,5.139-47.109,5.781-3.533,16.917,30.835,16.917,30.835,0,0,67.773,19.486,94.112-.107Z" fill="#47c4d9"/>
        <path d="M2248.087,2614.145c-.535,1.392,2.248,3.319,4.925,7.067,2.784,3.747,5.139,9.957,6.745,17.452,3.105,15.097,3.426,28.48,6.103,28.694,2.463.321,6.746-13.276,3.212-30.728-1.82-8.565-6.103-16.381-11.349-20.129-5.246-3.748-9.422-3.426-9.636-2.356Z" fill="#192c51"/>
        <path d="M2482.243,2657.507c.214,4.604.321,24.732-7.923,26.339-8.244,1.606-270.558,3.64-272.271,0-1.713-3.64-2.249-17.024-3.105-19.486-.857-2.57,283.299-6.852,283.299-6.852Z" fill="#192c51"/>
        <path d="M2340.379,2608.577c6.317-7.067-7.602-23.555-11.67-22.484-4.069,1.178,5.46,29.55,11.67,22.484Z" fill="#192c51"/>
        <path d="M2317.788,2615.965c6.317-7.067-7.602-23.555-11.67-22.484-4.069,1.178,5.46,29.443,11.67,22.484Z" fill="#192c51"/>
        <path d="M2294.233,2621.746c6.317-7.067-7.602-23.555-11.67-22.484-4.069,1.178,5.46,29.55,11.67,22.484Z" fill="#192c51"/>
        <path d="M2392.092,2616.928c0,12.42,10.064,22.484,22.484,22.484s22.484-10.064,22.484-22.484-10.064-22.484-22.484-22.484-22.484,10.064-22.484,22.484Z" fill="#2fa7c3"/>
      </g>
    </g>
    <g id="Foot1">
      <polygon fill="#ff97a6" points="1967.036 2430.097 1982.347 2569.176 2080.527 2566.286 2071.641 2442.302 1967.036 2430.097"/>
      <g>
        <path d="M2083.525,2531.061c11.028-8.137,9.101,121.842,0,125.376-9.101,3.426-241.329,9.529-262.849,0-21.52-9.529-22.805-52.784,13.062-60.064,35.76-7.281,110.814-20.343,133.62-48.93,0,0-.642-43.469,5.139-47.109,5.781-3.533,16.917,30.835,16.917,30.835,0,0,67.773,19.379,94.112-.107Z" fill="#47c4d9"/>
        <path d="M1856.864,2591.661c-.535,1.392,2.249,3.319,4.925,7.067,2.784,3.747,5.139,9.957,6.745,17.452,3.105,15.097,3.426,28.48,6.103,28.694,2.463.321,6.746-13.276,3.212-30.728-1.82-8.565-6.103-16.381-11.349-20.129-5.246-3.747-9.422-3.32-9.636-2.356Z" fill="#192c51"/>
        <path d="M2091.02,2635.13c.214,4.604.321,24.732-7.923,26.339-8.244,1.606-270.558,3.64-272.271,0-1.713-3.64-2.249-17.023-3.105-19.486-.856-2.57,283.299-6.852,283.299-6.852Z" fill="#192c51"/>
        <path d="M1949.156,2586.2c6.317-7.067-7.602-23.555-11.67-22.484-4.069,1.178,5.46,29.443,11.67,22.484Z" fill="#192c51"/>
        <path d="M1926.565,2593.481c6.317-7.067-7.602-23.555-11.67-22.484-4.176,1.178,5.46,29.443,11.67,22.484Z" fill="#192c51"/>
        <path d="M1903.01,2599.37c6.317-7.067-7.602-23.555-11.67-22.484-4.176,1.178,5.461,29.444,11.67,22.484Z" fill="#192c51"/>
        <path d="M2000.869,2594.445c0,12.42,10.064,22.484,22.484,22.484s22.484-10.064,22.484-22.484-10.064-22.484-22.484-22.484c-12.42.107-22.484,10.064-22.484,22.484Z" fill="#2fa7c3"/>
      </g>
    </g>
    <polygon fill="#47c4d9" points="1860.833 1284.164 1952.797 2499.69 2092.947 2499.69 2191.941 1284.164 1860.833 1284.164"/>
    <polygon fill="#2fa7c3" opacity=".5" points="1942.301 1284.164 2091.082 1869.21 2047.803 2499.705 2092.942 2499.705 2191.942 1284.164 1942.301 1284.164"/>
    <polygon fill="#47c4d9" points="2322.381 1284.164 2012.45 1284.164 2326.139 2500.011 2483.849 2494.765 2322.381 1284.164"/>
    <path d="M2322.377,1284.164h-133.431c64.904,115.787,110.086,362.355,133.993,501.384,18.962,110.271,63.133,469.634,89.517,711.574l71.409-2.354-161.489-1210.605Z" fill="#2fa7c3" opacity=".5"/>
    <g opacity=".5">
      <path d="M2306.817,1794.303c-1.203,3.671-22.339-.026-46.039-11.049-23.728-10.963-40.208-24.703-38.184-27.994,2.063-3.403,21.234,4.531,44.155,15.113,22.887,10.654,41.332,20.157,40.068,23.931Z" fill="#2fa7c3"/>
    </g>
    <g opacity=".5">
      <path d="M2276.243,1804.79c-1.994,3.404-10.328,2.214-19.131-1.598-8.788-3.847-15.337-9.137-14.203-12.915,1.11-3.736,10.216-4.319,19.871-.102,9.664,4.195,15.442,11.258,13.463,14.616Z" fill="#2fa7c3"/>
    </g>
    <g opacity=".5">
      <path d="M2038.079,1764.307c-1.586,3.527-21.334-1.975-42.747-14.773-21.446-12.745-35.68-27.496-33.333-30.569,2.395-3.174,19.905,6.082,40.602,18.372,20.658,12.356,37.13,23.354,35.478,26.97Z" fill="#2fa7c3"/>
    </g>
  </g>
  <g id="Window">
    <path d="M562.525,414.846h759.286c19.427,0,35.175-15.748,35.175-35.175h0c0-19.427-15.749-35.175-35.175-35.175h-759.286c-19.427,0-35.175,15.749-35.175,35.175h0c0,19.427,15.748,35.175,35.175,35.175Z" fill="#e4eaef"/>
    <path d="M463.209,332.686c8.876-53.291,54.982-92.352,109.007-92.352h739.903c54.025,0,100.13,39.061,109.007,92.351l7.826,46.986H455.383l7.826-46.986Z" fill="#d0f6f7"/>
    <g>
      <rect fill="#d0f6f7" height="1193.273" transform="rotate(180 942.168 1132.132)" width="880.549" x="501.894" y="535.495"/>
      <g>
        <rect fill="#fff" height="58.856" transform="rotate(180 942.168 619.493)" width="756.493" x="563.922" y="590.065"/>
        <rect fill="#fff" height="58.855" transform="rotate(180 942.168 704.217)" width="756.493" x="563.922" y="674.789"/>
        <rect fill="#fff" height="58.856" transform="rotate(180 942.168 788.94)" width="756.493" x="563.922" y="759.512"/>
        <rect fill="#fff" height="58.856" transform="rotate(180 942.168 873.664)" width="756.493" x="563.922" y="844.236"/>
        <rect fill="#fff" height="58.855" transform="rotate(180 942.168 958.388)" width="756.493" x="563.922" y="928.96"/>
        <rect fill="#fff" height="58.856" transform="rotate(180 942.168 1043.111)" width="756.493" x="563.922" y="1013.684"/>
        <rect fill="#fff" height="58.856" transform="rotate(180 942.168 1127.835)" width="756.493" x="563.922" y="1098.408"/>
        <rect fill="#fff" height="58.856" transform="rotate(180 942.168 1212.56)" width="756.493" x="563.922" y="1183.132"/>
        <rect fill="#fff" height="58.856" transform="rotate(180 942.168 1297.283)" width="756.493" x="563.922" y="1267.855"/>
        <rect fill="#fff" height="58.856" transform="rotate(180 942.168 1382.007)" width="756.493" x="563.922" y="1352.579"/>
        <rect fill="#fff" height="58.856" transform="rotate(180 942.168 1466.731)" width="756.493" x="563.922" y="1437.303"/>
        <rect fill="#fff" height="58.856" transform="rotate(180 942.168 1551.455)" width="756.493" x="563.922" y="1522.027"/>
        <rect fill="#fff" height="58.855" transform="rotate(180 942.168 1636.178)" width="756.493" x="563.922" y="1606.751"/>
      </g>
    </g>
  </g>
  <g id="Lounger">
    <g>
      <g>
        <polygon fill="#36477e" points="798.766 1945.405 794.912 1972.707 791.807 1994.655 673.498 2700.334 641.378 2700.334 712.042 2029.238 714.504 2005.897 719.215 1960.929 721.999 1934.698 798.766 1945.405"/>
        <path d="M794.912,1972.707l-3.105,21.949c-25.161,11.028-57.495,25.161-79.765,34.583l2.462-23.447,4.711-44.968,75.696,11.885Z" fill="#192c51"/>
      </g>
      <g>
        <polygon fill="#36477e" points="2201.022 1945.405 2204.876 1972.707 2207.981 1994.655 2326.29 2700.334 2358.41 2700.334 2287.746 2029.238 2285.284 2005.897 2280.573 1960.929 2277.789 1934.698 2201.022 1945.405"/>
        <path d="M2204.876,1972.707l3.105,21.949c25.161,11.028,57.495,25.161,79.765,34.583l-2.462-23.447-4.711-44.968-75.696,11.885Z" fill="#192c51"/>
      </g>
    </g>
    <path d="M2312.639,1862.214H687.149c-35.035,0-63.437,28.402-63.437,63.437v60.867c.107,1.392,1.285,2.57,2.677,2.57h1686.25c35.036,0,63.437-28.402,63.437-63.437s-28.402-63.437-63.437-63.437Z" fill="#36477e"/>
  </g>
  <g id="Shield">
    <path d="M2501.658,454.454l-.014-10.008c0-10.163-8.266-18.444-18.43-18.444h-1.061c-21.545-.057-46.996-1.614-72.419-12.782-22.629-9.926-43.503-25.089-62.069-45.054-.852-.916-2.043-1.446-3.295-1.446h0c-1.251,0-2.442.529-3.294,1.446-18.566,19.966-39.44,35.129-62.069,45.054-25.423,11.168-50.874,12.725-72.419,12.782h-1.062c-10.163,0-18.43,8.281-18.43,18.444l-.014,10.008c-2.633,60.797,4.261,114.899,20.511,160.408,10.546,29.528,25.14,55.319,43.358,76.666,25.98,30.455,58.172,51.948,93.286,62.383v.085c.045-.013.089-.029.133-.042.045.013.089.029.133.042v-.085c35.114-10.434,67.306-31.927,93.286-62.383,18.217-21.346,32.812-47.138,43.357-76.666,16.25-45.509,23.144-99.611,20.511-160.408Z" fill="#47c4d9"/>
    <path d="M2420.184,577.365c.178-.231.355-.461.523-.7.207-.294.401-.598.592-.904.153-.245.308-.489.45-.741.181-.32.344-.649.507-.98.126-.255.256-.508.371-.769.153-.348.283-.707.416-1.066.096-.26.2-.515.285-.779.124-.385.222-.781.322-1.177.064-.251.139-.497.193-.751.097-.46.162-.931.226-1.403.027-.201.07-.396.091-.598.07-.673.109-1.355.109-2.045,0-.006,0-.012,0-.018,0-.11-.015-.222-.017-.333-.01-.586-.036-1.168-.098-1.741-.004-.042-.002-.083-.007-.126-.058-.526-.149-1.041-.249-1.553-.012-.056-.016-.115-.028-.172-.125-.608-.278-1.205-.46-1.789-.007-.023-.011-.048-.019-.072-.037-.117-.087-.228-.126-.344-2.577-7.755-9.878-13.355-18.499-13.355h-16.672c-8.513,0-15.413-6.901-15.413-15.413v-16.16c0-10.011-7.334-18.795-17.285-19.893-11.764-1.297-21.721,7.879-21.721,19.381v16.672c0,8.513-6.901,15.413-15.414,15.413h-16.672c-8.621,0-15.922,5.6-18.499,13.355-.039.117-.089.227-.126.344-.007.024-.011.048-.019.072-.182.584-.334,1.181-.46,1.789-.011.057-.017.116-.027.172-.1.512-.191,1.027-.249,1.553-.005.043-.003.084-.007.126-.061.573-.087,1.155-.098,1.741-.002.11-.016.223-.017.333,0,.006,0,.012,0,.018,0,.691.038,1.372.109,2.045.021.202.064.397.091.598.064.471.13.942.227,1.403.053.254.129.5.193.751.1.396.198.792.322,1.177.085.264.189.52.285.779.133.359.264.718.416,1.066.115.261.245.513.37.769.163.331.326.66.506.98.142.252.297.496.45.741.191.306.385.609.593.904.168.238.345.469.523.7.218.281.44.559.673.828.191.222.388.437.59.649.244.258.494.508.752.752.213.202.428.399.65.591.268.233.544.456.824.673.231.179.463.356.703.525.293.206.593.4.898.591.246.155.492.31.746.454.317.179.643.341.97.503.259.128.514.259.779.375.343.151.696.28,1.048.412.265.098.526.204.797.291.375.121.76.216,1.144.315.261.067.518.145.783.202.432.092.875.152,1.318.215.228.032.451.08.682.104.662.07,1.332.107,2.012.109.017,0,.033.003.05.003h16.672c8.513,0,15.414,6.901,15.414,15.414v16.159c0,10.011,7.334,18.795,17.285,19.893,11.764,1.297,21.721-7.879,21.721-19.381v-16.671c0-8.513,6.9-15.414,15.413-15.414h16.672c.017,0,.033-.003.05-.003.68-.002,1.351-.039,2.012-.109.231-.024.454-.072.682-.104.443-.063.886-.124,1.318-.215.265-.056.522-.134.783-.202.384-.098.769-.194,1.144-.315.27-.087.531-.193.796-.291.353-.132.705-.261,1.048-.412.265-.117.52-.247.779-.375.327-.162.653-.325.97-.503.254-.144.499-.299.746-.454.304-.19.605-.384.898-.591.239-.169.471-.346.702-.525.281-.218.556-.44.825-.673.222-.191.437-.389.65-.591.258-.244.507-.495.752-.752.201-.213.398-.428.59-.649.233-.269.455-.546.673-.828Z" fill="#30b2bf" opacity=".5"/>
    <path d="M2411.376,571.073c.178-.23.355-.461.523-.699.207-.294.401-.597.592-.904.154-.245.308-.489.45-.741.18-.32.343-.649.506-.98.125-.255.256-.508.37-.769.153-.349.284-.707.416-1.066.096-.259.2-.515.285-.779.124-.386.222-.782.322-1.177.064-.251.139-.496.193-.751.097-.461.162-.931.226-1.403.027-.201.07-.396.091-.598.07-.672.109-1.355.109-2.045,0-.006-.001-.012-.001-.018,0-.11-.015-.222-.017-.333-.011-.586-.037-1.168-.098-1.741-.004-.042-.002-.084-.007-.126-.059-.526-.149-1.041-.25-1.552-.011-.057-.016-.116-.027-.172-.125-.608-.278-1.205-.46-1.789-.007-.024-.011-.048-.019-.072-.037-.117-.087-.228-.126-.344-2.577-7.755-9.878-13.355-18.498-13.355h-16.672c-8.513,0-15.414-6.901-15.414-15.413v-16.16c0-10.011-7.334-18.795-17.285-19.893-11.764-1.297-21.721,7.879-21.721,19.381v16.672c0,8.512-6.901,15.413-15.413,15.413h-16.672c-8.621,0-15.921,5.6-18.499,13.355-.039.116-.089.227-.126.344-.007.024-.012.048-.019.072-.182.583-.335,1.181-.46,1.789-.012.057-.016.116-.028.172-.1.512-.191,1.026-.249,1.552-.005.043-.003.084-.007.126-.061.573-.087,1.155-.098,1.741-.002.11-.017.223-.017.333,0,.006,0,.012,0,.018,0,.691.038,1.373.108,2.045.021.203.064.397.092.598.064.471.129.942.226,1.403.054.255.13.501.193.751.1.395.198.791.322,1.177.085.264.189.52.285.779.133.359.264.717.416,1.066.115.261.245.513.37.769.163.331.326.66.507.98.142.252.297.496.45.741.191.307.385.609.592.904.168.238.344.469.523.699.218.282.44.559.673.828.191.222.388.436.59.649.244.258.494.508.752.752.213.202.428.399.65.591.268.233.544.455.825.673.231.179.463.356.703.525.292.207.593.4.897.591.247.155.492.31.746.453.317.179.643.342.97.503.258.128.514.259.779.376.343.15.695.28,1.048.411.265.099.526.204.796.291.375.121.76.216,1.144.315.261.067.518.145.783.202.433.091.875.152,1.318.215.228.032.451.08.681.104.662.07,1.333.107,2.012.108.017,0,.033.003.05.003h16.672c8.513,0,15.413,6.901,15.413,15.414v16.159c0,10.011,7.334,18.795,17.285,19.892,11.764,1.298,21.72-7.878,21.72-19.38v-16.672c0-8.513,6.901-15.414,15.414-15.414h16.672c.017,0,.033-.003.05-.003.679-.001,1.35-.038,2.012-.108.231-.024.454-.072.682-.104.443-.063.885-.124,1.318-.215.265-.056.522-.135.783-.202.384-.099.77-.194,1.144-.315.27-.087.531-.193.796-.291.353-.131.705-.261,1.048-.411.265-.117.521-.248.779-.376.327-.161.653-.324.97-.503.254-.144.499-.299.746-.453.304-.19.605-.384.898-.591.239-.169.471-.346.703-.525.281-.218.556-.44.825-.673.222-.192.437-.389.65-.591.257-.244.507-.494.751-.752.201-.213.399-.427.59-.649.233-.269.455-.546.673-.828Z" fill="#fff"/>
  </g>
  <g id="Medicine">
    <g>
      <path d="M2004.843,2288.065l492.783-37.675c41.179-3.511,138.536,23.043,138.536,69.027l-137.1,287.821c0,16.972-13.762,31.904-30.736,33.352l-355.477,96.352c-100.477-6.735-138.734-45.897-138.734-62.869v-352.655c0-16.974,13.759-31.905,30.729-33.352h0Z" fill="#2fa7c3"/>
      <path d="M2089.265,2416.137c4.706,3.986-79.797-2.996-115.15-38.226,3.472-6.32,115.15,38.226,115.15,38.226Z" fill="#47c4d9"/>
      <path d="M2121.875,2331.296l482.303-41.131c17.662-1.505,31.984,11.591,31.984,29.253v344.011c0,17.661-14.321,33.198-31.984,34.705l-482.303,41.131c-17.658,1.506-31.975-11.59-31.975-29.251v-344.011c0-17.663,14.318-33.201,31.975-34.707h0Z" fill="#47c4d9"/>
      <path d="M2636.158,2319.421v344.006c0,17.662-14.313,33.203-31.975,34.71l-482.309,41.131c-17.662,1.507-31.975-11.588-31.975-29.25v-1.529c147.023-3.475,429.211-32.54,436.111-44.909,63.509-113.84,39.692-311.928-10.082-365.883l88.254-7.526c17.662-1.507,31.975,11.588,31.975,29.25Z" fill="#2fa7c3" opacity=".25"/>
      <path d="M2101.09,2418.663c0,2.188,117.275-6.042,261.939-18.378,144.664-12.337,261.941-24.111,261.941-26.298s-117.275,6.041-261.941,18.378c-144.664,12.337-261.939,24.111-261.939,26.298Z" fill="#2fa7c3"/>
    </g>
    <path d="M2450.848,2511.734l-35.501,2.866c-6.132.495-11.101-4.074-11.101-10.205v-35.502c0-14.039-11.381-24.501-25.42-23.369-14.04,1.133-25.421,13.434-25.421,27.473v35.501c0,6.131-4.969,11.502-11.101,11.998l-35.502,2.866c-14.04,1.132-25.421,13.433-25.421,27.473s11.381,24.501,25.421,23.369l35.502-2.866c6.131-.494,11.101,4.074,11.101,10.205v35.502c0,14.039,11.381,24.501,25.421,23.369,14.039-1.133,25.42-13.433,25.42-27.473v-35.501c0-6.131,4.969-11.502,11.101-11.997l35.501-2.866c14.04-1.133,25.422-13.433,25.422-27.472s-11.381-24.501-25.422-23.369h0Z" fill="#2fa7c3" opacity=".25"/>
    <path d="M2439.684,2498.927l-35.502,2.866c-6.131.495-11.101-4.073-11.101-10.204v-35.501c0-14.04-11.381-24.502-25.42-23.369-14.04,1.133-25.42,13.433-25.42,27.472v35.502c0,6.131-4.97,11.502-11.101,11.997l-35.502,2.866c-14.039,1.133-25.42,13.434-25.42,27.473s11.381,24.501,25.42,23.369l35.502-2.866c6.131-.496,11.101,4.073,11.101,10.204v35.501c0,14.04,11.38,24.501,25.42,23.369,14.039-1.133,25.42-13.433,25.42-27.472v-35.502c0-6.131,4.971-11.502,11.101-11.997l35.502-2.866c14.039-1.133,25.42-13.434,25.42-27.473s-11.381-24.501-25.42-23.369Z" fill="#e1efef"/>
    <path d="M2212.164,2283.933c12.095,5.928,37.447,17.861,37.447,19.72s-25.585,3.402-31.631,2.997c-6.047-.406-42.332-17.258-37.68-19.272,4.652-2.015,31.864-3.447,31.864-3.447h0Z" fill="#175689"/>
    <path d="M2410.328,2267.91c12.095,5.927,37.447,17.861,37.447,19.721s-25.584,3.402-31.633,2.997c-6.048-.405-41.969-18.628-37.317-20.643,4.651-2.014,31.503-2.074,31.503-2.074Z" fill="#175689"/>
    <path d="M2209.012,2289.768s7.479-34.777,13.153-41.915c18.608-23.406,140.864-23.119,158.026-15.527,3.307,1.463,45.255,42.644,42.929,47.605-2.326,4.961-11.164,3.438-13.025,2.848-1.86-.59-27.187-27.943-31.27-28.146-4.084-.203-127.355,6.448-132.007,11.204-4.651,4.755-8.838,35.64-17.676,34.118-8.838-1.522-20.131-10.187-20.131-10.187h.001Z" fill="#e1efef"/>
  </g>
  <g id="Man">
    <g id="Foot2">
      <g>
        <path d="M1686.938,2614.324c-37.058-7.563-97.183-15.126-120.755-44.748,0,0,7.689-45.125,3.781-62.772h-131.091c-17.269,54.327.252,173.065,7.059,175.586,9.453,3.53,249.828,9.832,272.013,0,22.311-9.832,6.05-60.503-31.008-68.066Z" fill="#e5c74a"/>
        <path d="M1438.874,2506.804s10.665,11.759,56.848,16.936c46.184,5.177,74.243-16.936,74.243-16.936,0,0-55.534-16.302-131.091,0Z" fill="#192c51"/>
        <path d="M1717.946,2682.516c-7.437,3.278-39.327,4.79-78.78,5.168-6.555-46.638,12.983-68.318,26.218-77.52,7.689,1.512,14.874,2.773,21.428,4.16,37.184,7.563,53.445,58.36,31.134,68.192Z" fill="#ceaf2e"/>
        <path d="M1438.118,2660.458c-.252,4.664-.378,25.588,8.193,27.353,8.445,1.639,279.954,3.781,281.845,0,1.765-3.782,6.302-19.538-2.773-20.924-2.773-.504-287.265-6.428-287.265-6.428Z" fill="#192c51"/>
        <path d="M1584.964,2609.786c-6.428-7.311,7.941-24.453,12.101-23.193,4.286,1.135-5.672,30.504-12.101,23.193Z" fill="#ceaf2e"/>
        <path d="M1608.409,2617.475c-6.429-7.311,7.941-24.453,12.101-23.193,4.16,1.134-5.672,30.378-12.101,23.193Z" fill="#ceaf2e"/>
        <path d="M1632.737,2623.526c-6.428-7.311,7.941-24.453,12.101-23.193,4.286,1.134-5.672,30.377-12.101,23.193Z" fill="#ceaf2e"/>
        <circle cx="1495.722" cy="2571.468" fill="#ceaf2e" r="23.193" transform="rotate(-80.783 1495.705 2571.462)"/>
      </g>
    </g>
    <path d="M1088.214,1441.476c-26.035-28.194-238.624-75.944-304.525,41.636-22.985,41.009,53.142,190.098,137.23,252.157,196.799,140.412,482.36,127.159,663.197,120.735,29.229-81.371,11.978-194.326,1.164-247.646-103.641-12.673-320.927-67.984-443.892-85.877-37.54-5.463-38.927-65.577-53.174-81.005Z" fill="#d35e7a"/>
    <polygon fill="#ff97a6" points="1602.197 1639.943 2117.188 1755.575 2127.065 1857.563 1602.197 1836.839 1602.197 1639.943"/>
    <g>
      <g>
        <path d="M1769.731,1695.145l-11.777,27.088,116.275,26.66,6.853-27.088-111.35-26.66Z" fill="#ef8499" opacity=".5"/>
        <path d="M1767.657,1689.804l-11.777,27.088,116.275,26.66,6.853-27.088-111.35-26.66Z" fill="#d0f6f7"/>
        <path d="M1792.489,1704.338l-3.426,11.028s46.895,14.668,52.141,13.812c5.139-.856,4.604-13.812,4.604-13.812,0,0-52.677-12.955-53.319-11.028Z" fill="#6ae0e5"/>
      </g>
      <g>
        <path d="M1776.367,1701.359c0,1.029-.834,1.863-1.863,1.863s-1.863-.834-1.863-1.863.834-1.863,1.863-1.863,1.863.834,1.863,1.863Z" fill="#6ae0e5"/>
        <circle cx="1781.07" cy="1706.969" fill="#6ae0e5" r="1.68"/>
        <path d="M1775.312,1710.814c0,.738-.598,1.336-1.336,1.336s-1.336-.598-1.336-1.336.598-1.336,1.336-1.336,1.336.598,1.336,1.336Z" fill="#6ae0e5"/>
      </g>
      <g>
        <path d="M1859.207,1720.156c0,1.029-.834,1.863-1.863,1.863s-1.863-.834-1.863-1.863.834-1.863,1.863-1.863,1.863.834,1.863,1.863Z" fill="#6ae0e5"/>
        <path d="M1865.591,1725.767c0,.928-.752,1.68-1.68,1.68s-1.68-.752-1.68-1.68.752-1.68,1.68-1.68,1.68.752,1.68,1.68Z" fill="#6ae0e5"/>
        <path d="M1858.153,1729.612c0,.738-.598,1.336-1.336,1.336s-1.336-.598-1.336-1.336.598-1.336,1.336-1.336,1.336.598,1.336,1.336Z" fill="#6ae0e5"/>
      </g>
    </g>
    <path d="M2127.048,1857.555l-524.843-20.728v-196.878l54.971,12.338c.266,40.81,5.011,121.027,37.432,144.868,44.076,32.421,184.388,18.071,184.388,18.071l75.129-96.237,163.052,36.596,9.871,101.97Z" fill="#ef8499" opacity=".5"/>
    <path d="M2117.188,1855.899s71.735,13.49,82.12,0c10.386-13.491-10.385-191.971-9.101-232.228,1.285-40.257-30.514-13.812-30.514-13.812l-2.677,23.983-4.604-16.809s-13.704,6.638-13.704,16.809c0,0-8.458-1.82-9.101,0-.642,1.82-16.274,104.819-16.274,104.819l3.854,117.238Z" fill="#ff97a6"/>
    <path d="M2158.302,1628.488s5.889,34.154,0,29.979c-5.889-4.283-3.212-34.476,0-29.979Z" fill="#e08299"/>
    <g>
      <path d="M2090.207,1780.629s28.86,69.44,20.188,76.934c-8.672,7.388-43.1,7.649-43.1,7.649l22.912-84.583Z" fill="#6ae0e5"/>
      <path d="M2067.295,1743.552s-44.111-14.53-44.754-10.889c-.642,3.64-2.503,129.111,3.279,126.97,5.889-2.141,12.032,2.581,12.032,2.581l29.443-118.662Z" fill="#6ae0e5"/>
      <path d="M2110.395,1754.05c-.857-.428-35.553-18.917-40.157-13.349-4.711,5.567-13.222.314-16.969,2.991-3.747,2.677-27.195,118.202-22.591,121.628,4.604,3.426,44.005-.857,44.005-.857,0,0,38.71-109.02,35.712-110.413Z" fill="#d0f6f7"/>
      <path d="M1932.284,1772.278s-31.035,78.85-24.718,80.027c6.424,1.178,41.635,9.266,42.491,4.234.964-4.925-17.773-84.261-17.773-84.261Z" fill="#d0f6f7"/>
      <path d="M1971.792,1853.327s-18.201,15.739-28.694,8.887c-10.492-6.852-37.366-157.281-25.268-155.033,12.099,2.248,64.883,5.675,65.632,16.06.642,10.385-11.67,130.086-11.67,130.086Z" fill="#6ae0e5"/>
      <path d="M2023.398,1730.628s-31.585-7.816-38.544-5.567c-6.959,2.141-17.131,138.116-15.311,139.187,10.6,5.996,56.317-2.463,56.317-2.463l-2.462-131.157Z" fill="#d0f6f7"/>
    </g>
    <path d="M1568.149,1597.651c11.67-.107,30.963-1.294,69.293,18.192,13.705,35.76,17.217,210.61-5.267,233.737-22.484,23.126-72.13,29.122-76.092-.107-3.854-29.336.396-251.714,12.066-251.821Z" fill="#e06e84"/>
    <g>
      <g>
        <path d="M1211.219,2430.243s-53.325,156.991-59.515,171.441c-6.313,14.325-95.985-15.833-95.985-15.833l27.489-169.217,128.012,13.609Z" fill="#ff97a6"/>
        <g id="Foot3">
          <g>
            <path d="M1294.745,2621.286c-36.453-7.539-95.901-15.079-117.479-44.608,0,0,10.588-44.985,7.837-62.577h-130.682c-20.735,54.158-10.961,172.526-4.339,175.039,9.195,3.519,248.413,9.801,271.165,0,22.744-9.675,9.952-60.315-26.501-67.854Z" fill="#e5c74a"/>
            <path d="M1321.238,2689.266c-7.626,3.267-39.515,4.775-78.87,5.152-3.512-46.493,17.369-68.105,31.159-77.278,7.567,1.508,14.648,2.765,21.092,4.147,36.579,7.539,49.371,58.179,26.619,67.98Z" fill="#ceaf2e"/>
            <path d="M1043.702,2667.402c-.553,4.649-2.035,25.508,6.395,27.267,8.313,1.634,278.837,3.77,280.967,0,2.004-3.77,7.549-19.477-1.409-20.859-2.857-.503-285.954-6.408-285.954-6.408Z" fill="#192c51"/>
            <path d="M1193.375,2616.888c-5.935-7.288,9.501-24.377,13.566-23.12,4.073,1.131-7.623,30.283-13.566,23.12Z" fill="#ceaf2e"/>
            <path d="M1216.257,2624.428c-5.935-7.288,9.501-24.377,13.566-23.121,4.073,1.131-7.748,30.283-13.566,23.121Z" fill="#ceaf2e"/>
            <path d="M1240.116,2630.459c-5.935-7.288,9.501-24.377,13.566-23.12,4.073,1.131-7.623,30.283-13.566,23.12Z" fill="#ceaf2e"/>
            <path d="M1130.022,2578.563c-.833,12.817-11.932,23.12-24.624,23.12-12.817,0-22.443-10.429-21.618-23.12.833-12.817,11.932-23.12,24.623-23.12s22.451,10.304,21.618,23.12Z" fill="#ceaf2e"/>
          </g>
        </g>
      </g>
      <path d="M1466.636,1707.156c-169.847-48.199-280.973-82.123-370.727-110.511-12.061-17.434-67.503-99.211-67.503-99.211l-349.236,5.625s-71.051,256.322,110.231,356.536c66.361,36.681,221.83,55.446,365.785,65.05l-97.94,557.323,158.726,19.434,276.744-692.106c8.323-47.165,6.538-91.937-26.079-102.142Z" fill="#e06e84"/>
      <path d="M1254.4,1879.043c-20.417,17.994-63.371,55.654-63.371,55.654,0,0-81.653,437.413-78.717,554.036l-55.063-6.757,97.951-557.339c-143.978-9.605-299.434-28.359-365.802-65.031-181.291-100.223-110.23-356.552-110.23-356.552l349.248-5.618s55.426,81.773,67.506,99.198c55.499,17.577,119.214,37.242,199.893,61.083-144.172-25.891-291.663-49.201-291.663-49.201-17.37,7.327-175.061,36.407-196.454,75.851-21.393,39.444,301.969,187.956,331.865,194.676,29.894,6.757,135.218-17.995,114.839,0Z" fill="#d35e7a" opacity=".5"/>
      <path d="M1189.499,1901.075c-1.185-5.465,26.224-17.215,56.952-36.228,30.902-18.711,54.048-37.907,58.111-34.204,1.871,1.776-1.667,9.135-10.052,18.93-8.342,9.777-21.759,21.745-38.483,32.003-16.741,10.227-33.342,16.633-45.644,19.493-12.338,2.889-20.28,2.558-20.885.007Z" fill="#d35e7a"/>
    </g>
    <g>
      <g>
        <g>
          <g>
            <path d="M1141.107,1132.456l74.79,125.229s321.687,139.148,331.206,142.758c14.151-4.869,77.541-22.557,84.736-13.086h.003c7.909,10.41-22.282,23.014-25.721,25.447l-.011.049c6.929,1.928,78.577,22.148,76.705,33.438-1.716,10.32-35.625,3.35-44.298,1.042,6.56,3.022,48.662,16.925,45.566,25.754-4.414,12.569-53.057-5.359-53.057-5.359,5.19,4.45,41.439,16.491,35.984,27.297-4.154,8.228-44.348-8.511-44.348-8.511,0,0,26.711,13.205,23.22,21.329-5.095,11.856-40.86-5.593-40.86-5.593l-55.954-14.093c-54.607-6.498-364.715-70.725-416.292-90.583-36.508-14.057-134.994-174.743-119.185-189.573,16.018-15.03,127.517-75.543,127.517-75.543Z" fill="#ff97a6"/>
            <path d="M1141.103,1132.456l49.846,83.444c-23.119,19.855-72.358,65.031-71.751,88.796.646,23.386,21.108,74.636,31.168,98.591-7.403-2.164-13.363-4.1-17.577-5.732-36.521-14.046-134.998-174.707-119.205-189.551,16.02-15.034,127.519-75.547,127.519-75.547Z" fill="#ef8499" opacity=".5"/>
            <path d="M1540.856,1397.82l-28.017,84.544c-10.098-1.784-21.601-3.91-34.167-6.302l47.871-84.354c5.96,2.582,10.82,4.632,14.312,6.112Z" fill="#ef8499" opacity=".5"/>
            <path d="M1610.762,1489.499c-.075.403.031.835.33,1.164.508.557,1.365.598,1.923.093.761-.692,18.743-17.378,22.655-53.052.083-.748-.457-1.42-1.206-1.503-.748-.08-1.418.454-1.5,1.205-3.802,34.571-21.603,51.17-21.782,51.336-.229.206-.37.476-.42.758h0Z" fill="#e08299"/>
            <path d="M1566.657,1433.963c-.126.665.265,1.331.925,1.541.28.09,28.144,8.527,39.804-22.169.262-.71-.086-1.488-.789-1.755-.705-.266-1.491.087-1.759.787-10.728,28.253-35.389,20.87-36.433,20.543-.718-.225-1.482.173-1.708.888-.018.054-.029.108-.04.166h0Z" fill="#e08299"/>
          </g>
          <path d="M1210.27,1264.145c-8.05,13.668-45.877,34.403-39.999,23.376,5.873-11.027,44.806-31.541,39.999-23.376Z" fill="#ef8499"/>
        </g>
        <path d="M1027.193,944.403s22.019,10.023,25.92,16.667c41.194,70.156,137.053,222.141,137.053,222.141,0,0-86.895,89.397-137.563,95.635-11.226,2.565-100.523-188.477-100.523-188.477,0,0,18.607-122.721,75.113-145.965Z" fill="#e5c74a"/>
        <path d="M1147.215,1222.961c-21.905,18.602-48.821,38.912-72.51,49.238l-24.107-139.743,96.617,90.505Z" fill="#ceaf2e" opacity=".5"/>
        <path d="M1147.656,1114.307s-91.566,74.735-155.717,94.683l27.001,43.282s90.423-19.166,153.973-97.028l-25.257-40.937Z" fill="#e06e84"/>
        <g>
          <path d="M858.542,903.717c-87.499,117.614-209.924,635.197-209.924,635.197l124.168,67.209s228.493-27.607,359.989-94.154c-32.076-160.22-74.73-439.879-105.582-567.567-53.898-17.689-147.362-36.503-168.651-40.685Z" fill="#e5c74a"/>
          <path d="M1132.789,1511.975c-131.505,66.55-360.006,94.149-360.006,94.149l-124.178-67.195s68.789-290.837,140.123-486.044l15.565,41.608s-6.567,167.76,11.731,198.321c18.298,30.561,193.575,95.174,228.539,95.478,21.563.228,34.585-76.534,41.38-135.377,16.4,94.073,32.686,188.222,46.847,259.062Z" fill="#ceaf2e" opacity=".5"/>
          <g opacity=".5">
            <path d="M1041.409,1210.214c-46.791,27.889-141.267,25.961-184.129-15.926-7.847-7.884-7.323-10.492,2.846-3.702,56.609,35.313,190.658,13.75,181.283,19.628Z" fill="#ceaf2e"/>
          </g>
          <path d="M1029.731,1080.321c11.252,1.325,15.896,62.538-1.244,84.739-17.14,22.201-96.777,25.526-121.996,8.274-25.219-17.252-41.069-8.495-47.83-32.336-6.76-23.841,1.362-79.021,5.348-81.308,3.986-2.287,124.895,15.821,165.723,20.631Z" fill="#ceaf2e" opacity=".5"/>
          <path d="M851.888,949.376s143.122,368.733,112.404,450.532c0,0,32.012,9.774,32.705,9.932.693.158,4.565-41.856-4.552-108.67-9.117-66.814-122.59-356.766-122.59-356.766l-17.968,4.973Z" fill="#ceaf2e" opacity=".5"/>
          <path d="M1094.334,1313.933c2.156-.357-4.356-50.527-14.544-112.057-10.188-61.53-17.624-90.074-19.78-89.717-2.156.357,1.787,29.48,11.975,91.01,10.188,61.53,20.194,111.121,22.35,110.764Z" fill="#ceaf2e"/>
        </g>
        <g>
          <path d="M625.772,1179.914c22.532-.862,122.03,29.887,143.02,46.946-26.084,86.655-32.81,124.743-32.81,124.743,0,0,66.283,6.208,141.645,12.784-5.08,30.36-8.57,60.966-12.283,91.515-1.496,12.312-2.827,24.641-4.123,36.974-91.593,8.434-183.041,7.394-224.632-22.517-85.613-61.615-49.294-189.996-10.819-290.445Z" fill="#ff97a6"/>
          <g opacity=".5">
            <path d="M607.403,1231.584c50.797,32.522,126.125,31.256,151.248,29.83,3.007-10.509,6.367-22.015,10.124-34.558-20.988-17.072-120.49-47.802-142.996-46.951-6.358,16.592-12.677,33.99-18.376,51.679Z" fill="#ed7e94"/>
          </g>
          <path d="M610.361,1195.744c44.804-135.256,103.18-232.378,171.366-276.824,16.983-11.07,65.562-13.257,76.816-15.203,15.413,57.45-44.13,246.721-69.877,348.206-16.66.66-113.252-9.787-178.304-56.179Z" fill="#e5c74a"/>
          <path d="M838.345,905.967c-2.657,1.86-5.695,3.758-9.111,5.695-83.899,47.834-170.569,236.398-197.068,297.746-7.517-4.176-14.844-8.693-21.791-13.667,44.797-135.263,103.147-232.374,171.367-276.829,11.503-7.479,37.508-10.895,56.603-12.945Z" fill="#ceaf2e" opacity=".5"/>
          <path d="M816.022,1167.912s-119.091-18.266-173.06-58.274l-18.999,47.344s72.236,59.479,172.598,64.815l19.461-53.884Z" fill="#e06e84"/>
          <path d="M782.002,1255.603c1.7,1.537,9.1-.683,9.1-.683,0,0,38.448-126.215,38.144-135.975-.304-9.76-46.132,125.42-48.368,127.107-2.236,1.687-42.635-.385-40.298.339,2.337.725,41.423,9.212,41.423,9.212Z" fill="#ceaf2e"/>
        </g>
        <g>
          <path d="M1117.181,744.487s43.449-22.727,38.299-57.049c-5.095-33.963-24.891-33.026-24.891-33.026,0,0,41.339-33.869,3.947-70.014-37.391-36.145-63.204,23.925-63.204,23.925,0,0,18.392-47.54-17.151-56.951-35.543-9.411-46.353,16.026-58.385,26.639-52.617-11.512-109.881,24.71-107.468,97.709-37.992-2.139-53.689,50.602-47.068,82.252,10.746,51.369,62.227,52.873,62.227,52.873,0,0-23.099,40.508,32.053,53.328,55.152,12.82,181.641-119.686,181.641-119.686Z" fill="#192c51"/>
          <path d="M999.477,836.986l-11.293,100.655s-55.328,50.417-103.324-27.198l41.726-99.979,72.891,26.522h0Z" fill="#ff97a6"/>
          <path d="M989.317,927.615c-65.898-17.801-56.988-81.055-48.259-111.892l58.419,21.262-10.16,90.63Z" fill="#ef8499"/>
          <path d="M872.967,906.605s24.98,47.541,59.406,58.741c34.423,11.203,64.298-18.977,70.019-28.605-5.046-10.29-11.634-24.216-11.634-24.216,0,0-16.249,28.087-48.63,26.604-32.383-1.48-49.883-48.845-49.883-48.845l-19.279,16.32Z" fill="#e06e84"/>
          <path d="M903.929,816.064c10.633,15.348,18.898,2.805,18.898,2.805,0,0,44.275,95.526,130.483,82.515,64.631-9.736,67.809-134.517,65.334-196.311-4.378,2.09-9.169,3.378-14.273,3.731-36.004,27.655-58.471-7.736-61.462-8.317-6.075,12.713-18.639,21.9-33.679,22.976-7.175.513-14.008-.972-20.173-3.746-6.593,10.53-17.959,17.952-31.479,18.886-21.293,73.099-29.568,11.802-42.814,12.75-3.174.234-6.421.143-9.65-.268-14.192,3.919-34.015,17.553-1.185,64.978Z" fill="#ff97a6"/>
          <path d="M1018.919,740.837c1.169,1.327.18,4.418-2.621,8.366-2.804,3.899-7.554,8.849-14.478,12.615-6.96,3.793-14.593,4.91-19.894,3.911-2.655-.467-4.705-1.331-5.98-2.3-1.283-.967-1.807-1.963-1.622-2.822.415-1.78,3.338-2.625,7.171-3.984,3.864-1.312,8.843-3.264,14.22-6.163,5.416-2.926,10.481-6.165,14.657-8.188,4.16-2.038,7.36-2.779,8.543-1.437h.003v.003h0Z" fill="#192c51"/>
          <path d="M1060.86,734.268c.601-1.687,3.848-2.185,8.468-1.83,4.63.332,10.535,1.465,16.647,2.178,6.069.702,11.417.674,15.494.461,4.063-.16,7.09-.455,8.137,1.044.488.728.37,1.848-.462,3.221-.826,1.372-2.409,2.935-4.702,4.352-4.557,2.891-12.062,4.678-19.933,3.732-7.826-.935-14.07-3.774-18.118-6.355-4.06-2.63-6.126-5.136-5.529-6.803v-.003h0l-.003.003Z" fill="#192c51"/>
          <path d="M912.792,766.925s20.175,21.511,7.522,34.351l-2.984-17.02-12.003-1.084,9.51-3.75-2.046-12.497h0Z" fill="#192c51"/>
          <path d="M1050.486,823.529c.129-.007.385-.027.517-.034,13.062-3.516,14.689-13.326,14.791-13.721.175-1.174-.422-2.297-1.616-2.73-6.925-2.868-18.061-26.763-19.446-26.277-1.388.488,6.102,23.997,15.313,29.932-1.003,2.271-3.707,6.081-10.557,7.862-1.395.359-2.196,1.834-1.847,3.103.607,1.249,1.688,1.948,2.845,1.867h0v-.003h0Z" fill="#192c51"/>
          <path d="M1075.425,856.49c-.731.802-1.983.897-3.525.562-1.545-.333-3.336-.962-5.305-1.434-1.958-.508-4.186-.856-6.838-1.074-2.646-.22-5.728-.279-9.128-.208-6.522.07-11.952,1.119-16.045,2.218-4.137,1.114-6.582,2.097-8.464,1.359-.925-.381-1.421-1.921-.923-4.063.468-2.112,1.835-4.719,4.089-7.134,2.249-2.418,5.383-4.66,9.099-6.24,3.706-1.592,7.982-2.495,12.343-2.561,4.213-.086,8.4.485,12.178,1.835,3.768,1.321,7.082,3.483,9.29,5.952,2.244,2.445,3.373,4.924,3.778,6.771.398,1.863.182,3.215-.546,4.014h0l-.003.003Z" fill="#192c51"/>
          <path d="M999.454,787.597c-4.602,6.539,5.395,14.094,10.926,13.7,5.402-.382,9.444-7.135,8.878-15.109-.568-7.974-5.399-14.091-10.929-13.7-5.528.395-2.592,6.177-8.875,15.109h0Z" fill="#192c51"/>
          <path d="M994.323,780.521c.226,3.195,3.102,5.581,6.509,5.335,3.327-.236,5.918-3.009,5.69-6.203-.226-3.194-3.105-5.581-6.509-5.338-3.33.238-5.919,3.011-5.689,6.206h0Z" fill="#fff"/>
          <path d="M1074.099,778.438c-4.602,6.539,5.396,14.091,10.926,13.7,5.402-.385,9.447-7.135,8.878-15.109-.569-7.974-5.399-14.092-10.927-13.7-5.531.392-2.592,6.177-8.878,15.109Z" fill="#192c51"/>
          <path d="M1068.969,771.359c.226,3.194,3.105,5.581,6.512,5.338,3.33-.238,5.918-3.011,5.69-6.206s-3.105-5.581-6.512-5.335c-3.33.236-5.918,3.009-5.69,6.203h0Z" fill="#fff"/>
          <path d="M1076.723,812.613c-.461,4.428,4.606,8.461,11.241,9.023,6.639.691,12.364-2.429,12.706-6.72.461-4.428-4.609-8.461-11.241-9.023-6.639-.691-12.245,2.295-12.705,6.72Z" fill="#e08299"/>
          <path d="M987.212,818.985c-.458,4.425,4.609,8.461,11.241,9.024,6.642.688,12.364-2.431,12.708-6.723.461-4.425-4.609-8.461-11.241-9.023-6.513-.698-12.245,2.295-12.708,6.723Z" fill="#e08299"/>
        </g>
      </g>
      <path d="M835.081,1413.434c4.356-12.541,8.98-24.971,13.728-37.356,113.059,33.231,241.402,70.065,248.96,68.303,13.651-3.185,27.388-39.275,35.331-35.582,7.943,3.693,5.584,26.692-3.3,34.36-8.884,7.669-1.903,15.563,9.188,14.949,17.205-.773,81.037-15.358,83.387-3.679,2.35,11.679-60.812,25.765-60.812,25.765,0,0,82.387-4.532,78.809,7.625-3.55,12.568-78.685,14.134-78.685,14.134,0,0,62.576,1.594,65.75,13.218,3.047,11.591-69.652,12.078-69.652,12.078,0,0,47.983,5.911,50.059,16.573,2.043,10.789-84.108-.898-106.399-4.422-12.449-1.968-159.133,1.429-303.373-13.64,11.795-37.609,24.077-75.099,37.009-112.324Z" fill="#ff97a6"/>
      <g>
        <path d="M1116.251,1473.36s19.346,68.069,11.781,73.787c-7.565,5.717-35.997-4.267-35.997-4.267l24.216-69.521Z" fill="#ced7dd"/>
        <path d="M1093.331,1441.738s-29.657-10.979-30.448-7.947c-.791,3.032-10.888,109.974-5.933,108.569,4.955-1.406,11.058-3.592,11.058-3.592l25.324-97.031Z" fill="#ced7dd"/>
        <path d="M1135.113,1440.902c-.692-.451-23.817-15.258-27.916-10.929-4.131,4.455-15.701,8.453-18.92,10.446-3.219,1.994-29.856,97.333-26.247,100.568,3.642,3.11,36.118,1.734,36.118,1.734,0,0,39.326-100.529,36.965-101.82Z" fill="#fff"/>
        <path d="M987.166,1457.619s-32.134,81.759-26.954,83.111c5.18,1.352,35.624.526,36.712-3.644,1.055-4.043-9.759-79.467-9.759-79.467Z" fill="#fff"/>
        <path d="M1016.552,1537.89s-15.866,12.188-24.067,5.864c-8.201-6.324-20.695-133.737-10.967-131.198,9.855,2.572,52.899,8.273,52.745,17.139.004,8.772-17.711,108.194-17.711,108.194Z" fill="#ced7dd"/>
        <path d="M1063.338,1432.561s-25.378-8.243-31.284-6.815c-5.906,1.428-22.749,114.571-21.398,115.599,8.399,5.566,46.418,1.049,46.418,1.049l6.263-109.832Z" fill="#fff"/>
      </g>
      <g>
        <path d="M575.936,1501.694c32.068,29.497,335.775,59.918,420.838,51.511,9.732-1.028,16.563-2.415,19.864-4.494,32.49-19.737,53.079-125.45,34.74-135.85-18.45-10.418-277.127-92.001-277.127-92.001,0,0-162.343-47.498-183.978-30.085-1.032.742-2.609,4.811-4.713,11.412-12.699,40.053-40.303,171.263-9.624,199.507Z" fill="#2fa7c3"/>
        <path d="M572.452,1504.199c32.068,29.497,335.775,59.918,420.838,51.511,25.613-33.386,39.696-116.025,23.54-125.157-18.468-10.307-277.127-92.001-277.127-92.001,0,0-105.394-30.898-157.646-33.749-12.68,39.942-40.284,171.152-9.606,199.396Z" fill="#47c4d9"/>
        <path d="M572.452,1504.199c32.068,29.497,335.775,59.918,420.838,51.511,7.507-9.703,13.875-23.578,18.947-38.575-186.453,42.838-423.329-38.368-423.329-38.368,0,0-14.828-100.802,58.097-163.798-23.643-5.119-47.339-9.221-64.929-10.276-12.698,40.052-40.303,171.263-9.624,199.507Z" fill="#2fa7c3" opacity=".25"/>
        <g>
          <g>
            <path d="M981.981,1337.294c.801,2.066,40.988-1.382,42.734-4.398,1.857-2.998,1.244-22.227-6.388-22.906,0,0-36.545-1.421-39.174,2.817-2.518,4.257,1.897,22.514,2.827,24.488ZM985.449,1317.479c2.144.123,29.833-.701,29.833-.701,0,0,3.423,7.619,1.822,9.749-1.49,2.148-25.576,3.219-27.887,2.727-2.421-.51-5.818-11.768-3.768-11.775Z" fill="#2fa7c3"/>
            <path d="M883.648,938.745s128.644,306.495,131.991,380.028c0,0-22.845,5.012-28.724.882-22.623-87.945-112.635-345.209-130.851-369.594l27.584-11.316Z" fill="#47c4d9"/>
            <g>
              <path d="M987.233,1278.717c-.471,2.883,1.477,5.593,4.36,6.064,2.883.471,5.593-1.477,6.064-4.36s-1.477-5.593-4.36-6.064c-2.883-.471-5.593,1.477-6.064,4.36Z" fill="#2fa7c3"/>
              <path d="M977.264,1238.715c-.471,2.883,1.477,5.593,4.36,6.064,2.883.471,5.593-1.477,6.064-4.36.471-2.883-1.477-5.593-4.36-6.064-2.883-.471-5.593,1.477-6.064,4.36Z" fill="#2fa7c3"/>
              <path d="M964.362,1199.941c-.471,2.883,1.477,5.593,4.36,6.065,2.884.471,5.593-1.477,6.065-4.36.471-2.883-1.477-5.593-4.36-6.065-2.883-.471-5.593,1.477-6.064,4.36Z" fill="#2fa7c3"/>
            </g>
            <path d="M846.825,956.298c6.832,4.875,39.544-8.563,44.441-14.139,4.768-5.483-26.332-44.385-30.718-41.231,0,0-17.481,4.542-35,2.361-17.52-2.182,14.445,48.135,21.277,53.01ZM836.096,915.374c4.591-3.007,25.427-3.699,25.427-3.699,0,0,17.584,17.108,15.6,20.883-1.984,3.774-17.506,8.182-20.478,8.948-2.972.766-25.325-23.384-20.549-26.133Z" fill="#2fa7c3"/>
          </g>
          <path d="M1019.919,1407.488s-3.317-82.068-4.427-82.25c-1.091-.292-24.77,1.073-25.467,2.553-.697,1.48-4.527,65.983-5.352,68.239-.807,2.146,24.348,18.215,35.245,11.457Z" fill="#47c4d9"/>
        </g>
      </g>
    </g>
  </g>
  <g id="Nurse_Upper">
    <path d="M1675.124,941.525l-20.247,92.512s-228.342,253.54-242.497,286.011c1.333,24.592,54.27,51.507,77.145,61.266,22.875,9.759,265.898-215.969,283.115-231.154,17.217-15.185,63.364-165.614,59.694-182.355-3.67-16.741-157.21-26.279-157.21-26.279Z" fill="#6ae0e5"/>
    <path d="M1772.622,1150.147c-17.198,15.185-260.239,240.915-283.093,231.158-9.035-3.834-22.778-10.364-36.141-18.374,1.177-.342,2.354-.721,3.531-1.139,74.902-25.701,137.579-99.806,137.579-99.806,0,0-23.993-19.019-17.577-54.211,6.378-35.192,169.316-107.322,169.316-107.322,0,0,9.87-61.652-13.021-83.595-14.73-14.122-45.632-30.371-65.791-40.165l7.707-35.154s153.523,9.529,157.206,26.27c3.682,16.742-42.481,167.152-59.716,182.338Z" fill="#2fa7c3" opacity=".25"/>
    <path d="M1718.293,1061.422c-3.09,2.573-12.991-4.411-25.635-10.791-12.529-6.602-23.96-10.619-23.655-14.628.21-1.905,3.666-3.4,9.289-3.443,5.588-.061,13.292,1.551,20.874,5.452,7.575,3.916,13.355,9.257,16.546,13.845,3.226,4.607,4.011,8.289,2.581,9.565Z" fill="#47c4d9"/>
    <path d="M1414.391,1324.603c-.693-1.233,12.706-23.997,29.016-18.654,8.618,2.823,45.456,39.065,55.679,53.43,10.223,14.365-19.501,21.934-19.501,21.934,0,0-59.732-46.998-65.195-56.71Z" fill="#2fa7c3" opacity=".5"/>
    <path d="M1425.41,1316.779l-20.503,14.56s-22.095-15.173-37.072-18.031c-14.978-2.858,0,25.359,0,25.359,0,0-52.403,71.461-34.956,94.596,17.448,23.135,59.167,33.675,71.209,29.248,12.042-4.426,74.654-73.239,82.907-90.476-8.436-41.968-61.585-55.255-61.585-55.255Z" fill="#ff97a6"/>
    <g>
      <g>
        <path d="M1750.922,667.028l-31.374,33.196s-68.981,225.763-65.233,244.179c3.747,18.415,157.956,48.43,157.956,48.43,0,0-28.587-330.837-61.349-325.805Z" fill="#47c4d9"/>
        <path d="M1772.774,984.551c-18.336-4.138-40.507-9.377-60.703-15.033l53.131-104.472,7.572,119.505Z" fill="#2fa7c3" opacity=".5"/>
        <path d="M2352.95,1281.798c-.963,4.497-8.887,15.418-41.649,31.263-12.312,5.996-52.385-39.62-52.385-39.62,0,0-4.36,64.995-12.604,68.207-58.245,23.555-395.175,40.801-414.019,25.49-31.049-25.268-81.371-700.111-81.371-700.111,0,0,75.212-66.41,189.946-74.507,85.225,21.092,334.994,465.829,412.082,689.278Z" fill="#47c4d9"/>
        <g>
          <path d="M2012.649,384.549c-15.676-30.774-53.561-48.378-87.19-40.517,14.155-22.228,6.804-54.272-13.514-71.054-20.32-16.778-50.394-18.905-74.711-8.759-24.321,10.149-43.062,31.092-54.57,54.798l-54.397,77.876c44.488,22.661,37.825,94.489,78.112,123.981,15.938,11.671,38.011,14.391,56.307,6.938,18.294-7.454,32.186-24.82,35.435-44.308,28.174,19.975,69.902,17.972,96.035-4.604,26.13-22.58,34.166-63.578,18.493-94.351Z" fill="#192c51"/>
          <g>
            <path d="M1925.868,593.932s26.718,108.999-74.847,127.44c-93.364,16.952-85.636-64.876-85.636-64.876,0,0,47.172-41.07,160.483-62.564Z" fill="#6ae0e5"/>
            <path d="M1920.186,594.743c-.588-.434-32.672,6.575-32.626,6.254l-60.358-110.431-72.427,36.937,40.566,111.838c-10.182,2.608-25.503,14.121-25.503,14.121,0,0-.435,60.602,76.81,47.653,62.846-10.538,75.515-104.916,73.537-106.372Z" fill="#ff97a6"/>
            <path d="M1846.647,701.116c-77.269,12.932-76.808-47.653-76.808-47.653,0,0,15.338-11.478,25.503-14.121l-24.477-62.18,29.916-20.782s11.138,68.995,10.221,69.376c-.901.454,2.749,20.928-23.252,32.146,68.706,94.273,132.13-63.397,132.421-63.159,1.992,1.457-10.689,95.81-73.523,106.373Z" fill="#ef8499"/>
            <g id="Head">
              <g id="Face">
                <path d="M1844.145,494.223c-.593,62.765-66.226,110.254-104.22,110.621-33.702.325-99.384-43.588-87.039-102.948,10.145-48.782-3.529-95.666-2.876-102.396.274-3.26.777-6.301,1.515-9.196,18.982.21,80.634-19.345,105.294-30.434,18.763,25.846,38.598,45.23,66.361,36.536,4.655,12.924,8.389,27.697,6.971,53.746,3.397-.185,8.226-7.448,12.172-18.539,3.117,23.635,1.987,46.955,1.821,62.61Z" fill="#ff97a6"/>
                <g>
                  <path d="M1740.825,469.557c-2.529,6.404,7.366,10.703,11.916,9.256,4.443-1.414,6.463-7.882,4.374-14.441-2.089-6.558-7.368-10.702-11.916-9.256-4.55,1.446-.92,5.694-4.374,14.441Z" fill="#192c51"/>
                  <path d="M1735.1,464.671c.835,2.628,3.727,4.043,6.529,3.151,2.739-.873,4.344-3.717,3.507-6.345-.838-2.627-3.727-4.043-6.529-3.148-2.739.871-4.345,3.715-3.507,6.343h0Z" fill="#fff"/>
                </g>
                <g>
                  <path d="M1658.361,484.285c-2.529,6.404,7.366,10.702,11.916,9.256,4.443-1.415,6.463-7.882,4.375-14.441-2.089-6.558-7.368-10.702-11.916-9.256-4.55,1.447-.92,5.695-4.375,14.441Z" fill="#192c51"/>
                  <path d="M1652.635,479.398c.835,2.628,3.727,4.043,6.53,3.15,2.738-.873,4.344-3.717,3.507-6.345-.838-2.628-3.727-4.043-6.529-3.148-2.739.871-4.345,3.715-3.507,6.342h0Z" fill="#fff"/>
                </g>
                <path d="M1780.136,490.946c3.04,8.701-5.756,19.688-19.645,24.54-13.889,4.852-27.612,1.731-30.651-6.97-3.04-8.701,5.755-19.688,19.644-24.54,13.889-4.852,27.613-1.731,30.652,6.97Z" fill="#ef8499"/>
                <path d="M1692.531,510.41c.94,9.169-10.161,17.819-24.796,19.32-14.635,1.501-27.262-4.715-28.203-13.883-.94-9.169,10.161-17.819,24.796-19.32,14.635-1.501,27.262,4.714,28.203,13.883Z" fill="#ef8499"/>
                <path d="M1654.992,453.704c-15.819,5.526-24.133,22.824-18.618,38.609,5.526,15.819,22.802,24.177,38.621,18.651,15.819-5.526,24.165-22.835,18.639-38.654-5.514-15.786-22.823-24.133-38.642-18.607ZM1672.36,503.421c-11.632,4.063-24.367-2.078-28.442-13.743-4.063-11.632,2.078-24.367,13.71-28.43,11.665-4.075,24.4,2.067,28.463,13.698,4.075,11.665-2.065,24.4-13.73,28.475Z" fill="#6ae0e5"/>
                <path d="M1738.279,438.904c-15.819,5.526-24.133,22.824-18.618,38.61,5.526,15.819,22.802,24.177,38.621,18.651,15.819-5.526,24.166-22.835,18.639-38.654-5.514-15.785-22.823-24.132-38.642-18.606ZM1755.646,488.621c-11.632,4.063-24.367-2.078-28.442-13.743-4.063-11.632,2.078-24.367,13.71-28.43,11.665-4.075,24.4,2.067,28.463,13.698,4.075,11.665-2.065,24.4-13.73,28.475Z" fill="#6ae0e5"/>
                <path d="M1712.213,542.983c6.944-5.965,17.247-7.833,26.418-4.785,6.359,2.114,12.258,6.681,15.061,12.842,2.808,6.157,2.002,13.866-2.689,18.144-5.282,4.815-14.029,4.293-20.749.705-6.722-3.589-11.862-9.638-16.697-15.606-1.335-1.652-2.696-3.367-3.324-5.367-.622-1.999-.331-4.377,1.236-5.578" fill="#ef8499"/>
                <path d="M1755.619,525.401c-2.409-.669-5.972,15.608-22.421,24.147-16.431,8.58-33.395,2.983-34.018,5.235-.448.97,3.18,4.002,10.466,5.786,7.136,1.808,18.135,1.777,28.195-3.444,10.044-5.247,15.752-13.912,17.757-20.474,2.1-6.676,1.155-11.101.022-11.25Z" fill="#192c51"/>
                <path d="M1740.229,605.712c.19.669,1.646.907,4.142.762,1.246-.073,2.753-.243,4.487-.501,1.727-.285,3.717-.55,5.838-1.129,8.55-2.021,20.191-5.947,32.08-12.593,5.965-3.26,11.295-7.077,15.88-10.844,4.545-3.847,8.257-7.786,11.02-11.37,2.721-3.642,4.507-6.894,5.403-9.303.431-1.221.679-2.195.719-2.913.01-.177.015-.347.003-.485-.037-.117-.069-.219-.099-.315-.069-.211-.137-.413-.252-.54-.114-.133-.275-.191-.523-.13-.125.028-.271.09-.434.189-.141.071-.277.14-.429.233-.6.382-1.362.985-2.238,1.791-1.796,1.592-4.241,3.911-7.348,6.633-3.165,2.678-7.005,5.734-11.474,8.881-4.527,3.074-9.566,6.37-15.16,9.421-22.251,12.368-42.474,19.249-41.616,22.213Z" fill="#ef8499"/>
              </g>
              <g id="Ears">
                <path d="M1837.14,490.005c31.791,16.836,49.796-55.215,21.228-65.007-8.25-2.829-24.175-3.01-26.981,13.237-3.028,17.53-1.206,48.083,5.753,51.77Z" fill="#ff97a6"/>
                <path d="M1845.785,518.205c3.791,2.536,7.609,3.29,10.983,2.384,1.539-.413,2.985-1.181,4.333-2.306,7.411-6.432,8.239-22.264,1.972-36.386-1.427,1.778-2.927,3.516-4.551,5.029,4.333,11.656,2.983,22.934-1.456,26.73-2.008,1.742-4.658,1.564-7.89-.55-6.374-4.127-5.307-11.967-3.295-17.71,1.329-4.036,3.179-7.071,3.221-7.148.882-1.444.374-3.337-1.067-4.22-1.443-.882-3.293-.448-4.176.995-1.865,2.977-3.872,7.321-4.894,12.037-1.711,7.569-.955,16.06,6.819,21.144Z" fill="#e6eff4"/>
                <path d="M1851.993,438.532c-6.13,5.577-16.689,23.663-7.684,35.896,0,0-.81-8.686,3.348-14.374l11.154-6.326-11.675.179,4.857-15.376Z" fill="#192c51"/>
              </g>
              <path d="M1711.799,476.115c5.57,1.656-9.742,22.962.988,24.084,10.731,1.123-6.164,6.657-8.984-1.565-2.82-8.222,3.052-23.987,7.996-22.519Z" fill="#192c51" id="Nose"/>
              <path d="M1842.324,431.613c-3.946,11.091-8.144,52.238-11.541,52.423-4.656-26.835-13.498-40.457-18.157-53.383-27.269-2.532-37.359-27.093-33.521-49.473-24.659,11.088-118.348,38.737-141.784,22.438-18.072-12.568,30.032-107.197,144.383-91.888,77.069,10.331,73.148,84.622,60.62,119.883Z" fill="#192c51"/>
            </g>
          </g>
          <path d="M1752.96,309.561s82.479,6.719,93.212,55.948c0,0,8.67-32.454-21.448-58.297-30.113-25.842-71.764,2.349-71.764,2.349Z" fill="#e5c74a"/>
          <path d="M1641.534,436.119c2.341,3.008,11.473-.133,22.46-.297,10.982-.548,20.294,1.99,22.436-1.161.933-1.533-.536-4.549-4.607-7.394-4.01-2.836-10.716-5.151-18.267-4.909-7.551.253-14.09,2.991-17.904,6.085-3.88,3.101-5.151,6.206-4.119,7.676Z" fill="#192c51"/>
          <path d="M1738.911,420.156c2.341,3.008,11.473-.133,22.461-.295,10.982-.55,20.296,1.988,22.436-1.163.933-1.533-.534-4.55-4.606-7.394-4.011-2.836-10.715-5.147-18.27-4.908-7.547.251-14.087,2.993-17.903,6.085-3.878,3.103-5.15,6.206-4.118,7.676Z" fill="#192c51"/>
        </g>
        <path d="M2352.967,1281.804c-.987,4.48-8.921,15.413-41.684,31.244-12.3,5.998-52.351-39.596-52.351-39.596,0,0-4.366,64.993-12.604,68.182-58.273,23.575-395.198,40.81-414.028,25.511-9.643-7.859-21.146-78.394-32.459-171.936,83.292-46.467,252.001-172.809,289.812-183.097,48.403-13.211,46.088,117.8-9.111,183.401-55.237,65.601-221.516,113.244-212.557,133.858,8.96,20.614,234.006-7.099,235.259-41.076,1.291-33.977,79.761-67.271,74.749-80.52-4.973-13.249-18.64-20.5-32.8-27.865-14.16-7.403,27.675-29.763,21.298-79.457-5.163-40.128-162.369-378.152-222.883-507.152,87.733,29.649,333.052,467.404,409.358,688.503Z" fill="#2fa7c3" opacity=".5"/>
        <path d="M2252.883,1257.298c-.474.124-2.555-5.982-5.912-17.129-3.357-11.148-7.991-27.337-13.569-47.381-1.499-4.951-2.542-10.542-4.869-14.889-1.209-2.242-2.699-3.689-5.108-5.602-1.157-.97-2.461-2.067-3.628-3.584-1.192-1.548-1.951-3.418-2.359-5.455-.267-2.069.009-4.164.678-6.023.725-1.797,1.664-3.469,2.809-4.863,2.236-2.882,4.979-5.069,7.866-7.043.717-.506,1.479-.933,2.222-1.405l1.337-.758c.192-.041.193-.307.07-.417-.124-.108.022-.01-.342-.249-.528-.351-1.141-.698-1.804-1.01-.663-.316-1.348-.601-2.076-.874-.895-.398-1.835-.724-2.695-1.206-7.162-3.678-11.813-10.408-15.188-17.003-3.392-6.764-5.96-13.527-8.979-20.369-5.876-13.727-12.183-27.842-18.843-42.207-26.582-57.503-54.325-107.773-75.307-143.612-10.441-17.957-19.275-32.267-25.208-42.274-6.051-9.93-9.209-15.557-8.802-15.83.407-.272,4.342,4.836,11.117,14.321,6.655,9.561,16.16,23.497,27.187,41.183,22.152,35.289,50.74,85.438,77.453,143.226,6.693,14.434,12.985,28.639,18.802,42.468,2.973,6.869,5.607,13.884,8.624,20.02,3.044,6.134,6.949,11.547,12.164,14.274.631.375,1.327.604,1.98.923.867.338,1.752.718,2.615,1.146.866.424,1.729.915,2.595,1.511,1.013.715,2.461,1.944,3.136,3.194,1.514,2.477.88,6.159-1.837,7.319-.435.439-1.319.818-1.839,1.115l-1.008.545c-.647.4-1.323.758-1.942,1.184-2.507,1.644-4.869,3.502-6.543,5.605-1.749,2.09-2.64,4.335-2.414,6.262.21.944.533,1.982,1.171,2.835.644.89,1.594,1.776,2.677,2.717,2.196,1.756,4.897,4.479,6.255,7.356,1.466,2.858,2.282,5.735,2.974,8.423.654,2.65,1.294,5.241,1.919,7.774,4.957,20.206,8.851,36.589,11.386,47.952,2.535,11.362,3.713,17.705,3.239,17.829Z" fill="#6ae0e5"/>
        <path d="M2342.565,1294.399c.296.663-3.442,3.101-10.649,7.044-3.603,1.972-8.075,4.32-13.342,7.011-2.642,1.335-5.475,2.766-8.491,4.289-1.514.754-3.073,1.531-4.677,2.33-2.414,1.155-4.895,2.341-7.442,3.56-6.295-6.026-13.268-12.701-20.85-19.96-3.425-3.301-6.987-6.734-10.68-10.293l-1.388-1.343-.386-.36-.196-.167-.746-.631c-.433-.359-.873-.725-1.32-1.095-.075.739-.151,1.491-.229,2.256l-.047.498-.021.238-.122.782c-.268,1.607-.538,3.226-.81,4.859-1.101,6.527-2.236,13.251-3.401,20.158-1.185,6.905-2.4,13.992-3.645,21.245-.422,2.399-.848,4.813-1.275,7.24l-.473,2.643-.238,1.326c-.146.38.036,1.068-.561,1.026l-5.172,1.335c-4.109,1.075-8.261,2.161-12.455,3.258-30.207,7.765-63.303,13.35-97.92,17.006-79.307,8.54-151.377,9.114-203.408,8.232-52.057-1.021-84.175-3.982-84.104-5.92.067-1.982,32.197-2.574,84.05-4.121,51.814-1.681,123.502-3.856,201.891-12.302,34.224-3.608,66.793-8.827,96.226-15.829,3.255-.782,6.478-1.555,9.666-2.321.281-.018.34-.044.367-.235l.036-.112.173-.849.534-2.716c1.43-7.219,2.827-14.273,4.188-21.145,3.456-17.381,6.729-33.844,9.788-49.232,6.303,6.563,12.411,12.922,18.312,19.066,3.507,3.742,6.89,7.351,10.143,10.822,3.237,3.482,6.345,6.825,9.315,10.02,1.479,1.602,2.923,3.167,4.332,4.694.879.942,1.018,1.134,1.313,1.485l.883,1.051,1.156-.4.595-.207.892-.34c1.665-.662,3.284-1.306,4.855-1.93,3.147-1.23,6.103-2.386,8.859-3.464,5.519-2.13,10.251-3.894,14.124-5.263,7.746-2.739,12.055-3.897,12.352-3.234Z" fill="#2fa7c3"/>
        <path d="M1907.301,851.24c-45.075,23.662-95.825-5.675-103.855,19.272-8.03,24.947,4.283,60.171,57.709,47.644,53.534-12.42,61.242-74.84,46.146-66.917Z" fill="#2fa7c3" opacity=".5"/>
        <path d="M1781.844,830.656c6.031,3.289,41.498-8.668,47.529-8.668l4.934,14.803s-40.022,7.657-49.343,7.118l-3.12-13.253Z" fill="#6ae0e5"/>
        <path d="M1880.075,931.628c-22.698,4.497-71.521-4.283-61.242,15.418,10.171,19.807,43.148,9.743,69.272,0,26.017-9.743-8.03-15.418-8.03-15.418Z" fill="#2fa7c3" opacity=".5"/>
        <path d="M1912.783,911.499c-13.383,6.531-26.553,18.416-11.242,24.518,15.203,6.103,26.231-9.101,27.516-12.206,1.392-3.212-6.531-17.131-16.274-12.313Z" fill="#2fa7c3" opacity=".5"/>
        <path d="M1765.202,843.942c-13.062-1.606,32.507,399.856,43.535,400.82,11.028.963-33.792-399.642-43.535-400.82Z" fill="#2fa7c3"/>
      </g>
      <g>
        <path d="M1953.706,930.413l-10.308,113.222s-305.914,139.869-330.256,162.441c-18.598,17.245,17.701,75.34,39.476,88.345,151.3-20.98,366.144-55.159,437.04-145.949,28.196-36.109,30.538-180.693,30.538-180.693l-166.489-37.366Z" fill="#6ae0e5"/>
      </g>
      <g opacity=".25">
        <path d="M2120.177,967.771s-2.316,144.602-30.523,180.705c-70.877,90.77-285.75,124.975-437.033,145.931-8.01-4.783-18.033-15.679-26.498-28.435,112.409-21.107,358.829-72.13,412.054-122.546,69.511-65.829,52.01-94.491,29.118-118.142-15.945-16.476-81.09-28.89-119.053-34.888l5.467-59.982,166.469,37.356Z" fill="#2fa7c3"/>
      </g>
      <path d="M2006.191,1082.814c-3.35,2.25-13.7-7.644-27.704-17.159-13.857-9.729-26.773-15.905-25.855-19.835.489-1.848,4.649-2.684,11.022-1.623,6.341,1.039,14.811,4.198,22.903,9.775,8.081,5.593,14.033,12.396,17.25,17.959,3.248,5.584,3.94,9.771,2.384,10.882Z" fill="#47c4d9"/>
      <path d="M1812.271,1104.615c1.665,3.905-47.37,27.002-106.91,56.423-29.757,14.725-56.301,28.652-74.613,39.866-9.072,5.666-16.178,10.563-20.534,14.369-1.022.962-1.94,1.826-2.753,2.59-.614.774-1.405,1.46-1.762,1.998-.425.561-.805.997-1.005,1.301-.292.318-.406.643-.673.634-.229-.013-.58-.087-.779-.599-.278-.541-.332-1.285-.252-2.26.046-1.029.467-1.988.894-3.319.528-1.192,1.268-2.444,2.114-3.92,3.605-5.538,10.224-11.993,18.969-19.004,17.604-13.852,43.979-29.475,74.07-44.369,60.256-29.767,111.85-47.028,113.234-43.711Z" fill="#47c4d9"/>
      <path d="M1940.867,592.521s79.769,0,119.371,56.199c49.355,89.748,69.7,310.213,69.7,326.808s-200.33,11.644-194.976,1.687c5.353-9.957,5.905-384.695,5.905-384.695Z" fill="#47c4d9"/>
      <path d="M2129.933,975.516c0,9.643-67.575,11.996-123.191,10.364,77.825-101.135,45.48-291.9,31.168-357.88,10.06,6.226,18.146,13.173,22.322,20.728,49.352,89.746,69.701,310.198,69.701,326.788Z" fill="#2fa7c3" opacity=".5"/>
    </g>
    <path d="M1425.029,1348.037l-9.325,115.613s34.484,8.778,39.811,7.933c5.328-.845,1.411-113.329,1.411-113.329,0,0-20.467-8.061-31.897-10.217Z" fill="#6ae0e5"/>
    <path d="M1397.511,1336.162l-9.508-4.104s-33.446,112.059-26.984,120.308l17.832,3.726,18.661-119.929Z" fill="#ef8499" opacity=".5"/>
    <path d="M1360.237,1320.237c-1.714-2.228,43.516,16.006,44.51,18.638.994,2.631-33.035-3.722-44.51-18.638Z" fill="#ef8499"/>
    <path d="M1397.511,1336.162s-34.405,107.674-29.124,117.75c5.281,10.077,47.317,9.738,47.317,9.738l41.223-105.396s-28.823-18.313-59.415-22.092Z" fill="#d0f6f7"/>
    <path d="M1502.461,1381.314s25.069,10.847,29.495,12.735c4.426,1.888-42.445,84.063-47.33,83.137-4.885-.925-10.285-1.956-10.285-1.956,0,0,24.745-92.229,28.12-93.916Z" fill="#6ae0e5"/>
    <path d="M1456.926,1361.792s42.723,7.148,48.91,17.834c6.187,10.686-29.324,96.02-31.494,95.603-2.169-.416-13.469-2.239-18.827-3.646-5.358-1.407-2.343-110.478,1.411-109.791Z" fill="#d0f6f7"/>
    <g>
      <path d="M1332.675,1468.735s-11.394,16.255-26.627-5.529c-15.338-21.806-2.99-34.698,5.105-31.521,7.989,3.156,13.402,4.476,16.02,18.994,0,0,3.38-12.314,12.99-10.14,9.505,2.153,13.716,10.986,13.716,10.986,0,0,.816-11.525,5.65-12.726,4.834-1.202,16.153,4.38,19.45,16.633,0,0,2.948-8.578,17.164-2.734,4.739,1.948,7.946,9.812,7.946,9.812l17.544,2.915s-10.029,22.434-36.321,10.963c0,0-13.063,13.184-24.739-5.145.021-.105-16.109,19.557-27.897-2.509Z" fill="#ff97a6"/>
      <g>
        <path d="M1332.718,1468.525c.757-.501-1.309-4.309-2.782-9.416-1.495-5.003-1.816-9.329-2.55-9.479-.84-.171-1.822,4.655-.224,10.225,1.703,5.591,5.03,9.109,5.556,8.67Z" fill="#ed7e94"/>
        <path d="M1360.487,1471.664c.527-.439-1.37-4.54-2.947-10.215-1.703-5.591-3.052-10.236-3.85-10.071-.798.166-.584,5.017,1.076,10.818,1.744,5.927,5.047,10.096,5.721,9.468Z" fill="#ed7e94"/>
        <path d="M1385.354,1476.179c.443-.565-2.147-4.48-3.303-10.615-1.407-5.968-2.02-11.009-2.902-10.971-.756-.045-1.404,5.287.149,11.612,1.174,6.576,5.465,10.727,6.055,9.973Z" fill="#ed7e94"/>
      </g>
    </g>
    <g>
      <path d="M1619.214,1213.796s29.336-7.957,41.569,3.854c12.232,11.811,24.043,53.149,18.138,61.585-5.906,8.436-38.386,12.42-47.665,5.577-9.28-6.842-12.042-71.016-12.042-71.016Z" fill="#47c4d9"/>
      <path d="M1526.646,1268.693s-105.487,67.989-103.552,73.667c1.935,5.678,27.385,20.158,33.832,19.433,6.447-.726,75.325-63.686,75.325-63.686l-5.605-29.413Z" fill="#d0f6f7"/>
      <path d="M1429.434,1335.484c7.441,6.681,26.195,13.857,39.216,18.26-5.96,4.783-10.326,7.896-11.731,8.048-6.454.721-31.889-13.743-33.825-19.437-.304-.911,2.088-3.379,6.34-6.871Z" fill="#6ae0e5" opacity=".35"/>
      <path d="M1532.239,1298.09s-5.315,4.86-13.173,11.921c-5.163-8.124-7.668-22.778-8.694-30.675,9.757-6.416,16.286-10.63,16.286-10.63l5.581,29.384Z" fill="#6ae0e5" opacity=".35"/>
      <path d="M1628.131,1213.463c-33.533.438-73.742,10.343-88.709,23.012-20.555,17.4-28.31,64.108,11.581,69.554l1.065,1.307s.079,16.799,22.312,16.586c14.015-.134,18.409-14.528,18.409-14.528l-1.101.281c4.374-1.261,7.534-3.008,7.534-3.008l1.646,1.414c12.092,10.491,44.304-3.499,38.738-18.128l26.863-10.542s-6.34-66.366-38.338-65.948Z" fill="#ff97a6"/>
      <g id="Hand">
        <path d="M1623.831,1284.921s13.443-1.476,17.495,6.419c0,0,48.14,44.822,79.719,83.299,11.234,13.688-51.117,10.743-66.167,25.268-16.164-79.483-40.255-107.098-40.255-107.098l9.209-7.888Z" fill="#d0f6f7"/>
      </g>
      <g id="Hand1">
        <path d="M1707.591,1385.102c-5.771-15.869-54.971-76.344-65.715-79.951-6.112-2.05-13.325-.531-18.412,1.215-5.277-9.491-8.845-13.553-8.845-13.553l9.225-7.896s13.439-1.48,17.463,6.416c0,0,48.176,44.835,79.723,83.292,4.404,5.353-2.506,8.2-13.439,10.478Z" fill="#e4eaef"/>
      </g>
      <path d="M1566.492,1312.523c-5.094,1.363-11.293,1.404-16.06-3.641-11.475-12.139-6.344-32.415-6.12-33.272.313-1.202,1.538-1.924,2.745-1.608,1.202.312,1.924,1.541,1.612,2.745-.048.186-4.712,18.73,5.035,29.043,6.936,7.339,19.554-1.184,19.68-1.269,1.023-.708,2.427-.444,3.13.581.704,1.025.444,2.427-.581,3.13-.324.223-4.326,2.923-9.442,4.292Z" fill="#e08299"/>
      <path d="M1593.908,1311.261c-4.614,1.234-11.185,1.728-18.094-1.864-14.618-7.597-10.475-33.005-10.292-34.083.211-1.224,1.374-2.049,2.596-1.84,1.225.207,2.05,1.369,1.844,2.595-.039.231-3.781,23.247,7.929,29.334,10.363,5.384,20.034-.579,20.131-.64,1.046-.661,2.442-.349,3.106.703.663,1.052.348,2.442-.703,3.106-.219.138-2.698,1.667-6.517,2.689Z" fill="#e08299"/>
      <path d="M1617.546,1313.549c-.142.038-.29.063-.444.073-8.815.55-15.755-1.83-20.627-7.073-9.792-10.542-7.431-28.735-7.325-29.506.168-1.229,1.298-2.095,2.534-1.924,1.23.167,2.094,1.301,1.927,2.533-.022.168-2.168,16.879,6.175,25.843,3.908,4.2,9.639,6.095,17.036,5.632,1.241-.077,2.31.866,2.388,2.107.068,1.088-.649,2.043-1.663,2.315Z" fill="#e08299"/>
      <path d="M1640.187,1292.128c-1.161.31-2.369-.347-2.73-1.505-.6-1.92-1.594-3.066-3.128-3.602-5.115-1.786-14.49,3.42-17.671,5.578-1.032.704-2.428.429-3.127-.599-.698-1.029-.43-2.429.599-3.127,1.361-.926,13.547-8.947,21.684-6.103,2.87,1.003,4.925,3.253,5.941,6.512.371,1.187-.291,2.45-1.479,2.819-.029.009-.06.018-.09.026Z" fill="#e08299"/>
      <path d="M1626.662,1287.213c-.221.059-.456.085-.697.073-1.242-.064-2.197-1.123-2.133-2.364l.351-6.817c.065-1.242,1.12-2.194,2.364-2.133,1.242.064,2.197,1.123,2.133,2.364l-.351,6.817c-.052,1-.748,1.814-1.666,2.06Z" fill="#e08299"/>
    </g>
    <path d="M1378.978,1455.433c-.863.311-2.003-4.201-7.148-8.987-2.449-2.278-6.369-4.813-10.377-5.086-.446.01-.878.035-1.162.124-.224.078-.261.156-.494.335-.424.411-.962,1.385-1.343,2.505l-.28.875c-.199.61-.33,1.336-.502,2.009-.304,1.407-.526,2.894-.656,4.686-.277,3.611-.559,7.296-.847,11.049-1.57-2.951-3.161-5.941-4.772-8.969-.791-1.585-1.486-2.474-2.255-3.633l-1.184-1.351c-.354-.445-.923-.978-1.014-1.042-1.529-1.386-3.273-2.538-5.197-3.271-.908-.348-2.066-.717-2.873-.783-.867-.198-1.605-.024-2.342.126-.705.281-1.435.576-2.109,1.226-.347.284-.676.65-1.002,1.023l-.247.313c-.237.275-.417.559-.606.843l-1.03,1.915c-1.331,3.018-2.633,8.096-4.079,12.705-1.511-4.172-3.226-9.307-4.911-13.708-.438-1.086-.84-2.253-1.314-3.235-.228-.472-.431-.974-.673-1.418-.465-.915-.951-1.781-1.476-2.557-1.985-3.141-4.952-4.717-8.744-6.311-2.25-1.081-4.964-.075-6.657,2.18-1.739,2.156-2.455,5.091-2.447,7.808-.021,5.524,1.934,10.139,3.136,13.227,1.36,3.074,2.081,4.889,1.674,5.173-.364.259-1.831-1.035-4.002-3.863-1.985-2.894-4.944-7.436-5.682-14.344-.332-3.395.106-7.574,2.672-11.374,1.231-1.89,3.091-3.626,5.534-4.64.589-.294,1.227-.498,1.915-.615.673-.151,1.35-.298,2.079-.256,1.361-.113,3.072.364,4.158.744,1.979.748,4.113,1.584,6.296,2.921,2.196,1.31,4.217,3.302,5.713,5.427.76,1.065,1.408,2.167,2.001,3.278.313.557.556,1.115.837,1.677.027.047.03.034.03.034.024.009.029-.001.031-.025v-.013s0,0,0,0c0,0,.003-.006-.017.016l.38-.472c.548-.633,1.127-1.26,1.802-1.822,1.28-1.176,2.98-2.059,4.735-2.625,1.788-.462,3.702-.636,5.368-.29,1.749.25,3.033.725,4.471,1.293,2.782,1.141,5.192,2.85,7.186,4.781.359.342.223.224.263.269l.028.052.067.128.169.361c.067.132.082-.091.155-.181l.117-.227.08-.153.462-1.177c.687-1.549,1.497-3.157,3.15-4.582.836-.69,2.002-1.281,3.096-1.471,1.032-.184,1.921-.14,2.771-.066,3.26.486,5.712,1.772,7.786,3.179,2.072,1.412,3.688,3.038,4.975,4.618,2.583,3.176,3.764,6.209,4.238,8.293.487,2.093.382,3.269.067,3.35Z" fill="#ef8499"/>
    <path d="M2088.122,721.381c.46-.169,1.589,1.795,3.33,5.737.831,1.978,1.985,4.421,2.973,7.392.966,2.992,2.076,6.432,3.325,10.3,4.663,15.592,10.033,38.485,15.349,66.956,5.335,28.471,10.741,62.509,15.915,100.403,1.245,9.48,2.521,19.196,3.824,29.12.616,4.968,1.237,9.987,1.865,15.056.703,6.023,1.412,12.104,2.128,18.24l.426,3.838.214,1.925c.197.431-.384.334-.621.471l-.93.263-7.451,2.108c-3.03.849-6.073,1.702-9.128,2.558-5.364.999-10.777,2.295-16.23,3.043-10.906,1.6-21.971,2.686-33.142,3.231-22.349,1.16-44.086.764-65.011-.35-20.951-1.207-40.984-2.91-60.263-5.861l-3.631-.582-4.519-.872c-2.203-.483-3.889-1.576-5.732-2.433-.553-.801-1.511-1.349-1.866-2.299-.463-.88-.781-1.882-.942-2.956-.429-1.931-.509-4.855-.554-5.657l-.06-3.648c-.005-2.388.036-4.718.104-7.02.273-9.198.824-17.996,1.407-26.508,1.188-17.009,2.6-32.785,3.985-47.18,5.648-57.555,10.848-92.95,12.76-92.777,1.994.178.329,35.901-2.747,93.521-.742,14.402-1.571,30.178-2.242,47.074-.324,8.441-.632,17.186-.68,26.073-.012,2.219.001,4.445.057,6.643l.126,3.254c.085,1.488.07.931.105,1.208-.004.271.245.327.487.324l.127.013.702.12,1.625.283,3.425.48c18.517,2.483,38.488,3.918,59.018,4.906,20.566.909,41.9,1.189,63.56.064,10.833-.526,21.456-1.554,31.786-3.019,5.18-.684,10.147-1.868,15.175-2.75,2.035-.554,4.062-1.105,6.08-1.655.085-.002.126.005.121-.058-1.019-9.329-2.019-18.493-2.999-27.468-1.138-9.911-2.252-19.614-3.339-29.082-4.445-37.858-8.802-71.901-12.843-100.416-4.023-28.521-7.848-51.479-10.81-67.269-.76-3.937-1.437-7.44-2.025-10.486-.55-3.053-1.246-5.549-1.628-7.644-.84-4.159-1.067-6.449-.607-6.618Z" fill="#2fa7c3"/>
  </g>
</svg>