<?xml version="1.0" encoding="utf-8"?>
<svg xmlns="http://www.w3.org/2000/svg" enable-background="new 0 0 2000 2000" viewBox="0 0 2000 2000">
  <path clip-rule="evenodd" d="M998.3,1530.1c179.9,0,345.5,2.7,476.9,7.2c321.5-183.8,210.2-542,94.8-744.7&#xD;&#xA;			c-160.7-282-540.4-383.4-697.4-158.4c-213.2,305.4-418.8,198.8-529.8,430.8c-111,232,57.6,454.3,178.7,472.2&#xD;&#xA;			C652.8,1532.8,818.4,1530.1,998.3,1530.1L998.3,1530.1z M716.5,748c-82.3,62.6-218.4,111.2-263.6,44.6&#xD;&#xA;			c-33.8-49.8,7.8-143.1,89.3-213.9c81.4-70.7,190.5-113.5,250-61.5C862.7,579.1,779.9,699.8,716.5,748z" fill="#e9eef7" fill-rule="evenodd"/>
  <path clip-rule="evenodd" d="M998.3,1530.1c427.2,0,773.5,15.2,773.5,33.9s-346.3,33.9-773.5,33.9c-427.2,0-773.5-15.2-773.5-33.9&#xD;&#xA;			S571.1,1530.1,998.3,1530.1z" fill="#d1deed" fill-rule="evenodd"/>
  <path clip-rule="evenodd" d="M1247.7,595c193.2,43,316.1,220.7,328.2,306.5c4.9,35.2-4.2-47.2-102.8-122.2c-88.1-67-156.6-79.4-261.4-87.5&#xD;&#xA;			c-74-5.7-151.6-14.8-146.1-59C1070,597.9,1123,567.2,1247.7,595L1247.7,595z M742.6,523.2c33.3,2,53.5,29.3,54.9,60.8&#xD;&#xA;			c0.6,13.4-9.9-21.6-46.8-26.5c-22.9-3-26.3,3.7-34.5-5.7C708,542.3,715.8,521.6,742.6,523.2z" fill="#fff" fill-rule="evenodd"/>
  <path clip-rule="evenodd" d="M500,1452c-8.8-11-21.2-20.2-24.9-33.8c-4.3-16.1,5.2-33.1,2.8-49.6c-2.9-20.8-23-34.3-33.8-52.2&#xD;&#xA;			c-10.6-17.6-5.7-23.5-6.6-44c-1.5-30.9-26.8-70-60.7-59.5c-34.3,10.6-28.7,42.6-22.7,66.6c4.3,17.1,1.5,19.6-2.7,36.7&#xD;&#xA;			c-5.1,20.7-21.3,40.7-14.5,60.9c4.2,12.5,16.4,20.9,20.9,33.3c5,14.1-1.1,29.3-3.4,44c-4.9,31,2.1,56.9,24.7,82.5&#xD;&#xA;			c2.4,2.3,4.9,4.4,7.6,6.4c31.6-1.8,67.1-3.4,106.1-4.9l0.3-0.3C513.7,1515.5,519.9,1476.8,500,1452z" fill="#d1deed" fill-rule="evenodd"/>
  <path clip-rule="evenodd" d="M392.5,1240.8c-0.5-1.4-2.1-2.1-3.5-1.6c-1.4,0.5-2.1,2.1-1.6,3.5c2.7,7,4.9,14.4,6.9,22&#xD;&#xA;			c-0.8-0.7-1.6-1.4-2.4-2.1c-3.7-3-7.9-5.5-12.5-7.8c-1.4-0.6-3-0.1-3.6,1.3c-0.6,1.4-0.1,3,1.3,3.6c4.3,2,8.1,4.4,11.5,7.1&#xD;&#xA;			c3.2,2.5,5.9,5.4,8.3,8.6c3.5,16.6,5.7,34.4,7.8,53.1c-3.1-4.9-6.5-9.3-10.1-13.1c-6.2-6.7-13.1-12-20.6-15.7&#xD;&#xA;			c-1.3-0.7-3-0.1-3.6,1.2c-0.7,1.3-0.1,3,1.2,3.6c6.9,3.4,13.2,8.3,19,14.5c5.7,6.2,10.9,13.8,15.5,22.9l0.5,5.1&#xD;&#xA;			c1.2,11.2,2.3,22.7,3.7,34.4c0,0.1,0,0.2,0,0.3c1.5,12.2,3.2,24.8,5.3,37.5c-5.9-9-12.2-17.1-18.9-24&#xD;&#xA;			c-9.9-10.2-20.8-18.1-32.6-23.8c-1.4-0.6-3-0.1-3.6,1.3c-0.6,1.4-0.1,3,1.3,3.6c11.2,5.4,21.6,13,31,22.7&#xD;&#xA;			c9.4,9.7,18,21.6,25.6,35.5c3.3,16.8,7.6,34,13.2,51.4l0,0l0,0.1v0c2.8,8.5,5.9,17.1,9.4,25.6c-8.2-7-16.9-13.1-26.1-18.3&#xD;&#xA;			c-12.8-7.2-26.6-12.4-41.4-15.9c-1.5-0.3-2.9,0.6-3.3,2c-0.3,1.5,0.6,2.9,2,3.3c14.3,3.3,27.6,8.4,40,15.3&#xD;&#xA;			c12.2,6.8,23.6,15.4,34,25.8c2.4,5.3,5,10.7,7.7,16l6-0.3c-9.6-18.5-17.1-36.9-23.1-55.1c-1-13.2,0.5-26.5,4.7-39.7&#xD;&#xA;			c4.2-13.4,11.1-26.8,20.6-40.3c0.9-1.2,0.6-2.9-0.6-3.8c-1.2-0.9-2.9-0.6-3.8,0.6c-9.9,13.9-17,27.8-21.4,41.8&#xD;&#xA;			c-2.5,7.9-4.1,15.9-4.8,23.8c-8.1-29.4-12.6-58.1-15.9-85.5c3.2-11.6,6.7-21.5,10.7-29.5c3.9-8,8.1-14.2,12.7-18.5&#xD;&#xA;			c1.1-1,1.1-2.7,0.1-3.8c-1-1.1-2.7-1.1-3.8-0.1c-5.1,4.8-9.7,11.5-13.9,20.1c-2.6,5.3-5.1,11.4-7.3,18.3&#xD;&#xA;			c-0.8-7.2-1.5-14.4-2.3-21.4l-0.6-5.5c0-0.1,0-0.2,0-0.3C407.4,1303.5,403.5,1269.6,392.5,1240.8z" fill="#fff" fill-rule="evenodd"/>
  <path clip-rule="evenodd" d="M409.2,1466.6c-9.4-5.1-20.8-7.8-27.3-16.2c-7.8-10-6.2-24.6-12.7-35.4c-8.2-13.6-26.1-17.1-39-26.3&#xD;&#xA;			c-12.6-9.1-10.9-14.7-17.7-28.7c-10.2-21.1-39.4-40.8-59.9-23.5c-20.8,17.6-7.4,38.2,3.9,53.1c8.1,10.6,6.8,13.2,9,26.4&#xD;&#xA;			c2.6,15.9-2.8,34.7,7.9,46.7c6.6,7.4,17.7,9.7,24.4,17c7.7,8.3,7.9,20.7,10.7,31.7c3.6,14.6,10,26.2,20,35.7&#xD;&#xA;			c27.1-2,58.9-4,94.8-5.7c2.8-3.9,5-8.2,6.6-12.8C437.5,1506.8,430.4,1478,409.2,1466.6z" fill="#c4ddf7" fill-rule="evenodd"/>
  <path clip-rule="evenodd" d="M271.7,1351.3c-0.8-0.8-2.1-0.8-2.9-0.1c-0.8,0.8-0.8,2.1-0.1,2.9c3.9,4.1,7.7,8.5,11.3,13.3&#xD;&#xA;			c-0.7-0.3-1.5-0.5-2.3-0.7c-3.4-1-7.1-1.5-11-1.7c-1.1,0-2.1,0.8-2.1,2c0,1.1,0.8,2.1,2,2.1c3.6,0.1,7,0.7,10.1,1.5&#xD;&#xA;			c3,0.8,5.7,2,8.3,3.5c7.3,10.5,14.2,22.2,21.2,34.7c-3.6-2.5-7.3-4.5-10.9-6.2c-6.3-2.9-12.6-4.5-19-4.8c-1.1-0.1-2.1,0.8-2.2,1.9&#xD;&#xA;			c-0.1,1.1,0.8,2.1,1.9,2.2c5.8,0.3,11.7,1.8,17.5,4.5c5.8,2.6,11.7,6.4,17.5,11.3l1.9,3.4c4.1,7.5,8.3,15.1,12.8,22.8&#xD;&#xA;			c0,0.1,0.1,0.2,0.1,0.2c4.6,8.1,9.5,16.3,14.8,24.5c-6.8-4.6-13.5-8.3-20.3-11.1c-9.9-4.2-19.8-6.5-29.7-6.9&#xD;&#xA;			c-1.1-0.1-2.1,0.8-2.1,2c-0.1,1.1,0.8,2.1,2,2.1c9.4,0.4,18.9,2.7,28.3,6.6c9.4,4,18.9,9.7,28.4,17.2&#xD;&#xA;			c7.3,10.7,15.4,21.4,24.4,31.9l0,0l0,0l0,0c4.5,5.1,9.2,10.1,14.1,15.1c-7.8-2.5-15.7-4.1-23.6-5c-11.1-1.2-22.2-0.8-33.5,1.2&#xD;&#xA;			c-1.1,0.2-1.9,1.3-1.7,2.4c0.2,1.1,1.3,1.9,2.4,1.7c10.9-1.9,21.7-2.3,32.4-1.2c10.5,1.1,21,3.7,31.3,7.9&#xD;&#xA;			c3.6,3.3,7.3,6.5,11.1,9.7l6.1-0.3c-13.4-10.7-25.1-22.2-35.4-34c-4.6-8.9-7.5-18.6-8.5-29c-1-10.6-0.2-22,2.4-34.2&#xD;&#xA;			c0.2-1.1-0.5-2.2-1.6-2.4c-1.1-0.2-2.2,0.5-2.4,1.6c-2.7,12.6-3.6,24.4-2.5,35.4c0.6,6.3,1.8,12.3,3.7,18&#xD;&#xA;			c-14.4-18.1-26-36.7-36.5-54.9c-1.2-9-1.7-16.9-1.3-23.7c0.3-6.7,1.5-12.3,3.4-16.7c0.5-1,0-2.2-1.1-2.7c-1-0.5-2.2,0-2.7,1.1&#xD;&#xA;			c-2.1,4.8-3.4,10.9-3.7,18.1c-0.2,4.5-0.1,9.5,0.3,14.9c-2.7-4.8-5.3-9.6-7.9-14.2l-2-3.6c0-0.1-0.1-0.1-0.1-0.2&#xD;&#xA;			C300.7,1390.6,287.9,1368.1,271.7,1351.3z" fill="#fff" fill-rule="evenodd"/>
  <path clip-rule="evenodd" d="M1462.4,1441.6c9.6-12,23.2-22,27.1-36.9c4.7-17.6-5.6-36.1-3.1-54.1c3.2-22.7,25.1-37.4,36.9-57&#xD;&#xA;			c11.6-19.2,6.2-25.7,7.2-48.1c1.6-33.8,29.3-76.4,66.2-65c37.5,11.6,31.3,46.4,24.8,72.6c-4.7,18.7-1.6,21.3,2.9,40&#xD;&#xA;			c5.5,22.6,23.3,44.4,15.9,66.4c-4.6,13.6-18,22.8-22.8,36.3c-5.5,15.3,1.2,32,3.7,48.1c5.4,33.9-2.3,62-26.9,90&#xD;&#xA;			c-3,2.8-6.1,5.4-9.3,7.8c-34-1.7-72-3.3-113.3-4.7c-0.6-0.6-1.1-1.2-1.7-1.8C1447.5,1510.8,1440.7,1468.6,1462.4,1441.6z" fill="#d1deed" fill-rule="evenodd"/>
  <path clip-rule="evenodd" d="M1579.8,1211c0.6-1.5,2.3-2.3,3.8-1.7c1.5,0.6,2.3,2.3,1.7,3.8c-2.9,7.7-5.4,15.7-7.5,24&#xD;&#xA;			c0.8-0.8,1.7-1.5,2.6-2.2c4-3.2,8.6-6.1,13.7-8.5c1.5-0.7,3.2-0.1,3.9,1.4c0.7,1.5,0.1,3.2-1.4,3.9c-4.7,2.2-8.9,4.8-12.5,7.7&#xD;&#xA;			c-3.5,2.8-6.5,5.9-9,9.3c-3.8,18.1-6.3,37.5-8.5,58c3.4-5.3,7.1-10.1,11-14.3c6.8-7.4,14.2-13.1,22.5-17.1c1.5-0.7,3.2-0.1,4,1.3&#xD;&#xA;			c0.7,1.5,0.1,3.2-1.3,4c-7.5,3.7-14.4,9-20.7,15.9c-6.3,6.8-11.9,15.1-16.9,24.9l-0.6,5.6c-1.3,12.2-2.6,24.7-4.1,37.5&#xD;&#xA;			c0,0.1,0,0.2,0,0.4c-1.6,13.4-3.5,27-5.8,40.9c6.4-9.9,13.3-18.6,20.6-26.2c10.8-11.1,22.7-19.8,35.5-26c1.5-0.7,3.2-0.1,4,1.4&#xD;&#xA;			c0.7,1.5,0.1,3.2-1.4,4c-12.3,5.9-23.5,14.2-33.9,24.8c-10.3,10.6-19.6,23.5-28,38.8c-3.6,18.4-8.3,37.1-14.4,56l0,0l0,0.1l0,0&#xD;&#xA;			c-3,9.3-6.4,18.6-10.2,28c9-7.7,18.5-14.3,28.5-19.9c14-7.8,29.1-13.6,45.2-17.3c1.6-0.4,3.2,0.6,3.6,2.2c0.4,1.6-0.6,3.2-2.2,3.6&#xD;&#xA;			c-15.6,3.6-30.1,9.2-43.6,16.7c-13.4,7.4-25.7,16.8-37.1,28.1c-2.8,6.2-5.8,12.5-9,18.7l-6.5-0.3c10.8-20.6,19.2-41.1,25.8-61.3&#xD;&#xA;			c1.1-14.4-0.6-28.9-5.1-43.3c-4.6-14.6-12.1-29.3-22.5-44c-0.9-1.3-0.6-3.2,0.7-4.1c1.3-0.9,3.2-0.6,4.1,0.7&#xD;&#xA;			c10.8,15.2,18.5,30.4,23.3,45.6c2.7,8.6,4.5,17.3,5.3,25.9c8.9-32.1,13.8-63.4,17.4-93.3c-3.5-12.7-7.4-23.4-11.6-32.2&#xD;&#xA;			c-4.3-8.7-8.9-15.5-13.9-20.2c-1.2-1.1-1.2-3-0.1-4.2s3-1.2,4.2-0.1c5.5,5.2,10.6,12.5,15.2,21.9c2.8,5.8,5.5,12.5,8,20&#xD;&#xA;			c0.9-7.9,1.7-15.7,2.5-23.4l0.6-6c0-0.1,0-0.2,0-0.3C1563.5,1279.5,1567.7,1242.5,1579.8,1211z" fill="#fff" fill-rule="evenodd"/>
  <path clip-rule="evenodd" d="M1561.5,1457.5c10.3-5.5,22.7-8.5,29.8-17.7c8.5-10.9,6.8-26.8,13.9-38.6c9-14.8,28.5-18.6,42.6-28.8&#xD;&#xA;			c13.8-9.9,11.9-16,19.3-31.3c11.1-23,43-44.5,65.4-25.6c22.7,19.2,8.1,41.6-4.3,57.9c-8.8,11.6-7.5,14.4-9.8,28.8&#xD;&#xA;			c-2.8,17.4,3.1,37.8-8.6,51c-7.2,8.1-19.3,10.6-26.6,18.6c-8.4,9.1-8.7,22.6-11.7,34.6c-4,16.1-11.1,29-22.3,39.4&#xD;&#xA;			c-29.5-2-63.8-3.9-102.1-5.6c-3.4-4.6-6.1-9.6-8-15C1530.6,1501.3,1538.4,1469.9,1561.5,1457.5z" fill="#c4ddf7" fill-rule="evenodd"/>
  <path clip-rule="evenodd" d="M1711.5,1331.7c0.9-0.9,2.3-0.9,3.2-0.1c0.9,0.9,0.9,2.3,0.1,3.2c-4.3,4.5-8.4,9.3-12.3,14.5&#xD;&#xA;			c0.8-0.3,1.7-0.5,2.5-0.8c3.8-1.1,7.8-1.7,12-1.8c1.2,0,2.3,0.9,2.3,2.2c0,1.2-0.9,2.3-2.2,2.3c-3.9,0.2-7.6,0.7-11,1.7&#xD;&#xA;			c-3.2,0.9-6.3,2.2-9,3.8c-8,11.5-15.5,24.3-23.1,37.9c4-2.7,7.9-4.9,11.9-6.7c6.9-3.1,13.8-4.9,20.7-5.3c1.2-0.1,2.3,0.9,2.4,2.1&#xD;&#xA;			c0.1,1.2-0.9,2.3-2.1,2.4c-6.3,0.4-12.7,2-19.1,4.9c-6.4,2.9-12.8,7-19.1,12.4l-2,3.7c-4.5,8.1-9.1,16.5-14,24.9&#xD;&#xA;			c0,0.1-0.1,0.2-0.1,0.2c-5.1,8.8-10.4,17.8-16.2,26.8c7.4-5,14.8-9,22.1-12.1c10.8-4.5,21.6-7.1,32.5-7.6c1.2-0.1,2.3,0.9,2.3,2.1&#xD;&#xA;			c0.1,1.2-0.9,2.3-2.1,2.3c-10.3,0.5-20.6,2.9-30.9,7.2c-10.3,4.3-20.6,10.6-31,18.7c-8,11.7-16.8,23.4-26.7,34.8l0,0l0,0l0,0&#xD;&#xA;			c-4.9,5.6-10,11.1-15.4,16.5c8.5-2.7,17.1-4.5,25.8-5.4c12.1-1.3,24.3-0.8,36.6,1.3c1.2,0.2,2,1.4,1.8,2.6c-0.2,1.2-1.4,2-2.6,1.8&#xD;&#xA;			c-11.9-2.1-23.7-2.5-35.3-1.3c-11.5,1.2-22.9,4.1-34.2,8.6c-4.2,3.9-8.6,7.7-13.3,11.5l-6.8-0.3c15.2-12,28.3-24.8,39.8-38&#xD;&#xA;			c5.1-9.7,8.1-20.3,9.3-31.7c1.1-11.6,0.2-24-2.7-37.3c-0.3-1.2,0.5-2.4,1.7-2.7c1.2-0.3,2.4,0.5,2.7,1.7c3,13.8,3.9,26.7,2.7,38.7&#xD;&#xA;			c-0.7,6.8-2,13.4-4,19.6c15.7-19.7,28.4-40.1,39.8-59.9c1.3-9.9,1.8-18.5,1.4-25.9c-0.4-7.3-1.6-13.4-3.7-18.2&#xD;&#xA;			c-0.5-1.1,0-2.5,1.2-2.9c1.1-0.5,2.5,0,2.9,1.2c2.3,5.3,3.7,11.9,4.1,19.8c0.3,4.9,0.1,10.3-0.3,16.3c2.9-5.2,5.8-10.4,8.6-15.5&#xD;&#xA;			l2.2-4c0-0.1,0.1-0.1,0.1-0.2C1679.9,1374.5,1693.9,1350,1711.5,1331.7z" fill="#fff" fill-rule="evenodd"/>
  <path clip-rule="evenodd" d="M942.1,718.8c-2.8,38-8.4,43.2-44.6,46.2c36.2,2.9,41.8,8.2,44.6,46.2c2.8-38,8.4-43.2,44.6-46.2&#xD;&#xA;			C950.5,762.1,944.9,756.8,942.1,718.8L942.1,718.8z M1089.4,819c-1.5,20.3-4.5,23.1-23.8,24.6c19.3,1.6,22.3,4.4,23.8,24.6&#xD;&#xA;			c1.5-20.3,4.5-23.1,23.8-24.6C1093.8,842.1,1090.8,839.3,1089.4,819L1089.4,819z M1024.9,662.9c-1.5,20.5-4.5,23.4-24.1,25&#xD;&#xA;			c19.6,1.6,22.6,4.4,24.1,25c1.5-20.5,4.5-23.4,24.1-25C1029.4,686.3,1026.4,683.5,1024.9,662.9z" fill="#fff" fill-rule="evenodd"/>
  <path clip-rule="evenodd" d="M888.7,1341.8c2.2,30.8,6.8,35,36.1,37.4c-29.3,2.4-33.9,6.6-36.1,37.4c-2.2-30.8-6.8-35-36.1-37.4&#xD;&#xA;			C881.9,1376.8,886.5,1372.5,888.7,1341.8L888.7,1341.8z M769.4,1422.9c1.2,16.4,3.6,18.7,19.3,20c-15.7,1.3-18.1,3.5-19.3,20&#xD;&#xA;			c-1.2-16.4-3.6-18.7-19.3-20C765.8,1441.6,768.2,1439.4,769.4,1422.9L769.4,1422.9z M821.7,1296.5c1.2,16.6,3.7,18.9,19.5,20.2&#xD;&#xA;			c-15.9,1.3-18.3,3.6-19.5,20.2c-1.2-16.6-3.7-18.9-19.5-20.2C818,1315.4,820.5,1313.1,821.7,1296.5z" fill="#fff" fill-rule="evenodd"/>
  <path clip-rule="evenodd" d="M1357.5,1265.9c-1.7,23.6-5.2,26.8-27.7,28.6c22.5,1.8,25.9,5.1,27.7,28.6c1.7-23.6,5.2-26.8,27.7-28.6&#xD;&#xA;			C1362.7,1292.7,1359.2,1289.5,1357.5,1265.9L1357.5,1265.9z M1448.9,1328c-0.9,12.6-2.8,14.3-14.8,15.3c12,1,13.9,2.7,14.8,15.3&#xD;&#xA;			c0.9-12.6,2.8-14.3,14.8-15.3C1451.6,1342.4,1449.8,1340.6,1448.9,1328L1448.9,1328z M1408.9,1231.2c-0.9,12.7-2.8,14.5-15,15.5&#xD;&#xA;			c12.2,1,14,2.7,15,15.5c0.9-12.7,2.8-14.5,15-15.5C1411.7,1245.7,1409.8,1243.9,1408.9,1231.2z" fill="#fff" fill-rule="evenodd"/>
  <g>
    <path clip-rule="evenodd" d="M659.7,511.3h634c49.5,0,90,40.5,90,90v871.5c0,49.5-40.5,90-90,90h-634c-49.5,0-90-40.5-90-90V601.3&#xD;&#xA;				C569.7,551.8,610.2,511.3,659.7,511.3z" fill="#8ab9e8" fill-rule="evenodd"/>
    <path clip-rule="evenodd" d="M659.7,536.8h634c35.5,0,64.6,29,64.6,64.6v871.5c0,35.5-29,64.6-64.6,64.6h-634c-35.5,0-64.6-29-64.6-64.6&#xD;&#xA;				V601.3C595.2,565.8,624.2,536.8,659.7,536.8z" fill="#d1e4f6" fill-rule="evenodd"/>
    <rect clip-rule="evenodd" fill="#eef8fb" fill-rule="evenodd" height="657.7" transform="matrix(.00792 -1 1 .00792 -39.055 1969.961)" width="899" x="523.8" y="675.8"/>
    <path clip-rule="evenodd" d="M819.2,471.6h111.5v-23.5c0-25.3,20.7-46,46-46l0,0c25.3,0,46,20.7,46,46v23.5h111.5&#xD;&#xA;				c15.3,0,27.8,12.5,27.8,27.8v52.9c0,15.3-12.5,27.8-27.8,27.8h-315c-15.3,0-27.8-12.5-27.8-27.8v-52.9&#xD;&#xA;				C791.4,484.1,803.9,471.6,819.2,471.6L819.2,471.6z M976.7,429.6c-11.2,0-20.3,9.1-20.3,20.3c0,11.2,9.1,20.3,20.3,20.3&#xD;&#xA;				c11.2,0,20.3-9.1,20.3-20.3C997.1,438.7,987.9,429.6,976.7,429.6z" fill="#8ab9e8" fill-rule="evenodd"/>
    <path clip-rule="evenodd" d="M835,707.2h425.5c1.6,0,3,1.4,3,3.2l0,0c0,1.8-1.3,3.2-3,3.2H835c-1.6,0-3-1.4-3-3.2l0,0&#xD;&#xA;			C832,708.7,833.4,707.2,835,707.2z" fill="#8ab9e8" fill-rule="evenodd"/>
    <path clip-rule="evenodd" d="M800.3,900.9h460c1.8,0,3.2,1.4,3.2,3.2l0,0c0,1.8-1.5,3.2-3.2,3.2h-460c-1.8,0-3.2-1.4-3.2-3.2l0,0&#xD;&#xA;			C797.1,902.4,798.5,900.9,800.3,900.9z" fill="#8ab9e8" fill-rule="evenodd"/>
    <path clip-rule="evenodd" d="M715.7,900.2c0-10.9,8.8-19.7,19.7-19.7c10.9,0,19.7,8.8,19.7,19.7c0,10.9-8.8,19.7-19.7,19.7&#xD;&#xA;				C724.6,919.9,715.7,911.1,715.7,900.2L715.7,900.2z M735.5,923.3c12.8,0,23.1-10.3,23.1-23.1c0-12.8-10.4-23.1-23.1-23.1&#xD;&#xA;				s-23.1,10.4-23.1,23.1C712.3,913,722.7,923.3,735.5,923.3z" fill="#98c4f1" fill-rule="evenodd"/>
    <path clip-rule="evenodd" d="M735.5,889.6c-5.9,0-10.7,4.8-10.7,10.7c0,5.9,4.8,10.7,10.7,10.7c5.9,0,10.7-4.8,10.7-10.7&#xD;&#xA;				C746.1,894.3,741.4,889.6,735.5,889.6z" fill="#8ab9e8" fill-rule="evenodd"/>
    <path clip-rule="evenodd" d="M800.3,997.8h373.9c1.8,0,3.2,1.4,3.2,3.2l0,0c0,1.8-1.5,3.2-3.2,3.2H800.3c-1.7,0-3.2-1.4-3.2-3.2l0,0&#xD;&#xA;			C797.1,999.2,798.5,997.8,800.3,997.8z" fill="#8ab9e8" fill-rule="evenodd"/>
    <path clip-rule="evenodd" d="M715.7,997.1c0-10.9,8.8-19.7,19.7-19.7c10.9,0,19.7,8.8,19.7,19.7c0,10.9-8.8,19.7-19.7,19.7&#xD;&#xA;				C724.6,1016.8,715.7,1008,715.7,997.1L715.7,997.1z M735.5,1020.2c12.8,0,23.1-10.3,23.1-23.1c0-12.8-10.4-23.1-23.1-23.1&#xD;&#xA;				s-23.1,10.4-23.1,23.1C712.3,1009.8,722.7,1020.2,735.5,1020.2z" fill="#98c4f1" fill-rule="evenodd"/>
    <path clip-rule="evenodd" d="M735.5,986.4c-5.9,0-10.7,4.8-10.7,10.7c0,5.9,4.8,10.7,10.7,10.7c5.9,0,10.7-4.8,10.7-10.7&#xD;&#xA;				C746.1,991.2,741.4,986.4,735.5,986.4z" fill="#8ab9e8" fill-rule="evenodd"/>
    <path clip-rule="evenodd" d="M800.3,1094.7h281.6c1.8,0,3.2,1.4,3.2,3.2l0,0c0,1.8-1.5,3.2-3.2,3.2H800.3c-1.7,0-3.2-1.4-3.2-3.2l0,0&#xD;&#xA;			C797.1,1096.1,798.5,1094.7,800.3,1094.7z" fill="#8ab9e8" fill-rule="evenodd"/>
    <path clip-rule="evenodd" d="M715.7,1093.9c0-10.9,8.8-19.7,19.7-19.7c10.9,0,19.7,8.8,19.7,19.7c0,10.9-8.8,19.7-19.7,19.7&#xD;&#xA;				C724.6,1113.6,715.7,1104.8,715.7,1093.9L715.7,1093.9z M735.5,1117c12.8,0,23.1-10.3,23.1-23.1c0-12.8-10.4-23.1-23.1-23.1&#xD;&#xA;				s-23.1,10.4-23.1,23.1C712.3,1106.7,722.7,1117,735.5,1117z" fill="#98c4f1" fill-rule="evenodd"/>
    <path clip-rule="evenodd" d="M735.5,1083.3c-5.9,0-10.7,4.8-10.7,10.7c0,5.9,4.8,10.7,10.7,10.7c5.9,0,10.7-4.8,10.7-10.7&#xD;&#xA;				C746.1,1088,741.4,1083.3,735.5,1083.3z" fill="#8ab9e8" fill-rule="evenodd"/>
    <path clip-rule="evenodd" d="M800.3,1191.5h460c1.8,0,3.2,1.4,3.2,3.2l0,0c0,1.8-1.5,3.2-3.2,3.2h-460c-1.8,0-3.2-1.4-3.2-3.2l0,0&#xD;&#xA;			C797.1,1193,798.5,1191.5,800.3,1191.5z" fill="#8ab9e8" fill-rule="evenodd"/>
    <path clip-rule="evenodd" d="M715.7,1190.8c0-10.9,8.8-19.7,19.7-19.7c10.9,0,19.7,8.8,19.7,19.7c0,10.9-8.8,19.7-19.7,19.7&#xD;&#xA;				C724.6,1210.5,715.7,1201.7,715.7,1190.8L715.7,1190.8z M735.5,1213.9c12.8,0,23.1-10.4,23.1-23.1c0-12.8-10.4-23.1-23.1-23.1&#xD;&#xA;				s-23.1,10.4-23.1,23.1C712.3,1203.5,722.7,1213.9,735.5,1213.9z" fill="#98c4f1" fill-rule="evenodd"/>
    <path clip-rule="evenodd" d="M735.5,1180.1c-5.9,0-10.7,4.8-10.7,10.7c0,5.9,4.8,10.7,10.7,10.7c5.9,0,10.7-4.8,10.7-10.7&#xD;&#xA;				C746.1,1184.9,741.4,1180.1,735.5,1180.1z" fill="#8ab9e8" fill-rule="evenodd"/>
    <path clip-rule="evenodd" d="M800.3,1288.4h417.1c1.8,0,3.2,1.4,3.2,3.2l0,0c0,1.8-1.5,3.2-3.2,3.2H800.3c-1.7,0-3.2-1.4-3.2-3.2l0,0&#xD;&#xA;			C797.1,1289.8,798.5,1288.4,800.3,1288.4z" fill="#8ab9e8" fill-rule="evenodd"/>
    <path clip-rule="evenodd" d="M715.7,1287.6c0-10.9,8.8-19.7,19.7-19.7c10.9,0,19.7,8.8,19.7,19.7c0,10.9-8.8,19.7-19.7,19.7&#xD;&#xA;				C724.6,1307.3,715.7,1298.5,715.7,1287.6L715.7,1287.6z M735.5,1310.8c12.8,0,23.1-10.3,23.1-23.1c0-12.8-10.4-23.1-23.1-23.1&#xD;&#xA;				s-23.1,10.3-23.1,23.1C712.3,1300.4,722.7,1310.8,735.5,1310.8z" fill="#98c4f1" fill-rule="evenodd"/>
    <path clip-rule="evenodd" d="M735.5,1277c-5.9,0-10.7,4.8-10.7,10.7c0,5.9,4.8,10.7,10.7,10.7c5.9,0,10.7-4.8,10.7-10.7&#xD;&#xA;				C746.1,1281.7,741.4,1277,735.5,1277z" fill="#8ab9e8" fill-rule="evenodd"/>
    <path clip-rule="evenodd" d="M800.3,1385.2h460c1.8,0,3.2,1.4,3.2,3.2l0,0c0,1.8-1.5,3.2-3.2,3.2h-460c-1.8,0-3.2-1.4-3.2-3.2l0,0&#xD;&#xA;			C797.1,1386.7,798.5,1385.2,800.3,1385.2z" fill="#8ab9e8" fill-rule="evenodd"/>
    <g>
      <path clip-rule="evenodd" d="M715.7,1384.5c0-10.9,8.8-19.7,19.7-19.7c10.9,0,19.7,8.8,19.7,19.7c0,10.9-8.8,19.7-19.7,19.7&#xD;&#xA;				C724.6,1404.2,715.7,1395.4,715.7,1384.5L715.7,1384.5z M735.5,1407.6c12.8,0,23.1-10.3,23.1-23.1c0-12.8-10.4-23.1-23.1-23.1&#xD;&#xA;				s-23.1,10.3-23.1,23.1C712.3,1397.3,722.7,1407.6,735.5,1407.6z" fill="#98c4f1" fill-rule="evenodd"/>
      <path clip-rule="evenodd" d="M735.5,1373.8c-5.9,0-10.7,4.8-10.7,10.7c0,5.9,4.8,10.7,10.7,10.7c5.9,0,10.7-4.8,10.7-10.7&#xD;&#xA;				C746.1,1378.6,741.4,1373.8,735.5,1373.8z" fill="#8ab9e8" fill-rule="evenodd"/>
    </g>
    <path clip-rule="evenodd" d="M746.7,603.9h460c1.8,0,3.2,8.8,3.2,19.6l0,0c0,10.8-1.5,19.6-3.2,19.6h-460c-1.8,0-3.2-8.8-3.2-19.6l0,0&#xD;&#xA;			C743.5,612.7,744.9,603.9,746.7,603.9z" fill="#8ab9e8" fill-rule="evenodd"/>
    <path clip-rule="evenodd" d="M695.5,705.3h101.7c0.4,0,0.7,25.7,0.7,57.1l0,0c0,31.5-0.3,57.1-0.7,57.1H695.5c-0.4,0-0.7-25.7-0.7-57.1&#xD;&#xA;			l0,0C694.8,731,695.1,705.3,695.5,705.3z" fill="#8ab9e8" fill-rule="evenodd"/>
    <path clip-rule="evenodd" d="M835,733.7h425.5c1.6,0,3,1.4,3,3.2l0,0c0,1.8-1.3,3.2-3,3.2H835c-1.6,0-3-1.4-3-3.2l0,0&#xD;&#xA;			C832,735.2,833.4,733.7,835,733.7z" fill="#8ab9e8" fill-rule="evenodd"/>
    <path clip-rule="evenodd" d="M835,760.2h425.5c1.6,0,3,1.4,3,3.2l0,0c0,1.8-1.3,3.2-3,3.2H835c-1.6,0-3-1.4-3-3.2l0,0&#xD;&#xA;			C832,761.6,833.4,760.2,835,760.2z" fill="#8ab9e8" fill-rule="evenodd"/>
    <path clip-rule="evenodd" d="M835,786.6h425.5c1.6,0,3,1.4,3,3.2l0,0c0,1.8-1.3,3.2-3,3.2H835c-1.6,0-3-1.4-3-3.2l0,0&#xD;&#xA;			C832,788.1,833.4,786.6,835,786.6z" fill="#8ab9e8" fill-rule="evenodd"/>
    <path clip-rule="evenodd" d="M834.3,813.1h326.6c1.3,0,2.3,1.4,2.3,3.2l0,0c0,1.8-1,3.2-2.3,3.2H834.3c-1.2,0-2.3-1.4-2.3-3.2l0,0&#xD;&#xA;			C832,814.5,833.1,813.1,834.3,813.1z" fill="#8ab9e8" fill-rule="evenodd"/>
  </g>
  <g>
    <path clip-rule="evenodd" d="M826.2,1113.7c4.3,0,10.4,4.6,4.6,7.2c-1.9,0.9-6.5,0.5-8.2-0.7c-0.8,4.6,10,5.6,9.7,10.2&#xD;&#xA;				c-0.6,8.6-43.2,3-39.2-22.3c0.9-5.4,5.2-1.6,9-1.3C827.6,1108.3,840.6,1103.8,826.2,1113.7z" fill="#ed7e63" fill-rule="evenodd"/>
    <path clip-rule="evenodd" d="M822.4,1069.1C853,1008,931.3,809.9,932.2,807.4c2.1-5.4,2-9-7-12.4c-56-20.9-40.9-37.6-79,80.6&#xD;&#xA;				c-49.4,11.9-38.8,114.1-48.5,189c-20.5,42.6-17.3,41.3-15.5,45.8c6.3,15.7,0.3,17.5,11.9,24.1c20.5,11.7,34.7,13.7,31.7,6.4&#xD;&#xA;				c-3.3-8.1-36.7-8.4-28.6-36c5.7-19.6,22.9-5.4,21.6,5.2c-0.3,2.7-3.2,9,1.3,15.1c0.6,0.8,1.8,0.9,2.4,0.1&#xD;&#xA;				C836.2,1109.2,826.7,1096.9,822.4,1069.1z" fill="#ffb17d" fill-rule="evenodd"/>
    <path clip-rule="evenodd" d="M970.7,693.7c0.4,29.1,10,50.6-43.5,75.8c31.8,43.8,63.2,60,63.2,60s67-30.2,90.1-50.1&#xD;&#xA;			c-28.3-20.6-48.9-23.1-48.4-50.7c0.1-6.7-0.2-33.8-0.4-34.3L970.7,693.7z" fill="#ffb17d" fill-rule="evenodd"/>
    <path clip-rule="evenodd" d="M982,716.2c10.7,7.2,23.4,5.7,36.2,2.2c13.8-3.8,38.6-42.7,32-93.7c-8.2-64-100.3-64.6-97.2,20.9&#xD;&#xA;			C953.9,668.9,962.5,703,982,716.2z" fill="#ffb17d" fill-rule="evenodd"/>
    <path clip-rule="evenodd" d="M1001.8,591.5c-1.1-1.7,14.7-16.9,15.8-19.3c3.8-12.6,36.5,4,43,17.1c5.4,15.5,0,75.9-15.4,94.1&#xD;&#xA;			c-0.8,1-1.1,2-2,2.7c6.5-15.4,7.7-57.5-3.3-64.3c-5.7-3.5-10.5-4.1-14.5-6.8C1007.1,602.6,1004,595.3,1001.8,591.5z" fill="#284190" fill-rule="evenodd"/>
    <path clip-rule="evenodd" d="M1026.3,576.9c0.5-3.2,0.2-6.2-1.7-10c-5.4,2.2-39.8-16.9-68.2,8.8c-0.8,0.8-1.5,1.8-2.2,2.7&#xD;&#xA;			c-2.1,3-4.3,7.6-6.4,13l9.9-6.1c-11.5,11.1-16.6,19.3-18.2,44.8c-1.2,19.1,4.2,34.6,20.8,54c-3-15.6-14-39,3.1-50.9l11.8-8.1&#xD;&#xA;			c6.6-4.5,16.5-5.9,28.3-10.7C1021,609.9,1024,591.3,1026.3,576.9z" fill="#284190" fill-rule="evenodd"/>
    <path clip-rule="evenodd" d="M1056,647.1c-9.6-2.8-10.2,17.3-10.2,27.3C1045.7,694,1071.1,651.5,1056,647.1z" fill="#ffb17d" fill-rule="evenodd"/>
    <path clip-rule="evenodd" d="M1053.9,656.9c-0.3-0.9-1.7-0.5-1.4,0.4c1.7,5.5,0,8.8-2.3,10c-0.4,0.2-0.5,0.6-0.3,1&#xD;&#xA;			C1051.3,670.6,1056.3,664.8,1053.9,656.9z" fill="#ffb17d" fill-rule="evenodd"/>
    <path clip-rule="evenodd" d="M948.8,646.8c9.6-2.8,10.2,17.3,10.2,27.3C959,693.7,933.6,651.2,948.8,646.8z" fill="#ffb17d" fill-rule="evenodd"/>
    <path clip-rule="evenodd" d="M1028.7,710.6c-0.4-0.3-1-0.2-1.3,0.2c-8.2,10.7-37.4,14.3-51.3-1c-0.8-0.9-2.1,0.4-1.3,1.2&#xD;&#xA;			C994.4,746,1033.4,720.3,1028.7,710.6z" fill="#ef8161" fill-rule="evenodd"/>
    <path clip-rule="evenodd" d="M938.9,1529c-9.7,4.9-22.5-7-22.5-7l-1.8-19.2l28.9-1.1L938.9,1529z" fill="#ffb17d" fill-rule="evenodd"/>
    <path clip-rule="evenodd" d="M867.1,1566.3c-8.9,1.3-12.8-1-14.3-3.7c-3.2-6,1.2-2.8,63.5-42.4c0,0,9.7,9.6,23.1,5.7&#xD;&#xA;			C961.8,1578.7,952.2,1553.5,867.1,1566.3z" fill="#284190" fill-rule="evenodd"/>
    <path clip-rule="evenodd" d="M1092,1529.4c-9,6.1-23.2-4-23.2-4l-4.2-18.9l28.5-4.7L1092,1529.4z" fill="#ffb17d" fill-rule="evenodd"/>
    <path clip-rule="evenodd" d="M1135.3,1570.6c15.4,4.3,17.8-4.9,13.3-8c-19.9-13.6-37.7-28.5-56.3-44c0,0-10.8,8.3-23.7,2.7&#xD;&#xA;			C1039.7,1570.9,1052.4,1547.1,1135.3,1570.6z" fill="#284190" fill-rule="evenodd"/>
    <path clip-rule="evenodd" d="M1112.4,1018.5c28.8-0.8-19.8,497.1-19.8,497.1c-9.8,3.2-18.2,5.6-28.4,4.8c-45-205.6-75.6-337.9-75.6-337.9&#xD;&#xA;			s-16,233.2-44.7,336.4c-15.9,3.7-28.3-6.4-28.3-6.4c-0.3-1.8-71.8-436.9-32.1-499.8L1112.4,1018.5z" fill="#4567c5" fill-rule="evenodd"/>
    <path clip-rule="evenodd" d="M1032.8,1070c0.8,0,0.5-26.7,0.5-26.1c0-0.7-5.8-0.4-5-0.4c-0.8,0-0.5,26.7-0.5,26&#xD;&#xA;			C1027.7,1070.4,1033.5,1070,1032.8,1070z" fill="#4362c4" fill-rule="evenodd"/>
    <path clip-rule="evenodd" d="M933.2,1068.2c0.8,0,0.5-26.7,0.5-26c0-0.7-5.8-0.4-5-0.4c-0.8,0-0.5,26.7-0.5,26.1&#xD;&#xA;			C928.2,1068.5,933.9,1068.2,933.2,1068.2z" fill="#4362c4" fill-rule="evenodd"/>
    <path clip-rule="evenodd" d="M1183.1,1113.7c-4.3,0-10.4,4.6-4.6,7.2c1.9,0.9,6.5,0.5,8.2-0.7c0.8,4.6-10,5.6-9.7,10.2&#xD;&#xA;				c0.6,8.6,43.2,3,39.2-22.3c-0.9-5.4-5.1-1.6-9-1.3C1181.7,1108.3,1168.6,1103.8,1183.1,1113.7z" fill="#ed7e63" fill-rule="evenodd"/>
    <path clip-rule="evenodd" d="M1186.8,1069.1C1156.3,1008,1078,809.9,1077,807.4c-2.1-5.4-2-9,7-12.4c56-20.9,40.9-37.6,79,80.6&#xD;&#xA;				c49.4,11.9,38.8,114.1,48.5,189c20.5,42.6,17.3,41.3,15.5,45.8c-6.3,15.7-0.3,17.5-11.9,24.1c-20.5,11.7-34.7,13.7-31.7,6.4&#xD;&#xA;				c3.3-8.1,36.7-8.4,28.6-36c-5.7-19.6-22.9-5.4-21.6,5.2c0.3,2.7,3.2,9-1.3,15.1c-0.6,0.8-1.8,0.9-2.4,0.1&#xD;&#xA;				C1173.1,1109.2,1182.6,1096.9,1186.8,1069.1z" fill="#ffb17d" fill-rule="evenodd"/>
    <path clip-rule="evenodd" d="M1041.7,753.6c-16.8,40.8-70.5,40.2-86.6-0.8c-23.8,7.2-53.6,19.8-70.9,28.5c-0.8,1.9-5.9,2.4-6.4,4.4&#xD;&#xA;			c-30.4,115.1-41.2,299.5,15.3,297.7c73.7,9.8,215.5,6.8,228.4-5.1c62.5-96.9,6.7-197.6-7-304.9&#xD;&#xA;			C1114.5,773.3,1087.8,767.2,1041.7,753.6z" fill="#619fdf" fill-rule="evenodd"/>
    <path clip-rule="evenodd" d="M1020.1,576c-6.1-1.3-8.8-4.1-8.3-8.4c6.5-6.2,13.8-8.9,21.8-8.1C1029.5,561.2,1025,566.7,1020.1,576z" fill="#284190" fill-rule="evenodd"/>
    <path clip-rule="evenodd" d="M1007.2,576.1c5.5,2.9,9.4,2.5,11.7-1.1c-1.1-8.9-4.9-15.6-11.6-20.2&#xD;&#xA;			C1009.5,558.7,1009.4,565.8,1007.2,576.1z" fill="#284190" fill-rule="evenodd"/>
    <path clip-rule="evenodd" d="M957.3,750.5c13.5,19.5,27.6,29.6,40.8,29.7c13.2,0.1,28.3-8.8,42.3-28.1l7.5,3.3&#xD;&#xA;			c-15.5,21.3-34.1,32.2-49.9,32.1c-15.8-0.2-32.1-11.9-47.1-33.5L957.3,750.5z" fill="#4f8dcb" fill-rule="evenodd"/>
    <path clip-rule="evenodd" d="M1192,896.9c-19.5,26.4-51.4,47.4-78.8,57.2c-46.5-68.7-65.8-153.2-60.3-169.8&#xD;&#xA;			c-19.2-34.8-7.8-35.1,68.1-10.3C1146.1,782.3,1199.9,886.2,1192,896.9z" fill="#619fdf" fill-rule="evenodd"/>
    <path clip-rule="evenodd" d="M880.9,776.5C857.7,795.4,810,887,817.3,896.9c19.5,26.4,51.4,47.4,78.8,57.2&#xD;&#xA;			c46.5-68.7,65.8-153.2,60.3-169.7c-6.9-20.5,5.2-33.2-15.1-28.4C931.6,758.2,886.9,771.6,880.9,776.5z" fill="#619fdf" fill-rule="evenodd"/>
    <path clip-rule="evenodd" d="M1023.8,596.8c11.3,5.7,15.4,12.6,12.1,20.8c-16.1,8.9-31.9,10.5-47.4,4.8&#xD;&#xA;			C997.6,621.2,1009.4,612.7,1023.8,596.8z" fill="#284190" fill-rule="evenodd"/>
  </g>
  <g>
    <path clip-rule="evenodd" d="M774,898.6c2.9-7.7,6.4-12.2,10.6-13.4c9.4-4.2,20.7-10.2,27.9-15.4c2.9,3.6-2.4,8.6-10,12.5&#xD;&#xA;			c-2.6,3.2-5.1,4.2-6.8,5.2c9.4,2.6,13.2,7.3,11.4,14c-1.1,4.3-2.5,6.8-4.2,7.5c-0.8,0.3-2.6,0.9-4.3-1c-4.3,8.5-9.8,8.9-14.1,7.2&#xD;&#xA;			c-1.2,0.3-1.6,0.4-2.7,0.7C780.7,909.5,777.1,901.7,774,898.6z" fill="#ffb17d" fill-rule="evenodd"/>
    <path clip-rule="evenodd" d="M384.2,1504.5c0,0-9.4,9.2-9.6,12.5c-0.2,3.4-0.8,39.5,3,42.8c3.9,3.4,15.2,5.8,11.5,9.6&#xD;&#xA;			c-2.7,2.8-23.9,2.2-37.9,1.5c-4.1-0.3-9.2-32.8-10.8-37.6c-2.3-6.9-10.8-22.1-8.7-26.9c1.1-2.4,8.8-7.8,15.8-12.3&#xD;&#xA;			c7.4-4.8,14.5-15.4,14.5-15.4L384.2,1504.5z" fill="#ffb17d" fill-rule="evenodd"/>
    <path clip-rule="evenodd" d="M510.3,1527l-8.5,23.9c-0.6,3.8-3.1,13.1-3.1,16.5c0,12.9,58.2-10.9,45.1-16.7c-1.2-0.5-4.9-4.7-5.3-9&#xD;&#xA;			c-0.6-6.7,4.9-15.2,4.9-15.2L510.3,1527z" fill="#ffb17d" fill-rule="evenodd"/>
    <path clip-rule="evenodd" d="M590.5,1075.4l21.1,53.7c0,0,13.7,128.2,5.8,204.8c-3.4,32.1-75.8,203.8-75.8,203.8l-36-5.1l48.2-203.4&#xD;&#xA;			l-17.7-77.8L511,1097.8L590.5,1075.4z" fill="#3b5bb2" fill-rule="evenodd"/>
    <path clip-rule="evenodd" d="M491.4,1078.1l-18.1,59.8l-27.5,180.5l-92.9,168.8c0,0,14,21.2,29,24.5l131.9-170.6l71.5-213.6l-2.5-47.5&#xD;&#xA;			L491.4,1078.1z" fill="#4567c5" fill-rule="evenodd"/>
    <path clip-rule="evenodd" d="M347.9,1493.9c0,0,19.9,59.9,28.3,62.9c2.3,0.7,15,3.9,17,8.7l0.1,0.5c0.7,3-1.9,5.8-5.1,5.8H348&#xD;&#xA;			c0,0-5.7-26.9-8-38.7c0,0-12-28.9-10.6-31.5C330.7,1498.9,347.9,1493.9,347.9,1493.9z" fill="#284190" fill-rule="evenodd"/>
    <path clip-rule="evenodd" d="M495.5,1571.7l6.7-21c0,0,14,5.9,21,4.9c7-0.9,20.7-4.9,20.7-4.9c27.9,9.2,50.8,13.6,46.6,21H495.5z" fill="#284190" fill-rule="evenodd"/>
    <path clip-rule="evenodd" d="M483.8,1047.6c20.9,11.2,40.9,20.8,57.4,27.7c0,1.3,0.1,2.6,0.1,3.8c0,1.8,0.1,1.3,0.1,3&#xD;&#xA;			C524.9,1076.6,496.9,1058.4,483.8,1047.6z" fill="#6b809a" fill-rule="evenodd"/>
    <path clip-rule="evenodd" d="M571.4,886.6c23.6,4.7,57.9,19.6,101.7,38.6c27.6-9.1,62.1-19.3,101-27.5l0.1,0.1c1-0.8,8.6,16.1,9,17.5&#xD;&#xA;			l0.7,1.9c-32.4,20.5-64,32.5-108.9,44.7c-28.5-0.2-57.4,0.9-86.4-9.3c-0.4,81.6-5.9,117.8-16.6,129.6L571.4,886.6z" fill="#fb9674" fill-rule="evenodd"/>
    <path clip-rule="evenodd" d="M496.4,879.3c0.4,13.3-13.3,161.9-15.7,193.1c-1.8,23.5-7,58.3-7,58.3s91.5,5.7,125.8-7.7&#xD;&#xA;			c0,0-11.5-53.3-11.5-67.2c0-14-6.1-153.6-10.4-160.9c-4.4-7.3-13.1-11.4-29.7-15c-12.7-2.7-36.2-1.6-46.5-1&#xD;&#xA;			C498.3,879.1,496.4,879.3,496.4,879.3z" fill="#fff" fill-rule="evenodd"/>
    <path clip-rule="evenodd" d="M590.5,895.9c-25.7-12.3-41.5-20.7-47.6-22.3c0.8,4.1,7.5,9.8,8.3,13.9c28.9,155.6,21.3,268.7,14.6,359.1&#xD;&#xA;			c35.1-0.5,55.6-0.2,55.6-0.2c0-28.3-4.3-55.5-4.6-80.5C615,1022,604.8,931.6,590.5,895.9z" fill="#fb9674" fill-rule="evenodd"/>
    <path clip-rule="evenodd" d="M571.6,912.6c4.1,24.3,1.4,41.9-0.8,57v0c-2.4,15.8-4.3,28.7,2.7,43.4c5.3,11.1,14.2,17.5,22.5,23.4&#xD;&#xA;			c13.6,9.7,25.6,18.3,20.5,43.5l-4.5-0.9c4.6-22.3-6.3-30.1-18.6-38.9c-8.7-6.2-18.1-12.9-24-25.2c-7.7-16-5.6-29.5-3.2-46.1h0&#xD;&#xA;			c2.2-14.8,4.8-32,0.8-55.5L571.6,912.6z" fill="#a3cffb" fill-rule="evenodd"/>
    <path clip-rule="evenodd" d="M567.4,916.8c-1.3-11.1-3.2-18.1-6.4-25.3c-3.7-8.3-8.7-13.8-14.9-16.7c-0.3-0.2-0.9-0.5-1.5-0.8&#xD;&#xA;			c-0.3-0.2-1.4-0.1-1.6-0.4c-0.8-1.2-0.6-3.8-0.6-4.5c1.2-0.1,4.6,0.8,5.7,1.3c7.4,3.4,13.1,9.7,17.3,19.1c3.5,7.8,5.4,14,6.7,25.9&#xD;&#xA;			c0.1,0.5,0,0.4-0.3,0.8l-3.7,1.3C567.4,917.3,567.4,917.5,567.4,916.8z" fill="#4f8dcb" fill-rule="evenodd"/>
    <path clip-rule="evenodd" d="M518.3,840.8l-8.5,38.2c0,0,18.4,47.4,31.5,44.3c11-2.6,7.1-43.7,7.1-43.7s-4.4-22.3-1.9-33.1&#xD;&#xA;				C549.1,835.8,518.3,840.8,518.3,840.8z" fill="#ffb17d" fill-rule="evenodd"/>
    <path clip-rule="evenodd" d="M546.6,846.5c2.5-10.8-28.2-5.7-28.2-5.7l-0.7,3.2c0.7,2.2,1.7,4.2,2.9,5.6c6.3,7.7,16.5,12.8,25.6,13.7&#xD;&#xA;				C545.7,857.3,545.5,851,546.6,846.5z" fill="#ef8161" fill-rule="evenodd"/>
    <path clip-rule="evenodd" d="M517,785.9c-0.8-0.4-9.8,43.4,0.8,56.4c10.6,12.9,32.5,18.4,41.1,9.3c4.2-4.5,13-17.2,8.5-32.6&#xD;&#xA;				c-4.6-15.6-3.8-31.1-13.1-38.7C537.4,766.7,517,785.9,517,785.9z" fill="#ffb17d" fill-rule="evenodd"/>
    <path clip-rule="evenodd" d="M527.6,820.2c-0.3,5.4-3,9.7-6.2,9.5c-3.1-0.1-5.5-4.6-5.2-10.1c0.3-5.4,3-9.6,6.2-9.5&#xD;&#xA;				C525.5,810.3,527.9,814.8,527.6,820.2z" fill="#ffb17d" fill-rule="evenodd"/>
    <path clip-rule="evenodd" d="M559,840.3c-29.8,8.6-48.6,8.3-56.2-0.7c-8.2-2.5-13.2-10.3-14.9-23.4c-7.3-20.2,2.2-51.1,13.3-34.8&#xD;&#xA;				c11.8-25.1,51.3-7.4,75-20.2c13.2,10,6.5,32-4,38.9C571,825.8,568.6,839.5,559,840.3z" fill="#284190" fill-rule="evenodd"/>
    <path clip-rule="evenodd" d="M494.5,783.8c3.3-2.2,4.5-4.8,3.6-7.8c-4.6-3-9.2-3.4-13.8-1.2C486.9,775.2,490.3,778.1,494.5,783.8z" fill="#284190" fill-rule="evenodd"/>
    <path clip-rule="evenodd" d="M500.9,777.4c-2.4,2.4-4.5,2.8-6.3,1.2c-0.8-4.8,0.1-8.9,2.9-12.3C497.1,768.7,498.2,772.4,500.9,777.4z" fill="#284190" fill-rule="evenodd"/>
    <path clip-rule="evenodd" d="M515.6,789.2c-5.3-2.5-9.5-2.1-12.6,1.3c-0.3,8.2,2.8,25.1,9.1,29.1C513.3,818.9,514.2,801.5,515.6,789.2z" fill="#284190" fill-rule="evenodd"/>
    <path clip-rule="evenodd" d="M518.2,781.4c-9.6,3.9-12.9,7.7-10,11.6c13.9,3,27.4,2.4,40.5-1.8C540.9,791.3,530.8,788.1,518.2,781.4z" fill="#284190" fill-rule="evenodd"/>
    <path clip-rule="evenodd" d="M571.7,798.9c-9.8-11.3-29.5-13.9-57.5-5.8c-17-5.4-20.3-13.7-12.2-26.2c11.5-17.7,32.9-1.6,61.4-17.1&#xD;&#xA;				C561.5,763.2,601.4,777.5,571.7,798.9z" fill="#284190" fill-rule="evenodd"/>
    <path clip-rule="evenodd" d="M505.4,803.5c7.3-1.1,5.7,13.8,4.6,21.1C508,839.1,493.9,805.2,505.4,803.5z" fill="#ffb17d" fill-rule="evenodd"/>
    <path clip-rule="evenodd" d="M513.2,877.5c-1.3-4.4,0.7-23.1,0.6-29.4c-0.7-2.4-1.3-5.5-2-9.2c-14.8-11.5-16.3-19.4-4.8-23.7&#xD;&#xA;				c2.2,1.4,4.7,5.5,7.6,12.3c2.7,0.1,4.8-1.2,6.4-3.7c-2.5-11.3-3.9-20.4-4.4-27.4c8.4-10.8,26.3-11.2,49.7-6.6&#xD;&#xA;				c0.7,6.4,1.1,13.1,1.3,20.1c2.8,2.9,8.3,48.7-20.8,48.6c-0.4,3.3-0.4,7.4-0.2,7.9c0.3,0.7-4.4,8.1-2.8,8.8&#xD;&#xA;				C542.6,871.4,537.1,955.5,513.2,877.5z" fill="#ffb17d" fill-rule="evenodd"/>
    <path clip-rule="evenodd" d="M566.3,789.9c-23.4-4.6-41.3-4.2-49.7,6.6c0.5,7,2,16.1,4.4,27.4c-1.6,2.5-3.7,3.8-6.4,3.7&#xD;&#xA;				c-2.9-6.8-5.5-10.9-7.6-12.3c-11.6,4.3-10,12.2,4.8,23.7c0.7,3.7,1.3,6.7,2,9.2c-13.7-4.1-24.5-17.3-25.8-22.8&#xD;&#xA;				C474,792.3,493,780,503,775.7c6.4-31.4,50.5-0.3,74.6-14C585.8,775,573.5,790.1,566.3,789.9z" fill="#284190" fill-rule="evenodd"/>
    <path clip-rule="evenodd" d="M531.5,854.3c3.6,2.1,8.7,3.5,15.3,4.3c-0.3,2.2-0.4,4.8-0.3,6.4C540,863.3,535,859.7,531.5,854.3z" fill="#ef8161" fill-rule="evenodd"/>
    <path clip-rule="evenodd" d="M563.5,781.9c3.4,3,4.3,6.1,2.8,9.2c-5.7,2.7-10.9,2.4-15.6-0.7C553.7,790.4,558,787.5,563.5,781.9z" fill="#284190" fill-rule="evenodd"/>
    <path clip-rule="evenodd" d="M478.1,885.2c4.4-7.7,15.4-8.3,31.6-11.7c0.7,5.7,5,5.4,6.8,6.9c3.2,2.6,4,4.8,4.4,8.2&#xD;&#xA;			c22.3,180.9,16.7,303.6,2.3,363.3c-49.9-1.1-74.9-1.6-74.9-1.6C480.5,1088.6,490.4,967,478.1,885.2z" fill="#fb9674" fill-rule="evenodd"/>
    <path clip-rule="evenodd" d="M483.7,1049.5c18.8,10.1,36.9,18.8,51.7,25c0,1.2,0.1,2.3,0.1,3.5c0,1.6,0.1,1.1,0.1,2.7&#xD;&#xA;			C520.7,1075.7,495.5,1059.3,483.7,1049.5z" fill="#ef6a30" fill-rule="evenodd"/>
    <path clip-rule="evenodd" d="M604.4,957.2c0.4,3,0.8,6.1,1.2,9.2c-4.1-4.4-8.1-8.4-11.7-12C597.4,955.5,600.9,956.4,604.4,957.2z" fill="#ef6a30" fill-rule="evenodd"/>
    <g>
      <rect clip-rule="evenodd" fill="#4f8dcb" fill-rule="evenodd" height="99.9" transform="rotate(-60.271 596.458 1073.133)" width="142.4" x="525.3" y="1023.2"/>
      <rect clip-rule="evenodd" fill="#1e77d0" fill-rule="evenodd" height="99.9" transform="rotate(-57.251 593.187 1070.31)" width="142.4" x="522" y="1020.4"/>
    </g>
    <path clip-rule="evenodd" d="M597.1,1059.3c-13.5,0.8-12.8,2.9-14.6,2.9c-2.1,0.1-25.7-13.7-25.7-13.7s-70.2-40.2-73.9-42.5l-15.8,28.6&#xD;&#xA;			c29.3,13.5,91.7,40.5,98.5,43.7c0,0,8.7,8.6,14.3,13.9c5.6,5.2,13.3,7.8,15.1,9.1c0.3,0.2,6.6,4,15.6,6.8c7.8,2.3,1.4-3.3,1.4-3.3&#xD;&#xA;			s-13.6-6.8-12.9-7.7c0.5-0.7,7.8,3.4,16.3,6.1c2.2,0.7,4.4,1.4,6.4,2c5.3,1.6,7.7-1,2.5-3.5c-1.8-0.9-5-2.3-7.3-3&#xD;&#xA;			c-2.5-0.7-4.6-2.2-6.7-3.2c-4-1.9-7-3.2-6.9-3.3c0.2-0.1-0.3-1.1,2-0.4c2.9,0.8,8.5,3.8,12.7,4.6c2.4,0.5,7.4,1.8,7.4,1.8&#xD;&#xA;			s7.9,0.7,8.1,0.2c1-2.3-4.3-4.2-7.6-4.5c-2.1-1.2-7.4-2.4-7.4-2.4s-10.1-4.8-9.5-6.2c0.3-0.6,6.9,1.7,13.7,2.9&#xD;&#xA;			c6.3,1.1,12.9,1.3,13.2,0.1c0.7-1.9-6.2-3.9-6.2-3.9s-4.8-1.1-6.5-1.6c-1.9-0.6-7.3-2.7-7.3-2.7s-18.7-8.4-17.9-9.7&#xD;&#xA;			c0.7-1.2,4-3.7,5.4-3.5c1.3,0.1,3.7,1.6,5,1.7c1.3,0.1,3.2-0.8,3.5-2.3c0.3-1.6-6-4.6-6-4.6S601,1059.1,597.1,1059.3z" fill="#ffb17d" fill-rule="evenodd"/>
    <path clip-rule="evenodd" d="M491.9,962.2c1.6-45-1.2-71.5-8.5-79.6c-18.2,5.1-32.1,19.9-41.7,44.6c-9.3,51.9-10.2,84.1-2.7,96.6&#xD;&#xA;			c52,32.1,112.7,60.8,129.2,60.5c1-8.9,4-15.1,4.9-31c-44.6-21.2-95.1-57.7-94.3-71C487.4,970.5,491.8,963.8,491.9,962.2z" fill="#fb9674" fill-rule="evenodd"/>
    <path clip-rule="evenodd" d="M498.6,924.8c-1.4-13-1.1-23.8,0.9-32.4c2-8.8,6.1-15.1,11.6-19.1c0,0,1.8-5.8,1.2-5.7&#xD;&#xA;			c-1.6,0.3-3.6,1.1-4.3,1.6c-6.6,4.7-11,12.1-13.3,22.1c-2.1,9.4-2.4,21.1-0.9,35.1c-9,5.4-12.7,13.7-11,24.8&#xD;&#xA;			c1.7,10.8,8.6,24.3,20.9,40.5c-0.1,0.4-0.2,0.8-0.2,1.3c0,2.3,1.9,4.2,4.2,4.2c2.3,0,4.2-1.9,4.2-4.2c0-2.3-1.9-4.2-4.2-4.2h-0.1&#xD;&#xA;			c-11.7-15.6-18.4-28.4-20-38.3c-1.5-9.3,1.8-16.1,9.6-20.4c2.8-0.7,5.5-1,7.9-1h0c5.6,0,10.2,1.9,13.9,5.6&#xD;&#xA;			c3.8,3.9,6.7,9.7,8.7,17.6c2,8.1,3.1,18.4,3.1,30.6c-1.1,0.8-1.8,2-1.8,3.4c0,2.3,1.9,4.2,4.2,4.2c2.3,0,4.2-1.9,4.2-4.2&#xD;&#xA;			c0-1.4-0.7-2.7-1.8-3.4c0-12.7-1.1-23.3-3.2-31.8c-2.2-8.8-5.5-15.4-10-19.9c-4.6-4.6-10.4-7-17.3-7h0&#xD;&#xA;			C503.1,924.2,500.9,924.4,498.6,924.8z" fill="#4f8dcb" fill-rule="evenodd"/>
  </g>
  <g>
    <circle clip-rule="evenodd" cx="1488" cy="1029.5" fill="#fff" fill-rule="evenodd" r="132.4"/>
    <path clip-rule="evenodd" d="M1488,895.2c66.5,0,121.6,48.3,132.4,111.7c-1.4-1.2-2.9-2.2-4.5-3c-11.9-59.8-64.6-104.9-127.9-104.9&#xD;&#xA;				c-17.1,0-33.4,3.3-48.3,9.2v-4.1C1454.7,898.4,1470.9,895.2,1488,895.2L1488,895.2z M1609.7,1086.2&#xD;&#xA;				c-20.9,44.8-65.8,76.2-118.1,77.6c0-1.3,0-2.6-0.2-3.8c50.5-1.3,93.8-31.3,114.4-74.3C1607,1085.9,1608.3,1086.1,1609.7,1086.2&#xD;&#xA;				L1609.7,1086.2z M1430.6,1150.9c-9.8-4.7-19-10.5-27.3-17.3c1-0.8,1.9-1.8,2.7-2.8c8.2,6.6,17.1,12.3,26.7,16.8&#xD;&#xA;				C1431.9,1148.7,1431.2,1149.8,1430.6,1150.9L1430.6,1150.9z M1356.6,1057.3c-9.8-46.4,5.5-94.6,40.6-126.8&#xD;&#xA;				c0.4,1.4,0.7,2.9,1.1,4.3c-33.4,31.7-47.6,78.4-37.6,123.2C1359.3,1057.7,1358,1057.4,1356.6,1057.3z" fill="#f17038" fill-rule="evenodd"/>
    <g>
      <path clip-rule="evenodd" d="M1546.9,1061.1c-1.6,27.8-12.3,53.4-28.2,59.7c-16,6.3-15.2-1.1-33.4-10.2c-18.2-9-30-21.3-38.2-40.7&#xD;&#xA;				c-2.9-7-4.6-14.5-5.3-21.8c-1.2-13.1,0.9-25.6,5.3-33.8c3.4-6.3,7.8-11.4,13.3-14.9c5.6-3.6,12.3-5.6,20.3-5.8&#xD;&#xA;				c3.6-0.1,7.1,0.3,10.5,1.1c11.9,2.7,22.9,9.6,30.8,12.9c4.8,2,8.8,4.8,12.3,8.3C1543.6,1025.4,1548,1040.6,1546.9,1061.1z" fill="#d1e4f6" fill-rule="evenodd"/>
      <path clip-rule="evenodd" d="M1514.1,1122.3L1514.1,1122.3L1514.1,1122.3L1514.1,1122.3z M1514.1,1122.3c0.4-0.1,0.9-0.3,1.4-0.4&#xD;&#xA;				c0.9-0.3,1.9-0.6,2.9-1C1516.8,1121.4,1515.4,1121.9,1514.1,1122.3L1514.1,1122.3z M1518.4,1120.8&#xD;&#xA;				C1518.4,1120.8,1518.4,1120.8,1518.4,1120.8C1518.4,1120.8,1518.4,1120.8,1518.4,1120.8&#xD;&#xA;				C1518.4,1120.8,1518.4,1120.8,1518.4,1120.8L1518.4,1120.8z M1518.6,1120.8C1518.6,1120.7,1518.6,1120.7,1518.6,1120.8&#xD;&#xA;				C1518.6,1120.7,1518.6,1120.7,1518.6,1120.8L1518.6,1120.8z M1485.6,1110.7C1485.5,1110.7,1485.5,1110.7,1485.6,1110.7&#xD;&#xA;				C1485.5,1110.7,1485.5,1110.7,1485.6,1110.7L1485.6,1110.7z M1485.2,1110.6L1485.2,1110.6c0,0-0.1,0-0.1-0.1&#xD;&#xA;				C1485.1,1110.5,1485.2,1110.6,1485.2,1110.6L1485.2,1110.6L1485.2,1110.6z M1485.1,1110.5&#xD;&#xA;				C1485.1,1110.5,1485.1,1110.5,1485.1,1110.5C1485.1,1110.5,1485.1,1110.5,1485.1,1110.5L1485.1,1110.5z M1485,1110.5&#xD;&#xA;				C1485,1110.5,1485,1110.5,1485,1110.5C1485,1110.5,1485,1110.5,1485,1110.5L1485,1110.5z M1485,1110.5&#xD;&#xA;				C1485,1110.5,1485,1110.4,1485,1110.5C1485,1110.4,1485,1110.5,1485,1110.5L1485,1110.5z M1484.9,1110.4&#xD;&#xA;				C1484.9,1110.4,1484.9,1110.4,1484.9,1110.4C1484.9,1110.4,1484.9,1110.4,1484.9,1110.4z" fill="#f5c1be" fill-rule="evenodd"/>
      <path clip-rule="evenodd" d="M1514.1,1122.3L1514.1,1122.3c-11.4,3.1-12.6-3.5-28.5-11.5c0,0,0,0,0,0c-0.1-0.1-0.2-0.1-0.3-0.2l0,0&#xD;&#xA;				c0,0-0.1,0-0.1-0.1l0,0c0,0,0,0,0,0c0,0,0,0,0,0c0,0,0,0,0,0c0,0,0,0,0,0c0,0,0,0,0,0c0,0,0,0,0,0c0,0,0,0,0,0&#xD;&#xA;				c-1.2-0.6-2.3-1.2-3.5-1.8c1.3-0.4,2.6-0.8,4.2-1.4c12.6-5,21.9-22,26.1-42.7c0.4-0.5,0.9-1.1,1.3-1.7c0.2-0.2,0.3-0.5,0.5-0.7&#xD;&#xA;				c0,0,0-0.1,0.1-0.1c0.3-0.4,0.5-0.7,0.8-1c0,0,0.1-0.1,0.1-0.1c0-0.1,0.1-0.1,0.1-0.2c0-0.1,0.1-0.1,0.1-0.2&#xD;&#xA;				c0-0.1,0.1-0.1,0.1-0.2c0-0.1,0.1-0.2,0.1-0.2c0-0.1,0.1-0.2,0.1-0.2c0-0.1,0.1-0.2,0.1-0.4c0.1-0.3,0.2-0.6,0.3-1&#xD;&#xA;				c0,0,0,0.1,0,0.1l0,0c0.4,2,0.9,4.4,0.9,6.9c0,1.9-0.4,5.6-1.1,8.7c-0.5,1-0.1,6.2-1.3,8c-0.6,1-6,4.1-5.5,5.3c0,0,0,0,0,0&#xD;&#xA;				c0.2,0,1.7-1.8,3.4-2.7c1.1-0.5,2.2-1,3-2.2c0.7-1.1,1-2.9,1.3-4.6c0.1-0.7,0.2-1.4,0.4-2.1c0.2,1.1,0.6,2.4,0.6,2.5&#xD;&#xA;				c0.2,2.2-0.6,5.3-1.4,7.3c-0.2,0.4-0.3,0.8-0.5,1.2c-0.2,0.6-0.4,1.3-0.6,2c-0.5,1.7-2.5,4.6-2.4,4.9c0,0,0,0,0,0&#xD;&#xA;				c0.4-0.1,2.7-2.7,3.2-4.4c0.2-0.7,0.4-1.4,0.6-1.9c0.1-0.4,0.3-0.7,0.5-1.1c0.6-1.4,1.3-2.4,1.7-4c0.3,1.5,0.4,2.5,0,3.9&#xD;&#xA;				c-0.1,0.2-1.7,3.7-1.8,4.6c-0.3,1.4,0.1,2.6,0.4,3.7c0.2,0.8,0.5,1.6,0.4,2.5c0,1.1-1.1,2.8-2.5,4.2c-1.2,1.1-3.5,1.8-3.5,2.1&#xD;&#xA;				c0,0.1,0.7,0,1.5-0.2c0.4-0.1,0.8-0.2,1.2-0.4l0,0c0,0,0,0,0.1,0c0.3-0.1,0.5-0.2,0.7-0.3c0,0,0,0,0,0c0.1,0,0.2-0.1,0.2-0.1&#xD;&#xA;				c0,0,0,0,0.1,0c0.1,0,0.1-0.1,0.2-0.1c0.1-0.1,0.3-0.3,0.4-0.5c0.1-0.1,0.2-0.2,0.2-0.3c0.1-0.1,0.1-0.2,0.2-0.3&#xD;&#xA;				c0.1-0.1,0.2-0.3,0.3-0.4c0,0,0-0.1,0.1-0.1c0.6-0.8,1.2-1.6,1.6-2c0,0,0.1-0.1,0.1-0.1c0.1-0.2,0.3-0.3,0.3-0.3c0,0,0,0,0.1,0&#xD;&#xA;				c0.7,1.2,2.9,2.7,3.6,3c0,0,0,0,0,0c0,0,0,0,0.1,0c0,0,0,0,0,0c0,0,0.1,0,0.1,0c0,0,0,0,0,0c0-0.3-2.4-2.3-3.1-3.6&#xD;&#xA;				c-0.5-0.9-0.9-1.6-1.4-1.9c-0.1-0.5-0.6-3.2-0.4-4.3c0.2-0.8,1.2-2.7,1.8-3c0.3,0.1,0.8,1.8,2.2,2.8c0.2,0.1,0.5,0.3,0.7,0.4&#xD;&#xA;				c0.1,0,0.1,0.1,0.2,0.1c0.2,0.1,0.4,0.2,0.6,0.3c0,0,0.1,0,0.1,0c0.2,0.1,0.5,0.2,0.7,0.2c0.1,0,0.1,0,0.2,0&#xD;&#xA;				c0.2,0.1,0.4,0.1,0.6,0.1c0,0,0.1,0,0.1,0c0.2,0,0.5,0.1,0.7,0.1c0,0,0.1,0,0.1,0c1,0.1,1.8,0,2.1-0.1c0.2,0,0.2-0.1,0.2-0.1&#xD;&#xA;				c-0.1-0.3-3.8-0.1-5.9-1.9c-0.8-0.7-1.6-2.8-1.9-4.4l0,0c0,0,0-0.1,0-0.1c0.5-6.2-2.5-10.9-2.6-12.5c-0.1-1,0.6-6,0.2-8.2&#xD;&#xA;				c0.8,0.7,0.9,1.1,1.7,2.2c0.4,0.5,0.7,0.9,1.1,1.3c0,0,0,0,0,0c0.4,0.4,0.7,0.7,1.1,1c0,0,0,0,0.1,0c0.4,0.3,0.7,0.5,1.1,0.7&#xD;&#xA;				c0,0,0,0,0.1,0c0.3,0.2,0.7,0.3,1,0.5l0,0l0,0c1,0.4,1.8,0.5,2.1,0.4c0,0,0.1,0,0.1-0.1c-0.1-0.3-4.6-2-5.9-4.5&#xD;&#xA;				c-0.8-1.5-1.5-4.5-2.7-5.2c0,0-0.1-0.7-0.2-1.6c0-0.1,0-0.2,0-0.2c0-0.2,0-0.3-0.1-0.5c0-0.1,0-0.3-0.1-0.4&#xD;&#xA;				c0-0.2-0.1-0.4-0.1-0.6c0-0.2-0.1-0.5-0.1-0.8c0-0.1,0-0.2-0.1-0.4c0-0.2-0.1-0.5-0.2-0.7c0-0.1,0-0.2-0.1-0.3&#xD;&#xA;				c-0.1-0.4-0.2-0.7-0.3-1.1c-0.8-2.9-0.8-7.6-0.8-7.6c1.9,3,3.8,3.9,6.3,5.3c0,0.1,0.8,3.7,1.7,5.2c0.5,0.9,2.5,4.1,3.1,4.9l0,0&#xD;&#xA;				c0,0.1,0.1,0.1,0.1,0.1l0,0c0,0,0.1,0,0.1,0c0,0-2.1-4.6-2.5-5.5c-0.8-1.5-0.9-3.5-1.2-4.2c0.1,0.1,4.3,3,5.8,4.5&#xD;&#xA;				c2.1,2,7.5,5.4,7.8,5.4c0,0,0,0,0,0c0,0,0,0,0,0l0,0c-0.4-0.5-5.1-3.7-7.1-5.9c-2.6-3-4.1-3.8-6.8-5.1v0c0,0,0,0-0.1,0&#xD;&#xA;				c-4.2-2.1-5.4-6.3-7.5-8c0-0.2-0.1-0.6-0.2-1.2c0,0,0-0.1,0-0.1c0-0.1-0.1-0.3-0.1-0.5c0-0.1-0.1-0.2-0.1-0.4&#xD;&#xA;				c0-0.1,0-0.2-0.1-0.3c0-0.1-0.1-0.3-0.1-0.4c0-0.1,0-0.1,0-0.2c0-0.1-0.1-0.3-0.1-0.4c0-0.1,0-0.1,0-0.2c0-0.1,0-0.1-0.1-0.1&#xD;&#xA;				c0-0.1,0-0.2,0-0.3c0.8,0.4,1.6,1,2.4,1.7c1.2,1,2.4,2,3.7,2.2c1.5,0.2,2.8,0.2,3.9,0.1c2.7-0.2,7.8,4.8,8,4.7&#xD;&#xA;				c0,0-0.7-0.8-1.8-1.8l0,0l0,0c-0.2-0.2-0.4-0.4-0.7-0.6c-0.1-0.1-0.1-0.1-0.2-0.2c-0.2-0.2-0.3-0.3-0.5-0.5&#xD;&#xA;				c-0.1-0.1-0.2-0.2-0.3-0.2c-0.2-0.1-0.3-0.3-0.5-0.4c-0.1-0.1-0.2-0.2-0.3-0.2c-0.2-0.2-0.4-0.3-0.6-0.4c-0.1,0-0.1-0.1-0.2-0.1&#xD;&#xA;				c-0.3-0.2-0.5-0.3-0.8-0.5c-0.1,0-0.1-0.1-0.2-0.1c-0.2-0.1-0.4-0.2-0.5-0.3c-0.1,0-0.2-0.1-0.2-0.1c-0.2-0.1-0.3-0.1-0.5-0.2&#xD;&#xA;				c-0.1,0-0.1,0-0.2-0.1c-0.2,0-0.4-0.1-0.6-0.1c-1.1,0.1-3.9-0.1-6.7-2.6c-0.8-0.7-2.1-1.8-3.2-2.5c-0.1-2.5-0.3-4.9-0.6-7.3&#xD;&#xA;				c2.3,2.5,4.8,4.1,4.9,4.1c0,0,0,0,0,0c0.1-0.2-2.8-2.5-5.1-5.4c-0.1-0.8-0.2-1.6-0.4-2.3c1.3,0.5,2.7,0.9,4.1,1.2&#xD;&#xA;				c1.6,0.4,4.4,1.3,4.6,1.2c0,0,0,0,0,0c0.1-0.3-2.8-1.8-4.6-2.2c-1.5-0.4-3.1-0.7-4.4-1.3c-0.6-3.3-1.5-6.3-2.6-9.1&#xD;&#xA;				c0.1,0,0.2,0,0.2,0l0,0c4.7,0.3,9.3-1.1,12.9,0.4c0.1,0,0.2,0.1,0.3,0.1l0,0c3.1,1.4,5.9,1.5,7.9,1c0,0,0.1,0,0.1,0&#xD;&#xA;				c7.2,9.6,10.4,23.5,9.4,41.4c-1.6,27.8-12.3,53.4-28.2,59.7c-1.7,0.7-3.2,1.2-4.5,1.5c-2.2,0.6-4,0.8-5.7,0.8&#xD;&#xA;				C1505.8,1123.1,1508.9,1123.7,1514.1,1122.3c0.4-0.1,0.9-0.3,1.4-0.4C1515,1122,1514.5,1122.1,1514.1,1122.3L1514.1,1122.3&#xD;&#xA;				L1514.1,1122.3z M1518.4,1120.8C1518.4,1120.8,1518.5,1120.8,1518.4,1120.8C1518.5,1120.8,1518.4,1120.8,1518.4,1120.8&#xD;&#xA;				C1518.4,1120.8,1518.4,1120.8,1518.4,1120.8L1518.4,1120.8z M1512.1,1062.3c0-0.1,0.1-0.1,0.1-0.2c1.6-2.4,1.4-6.7,2-9.9&#xD;&#xA;				c-0.2-1-0.4-2.3-0.5-3.6C1513.5,1053.3,1512.9,1057.9,1512.1,1062.3z" fill="#c2def9" fill-rule="evenodd"/>
      <path clip-rule="evenodd" d="M1518.4,1120.8C1518.4,1120.8,1518.4,1120.8,1518.4,1120.8C1518.4,1120.8,1518.4,1120.8,1518.4,1120.8&#xD;&#xA;				L1518.4,1120.8z M1518.5,1120.8C1518.5,1120.8,1518.5,1120.8,1518.5,1120.8C1518.5,1120.8,1518.5,1120.8,1518.5,1120.8&#xD;&#xA;				L1518.5,1120.8C1518.5,1120.8,1518.6,1120.8,1518.5,1120.8C1518.5,1120.8,1518.5,1120.8,1518.5,1120.8z" fill="#f7d0cf" fill-rule="evenodd"/>
      <path clip-rule="evenodd" d="M1518.5,1120.8C1518.5,1120.8,1518.5,1120.8,1518.5,1120.8C1518.5,1120.8,1518.5,1120.8,1518.5,1120.8&#xD;&#xA;				C1518.5,1120.8,1518.5,1120.8,1518.5,1120.8L1518.5,1120.8z M1518.5,1120.8L1518.5,1120.8L1518.5,1120.8z" fill="#eb544c" fill-rule="evenodd"/>
      <path clip-rule="evenodd" d="M1515.5,1121.9c0.9-0.3,1.9-0.6,2.9-1.1c0,0,0,0,0,0c0,0,0,0,0,0&#xD;&#xA;				C1517.3,1121.2,1516.4,1121.6,1515.5,1121.9L1515.5,1121.9z M1518.5,1120.8C1518.5,1120.8,1518.5,1120.8,1518.5,1120.8&#xD;&#xA;				C1518.5,1120.8,1518.5,1120.8,1518.5,1120.8L1518.5,1120.8z M1518.5,1120.8C1518.6,1120.8,1518.6,1120.7,1518.5,1120.8&#xD;&#xA;				c16-6.3,26.7-31.8,28.3-59.7c0.6-10-0.2-18.8-2.2-26.2l0,0c2,7.5,2.8,16.2,2.2,26.2C1545.3,1088.9,1534.6,1114.5,1518.5,1120.8&#xD;&#xA;				L1518.5,1120.8C1518.6,1120.7,1518.6,1120.7,1518.5,1120.8C1518.6,1120.8,1518.5,1120.8,1518.5,1120.8z" fill="#ee9e9a" fill-rule="evenodd"/>
      <path clip-rule="evenodd" d="M1514.1,1122.3c-5.2,1.4-8.3,0.8-11.6-1c1.6,0.1,3.5-0.2,5.7-0.8c1.4-0.4,2.8-0.9,4.5-1.5&#xD;&#xA;				c15.9-6.3,26.6-31.8,28.2-59.7c1-17.9-2.2-31.7-9.4-41.4c0.1,0,0.2-0.1,0.3-0.1c0.9-0.3,1.6-0.7,2.1-1.2c0.2-0.2,0.3-0.3,0.4-0.5&#xD;&#xA;				c4.7,4.9,8.1,11.1,10.2,18.7c2,7.5,2.8,16.2,2.2,26.2c-1.6,27.8-12.3,53.4-28.2,59.7c0,0-0.1,0-0.1,0l0,0c0,0,0,0,0,0&#xD;&#xA;				c0,0,0,0-0.1,0c0,0,0,0-0.1,0c-1.1,0.4-2,0.8-2.9,1.1C1515,1122,1514.5,1122.1,1514.1,1122.3z" fill="#a3cffb" fill-rule="evenodd"/>
      <path clip-rule="evenodd" d="M1449.4,1075.2c-0.2-0.3-0.3-0.6-0.5-1c-0.4-0.8-0.8-1.7-0.9-2c-1.5-3.5-2.7-6.9-3.7-10&#xD;&#xA;				c-0.7-2.3-1.2-4.6-1.6-6.9c0.3,0.1,0.5,0.2,0.7,0.1c1.2-0.3,0.9-4,0.5-10.7c-0.3-4,0.6-6,1.7-7.4c0.4,1.3,0.9,2.5,1.3,3.5&#xD;&#xA;				c-0.7,3.5,0.1,6.5,1.7,9.3c2.5,4.6,1.8,8.5,1.9,8.5c0,0,0.1,0,0.1,0c0,0,0.1,0,0.1-0.1v0l0,0c0,0,0.1-0.1,0.1-0.2c0,0,0,0,0,0&#xD;&#xA;				c0-0.1,0.1-0.1,0.1-0.2c0,0,0,0,0,0c0-0.1,0-0.1,0.1-0.2c0,0,0-0.1,0-0.1c0-0.1,0-0.1,0-0.1c0.7-2.5-0.3-5.1-1.3-7.9&#xD;&#xA;				c-0.9-2.4-1-3.9-1.1-6c0.8,1.4,0.9,1.5,2.6,3.3c1.3,1.3,2.8,2.4,3.8,3.9c1.2,1.8,2.8,3.8,5.3,5.6c0,0,0.1,0.1,0.1,0.1l0,0&#xD;&#xA;				c0.2,0.3,0.4,0.7,0.6,1.1C1452.3,1065,1449.6,1074.7,1449.4,1075.2L1449.4,1075.2z M1471.6,1054.1c2.2-0.6,4-1.7,4.1-4.5&#xD;&#xA;				c0.1-2.3-1-4.8-2.7-7.3c-0.2,0.1-0.5,0.2-0.7,0.3c-0.1,0-0.3,0.1-0.4,0.1c-0.3,0.1-0.5,0.2-0.8,0.3c-0.2,0.1-0.3,0.1-0.5,0.2&#xD;&#xA;				c-0.2,0.1-0.5,0.1-0.7,0.2c0,0,0,0-0.1,0c-0.2,0.1-0.4,0.1-0.6,0.1c-0.3,0.1-0.5,0.1-0.8,0.2c-0.2,0-0.4,0.1-0.6,0.1&#xD;&#xA;				c-0.3,0-0.6,0.1-0.8,0.1c-0.2,0-0.3,0-0.5,0.1c-0.5,0-0.9,0.1-1.4,0.1c-0.5,0-4.1-0.5-6.8,0.2c-0.1,0-0.2,0.1-0.3,0.1&#xD;&#xA;				c-2.4,0.8-3.8,1.9-3.7,2.8c0.4,1.1,1.4,1.7,2.2,2.9c1.2,1.8,2.8,3.2,4.2,4.5c0.5,0.5,1.3,1.1,2.4,1.7c0.7-0.4,1.4-0.7,2.2-0.9&#xD;&#xA;				c1-0.3,2.1-0.5,3.2-0.6C1469.6,1054.5,1470.6,1054.4,1471.6,1054.1L1471.6,1054.1z M1470.4,1042.3c0.7-0.2,1.5-0.4,2.1-0.7&#xD;&#xA;				c-1.4-2-3.2-4-5.1-6c-1,0.3-1.6,0.5-2.4,0.6c-0.7,0.1-3.5,0.6-4.1,0.7c0,0,0,0,0,0c-1.1,0.3-3,1.9-4.8,3.4&#xD;&#xA;				c-2.4,1.9-3.7,3.2-4.9,3.5c0,0-0.1,0-0.1,0c0,0.1,0,0.2,0.1,0.3c0,0,0,0.1,0.1,0.1c0,0.1,0.1,0.1,0.1,0.2c0,0,0,0.1,0.1,0.1&#xD;&#xA;				c0.1,0.1,0.1,0.2,0.2,0.2c0,0,0,0,0,0c0.1,0.1,0.2,0.2,0.3,0.2c0.2,0.1,0.3,0.2,0.3,0.3c0.3,0.1,0.7,0.1,1.1-0.1&#xD;&#xA;				c1.1-0.3,2.6-1.3,4.5-1.9c0.2-0.1,0.4-0.1,0.5-0.2c3-0.8,6.4-0.2,6.9-0.1C1467,1043,1468.7,1042.7,1470.4,1042.3L1470.4,1042.3z&#xD;&#xA;				 M1451.1,1041.8c1.3-0.4,3.2-1.5,4.3-2.3c2-1.6,3.9-3.2,5.2-3.6c0.1,0,0.2-0.1,0.3-0.1c0.5-0.1,1.1-0.3,1.6-0.3&#xD;&#xA;				c0.3-0.2,0.7-0.4,1.2-0.7c0.7-0.3,1.4-0.7,1.9-1.2c-5-5.2-10.4-10.4-12.5-15.2c-1.6,3-4.9,5.3-3.5,11.6c0.3,1.5,0.3,2.6,0,3.4&#xD;&#xA;				l0,0c-0.4,1-1.1,1.6-1.9,2.3c0.2,2.1,0.7,4.1,2.1,6c0,0.1,0.1,0.1,0.1,0.2c0,0,0,0,0,0c0.1,0,0.1,0.1,0.2,0.1&#xD;&#xA;				C1450.3,1042,1450.7,1042,1451.1,1041.8L1451.1,1041.8z M1466.8,1034.8c-0.5,0.1-0.9,0.2-1.4,0.2c0,0,0-0.1,0.1-0.1&#xD;&#xA;				c0,0,0.1,0,0.1-0.1c0.3-0.2,0.5-0.4,0.8-0.6C1466.5,1034.5,1466.6,1034.7,1466.8,1034.8z" fill="#c2def9" fill-rule="evenodd"/>
      <path clip-rule="evenodd" d="M1502.7,1011.8C1502.6,1011.8,1502.6,1011.8,1502.7,1011.8c-0.5-0.2-1.8-0.3-2.4-0.3c-1.8,0-4,0.1-5.5,0.5&#xD;&#xA;				c-1.1,0.3-2,0.7-3,1c-0.4,0.2-0.8,0.3-1.3,0.5c0.7-0.8,1.1-1.5,1.4-2.2c0.3-0.5,0.5-1.1,0.9-1.7c0.7-1,1.2-1.6,2.3-2.4&#xD;&#xA;				c0.1-0.1,0.2-0.2,0.4-0.3c0.1,0,0.1-0.1,0.2-0.1c0.1-0.1,0.2-0.1,0.2-0.2c0.1-0.1,0.2-0.1,0.3-0.2c0.1-0.1,0.1-0.1,0.2-0.2&#xD;&#xA;				c0.1-0.1,0.2-0.2,0.3-0.3c0,0,0.1-0.1,0.1-0.1c0.1-0.1,0.2-0.2,0.3-0.3c0,0,0.1,0,0.1-0.1c0.4-0.3,0.6-0.6,0.8-0.8&#xD;&#xA;				c0,0,0,0,0.1-0.1l0,0c0.1-0.1,0.1-0.2,0.1-0.2c-0.2-0.2-2.3,1.4-3.2,2c-1.1,0.7-2.2,1.5-3.1,2.7c-0.5,0.6-0.7,1.2-1,1.8&#xD;&#xA;				c-0.5,1-1.6,2.5-2.4,3.1c-0.1,0-8,2-11.5,4c0.8-1.8,1.1-3.8,1.4-5.6c0.6-3.5,1.7-6.4,4.1-9c0.2-0.2,0.8-1.3,0.6-1.1&#xD;&#xA;				c-0.2,0.2-0.3,0.3-0.5,0.5l0,0c-3.5,3.3-4.8,6.2-5.4,9.6c-0.5,3.1-1,6-3.6,8.6c-2.5,2.6-4.1,5-5.8,7.9c-0.3,0.6-0.6,1.3-0.9,2&#xD;&#xA;				c-0.4,1-0.8,2.1-1.4,2.7c-0.4,0.5-1.3,0.9-2,1.3c-0.5,0.2-0.9,0.5-1.2,0.7c-0.7,0.1-1.3,0.3-1.9,0.4c-1.3,0.4-3.2,2-5.2,3.6&#xD;&#xA;				c-1.4,1.1-4.2,2.6-5.2,2.4c-0.1,0-0.2-0.1-0.2-0.1c0,0,0,0,0,0c-0.1-0.1-0.1-0.1-0.1-0.2c-2.1-2.9-2.1-5.8-2.4-9.2&#xD;&#xA;				c0-0.2-0.2,0-0.5,0.3c-0.2,0.2-0.4,0.3-0.5,0.3c-0.3,0-1.8-0.2-1.7,0.1c0.2,2.4,1.6,5.7,2.4,7.8c-0.7,3.5,0.1,6.5,1.7,9.3&#xD;&#xA;				c2.5,4.6,1.8,8.5,1.9,8.5c0.1,0,0.1,0,0.2-0.1v0l0,0c0,0,0.1-0.1,0.1-0.2c0,0,0,0,0,0c0-0.1,0.1-0.1,0.1-0.2c0,0,0,0,0,0&#xD;&#xA;				c0-0.1,0-0.1,0.1-0.2c0,0,0-0.1,0-0.1c0-0.1,0-0.1,0-0.1c0.7-2.5-0.3-5.1-1.3-7.9c-0.9-2.4-1-3.9-1.1-6c0.8,1.4,0.9,1.5,2.6,3.3&#xD;&#xA;				c1.3,1.3,2.8,2.4,3.8,3.9c1.2,1.8,2.8,3.8,5.3,5.6c0,0,0.1,0.1,0.1,0.1l0,0c0.8,1.7,3.2,4.3,3.5,4.7c1.2,1.7,1.6,3.2,2.1,5.1&#xD;&#xA;				l0.2,0.6c0.4,1.7,1.3,4,2.8,5.7c0.8,0.9,1.9,1.5,2.9,2.2c1.2,0.8,3.4,2.8,3.6,2.8c0.1,0-0.6-2.1-2.9-3.6c-1-0.7-1.9-1.2-2.7-2&#xD;&#xA;				c-1.5-1.7-2.2-2.6-3-6.3c-1-4.7-3.1-5.9-3.5-7.6c3.2,1.9,5.1,2.6,8.3,3.9c13.4,5.6,20.9,18.1,21,18c0.3-0.2-1.1-2.4-1.1-2.4&#xD;&#xA;				c-2.8-3.6-5.4-6.9-8.6-9.9l0,0c-0.6-0.5-1.2-1-1.8-1.6c-0.1,0-0.1-0.1-0.2-0.1c-0.6-0.5-1.3-0.9-1.9-1.4&#xD;&#xA;				c-0.1-0.1-0.2-0.1-0.3-0.2c-0.7-0.4-1.4-0.9-2.1-1.3c-0.1-0.1-0.2-0.1-0.3-0.2h0c-0.1,0-0.1-0.1-0.2-0.1c0.9,0,1.9-0.1,2.9-0.3&#xD;&#xA;				c1.4-0.2,2.9-0.3,3.9-0.2c3.1,0.2,7.9,1.5,8,1.3c0.2-0.2-4.5-2.1-7.8-2.3c-1.1-0.1-2.6,0.1-4.2,0.2c-2,0.2-6.1-0.8-6.7-1&#xD;&#xA;				c-3.4-1.4-9.9-4.6-11.7-6.3c-1.4-1.4-3-2.8-4.2-4.5c-0.8-1.2-1.7-1.8-2.2-2.9c-0.1-0.8,1.3-2,3.7-2.8c2.6-0.9,6.6-0.3,7.1-0.3&#xD;&#xA;				c0.5,0,0.9,0,1.4-0.1c0.2,0,0.4,0,0.5-0.1c0.3,0,0.6-0.1,0.8-0.1c0.2,0,0.4-0.1,0.6-0.1c0.3-0.1,0.5-0.1,0.8-0.2&#xD;&#xA;				c0.2,0,0.4-0.1,0.6-0.1c0.3-0.1,0.5-0.1,0.8-0.2c0.2-0.1,0.3-0.1,0.5-0.2c0.3-0.1,0.6-0.2,0.8-0.3c0.1,0,0.3-0.1,0.4-0.1&#xD;&#xA;				c0.4-0.1,0.7-0.3,1.1-0.4c0,0,0,0,0.1,0c0.8-0.3,1.5-0.7,2.1-1c0,0,0,0,0,0l0,0c1.9-1,3-1.9,2.9-2c-0.1-0.1-1.1,0.5-2.7,1.3&#xD;&#xA;				c-2.6,1.2-6.6,2.8-10.5,2.7c-0.5,0-4.3-0.8-7.4,0.3c-2.5,0.9-4.3,2.3-5.6,2c0,0-0.1-0.1-0.3-0.3c-0.1-0.1-0.2-0.1-0.3-0.2&#xD;&#xA;				c0,0,0,0,0,0c-0.1-0.1-0.1-0.1-0.2-0.2c0,0-0.1-0.1-0.1-0.1c0-0.1-0.1-0.1-0.1-0.2c0,0,0-0.1-0.1-0.1c0-0.1-0.1-0.2-0.1-0.3&#xD;&#xA;				c1.3-0.3,2.6-1.5,5.1-3.6c1.8-1.5,3.7-3,4.8-3.4c0.5-0.2,3.5-0.7,4.2-0.7c1.4-0.2,2.3-0.6,5.8-1.4c0.4-0.1,0.8-0.1,1.2-0.2&#xD;&#xA;				c0.2,0,0.3,0,0.5-0.1c0.2,0,0.4-0.1,0.6-0.1c0.2,0,0.4,0,0.6,0c0.2,0,0.3,0,0.5,0c0.2,0,0.4,0,0.7,0c0.1,0,0.3,0,0.4,0&#xD;&#xA;				c0.3,0,0.5,0,0.8,0c0,0,0.1,0,0.1,0c0.3,0,0.6,0,0.8,0c0.1,0,0.2,0,0.3,0c0.1,0,0.2,0,0.3,0c0.1,0,0.1,0,0.2,0c0,0,0.1,0,0.1,0&#xD;&#xA;				c0,0,0,0,0,0c0,0,0,0,0,0c0,0,0.1,0,0.1,0c0.1-0.3-6.2-0.5-7.7-0.2c-2.3,0.5-3.6,0.9-4.8,1.1c0,0,0-0.1,0.1-0.1&#xD;&#xA;				c0,0,0.1,0,0.1-0.1c0.3-0.2,0.5-0.4,0.8-0.6h0c0.1-0.1,0.2-0.2,0.3-0.3c0.7-0.8,1.1-1.9,1.5-3c0.3-0.7,0.5-1.3,0.8-1.9&#xD;&#xA;				c1.6-2.8,3.1-5.2,5.6-7.7c0.5-0.5,0.9-1,1.3-1.5c3.2-3,12.7-4.8,12.7-4.8c1.4-0.3,2.5-0.8,3.6-1.2c0.9-0.4,1.8-0.7,2.8-1&#xD;&#xA;				c2-0.7,4-0.9,5.4-1c1.4,0,2.3,0,2.3-0.1C1502.8,1011.9,1502.7,1011.8,1502.7,1011.8z" fill="#8ab9e8" fill-rule="evenodd"/>
      <path clip-rule="evenodd" d="M1536.4,1063L1536.4,1063c-0.4-0.5-5.1-3.7-7.1-5.9c-2.6-3-4.1-3.8-6.8-5.1v0c0,0,0,0-0.1,0&#xD;&#xA;				c-4.2-2.1-5.4-6.3-7.5-8c0-0.2-0.1-0.6-0.2-1.2c0,0,0-0.1,0-0.1c0-0.1-0.1-0.3-0.1-0.5c0-0.1-0.1-0.2-0.1-0.4&#xD;&#xA;				c0-0.1,0-0.2-0.1-0.3c0-0.1-0.1-0.3-0.1-0.4c0-0.1,0-0.1,0-0.2c0-0.1-0.1-0.3-0.1-0.4c0-0.1,0-0.1,0-0.2c0-0.1-0.1-0.2-0.1-0.3&#xD;&#xA;				c0,0,0-0.1,0-0.1l0,0c0,0,0-0.1,0-0.1c0.8,0.4,1.7,1,2.6,1.8c1.2,1,2.4,2,3.7,2.2c1.5,0.2,2.8,0.2,3.9,0.1c2.7-0.2,7.8,4.8,8,4.7&#xD;&#xA;				c0,0-0.7-0.8-1.8-1.8l0,0l0,0c-0.2-0.2-0.4-0.4-0.7-0.6c-0.1-0.1-0.1-0.1-0.2-0.2c-0.2-0.2-0.3-0.3-0.5-0.5&#xD;&#xA;				c-0.1-0.1-0.2-0.2-0.3-0.2c-0.2-0.1-0.3-0.3-0.5-0.4c-0.1-0.1-0.2-0.2-0.3-0.2c-0.2-0.2-0.4-0.3-0.6-0.4c-0.1,0-0.1-0.1-0.2-0.1&#xD;&#xA;				c-0.3-0.2-0.5-0.3-0.8-0.5c-0.1,0-0.1-0.1-0.2-0.1c-0.2-0.1-0.4-0.2-0.5-0.3c-0.1,0-0.2-0.1-0.2-0.1c-0.2-0.1-0.3-0.1-0.5-0.2&#xD;&#xA;				c-0.1,0-0.1,0-0.2-0.1c-0.2,0-0.4-0.1-0.6-0.1c-1.1,0.1-3.9-0.1-6.7-2.6c-1.1-1-3.3-2.9-4.6-3.1c-0.3-0.6-1.4-3.5-1.8-5.3&#xD;&#xA;				c-0.7-2.6-1.9-6.1-3.4-8.4c-2-3.1-2.3-4.7-1.8-4.6c0.6,0.1,3.4,3.2,4,5c0.1,0.3,0.3,1.3,0.4,1.5c2.1,5.3,8.3,9.4,8.3,9.2&#xD;&#xA;				c0.1-0.3-5.2-4.4-7.1-8.6c1.5,1.1,3.7,1.6,5.7,2.1c1.7,0.4,4.6,1.3,4.6,1.2c0.1-0.3-2.8-1.8-4.6-2.2c-2.8-0.7-6.1-1.4-6.7-3.5&#xD;&#xA;				c-1-3.5-4.7-6.7-4.7-7.5c0,0,0-0.1,0-0.2c0,0,0,0,0,0c0-0.2,0-0.3,0.1-0.4l0,0c0.1-0.2,0.2-0.3,0.4-0.5c0.1-0.1,0.2-0.1,0.3-0.3&#xD;&#xA;				c0.2-0.2,0.2-0.5,0-0.7c-0.2-0.2-2.7-2-2.8-1.8c-0.2,0.2-0.3,0.3-0.4,0.5c-2.6,3.6,0.9,9.2,2.7,12c1.9,3,2.8,4.5,3.5,6.9&#xD;&#xA;				c-2.3,5.6-3.7,5.1-6.1,4.3c-0.6-0.2-1.2-0.5-1.9-0.5c-3.4-0.3-6.9,4.8-7.1,5.6c0,0,0,0.1,0,0.1c0,0,1-1,2.2-2&#xD;&#xA;				c1.5-1.4,3.5-2.9,4.9-2.6c0.6,0.1,1.2,0.3,1.8,0.5c2.4,0.8,4.4,2.3,6.8-1.7c0,0,0,0,0,0v0c0.4,1.3,1.4,3.3,2.9,5.9&#xD;&#xA;				c0.8,1.4,0.6,7.8,1.4,11c-0.6,3.2-0.5,7.5-2,9.9c-1.3,2-3,3.5-4.5,4.8c-1.9,1.7-3,5.2-2.7,5.2c0,0,0,0,0-0.1c0,0,0,0,0,0&#xD;&#xA;				c0.1-0.1,0.3-0.5,0.7-1.1c0,0,0.1-0.1,0.1-0.1c0.1-0.1,0.2-0.3,0.3-0.5c0.1-0.1,0.1-0.2,0.2-0.3c0.1-0.1,0.2-0.3,0.3-0.4&#xD;&#xA;				c0.1-0.1,0.2-0.2,0.3-0.4c0.1-0.1,0.2-0.2,0.3-0.3c0.1-0.1,0.2-0.3,0.3-0.4c0.1-0.1,0.2-0.2,0.2-0.3c0.2-0.2,0.4-0.4,0.6-0.6&#xD;&#xA;				c1.5-1.4,3.3-2.9,4.7-5c0.2-0.2,0.3-0.5,0.5-0.7c0,0,0-0.1,0.1-0.1c0.3-0.4,0.5-0.7,0.8-1c0,0,0.1-0.1,0.1-0.1&#xD;&#xA;				c0-0.1,0.1-0.1,0.1-0.2c0-0.1,0.1-0.1,0.1-0.2c0-0.1,0.1-0.1,0.1-0.2c0-0.1,0.1-0.2,0.1-0.2c0-0.1,0.1-0.2,0.1-0.2&#xD;&#xA;				c0-0.1,0.1-0.2,0.1-0.4c0.1-0.3,0.2-0.6,0.3-1c0,0,0,0.1,0,0.1l0,0c0.4,2,0.9,4.4,0.9,6.9c0,1.9-0.4,5.6-1.1,8.7&#xD;&#xA;				c-0.5,1-0.1,6.2-1.3,8c-0.6,1-6,4.1-5.5,5.3c0.1,0.1,1.6-1.8,3.4-2.6c1.1-0.5,2.2-1,3-2.2c0.7-1.1,1-2.9,1.3-4.6&#xD;&#xA;				c0.1-0.7,0.2-1.4,0.4-2.1c0.2,1.1,0.6,2.4,0.6,2.5c0.2,2.2-0.6,5.3-1.4,7.3c-0.2,0.4-0.3,0.8-0.5,1.2c-0.2,0.6-0.4,1.3-0.6,2&#xD;&#xA;				c-0.5,1.7-2.5,4.6-2.4,4.9c0.1,0.2,2.7-2.6,3.2-4.4c0.2-0.7,0.4-1.4,0.6-1.9c0.1-0.4,0.3-0.7,0.5-1.1c0.6-1.4,1.3-2.4,1.7-4&#xD;&#xA;				c0.3,1.5,0.4,2.5,0,3.9c-0.1,0.2-1.7,3.7-1.8,4.6c-0.3,1.4,0.1,2.6,0.4,3.7c0.2,0.8,0.5,1.6,0.4,2.5c0,1.1-1.1,2.8-2.5,4.2&#xD;&#xA;				c-1.2,1.1-3.5,1.8-3.5,2.1c0,0.2,1.6-0.2,2.8-0.6l0,0c0,0,0,0,0.1,0c0.3-0.1,0.5-0.2,0.7-0.3c0,0,0,0,0,0c0.1,0,0.2-0.1,0.2-0.1&#xD;&#xA;				c0,0,0,0,0.1,0c0.1,0,0.1-0.1,0.2-0.1c0.1-0.1,0.3-0.3,0.4-0.5c0.1-0.1,0.2-0.2,0.2-0.3c0.1-0.1,0.1-0.2,0.2-0.3&#xD;&#xA;				c0.1-0.1,0.2-0.3,0.3-0.4c0,0,0-0.1,0.1-0.1c0.6-0.8,1.2-1.6,1.6-2c0,0,0.1-0.1,0.1-0.1c0.2-0.2,0.3-0.4,0.4-0.3&#xD;&#xA;				c0.7,1.2,2.9,2.7,3.6,3c0,0,0,0,0,0c0,0,0,0,0.1,0c0,0,0,0,0,0c0.1,0,0.1,0,0.1,0c0-0.3-2.4-2.3-3.1-3.6&#xD;&#xA;				c-0.5-0.9-0.9-1.6-1.4-1.9c-0.1-0.5-0.6-3.2-0.4-4.3c0.2-0.8,1.2-2.7,1.8-3c0.3,0.1,0.8,1.8,2.2,2.8c0.2,0.1,0.5,0.3,0.7,0.4&#xD;&#xA;				c0.1,0,0.1,0.1,0.2,0.1c0.2,0.1,0.4,0.2,0.6,0.3c0,0,0.1,0,0.1,0c0.2,0.1,0.5,0.2,0.7,0.2c0.1,0,0.1,0,0.2,0&#xD;&#xA;				c0.2,0.1,0.4,0.1,0.6,0.1c0,0,0.1,0,0.1,0c0.2,0,0.5,0.1,0.7,0.1c0,0,0.1,0,0.1,0c1.4,0.1,2.4-0.1,2.4-0.2&#xD;&#xA;				c-0.1-0.3-3.8-0.1-5.9-1.9c-0.8-0.7-1.6-2.8-1.9-4.4l0,0c0,0,0-0.1,0-0.1c0.5-6.2-2.5-10.9-2.6-12.5c-0.1-1,0.6-6,0.2-8.2&#xD;&#xA;				c0.8,0.7,0.9,1.1,1.7,2.2c0.4,0.5,0.7,0.9,1.1,1.3c0,0,0,0,0,0c0.4,0.4,0.7,0.7,1.1,1c0,0,0,0,0.1,0c0.4,0.3,0.7,0.5,1.1,0.7&#xD;&#xA;				c0,0,0,0,0.1,0c0.3,0.2,0.7,0.3,1,0.5l0,0l0,0c1.3,0.5,2.2,0.5,2.1,0.4c-0.1-0.3-4.6-2-5.9-4.5c-0.8-1.5-1.5-4.5-2.7-5.2&#xD;&#xA;				c0,0-0.1-0.7-0.2-1.6c0-0.1,0-0.2,0-0.2c0-0.2,0-0.3-0.1-0.5c0-0.1,0-0.3-0.1-0.4c0-0.2-0.1-0.4-0.1-0.6c0-0.2-0.1-0.5-0.1-0.8&#xD;&#xA;				c0-0.1,0-0.2-0.1-0.4c0-0.2-0.1-0.5-0.2-0.7c0-0.1,0-0.2-0.1-0.3c-0.1-0.4-0.2-0.7-0.3-1.1c-0.8-2.9-0.8-7.6-0.8-7.6&#xD;&#xA;				c1.9,3,3.8,3.9,6.3,5.3c0,0.1,0.8,3.7,1.7,5.2c0.5,0.9,2.5,4.1,3.1,4.9l0,0c0,0.1,0.1,0.1,0.1,0.1l0,0c0,0,0.1,0,0.1,0&#xD;&#xA;				c0,0-2.1-4.6-2.5-5.5c-0.8-1.5-0.9-3.5-1.2-4.2c0.1,0.1,4.3,3,5.8,4.5C1530.8,1059.7,1536.5,1063.3,1536.4,1063&#xD;&#xA;				C1536.4,1063,1536.4,1063,1536.4,1063z" fill="#8ab9e8" fill-rule="evenodd"/>
      <path clip-rule="evenodd" d="M1453.3,1001c-10,11.8-12.1,18-22.5,17.9c1.9-3.5,1.8-5.3,1.3-7.2c-0.9-2.8-2.8-5.8-1.2-14.5&#xD;&#xA;				c2.5-13.5,0.8-20.1-4-25.1c-1.1-1.1-1.2-2.8-0.4-4.1c1.7-2.6,5.3-5.1,8.2-4.3c4.7,3.5,8.9,12.1,11,13.5c0.9-0.7,1.8-1.4,2.7-1.9&#xD;&#xA;				c3.8-2.4,7.2-3.2,7.2-3.2S1463.2,989.1,1453.3,1001z" fill="#86bdf4" fill-rule="evenodd"/>
      <path clip-rule="evenodd" d="M1433.6,964.9c0.5,0.6-0.5,2.4-2.3,4c-1.8,1.6-3.7,2.4-4.3,1.7c-0.5-0.6,0.5-2.4,2.3-4&#xD;&#xA;				C1431.1,965,1433.1,964.3,1433.6,964.9z" fill="#619fdf" fill-rule="evenodd"/>
      <path clip-rule="evenodd" d="M1435.3,993.4c-0.5,0.1-0.8-0.5-0.5-2.2c1.8-11.9-5.8-15.6-3.5-19.1c0.3-0.4,0.7-0.7,1.1-0.8&#xD;&#xA;				c3-0.8,8.9,5.5,7.3,12.7C1438.5,989.5,1436.4,993.1,1435.3,993.4z" fill="#a3cffb" fill-rule="evenodd"/>
      <path clip-rule="evenodd" d="M1429.2,971.6c-0.5,0.1-1,0.2-1.5,0.2c0.3,0,0.5-0.1,0.8-0.2c1.3-0.4,2.5-1.1,3.5-2c0.6-0.5,1.2-1.1,1.6-1.7&#xD;&#xA;				c0.5-0.6,0.9-1.3,1.2-2.1c-0.3,1.6-1.3,3-2.6,4.1C1431.4,970.6,1430.3,971.3,1429.2,971.6z" fill="#fff" fill-rule="evenodd"/>
      <path clip-rule="evenodd" d="M1453.3,1001c-10,11.8-12.1,18-22.5,17.9c1.9-3.5,1.8-5.3,1.3-7.2c2.3-2.4,3.6-6.4,5.3-13&#xD;&#xA;				c2.9-11.1,6.2-14.7,9-17.3c1.8-1.8,2.1-4.5,2-6.1c3.8-2.4,7.2-3.2,7.2-3.2S1463.2,989.1,1453.3,1001z" fill="#71aeec" fill-rule="evenodd"/>
      <path clip-rule="evenodd" d="M1512,990.1c-2.7,4.3,16.1,10.9,10.3,19.1c-0.3,0.4-0.7,0.7-1.1,0.8c-2.5,0.8-11.5,3.1-17.8-0.9&#xD;&#xA;				c-1.7-1.1-4.3-2.1-7.4-3.1c-10.7-3.3-27.4-5.2-31.8-1c-5.7,5.5-25.3,17.9-25.6,11.5c-0.2-2.9-0.3-5.6-0.3-8.1&#xD;&#xA;				c0.3-22.8,10.8-26.9,12.1-28.9c1.3-2.1,0.9-10.4-8.4-16.5c-0.9-0.6-1.3-1.8-0.7-2.8c2.2-4.3,5.6-5.3,6.9-5.6c0.3-0.1,0.7-0.1,1,0&#xD;&#xA;				c1.4,0.4,5.8,1.9,8.7,6.5c2.4,3.8,5,13.4,8,17.1c1.5,1.7,4.8,5.7,6,4.6c-2-8.7,1.9-25.6,2.9-32.7c0.2-1.3-2-2.3-2.3-4.7&#xD;&#xA;				c0-0.4,0-0.9,0.3-1.3c1.8-3.2,9.9-3.2,11.5-0.1c0.2,0.3,0.2,0.7,0.2,1.1c-0.7,10.8-0.6,15.7,5.7,18c0.1,0,0.2,0.1,0.2,0.1&#xD;&#xA;				c3.1,0.8,6.2,2.6,9,4.6c3.7,2.7,6.9,5.9,8.6,7.8c0.8,0.9,2.1,0.9,3,0.2c1.5-1.3,3.9-3.6,6.6-6.7c0.5-0.6,1.3-0.9,2.1-0.7&#xD;&#xA;				c2.4,0.5,5.5,2.4,7.4,4.8c0.7,0.9,1.2,1.8,1.5,2.8c0.2,0.7,0,1.5-0.5,2.1C1522.6,983.7,1514.7,985.9,1512,990.1z" fill="#86bdf4" fill-rule="evenodd"/>
      <path clip-rule="evenodd" d="M1473,1003.8c-3.9,0.2-7,0.9-8.6,2.4c-5.7,5.5-25.3,17.9-25.6,11.5c-0.2-2.9-0.3-5.6-0.3-8.1&#xD;&#xA;				c11.4,3.3,18.4,1.8,21.7-5.1c3.9-8.1,11.2-5.2,10.4-13.7c-0.8-8.5,6-21.1,24.6-24.8L1473,1003.8z" fill="#71aeec" fill-rule="evenodd"/>
      <path clip-rule="evenodd" d="M1496.3,1007.2c-6.9-2.1-16.3-3.7-23.3-3.4L1496.3,1007.2z" fill="#a61b1c" fill-rule="evenodd"/>
      <path clip-rule="evenodd" d="M1534.5,1015.9c-1.2,1.9-5.6,3.5-11,1c-3.7-1.7-8.4-0.1-13.2-0.5c-2.3-0.2-4.7-0.8-6.9-2.4&#xD;&#xA;				c-9.6-7.1-7.4-16.8,3.8-19.2c6.4-1.4,12.6-0.3,17,2.1c3.3,1.8,5.5,4.5,5.9,7.4C1531.1,1011.3,1535.7,1014.1,1534.5,1015.9z" fill="#71aeec" fill-rule="evenodd"/>
      <path clip-rule="evenodd" d="M1531.8,1017.8c0.9-0.3,1.6-0.7,2.1-1.2C1533.5,1017.1,1532.7,1017.5,1531.8,1017.8z" fill="#d33128" fill-rule="evenodd"/>
      <path clip-rule="evenodd" d="M1531.4,1017.9c-2,0.6-4.8,0.5-7.9-1l0,0c-0.1,0-0.2-0.1-0.3-0.1c-3.6-1.5-8.2,0-12.9-0.4l0,0&#xD;&#xA;				c-2.3-0.2-4.7-0.8-6.9-2.4c-2.3-1.7-3.9-3.5-4.9-5.4c0.8-0.6,1.4-1.1,1.8-1.7c0.9,1,2,2.1,3.3,3c2.2,1.7,4.6,2.3,6.9,2.4&#xD;&#xA;				c4.8,0.3,9.6-1.2,13.2,0.5c3.1,1.4,5.9,1.5,7.9,1c0.8-0.2,1.5-0.6,2.1-0.9c0.8,1.3,1.3,2.2,0.8,3c-0.1,0.2-0.3,0.4-0.5,0.6&#xD;&#xA;				c-0.5,0.5-1.2,0.9-2.1,1.2C1531.7,1017.8,1531.5,1017.9,1531.4,1017.9z" fill="#86bdf4" fill-rule="evenodd"/>
      <path clip-rule="evenodd" d="M1453.8,1016.4c-0.7,4.3-5.9,6-4.2,13.6c0.3,1.5,0.3,2.6,0,3.4c-1.2,3.2-6.2,2.4-5.6,11.4&#xD;&#xA;				c0.7,11.2,0.9,14-5.3,6.7c-6.2-7.3-11.7-9.2-11.7-18.8c0-3.3,0.4-6.6,1.2-9.5c0,0,0,0,0,0c1.6-5.7,5.1-10,11.2-10.2&#xD;&#xA;				C1452.3,1012.6,1454.5,1012.1,1453.8,1016.4z" fill="#a3cffb" fill-rule="evenodd"/>
      <path clip-rule="evenodd" d="M1443.8,1006.4c-1.9,0.5-3.3-4.3-1.2-7.5c6.1-9.1,11.4-9.8,10.1-15.2c-0.8-3.8-0.9-6.7,0.4-7.1&#xD;&#xA;				c0.6-0.2,1.5,0.2,2.7,1.2c4,3.2,12.1-1,6,6.1c-6.1,7.2-13.5,9.7-15.8,18.6C1445.5,1005.1,1444.6,1006.2,1443.8,1006.4z" fill="#a3cffb" fill-rule="evenodd"/>
      <path clip-rule="evenodd" d="M1483.4,968.8c-1.8,0.5-4.8-0.5-5.6-4.9c-1.2-6.5-1.3-13.8,0.3-14.2c0.2,0,0.3,0,0.5,0.1&#xD;&#xA;				c2.2,1,2.4,10.9,6,16.9C1485.2,967.6,1484.5,968.5,1483.4,968.8z" fill="#a3cffb" fill-rule="evenodd"/>
      <path clip-rule="evenodd" d="M1479.8,945.9c-0.4,0.1-0.8,0.2-1.2,0.2c-0.9,0.1-1.8,0.1-2.6-0.1c-0.9-0.1-1.7-0.5-2.5-0.8&#xD;&#xA;				c0.8,0.2,1.7,0.5,2.5,0.5c0.8,0.1,1.7,0.1,2.5,0c0.5,0,0.9-0.1,1.3-0.3c0.4-0.1,0.7-0.2,1.1-0.4c0.8-0.3,1.6-0.7,2.2-1.3&#xD;&#xA;				c-0.5,0.7-1.3,1.2-2.1,1.6C1480.7,945.6,1480.3,945.8,1479.8,945.9z" fill="#fff" fill-rule="evenodd"/>
      <path clip-rule="evenodd" d="M1449.5,1033.3c-1-8.2-8.7-14.6-16.9-12.3c-1.5,0.4-3,1.1-4.4,2.1c1.4-4.8,4-8.6,8.4-9.8&#xD;&#xA;				c0.8-0.2,1.8-0.4,2.7-0.4c10.5-0.3,13.9-0.6,14.5,1.5c0.1,0.5,0.1,1.2,0,2c-0.7,4.3-5.9,6-4.2,13.6&#xD;&#xA;				C1449.9,1031.5,1449.8,1032.5,1449.5,1033.3z" fill="#86bdf4" fill-rule="evenodd"/>
      <path clip-rule="evenodd" d="M1503,994.5c-0.1,0-0.1,0-0.2,0c-1.7,0-3.4,0.2-4.6-0.8c-1.4-1.1-1.3-3.4-0.4-4.9c0.9-1.5,2.5-2.5,4-3.5&#xD;&#xA;				c2.1-1.4,4.9-2.1,7.2-3.3c1.4-0.7,2.4-1.8,3.2-3.1c0.7-1.3,2.6-4.4,3.9-6.3c0.2-0.3,0.5-0.5,0.8-0.6c0.5-0.1,1.1,0,1.4,0.4&#xD;&#xA;				c1.4,1.5,3.9,3.9,6.6,5.3c2.7,1.4-5.2,4.5-8.9,6.2c-9.6,4.5-14.6,7.3-12.7,9.7C1503.6,993.9,1503.4,994.4,1503,994.5z" fill="#a3cffb" fill-rule="evenodd"/>
      <path clip-rule="evenodd" d="M1526.6,947.4c0.6,6.2,0.1,13-7,20.2c-1.1,1.1-2.3,2.1-3.6,3.2c-10.6,8.4-23.2,14.4-20,20.8&#xD;&#xA;				c3.2,6.3-0.8,8.4,4.5,12.5c5.2,4.1-22.1,15.4-22,11.1c0-2.1-2.2-1.2-4.5-0.3c-2.5,1-5,1.9-4.9-0.7c0-0.4,0-0.8-0.1-1.1&#xD;&#xA;				c-0.6-3.2-4.3-0.6,0.2-7.9c6.4-10.5,6.4-8.1,4.5-15.5c-1.9-7.3,1.5-11.2,14.4-19.3c12.9-8.1,22-11.9,23.2-23&#xD;&#xA;				C1514.3,943.7,1523.7,943.9,1526.6,947.4z" fill="#86bdf4" fill-rule="evenodd"/>
      <path clip-rule="evenodd" d="M1525.4,947.9c0,1-2.9,1.8-6.4,1.8c-3.5,0-6.4-0.8-6.4-1.9c0-1,2.9-1.8,6.4-1.8&#xD;&#xA;				C1522.5,946,1525.4,946.9,1525.4,947.9z" fill="#619fdf" fill-rule="evenodd"/>
      <path clip-rule="evenodd" d="M1478.1,1004.8c-1.7,0.5-2.5-0.9-1.5-3.4c3.8-9.4-8.2-11.9,3-21.9c11.2-10,26.7-14.3,30.9-21.7&#xD;&#xA;				c1.6-2.9,3.9-4.7,5.6-5.1c2.7-0.7,3.7,1.8-1.9,8.6c-9.2,11.1-32.1,17.6-31.5,23.4c0.6,5.8,6.5,7.6,1.2,14.8&#xD;&#xA;				C1481.6,1002.8,1479.5,1004.4,1478.1,1004.8z" fill="#a3cffb" fill-rule="evenodd"/>
      <path clip-rule="evenodd" d="M1522.3,950.9c-1.2,0.3-2.4,0.5-3.6,0.6c-1.3,0-2.5,0-3.8-0.4c-1.2-0.4-2.4-1.1-2.8-2.4&#xD;&#xA;				c0.6,1.1,1.8,1.8,2.9,2.1c1.2,0.3,2.4,0.4,3.7,0.3c1.2-0.1,2.5-0.2,3.7-0.5c0.2-0.1,0.4-0.1,0.7-0.2c1-0.3,2-0.6,2.7-1.3&#xD;&#xA;				c-0.9,0.9-2.1,1.4-3.3,1.7C1522.4,950.9,1522.3,950.9,1522.3,950.9z" fill="#fff" fill-rule="evenodd"/>
      <path clip-rule="evenodd" d="M1512.2,971.9c-0.2,0.1,0.1-0.3,1.1-1.3c2.7-2.6,6.7-8,8.9-11.6c0.7-1.1,1.6-3.7,2-3.8&#xD;&#xA;				c0.1,0,0.2,0.2,0.1,0.9c-0.2,2.8-1.2,4.7-8,12.4C1514.7,970.1,1512.5,971.8,1512.2,971.9z" fill="#a3cffb" fill-rule="evenodd"/>
      <path clip-rule="evenodd" d="M1519.6,967.6c-1.1,1.1-2.3,2.1-3.6,3.2c-10.6,8.4-23.2,14.4-20,20.8c3.2,6.3-0.8,8.4,4.5,12.5&#xD;&#xA;				c5.2,4.1-22.1,15.4-22,11.1c0.1-4.3-9.6,4-9.4-1c0-0.4,0-0.8-0.1-1.1c5.2,1.1,13.1-7.2,13.4-2.2c0.4,5.3,20-1.7,14.8-7.5&#xD;&#xA;				c-5.3-5.7-1.7-10.6-5.2-14.4c-3.5-3.8,4.8-9.3,12.2-12.1C1509.2,975.1,1515.2,971.3,1519.6,967.6z" fill="#71aeec" fill-rule="evenodd"/>
      <path clip-rule="evenodd" d="M1527,976.2c-0.9,0.2-1.7,0-2.6-0.3c-0.8-0.3-1.6-0.7-2.3-1.2c-0.7-0.5-1.3-1.2-1.8-1.9&#xD;&#xA;				c-0.5-0.7-0.9-1.5-1.2-2.3c0.4,0.8,0.9,1.5,1.4,2.1c0.5,0.7,1.1,1.3,1.8,1.8c0.7,0.5,1.4,0.9,2.2,1.3&#xD;&#xA;				C1525.3,975.9,1526.1,976.2,1527,976.2z" fill="#fff" fill-rule="evenodd"/>
      <path clip-rule="evenodd" d="M1443,962.5L1443,962.5c0.6-0.5,1.2-0.9,1.8-1.3c0.3-0.2,0.6-0.4,0.9-0.7c0.3-0.2,0.6-0.5,0.8-0.7&#xD;&#xA;				c0.3-0.3,0.5-0.5,0.7-0.8c0.2-0.3,0.4-0.6,0.6-0.9c0.2-0.3,0.4-0.6,0.5-0.9c0.2-0.3,0.3-0.7,0.4-1l0,0c0,0.8-0.2,1.5-0.6,2.2&#xD;&#xA;				c-0.2,0.3-0.4,0.7-0.7,0.9c-0.3,0.3-0.5,0.5-0.8,0.8c-0.3,0.2-0.6,0.5-0.9,0.7c-0.3,0.2-0.6,0.4-0.9,0.6&#xD;&#xA;				C1444.3,961.8,1443.7,962.2,1443,962.5z" fill="#fff" fill-rule="evenodd"/>
      <path clip-rule="evenodd" d="M1480.4,944.7c-0.6,0.2-1.3,0.3-2.1,0.4c-2.3,0.2-4.2-0.2-4.3-0.9c0-0.5,0.8-1,2-1.3&#xD;&#xA;				c0.6-0.2,1.3-0.3,2.1-0.4c2.3-0.2,4.2,0.2,4.3,0.9C1482.4,943.9,1481.6,944.3,1480.4,944.7z" fill="#619fdf" fill-rule="evenodd"/>
      <path clip-rule="evenodd" d="M1526.2,975.3c-0.7,0.2-2.3-0.5-3.8-1.7c-1.8-1.4-3-3-2.5-3.6c0.1-0.1,0.1-0.1,0.3-0.2&#xD;&#xA;				c0.7-0.2,2.3,0.5,3.8,1.7c1.8,1.4,3,3,2.5,3.6C1526.4,975.2,1526.3,975.3,1526.2,975.3z" fill="#619fdf" fill-rule="evenodd"/>
      <path clip-rule="evenodd" d="M1442.7,961.8c-0.3,0.1-0.6,0.1-0.8-0.1c-0.5-0.5,0.4-2.2,2-3.9c1.1-1.1,2.3-1.9,3.1-2.2&#xD;&#xA;				c0.3-0.1,0.6-0.1,0.8,0.1c0.5,0.5-0.4,2.2-2,3.9C1444.7,960.8,1443.5,961.6,1442.7,961.8z" fill="#619fdf" fill-rule="evenodd"/>
    </g>
  </g>
  <g>
    <circle clip-rule="evenodd" cx="1334.3" cy="1364.7" fill="#fff" fill-rule="evenodd" r="132.4"/>
    <path clip-rule="evenodd" d="M1334.3,1230.4c66.5,0,121.6,48.3,132.4,111.7c-1.4-1.2-2.9-2.2-4.5-3c-11.9-59.8-64.6-104.9-127.9-104.9&#xD;&#xA;				c-17.1,0-33.4,3.3-48.3,9.2v-4.1C1301,1233.6,1317.3,1230.4,1334.3,1230.4L1334.3,1230.4z M1456,1421.4&#xD;&#xA;				c-20.9,44.8-65.8,76.2-118.1,77.6c0-1.3,0-2.6-0.2-3.8c50.5-1.3,93.8-31.3,114.4-74.3C1453.3,1421.1,1454.7,1421.3,1456,1421.4&#xD;&#xA;				L1456,1421.4z M1276.9,1486.1c-9.8-4.7-19-10.5-27.3-17.3c1-0.8,1.9-1.8,2.7-2.8c8.2,6.6,17.1,12.3,26.7,16.8&#xD;&#xA;				C1278.2,1483.9,1277.5,1485,1276.9,1486.1L1276.9,1486.1z M1202.9,1392.5c-9.8-46.4,5.5-94.6,40.6-126.8c0.4,1.4,0.7,2.9,1.1,4.3&#xD;&#xA;				c-33.4,31.7-47.6,78.4-37.6,123.2C1205.7,1392.9,1204.3,1392.6,1202.9,1392.5z" fill="#f17038" fill-rule="evenodd"/>
    <g>
      <path clip-rule="evenodd" d="M1333.1,1413.4c48.4-24.5,53.9-50.9,16.5-79.2c-54.3-24.9-96.1,0-97.7,62c1.4,32,4,49.4,7.8,52.2&#xD;&#xA;				C1293.2,1435,1317.6,1423.4,1333.1,1413.4z" fill="#a3cffb" fill-rule="evenodd"/>
      <path clip-rule="evenodd" d="M1326.1,1326.3c4.7,14.8,3.4,31.6-4.6,51.5c0.9,18.4-5.3,32.1-15.7,33.6c-23.8,3.4-11.4-5.9-28,13.2&#xD;&#xA;				c-12.8,14.8-21.6,8.4-25.6-18.6c-0.2-3.1-0.3-6.4-0.5-9.9C1253.2,1343.4,1283.7,1317.6,1326.1,1326.3z" fill="#c2def9" fill-rule="evenodd"/>
      <path clip-rule="evenodd" d="M1381,1397.2c-14.5,14.6-17.8,13-34.5,19.4c-11.1,4.3-18.2,0.5-21.1-11.4c0-59.1,17.2-84.1,51.8-74.9&#xD;&#xA;				c24,1.7,40.7,2.4,49.8,2c8.1,3.9,7.3,11.5-2.4,22.8c-6.2,11.2-13.3,19.2-21.2,24.1C1389.7,1387.5,1393,1385.1,1381,1397.2z" fill="#c2def9" fill-rule="evenodd"/>
      <path clip-rule="evenodd" d="M1381,1397.2c-14.5,14.6-17.8,13-34.5,19.4c-1.8,0.7-3.5,1.2-5,1.5c-16.1-15.5-2-32.3,42.1-50.4&#xD;&#xA;				c11.7-4.8,19.1-1.3,29.4-12c5.2-5.4,9.9-13.2,14.4-23.3c7.7,4,6.8,11.5-2.7,22.6c-6.2,11.2-13.3,19.2-21.2,24.1&#xD;&#xA;				C1389.7,1387.5,1393,1385.1,1381,1397.2z" fill="#a3cffb" fill-rule="evenodd"/>
    </g>
  </g>
  <g>
    <circle clip-rule="evenodd" cx="1341.4" cy="650.9" fill="#fff" fill-rule="evenodd" r="132.4"/>
    <path clip-rule="evenodd" d="M1341.4,516.6c66.5,0,121.6,48.3,132.4,111.7c-1.4-1.2-2.9-2.2-4.5-3c-11.9-59.8-64.6-104.9-127.9-104.9&#xD;&#xA;				c-17.1,0-33.4,3.3-48.3,9.2v-4.1C1308.1,519.8,1324.4,516.6,1341.4,516.6L1341.4,516.6z M1463.2,707.6&#xD;&#xA;				c-20.9,44.8-65.8,76.2-118.1,77.6c0-1.3,0-2.6-0.2-3.8c50.5-1.3,93.8-31.3,114.4-74.3C1460.4,707.3,1461.8,707.5,1463.2,707.6&#xD;&#xA;				L1463.2,707.6z M1284,772.3c-9.8-4.7-19-10.5-27.3-17.3c1-0.8,1.9-1.8,2.7-2.8c8.2,6.6,17.1,12.3,26.7,16.8&#xD;&#xA;				C1285.3,770.1,1284.6,771.2,1284,772.3L1284,772.3z M1210,678.7c-9.8-46.4,5.5-94.6,40.6-126.8c0.4,1.4,0.7,2.9,1.1,4.3&#xD;&#xA;				c-33.4,31.7-47.6,78.4-37.6,123.2C1212.8,679.1,1211.4,678.8,1210,678.7z" fill="#f17038" fill-rule="evenodd"/>
    <path clip-rule="evenodd" d="M1371,664.1c-0.6,2-2.7,3.1-4.7,2.5c-2-0.6-3.1-2.7-2.5-4.7c3.9-12.7,4.1-24.4,0.5-35.3&#xD;&#xA;			c-3.6-10.9-11-20.9-22.3-30.2c-1.6-1.3-1.8-3.7-0.5-5.3c1.3-1.6,3.7-1.8,5.3-0.5c12.4,10.2,20.6,21.4,24.7,33.6&#xD;&#xA;			C1375.5,636.6,1375.4,649.9,1371,664.1z" fill="#619fdf" fill-rule="evenodd"/>
    <path clip-rule="evenodd" d="M1380.6,658.6c0.4,2-1,4-3,4.4c-2,0.4-4-1-4.4-3c-2.3-13.1-7.5-23.6-15.7-31.6c-8.2-8-19.4-13.6-33.6-16.6&#xD;&#xA;			c-2-0.4-3.3-2.4-2.9-4.5c0.4-2,2.4-3.3,4.5-2.9c15.7,3.4,28.1,9.6,37.3,18.6C1372.1,632,1378,643.9,1380.6,658.6z" fill="#d1e4f6" fill-rule="evenodd"/>
    <path clip-rule="evenodd" d="M1354.3,668.4c2,0.4,4-0.9,4.5-2.9c0.4-2-0.9-4-2.9-4.5c-13-2.7-23.4-8.3-31.1-16.6&#xD;&#xA;			c-7.8-8.4-12.9-19.8-15.5-34.1c-0.4-2-2.3-3.4-4.4-3c-2,0.4-3.4,2.3-3,4.4c2.9,15.8,8.7,28.4,17.4,37.9&#xD;&#xA;			C1328,659,1339.7,665.3,1354.3,668.4z" fill="#d1e4f6" fill-rule="evenodd"/>
    <path clip-rule="evenodd" d="M1393.6,688.8c2,0.4,4-0.9,4.5-2.9c0.4-2-0.9-4-2.9-4.5c-13-2.7-23.4-8.3-31.1-16.6&#xD;&#xA;			c-7.8-8.4-12.9-19.8-15.5-34.1c-0.4-2-2.3-3.4-4.4-3c-2,0.4-3.4,2.3-3,4.4c2.9,15.8,8.7,28.4,17.4,37.9&#xD;&#xA;			C1367.3,679.5,1379,685.8,1393.6,688.8z" fill="#d1e4f6" fill-rule="evenodd"/>
    <path clip-rule="evenodd" d="M1346.5,689.8c2,0.4,4-0.9,4.5-2.9c0.4-2-0.9-4-2.9-4.5c-13-2.7-23.4-8.3-31.1-16.6&#xD;&#xA;			c-7.8-8.4-12.9-19.8-15.5-34.1c-0.4-2-2.3-3.4-4.4-3c-2,0.4-3.4,2.3-3,4.4c2.9,15.8,8.7,28.4,17.4,37.9&#xD;&#xA;			C1320.2,680.5,1331.9,686.8,1346.5,689.8z" fill="#619fdf" fill-rule="evenodd"/>
    <path clip-rule="evenodd" d="M1294.5,708.1c-2,0.4-4-0.9-4.5-2.9c-0.4-2,0.9-4,2.9-4.5c13-2.7,23.4-8.3,31.1-16.6&#xD;&#xA;			c7.8-8.4,12.9-19.8,15.5-34.1c0.4-2,2.3-3.4,4.4-3c2,0.4,3.4,2.3,3,4.4c-2.9,15.8-8.7,28.4-17.4,37.9&#xD;&#xA;			C1320.8,698.7,1309.1,705,1294.5,708.1z" fill="#d1e4f6" fill-rule="evenodd"/>
    <path clip-rule="evenodd" d="M1260.6,700.9c-2,0.4-4-0.9-4.5-2.9c-0.4-2,0.9-4,2.9-4.5c13-2.7,23.4-8.3,31.1-16.6&#xD;&#xA;			c7.8-8.4,12.9-19.8,15.5-34.1c0.4-2,2.3-3.4,4.4-3c2,0.4,3.4,2.3,3,4.4c-2.9,15.8-8.7,28.4-17.4,37.9&#xD;&#xA;			C1286.9,691.5,1275.2,697.8,1260.6,700.9z" fill="#d1e4f6" fill-rule="evenodd"/>
    <path clip-rule="evenodd" d="M1247.3,653.1c-2,0.4-4-0.9-4.5-2.9c-0.4-2,0.9-4,2.9-4.5c13-2.7,23.4-8.3,31.1-16.6&#xD;&#xA;			c7.8-8.4,12.9-19.8,15.5-34.1c0.4-2,2.3-3.4,4.4-3c2,0.4,3.4,2.3,3,4.4c-2.9,15.8-8.7,28.4-17.4,37.9&#xD;&#xA;			C1273.6,643.8,1261.9,650,1247.3,653.1z" fill="#d1e4f6" fill-rule="evenodd"/>
    <path clip-rule="evenodd" d="M1282.6,679.3c1.7,1.2,4,0.8,5.2-0.9c1.2-1.7,0.8-4-0.9-5.2c-10.9-7.6-18.3-16.7-22.1-27.5&#xD;&#xA;			c-3.9-10.8-4.2-23.3-1-37.5c0.5-2-0.8-4-2.8-4.5c-2-0.5-4,0.8-4.5,2.8c-3.5,15.6-3.1,29.5,1.3,41.7&#xD;&#xA;			C1262.1,660.4,1270.4,670.8,1282.6,679.3z" fill="#619fdf" fill-rule="evenodd"/>
    <path clip-rule="evenodd" d="M1411.8,662.4c1.7,1.2,4,0.8,5.2-0.9c1.2-1.7,0.8-4-0.9-5.2c-10.9-7.6-18.3-16.7-22.1-27.5&#xD;&#xA;			c-3.9-10.8-4.2-23.3-1-37.5c0.5-2-0.8-4-2.8-4.5c-2-0.5-4,0.8-4.5,2.8c-3.5,15.6-3.1,29.5,1.3,41.7&#xD;&#xA;			C1391.2,643.5,1399.5,653.9,1411.8,662.4z" fill="#619fdf" fill-rule="evenodd"/>
    <path clip-rule="evenodd" d="M1342.6,641.3c1.7,1.2,4,0.8,5.2-0.9c1.2-1.7,0.8-4-0.9-5.2c-10.9-7.6-18.3-16.7-22.1-27.5&#xD;&#xA;			c-3.9-10.8-4.2-23.3-1-37.5c0.5-2-0.8-4-2.8-4.5c-2-0.5-4,0.8-4.5,2.8c-3.5,15.6-3.1,29.5,1.3,41.7&#xD;&#xA;			C1322,622.4,1330.4,632.8,1342.6,641.3z" fill="#619fdf" fill-rule="evenodd"/>
    <path clip-rule="evenodd" d="M1360.7,761.1c1.7,1.2,4,0.8,5.2-0.9c1.2-1.7,0.8-4-0.9-5.2c-10.9-7.6-18.3-16.7-22.1-27.5&#xD;&#xA;			c-3.9-10.8-4.2-23.3-1-37.5c0.5-2-0.8-4-2.8-4.5c-2-0.5-4,0.8-4.5,2.8c-3.5,15.6-3.1,29.5,1.3,41.7&#xD;&#xA;			C1340.1,742.3,1348.4,752.6,1360.7,761.1z" fill="#d1e4f6" fill-rule="evenodd"/>
    <path clip-rule="evenodd" d="M1395.1,734.1c1.7,1.2,4,0.8,5.2-0.9c1.2-1.7,0.8-4-0.9-5.2c-10.9-7.6-18.3-16.7-22.1-27.5&#xD;&#xA;			c-3.9-10.8-4.2-23.3-1-37.5c0.5-2-0.8-4-2.8-4.5c-2-0.5-4,0.8-4.5,2.8c-3.5,15.6-3.1,29.5,1.3,41.7&#xD;&#xA;			C1374.6,715.2,1382.9,725.6,1395.1,734.1z" fill="#619fdf" fill-rule="evenodd"/>
    <path clip-rule="evenodd" d="M1418.5,719.9c1.7,1.2,4,0.8,5.2-0.9c1.2-1.7,0.8-4-0.9-5.2c-10.9-7.6-18.3-16.7-22.1-27.5&#xD;&#xA;			c-3.9-10.8-4.2-23.3-1-37.5c0.5-2-0.8-4-2.8-4.5c-2-0.5-4,0.8-4.5,2.8c-3.5,15.6-3.1,29.5,1.3,41.7&#xD;&#xA;			C1398,701,1406.3,711.4,1418.5,719.9z" fill="#d1e4f6" fill-rule="evenodd"/>
    <path clip-rule="evenodd" d="M1382.2,639.3c1.7,1.2,4,0.8,5.2-0.9c1.2-1.7,0.8-4-0.9-5.2c-10.9-7.6-18.3-16.7-22.1-27.5&#xD;&#xA;			c-3.9-10.8-4.2-23.3-1-37.5c0.5-2-0.8-4-2.8-4.5c-2-0.5-4,0.8-4.5,2.8c-3.5,15.6-3.1,29.5,1.3,41.7&#xD;&#xA;			C1361.7,620.5,1370,630.8,1382.2,639.3z" fill="#d1e4f6" fill-rule="evenodd"/>
  </g>
</svg>