<?xml version="1.0" encoding="utf-8"?>
<svg xmlns="http://www.w3.org/2000/svg" id="Layer_1" version="1.1" viewBox="0 0 1124.45 254">
  
  <defs>
    <style>
      .st0 {
        fill: url(#radial-gradient);
      }

      .st1 {
        fill: #14b5f9;
      }
    </style>
    <radialGradient cx="122.78" cy="127" fx="122.78" fy="127" gradientTransform="translate(4.64 0)" gradientUnits="userSpaceOnUse" id="radial-gradient" r="116.54">
      <stop offset=".5" stop-color="#11b6f7"/>
      <stop offset="1" stop-color="#00eeea"/>
    </radialGradient>
  </defs>
  <g>
    <path class="st1" d="M301.91,85.57v30.09h38.85v-30.09h11.09v71.69h-11.09v-31.57h-38.85v31.57h-11.09v-71.69h11.09Z"/>
    <path class="st1" d="M387.31,105.52c14.78,0,24.39,10.98,24.39,24.55,0,1.58-.11,3.22-.42,4.86h-39.33c.48,7.6,6.97,13.57,15.73,13.57,6.33,0,11.4-2.69,15.2-8.66l7.71,5.6c-4.7,8.45-13.94,12.88-22.91,12.88-15.31,0-26.55-11.3-26.55-26.34s10.82-26.45,26.18-26.45ZM401.09,127.11c-.63-7.13-6.6-12.14-13.88-12.14-7.76,0-13.67,5.01-14.99,12.14h28.87Z"/>
    <path class="st1" d="M427.15,83.14c3.8,0,6.49,2.64,6.49,6.44s-2.69,6.44-6.49,6.44-6.44-2.64-6.44-6.44,2.64-6.44,6.44-6.44ZM421.93,157.26v-50.68h10.45v50.68h-10.45Z"/>
    <path class="st1" d="M442.83,131.65c0-15.57,11.03-26.13,25.44-26.13,8.6,0,14.31,3.17,18.05,7.97v-6.92h10.45v46.72c0,15.94-10.82,26.13-27.87,26.13-9.29,0-17.89-3.91-23.7-10.87l6.86-6.81c4.8,5.23,10.24,8.18,17.05,8.18,10.4,0,17.21-6.07,17.21-15.31v-4.28c-3.54,4.59-9.45,7.97-18.05,7.97-14.41,0-25.44-11.09-25.44-26.66ZM453.28,131.65c0,9.34,6.49,17.26,16.26,17.26s16.73-7.92,16.73-17.26-7.02-16.73-16.73-16.73-16.26,7.39-16.26,16.73Z"/>
    <path class="st1" d="M508.27,157.26v-74.32h10.5v30.04c1.69-2.59,6.49-7.44,15.57-7.44,13.67,0,21.01,8.66,21.01,20.96v30.78h-10.45v-28.56c0-8.39-4.59-13.25-12.19-13.25s-13.99,4.86-13.99,13.25v28.56h-10.45Z"/>
    <path class="st1" d="M561.95,115.45v-8.87h9.19v-16.26h10.19v16.26h16.1v8.87h-15.99v25.34c0,5.38,3.11,8.08,8.29,8.08,2.43,0,5.75-.69,8.23-1.74l1.37,8.97c-2.53,1.32-7.02,2.22-11.09,2.22-10.61,0-17.26-5.96-17.26-16.26v-26.6h-9.03Z"/>
    <path class="st1" d="M613.04,140.31c2.85,4.96,7.71,8.39,14.15,8.39,5.44,0,9.5-2.16,9.5-5.6,0-3.75-3.11-4.91-10.56-6.6-10.87-2.43-18.63-5.86-18.63-15.89,0-9.19,8.39-15.1,18.74-15.1,9.45,0,16.68,4.91,20.06,10.45l-7.02,6.02c-2.74-3.91-7.07-6.92-13.04-6.92-5.01,0-8.39,2.11-8.39,5.38,0,3.85,3.75,4.91,11.19,6.7,11.03,2.69,18.21,6.28,18.21,15.94s-9.29,15.2-20.06,15.2c-9.87,0-18-4.54-21.91-11.72l7.76-6.28Z"/>
    <path class="st1" d="M685.56,136.3c3.43,7.02,10.03,12.04,19.74,12.04,8.29,0,14.73-3.96,14.73-10.24s-5.7-8.66-16.26-12.04c-13.62-4.38-24.34-8.92-24.23-21.59.11-13.09,12.46-19.95,24.39-19.95,13.25,0,21.7,7.13,25.71,14.78l-8.6,6.02c-3.06-5.54-8.87-10.72-17.1-10.72-6.81,0-13.25,3.48-13.25,9.82s5.86,8.02,15.99,11.45c13.36,4.54,24.49,8.23,24.49,22.12s-13.36,20.32-25.65,20.32c-14.04,0-24.12-7.18-28.24-16.26l8.29-5.75Z"/>
    <path class="st1" d="M737.96,131.92c0-14.83,11.51-26.39,26.92-26.39s26.92,11.56,26.92,26.39-11.51,26.39-26.92,26.39-26.92-11.56-26.92-26.39ZM764.89,148.49c9.55,0,16.47-7.23,16.47-16.58s-6.92-16.58-16.47-16.58-16.47,7.23-16.47,16.58,6.92,16.58,16.47,16.58Z"/>
    <path class="st1" d="M810.22,157.26h-10.45v-74.32h10.45v74.32Z"/>
    <path class="st1" d="M833.87,106.58v28.56c0,8.39,4.59,13.25,12.35,13.25s14.25-4.86,14.25-13.25v-28.56h10.45v50.68h-10.5v-6.39c-1.69,2.59-6.49,7.44-15.84,7.44-13.83,0-21.17-8.66-21.17-20.96v-30.78h10.45Z"/>
    <path class="st1" d="M876.67,115.45v-8.87h9.19v-16.26h10.19v16.26h16.1v8.87h-15.99v25.34c0,5.38,3.11,8.08,8.29,8.08,2.43,0,5.75-.69,8.23-1.74l1.37,8.97c-2.53,1.32-7.02,2.22-11.09,2.22-10.61,0-17.26-5.96-17.26-16.26v-26.6h-9.03Z"/>
    <path class="st1" d="M926.97,83.14c3.8,0,6.49,2.64,6.49,6.44s-2.69,6.44-6.49,6.44-6.44-2.64-6.44-6.44,2.64-6.44,6.44-6.44ZM921.74,157.26v-50.68h10.45v50.68h-10.45Z"/>
    <path class="st1" d="M942.33,131.92c0-14.83,11.51-26.39,26.92-26.39s26.92,11.56,26.92,26.39-11.51,26.39-26.92,26.39-26.92-11.56-26.92-26.39ZM969.25,148.49c9.55,0,16.47-7.23,16.47-16.58s-6.92-16.58-16.47-16.58-16.47,7.23-16.47,16.58,6.92,16.58,16.47,16.58Z"/>
    <path class="st1" d="M1006.29,157.26v-50.68h10.5v6.39c1.69-2.59,6.49-7.44,15.57-7.44,13.94,0,21.27,8.66,21.27,20.96v30.78h-10.45v-28.56c0-8.39-4.59-13.25-12.46-13.25s-13.99,4.86-13.99,13.25v28.56h-10.45Z"/>
    <path class="st1" d="M1068.52,140.31c2.85,4.96,7.71,8.39,14.15,8.39,5.44,0,9.5-2.16,9.5-5.6,0-3.75-3.11-4.91-10.56-6.6-10.87-2.43-18.63-5.86-18.63-15.89,0-9.19,8.39-15.1,18.74-15.1,9.45,0,16.68,4.91,20.06,10.45l-7.02,6.02c-2.74-3.91-7.07-6.92-13.04-6.92-5.01,0-8.39,2.11-8.39,5.38,0,3.85,3.75,4.91,11.19,6.7,11.03,2.69,18.21,6.28,18.21,15.94s-9.29,15.2-20.06,15.2c-9.87,0-18-4.54-21.91-11.72l7.76-6.28Z"/>
  </g>
  <path class="st0" d="M28.65,22.79v3.96c0,.82-.67,1.49-1.49,1.49h-3.96c-.82,0-1.49-.67-1.49-1.49v-3.96c0-.82.67-1.49,1.49-1.49h3.96c.82,0,1.49.67,1.49,1.49ZM47.27,28.23h3.96c.82,0,1.49-.67,1.49-1.49v-3.96c0-.82-.67-1.49-1.49-1.49h-3.96c-.82,0-1.49.67-1.49,1.49v3.96c0,.82.67,1.49,1.49,1.49ZM83.35,28.23h3.96c.82,0,1.49-.67,1.49-1.49v-3.96c0-.82-.67-1.49-1.49-1.49h-3.96c-.82,0-1.49.67-1.49,1.49v3.96c0,.82.67,1.49,1.49,1.49ZM95.38,28.23h3.96c.82,0,1.49-.67,1.49-1.49v-3.96c0-.82-.67-1.49-1.49-1.49h-3.96c-.82,0-1.49.67-1.49,1.49v3.96c0,.82.67,1.49,1.49,1.49ZM107.4,28.23h3.96c.82,0,1.49-.67,1.49-1.49v-3.96c0-.82-.67-1.49-1.49-1.49h-3.96c-.82,0-1.49.67-1.49,1.49v3.96c0,.82.67,1.49,1.49,1.49ZM119.43,28.23h3.96c.82,0,1.49-.67,1.49-1.49v-3.96c0-.82-.67-1.49-1.49-1.49h-3.96c-.82,0-1.49.67-1.49,1.49v3.96c0,.82.67,1.49,1.49,1.49ZM131.46,28.23h3.96c.82,0,1.49-.67,1.49-1.49v-3.96c0-.82-.67-1.49-1.49-1.49h-3.96c-.82,0-1.49.67-1.49,1.49v3.96c0,.82.67,1.49,1.49,1.49ZM143.48,28.23h3.96c.82,0,1.49-.67,1.49-1.49v-3.96c0-.82-.67-1.49-1.49-1.49h-3.96c-.82,0-1.49.67-1.49,1.49v3.96c0,.82.67,1.49,1.49,1.49ZM155.51,28.23h3.96c.82,0,1.49-.67,1.49-1.49v-3.96c0-.82-.67-1.49-1.49-1.49h-3.96c-.82,0-1.49.67-1.49,1.49v3.96c0,.82.67,1.49,1.49,1.49ZM167.54,28.23h3.96c.82,0,1.49-.67,1.49-1.49v-3.96c0-.82-.67-1.49-1.49-1.49h-3.96c-.82,0-1.49.67-1.49,1.49v3.96c0,.82.67,1.49,1.49,1.49ZM203.62,28.23h3.96c.82,0,1.49-.67,1.49-1.49v-3.96c0-.82-.67-1.49-1.49-1.49h-3.96c-.82,0-1.49.67-1.49,1.49v3.96c0,.82.67,1.49,1.49,1.49ZM231.63,21.31h-3.96c-.82,0-1.49.67-1.49,1.49v3.96c0,.82.67,1.49,1.49,1.49h3.96c.82,0,1.49-.67,1.49-1.49v-3.96c0-.82-.67-1.49-1.49-1.49ZM59.29,40.26h3.96c.82,0,1.49-.67,1.49-1.49v-3.96c0-.82-.67-1.49-1.49-1.49h-3.96c-.82,0-1.49.67-1.49,1.49v3.96c0,.82.67,1.49,1.49,1.49ZM71.32,40.26h3.96c.82,0,1.49-.67,1.49-1.49v-3.96c0-.82-.67-1.49-1.49-1.49h-3.96c-.82,0-1.49.67-1.49,1.49v3.96c0,.82.67,1.49,1.49,1.49ZM83.35,40.26h3.96c.82,0,1.49-.67,1.49-1.49v-3.96c0-.82-.67-1.49-1.49-1.49h-3.96c-.82,0-1.49.67-1.49,1.49v3.96c0,.82.67,1.49,1.49,1.49ZM95.38,40.26h3.96c.82,0,1.49-.67,1.49-1.49v-3.96c0-.82-.67-1.49-1.49-1.49h-3.96c-.82,0-1.49.67-1.49,1.49v3.96c0,.82.67,1.49,1.49,1.49ZM155.51,40.26h3.96c.82,0,1.49-.67,1.49-1.49v-3.96c0-.82-.67-1.49-1.49-1.49h-3.96c-.82,0-1.49.67-1.49,1.49v3.96c0,.82.67,1.49,1.49,1.49ZM167.54,40.26h3.96c.82,0,1.49-.67,1.49-1.49v-3.96c0-.82-.67-1.49-1.49-1.49h-3.96c-.82,0-1.49.67-1.49,1.49v3.96c0,.82.67,1.49,1.49,1.49ZM179.57,40.26h3.96c.82,0,1.49-.67,1.49-1.49v-3.96c0-.82-.67-1.49-1.49-1.49h-3.96c-.82,0-1.49.67-1.49,1.49v3.96c0,.82.67,1.49,1.49,1.49ZM191.59,40.26h3.96c.82,0,1.49-.67,1.49-1.49v-3.96c0-.82-.67-1.49-1.49-1.49h-3.96c-.82,0-1.49.67-1.49,1.49v3.96c0,.82.67,1.49,1.49,1.49ZM27.17,45.36h-3.96c-.82,0-1.49.67-1.49,1.49v3.96c0,.82.67,1.49,1.49,1.49h3.96c.82,0,1.49-.67,1.49-1.49v-3.96c0-.82-.67-1.49-1.49-1.49ZM47.27,52.29h3.96c.82,0,1.49-.67,1.49-1.49v-3.96c0-.82-.67-1.49-1.49-1.49h-3.96c-.82,0-1.49.67-1.49,1.49v3.96c0,.82.67,1.49,1.49,1.49ZM59.29,52.29h3.96c.82,0,1.49-.67,1.49-1.49v-3.96c0-.82-.67-1.49-1.49-1.49h-3.96c-.82,0-1.49.67-1.49,1.49v3.96c0,.82.67,1.49,1.49,1.49ZM83.35,52.29h3.96c.82,0,1.49-.67,1.49-1.49v-3.96c0-.82-.67-1.49-1.49-1.49h-3.96c-.82,0-1.49.67-1.49,1.49v3.96c0,.82.67,1.49,1.49,1.49ZM155.51,52.29h3.96c.82,0,1.49-.67,1.49-1.49v-3.96c0-.82-.67-1.49-1.49-1.49h-3.96c-.82,0-1.49.67-1.49,1.49v3.96c0,.82.67,1.49,1.49,1.49ZM167.54,52.29h3.96c.82,0,1.49-.67,1.49-1.49v-3.96c0-.82-.67-1.49-1.49-1.49h-3.96c-.82,0-1.49.67-1.49,1.49v3.96c0,.82.67,1.49,1.49,1.49ZM191.59,52.29h3.96c.82,0,1.49-.67,1.49-1.49v-3.96c0-.82-.67-1.49-1.49-1.49h-3.96c-.82,0-1.49.67-1.49,1.49v3.96c0,.82.67,1.49,1.49,1.49ZM203.62,52.29h3.96c.82,0,1.49-.67,1.49-1.49v-3.96c0-.82-.67-1.49-1.49-1.49h-3.96c-.82,0-1.49.67-1.49,1.49v3.96c0,.82.67,1.49,1.49,1.49ZM231.63,45.36h-3.96c-.82,0-1.49.67-1.49,1.49v3.96c0,.82.67,1.49,1.49,1.49h3.96c.82,0,1.49-.67,1.49-1.49v-3.96c0-.82-.67-1.49-1.49-1.49ZM35.24,64.31h3.96c.82,0,1.49-.67,1.49-1.49v-3.96c0-.82-.67-1.49-1.49-1.49h-3.96c-.82,0-1.49.67-1.49,1.49v3.96c0,.82.67,1.49,1.49,1.49ZM47.27,76.35h3.96c.82,0,1.49-.67,1.49-1.49v-3.96c0-.82-.67-1.49-1.49-1.49h-3.96c-.82,0-1.49.67-1.49,1.49v3.96c0,.82.67,1.49,1.49,1.49ZM59.29,64.31h3.96c.82,0,1.49-.67,1.49-1.49v-3.96c0-.82-.67-1.49-1.49-1.49h-3.96c-.82,0-1.49.67-1.49,1.49v3.96c0,.82.67,1.49,1.49,1.49ZM71.32,64.31h3.96c.82,0,1.49-.67,1.49-1.49v-3.96c0-.82-.67-1.49-1.49-1.49h-3.96c-.82,0-1.49.67-1.49,1.49v3.96c0,.82.67,1.49,1.49,1.49ZM179.57,64.31h3.96c.82,0,1.49-.67,1.49-1.49v-3.96c0-.82-.67-1.49-1.49-1.49h-3.96c-.82,0-1.49.67-1.49,1.49v3.96c0,.82.67,1.49,1.49,1.49ZM191.59,64.31h3.96c.82,0,1.49-.67,1.49-1.49v-3.96c0-.82-.67-1.49-1.49-1.49h-3.96c-.82,0-1.49.67-1.49,1.49v3.96c0,.82.67,1.49,1.49,1.49ZM203.62,76.35h3.96c.82,0,1.49-.67,1.49-1.49v-3.96c0-.82-.67-1.49-1.49-1.49h-3.96c-.82,0-1.49.67-1.49,1.49v3.96c0,.82.67,1.49,1.49,1.49ZM215.65,64.31h3.96c.82,0,1.49-.67,1.49-1.49v-3.96c0-.82-.67-1.49-1.49-1.49h-3.96c-.82,0-1.49.67-1.49,1.49v3.96c0,.82.67,1.49,1.49,1.49ZM35.24,76.34h3.96c.82,0,1.49-.67,1.49-1.49v-3.96c0-.82-.67-1.49-1.49-1.49h-3.96c-.82,0-1.49.67-1.49,1.49v3.96c0,.82.67,1.49,1.49,1.49ZM59.29,76.34h3.96c.82,0,1.49-.67,1.49-1.49v-3.96c0-.82-.67-1.49-1.49-1.49h-3.96c-.82,0-1.49.67-1.49,1.49v3.96c0,.82.67,1.49,1.49,1.49ZM191.59,76.34h3.96c.82,0,1.49-.67,1.49-1.49v-3.96c0-.82-.67-1.49-1.49-1.49h-3.96c-.82,0-1.49.67-1.49,1.49v3.96c0,.82.67,1.49,1.49,1.49ZM215.65,76.34h3.96c.82,0,1.49-.67,1.49-1.49v-3.96c0-.82-.67-1.49-1.49-1.49h-3.96c-.82,0-1.49.67-1.49,1.49v3.96c0,.82.67,1.49,1.49,1.49ZM27.17,81.44h-3.96c-.82,0-1.49.67-1.49,1.49v3.96c0,.82.67,1.49,1.49,1.49h3.96c.82,0,1.49-.67,1.49-1.49v-3.96c0-.82-.67-1.49-1.49-1.49ZM35.24,88.37h3.96c.82,0,1.49-.67,1.49-1.49v-3.96c0-.82-.67-1.49-1.49-1.49h-3.96c-.82,0-1.49.67-1.49,1.49v3.96c0,.82.67,1.49,1.49,1.49ZM47.27,88.37h3.96c.82,0,1.49-.67,1.49-1.49v-3.96c0-.82-.67-1.49-1.49-1.49h-3.96c-.82,0-1.49.67-1.49,1.49v3.96c0,.82.67,1.49,1.49,1.49ZM203.62,88.37h3.96c.82,0,1.49-.67,1.49-1.49v-3.96c0-.82-.67-1.49-1.49-1.49h-3.96c-.82,0-1.49.67-1.49,1.49v3.96c0,.82.67,1.49,1.49,1.49ZM215.65,88.37h3.96c.82,0,1.49-.67,1.49-1.49v-3.96c0-.82-.67-1.49-1.49-1.49h-3.96c-.82,0-1.49.67-1.49,1.49v3.96c0,.82.67,1.49,1.49,1.49ZM231.63,81.44h-3.96c-.82,0-1.49.67-1.49,1.49v3.96c0,.82.67,1.49,1.49,1.49h3.96c.82,0,1.49-.67,1.49-1.49v-3.96c0-.82-.67-1.49-1.49-1.49ZM27.17,93.47h-3.96c-.82,0-1.49.67-1.49,1.49v3.96c0,.82.67,1.49,1.49,1.49h3.96c.82,0,1.49-.67,1.49-1.49v-3.96c0-.82-.67-1.49-1.49-1.49ZM35.24,100.4h3.96c.82,0,1.49-.67,1.49-1.49v-3.96c0-.82-.67-1.49-1.49-1.49h-3.96c-.82,0-1.49.67-1.49,1.49v3.96c0,.82.67,1.49,1.49,1.49ZM203.62,100.4h3.96c.82,0,1.49-.67,1.49-1.49v-3.96c0-.82-.67-1.49-1.49-1.49h-3.96c-.82,0-1.49.67-1.49,1.49v3.96c0,.82.67,1.49,1.49,1.49ZM215.65,100.4h3.96c.82,0,1.49-.67,1.49-1.49v-3.96c0-.82-.67-1.49-1.49-1.49h-3.96c-.82,0-1.49.67-1.49,1.49v3.96c0,.82.67,1.49,1.49,1.49ZM231.63,93.47h-3.96c-.82,0-1.49.67-1.49,1.49v3.96c0,.82.67,1.49,1.49,1.49h3.96c.82,0,1.49-.67,1.49-1.49v-3.96c0-.82-.67-1.49-1.49-1.49ZM27.17,105.5h-3.96c-.82,0-1.49.67-1.49,1.49v3.96c0,.82.67,1.49,1.49,1.49h3.96c.82,0,1.49-.67,1.49-1.49v-3.96c0-.82-.67-1.49-1.49-1.49ZM231.63,105.5h-3.96c-.82,0-1.49.67-1.49,1.49v3.96c0,.82.67,1.49,1.49,1.49h3.96c.82,0,1.49-.67,1.49-1.49v-3.96c0-.82-.67-1.49-1.49-1.49ZM27.17,117.52h-3.96c-.82,0-1.49.67-1.49,1.49v3.96c0,.82.67,1.49,1.49,1.49h3.96c.82,0,1.49-.67,1.49-1.49v-3.96c0-.82-.67-1.49-1.49-1.49ZM231.63,117.52h-3.96c-.82,0-1.49.67-1.49,1.49v3.96c0,.82.67,1.49,1.49,1.49h3.96c.82,0,1.49-.67,1.49-1.49v-3.96c0-.82-.67-1.49-1.49-1.49ZM27.17,129.55h-3.96c-.82,0-1.49.67-1.49,1.49v3.96c0,.82.67,1.49,1.49,1.49h3.96c.82,0,1.49-.67,1.49-1.49v-3.96c0-.82-.67-1.49-1.49-1.49ZM231.63,129.55h-3.96c-.82,0-1.49.67-1.49,1.49v3.96c0,.82.67,1.49,1.49,1.49h3.96c.82,0,1.49-.67,1.49-1.49v-3.96c0-.82-.67-1.49-1.49-1.49ZM27.17,141.58h-3.96c-.82,0-1.49.67-1.49,1.49v3.96c0,.82.67,1.49,1.49,1.49h3.96c.82,0,1.49-.67,1.49-1.49v-3.96c0-.82-.67-1.49-1.49-1.49ZM231.63,141.58h-3.96c-.82,0-1.49.67-1.49,1.49v3.96c0,.82.67,1.49,1.49,1.49h3.96c.82,0,1.49-.67,1.49-1.49v-3.96c0-.82-.67-1.49-1.49-1.49ZM27.17,153.6h-3.96c-.82,0-1.49.67-1.49,1.49v3.96c0,.82.67,1.49,1.49,1.49h3.96c.82,0,1.49-.67,1.49-1.49v-3.96c0-.82-.67-1.49-1.49-1.49ZM39.2,153.6h-3.96c-.82,0-1.49.67-1.49,1.49v3.96c0,.82.67,1.49,1.49,1.49h3.96c.82,0,1.49-.67,1.49-1.49v-3.96c0-.82-.67-1.49-1.49-1.49ZM51.22,153.6h-3.96c-.82,0-1.49.67-1.49,1.49v3.96c0,.82.67,1.49,1.49,1.49h3.96c.82,0,1.49-.67,1.49-1.49v-3.96c0-.82-.67-1.49-1.49-1.49ZM207.58,153.6h-3.96c-.82,0-1.49.67-1.49,1.49v3.96c0,.82.67,1.49,1.49,1.49h3.96c.82,0,1.49-.67,1.49-1.49v-3.96c0-.82-.67-1.49-1.49-1.49ZM219.6,153.6h-3.96c-.82,0-1.49.67-1.49,1.49v3.96c0,.82.67,1.49,1.49,1.49h3.96c.82,0,1.49-.67,1.49-1.49v-3.96c0-.82-.67-1.49-1.49-1.49ZM231.63,153.6h-3.96c-.82,0-1.49.67-1.49,1.49v3.96c0,.82.67,1.49,1.49,1.49h3.96c.82,0,1.49-.67,1.49-1.49v-3.96c0-.82-.67-1.49-1.49-1.49ZM27.17,165.63h-3.96c-.82,0-1.49.67-1.49,1.49v3.96c0,.82.67,1.49,1.49,1.49h3.96c.82,0,1.49-.67,1.49-1.49v-3.96c0-.82-.67-1.49-1.49-1.49ZM39.2,165.63h-3.96c-.82,0-1.49.67-1.49,1.49v3.96c0,.82.67,1.49,1.49,1.49h3.96c.82,0,1.49-.67,1.49-1.49v-3.96c0-.82-.67-1.49-1.49-1.49ZM51.22,165.63h-3.96c-.82,0-1.49.67-1.49,1.49v3.96c0,.82.67,1.49,1.49,1.49h3.96c.82,0,1.49-.67,1.49-1.49v-3.96c0-.82-.67-1.49-1.49-1.49ZM207.58,165.63h-3.96c-.82,0-1.49.67-1.49,1.49v3.96c0,.82.67,1.49,1.49,1.49h3.96c.82,0,1.49-.67,1.49-1.49v-3.96c0-.82-.67-1.49-1.49-1.49ZM219.6,165.63h-3.96c-.82,0-1.49.67-1.49,1.49v3.96c0,.82.67,1.49,1.49,1.49h3.96c.82,0,1.49-.67,1.49-1.49v-3.96c0-.82-.67-1.49-1.49-1.49ZM231.63,165.63h-3.96c-.82,0-1.49.67-1.49,1.49v3.96c0,.82.67,1.49,1.49,1.49h3.96c.82,0,1.49-.67,1.49-1.49v-3.96c0-.82-.67-1.49-1.49-1.49ZM39.2,177.66h-3.96c-.82,0-1.49.67-1.49,1.49v3.96c0,.82.67,1.49,1.49,1.49h3.96c.82,0,1.49-.67,1.49-1.49v-3.96c0-.82-.67-1.49-1.49-1.49ZM63.25,177.66h-3.96c-.82,0-1.49.67-1.49,1.49v3.96c0,.82.67,1.49,1.49,1.49h3.96c.82,0,1.49-.67,1.49-1.49v-3.96c0-.82-.67-1.49-1.49-1.49ZM195.55,177.66h-3.96c-.82,0-1.49.67-1.49,1.49v3.96c0,.82.67,1.49,1.49,1.49h3.96c.82,0,1.49-.67,1.49-1.49v-3.96c0-.82-.67-1.49-1.49-1.49ZM219.6,177.66h-3.96c-.82,0-1.49.67-1.49,1.49v3.96c0,.82.67,1.49,1.49,1.49h3.96c.82,0,1.49-.67,1.49-1.49v-3.96c0-.82-.67-1.49-1.49-1.49ZM39.2,189.69h-3.96c-.82,0-1.49.67-1.49,1.49v3.96c0,.82.67,1.49,1.49,1.49h3.96c.82,0,1.49-.67,1.49-1.49v-3.96c0-.82-.67-1.49-1.49-1.49ZM51.22,177.65h-3.96c-.82,0-1.49.67-1.49,1.49v3.96c0,.82.67,1.49,1.49,1.49h3.96c.82,0,1.49-.67,1.49-1.49v-3.96c0-.82-.67-1.49-1.49-1.49ZM63.25,189.69h-3.96c-.82,0-1.49.67-1.49,1.49v3.96c0,.82.67,1.49,1.49,1.49h3.96c.82,0,1.49-.67,1.49-1.49v-3.96c0-.82-.67-1.49-1.49-1.49ZM75.28,189.69h-3.96c-.82,0-1.49.67-1.49,1.49v3.96c0,.82.67,1.49,1.49,1.49h3.96c.82,0,1.49-.67,1.49-1.49v-3.96c0-.82-.67-1.49-1.49-1.49ZM183.52,189.69h-3.96c-.82,0-1.49.67-1.49,1.49v3.96c0,.82.67,1.49,1.49,1.49h3.96c.82,0,1.49-.67,1.49-1.49v-3.96c0-.82-.67-1.49-1.49-1.49ZM195.55,189.69h-3.96c-.82,0-1.49.67-1.49,1.49v3.96c0,.82.67,1.49,1.49,1.49h3.96c.82,0,1.49-.67,1.49-1.49v-3.96c0-.82-.67-1.49-1.49-1.49ZM207.58,177.65h-3.96c-.82,0-1.49.67-1.49,1.49v3.96c0,.82.67,1.49,1.49,1.49h3.96c.82,0,1.49-.67,1.49-1.49v-3.96c0-.82-.67-1.49-1.49-1.49ZM219.6,189.69h-3.96c-.82,0-1.49.67-1.49,1.49v3.96c0,.82.67,1.49,1.49,1.49h3.96c.82,0,1.49-.67,1.49-1.49v-3.96c0-.82-.67-1.49-1.49-1.49ZM27.17,201.71h-3.96c-.82,0-1.49.67-1.49,1.49v3.96c0,.82.67,1.49,1.49,1.49h3.96c.82,0,1.49-.67,1.49-1.49v-3.96c0-.82-.67-1.49-1.49-1.49ZM51.22,201.71h-3.96c-.82,0-1.49.67-1.49,1.49v3.96c0,.82.67,1.49,1.49,1.49h3.96c.82,0,1.49-.67,1.49-1.49v-3.96c0-.82-.67-1.49-1.49-1.49ZM63.25,201.71h-3.96c-.82,0-1.49.67-1.49,1.49v3.96c0,.82.67,1.49,1.49,1.49h3.96c.82,0,1.49-.67,1.49-1.49v-3.96c0-.82-.67-1.49-1.49-1.49ZM87.31,201.71h-3.96c-.82,0-1.49.67-1.49,1.49v3.96c0,.82.67,1.49,1.49,1.49h3.96c.82,0,1.49-.67,1.49-1.49v-3.96c0-.82-.67-1.49-1.49-1.49ZM99.33,201.71h-3.96c-.82,0-1.49.67-1.49,1.49v3.96c0,.82.67,1.49,1.49,1.49h3.96c.82,0,1.49-.67,1.49-1.49v-3.96c0-.82-.67-1.49-1.49-1.49ZM159.47,201.71h-3.96c-.82,0-1.49.67-1.49,1.49v3.96c0,.82.67,1.49,1.49,1.49h3.96c.82,0,1.49-.67,1.49-1.49v-3.96c0-.82-.67-1.49-1.49-1.49ZM171.5,201.71h-3.96c-.82,0-1.49.67-1.49,1.49v3.96c0,.82.67,1.49,1.49,1.49h3.96c.82,0,1.49-.67,1.49-1.49v-3.96c0-.82-.67-1.49-1.49-1.49ZM195.55,201.71h-3.96c-.82,0-1.49.67-1.49,1.49v3.96c0,.82.67,1.49,1.49,1.49h3.96c.82,0,1.49-.67,1.49-1.49v-3.96c0-.82-.67-1.49-1.49-1.49ZM207.58,201.71h-3.96c-.82,0-1.49.67-1.49,1.49v3.96c0,.82.67,1.49,1.49,1.49h3.96c.82,0,1.49-.67,1.49-1.49v-3.96c0-.82-.67-1.49-1.49-1.49ZM231.63,201.71h-3.96c-.82,0-1.49.67-1.49,1.49v3.96c0,.82.67,1.49,1.49,1.49h3.96c.82,0,1.49-.67,1.49-1.49v-3.96c0-.82-.67-1.49-1.49-1.49ZM63.25,213.74h-3.96c-.82,0-1.49.67-1.49,1.49v3.96c0,.82.67,1.49,1.49,1.49h3.96c.82,0,1.49-.67,1.49-1.49v-3.96c0-.82-.67-1.49-1.49-1.49ZM75.28,213.74h-3.96c-.82,0-1.49.67-1.49,1.49v3.96c0,.82.67,1.49,1.49,1.49h3.96c.82,0,1.49-.67,1.49-1.49v-3.96c0-.82-.67-1.49-1.49-1.49ZM87.31,213.74h-3.96c-.82,0-1.49.67-1.49,1.49v3.96c0,.82.67,1.49,1.49,1.49h3.96c.82,0,1.49-.67,1.49-1.49v-3.96c0-.82-.67-1.49-1.49-1.49ZM99.33,213.74h-3.96c-.82,0-1.49.67-1.49,1.49v3.96c0,.82.67,1.49,1.49,1.49h3.96c.82,0,1.49-.67,1.49-1.49v-3.96c0-.82-.67-1.49-1.49-1.49ZM159.47,213.74h-3.96c-.82,0-1.49.67-1.49,1.49v3.96c0,.82.67,1.49,1.49,1.49h3.96c.82,0,1.49-.67,1.49-1.49v-3.96c0-.82-.67-1.49-1.49-1.49ZM171.5,213.74h-3.96c-.82,0-1.49.67-1.49,1.49v3.96c0,.82.67,1.49,1.49,1.49h3.96c.82,0,1.49-.67,1.49-1.49v-3.96c0-.82-.67-1.49-1.49-1.49ZM183.52,213.74h-3.96c-.82,0-1.49.67-1.49,1.49v3.96c0,.82.67,1.49,1.49,1.49h3.96c.82,0,1.49-.67,1.49-1.49v-3.96c0-.82-.67-1.49-1.49-1.49ZM195.55,213.74h-3.96c-.82,0-1.49.67-1.49,1.49v3.96c0,.82.67,1.49,1.49,1.49h3.96c.82,0,1.49-.67,1.49-1.49v-3.96c0-.82-.67-1.49-1.49-1.49ZM27.17,225.77h-3.96c-.82,0-1.49.67-1.49,1.49v3.96c0,.82.67,1.49,1.49,1.49h3.96c.82,0,1.49-.67,1.49-1.49v-3.96c0-.82-.67-1.49-1.49-1.49ZM51.22,225.77h-3.96c-.82,0-1.49.67-1.49,1.49v3.96c0,.82.67,1.49,1.49,1.49h3.96c.82,0,1.49-.67,1.49-1.49v-3.96c0-.82-.67-1.49-1.49-1.49ZM87.31,225.77h-3.96c-.82,0-1.49.67-1.49,1.49v3.96c0,.82.67,1.49,1.49,1.49h3.96c.82,0,1.49-.67,1.49-1.49v-3.96c0-.82-.67-1.49-1.49-1.49ZM99.33,225.77h-3.96c-.82,0-1.49.67-1.49,1.49v3.96c0,.82.67,1.49,1.49,1.49h3.96c.82,0,1.49-.67,1.49-1.49v-3.96c0-.82-.67-1.49-1.49-1.49ZM111.36,225.77h-3.96c-.82,0-1.49.67-1.49,1.49v3.96c0,.82.67,1.49,1.49,1.49h3.96c.82,0,1.49-.67,1.49-1.49v-3.96c0-.82-.67-1.49-1.49-1.49ZM123.39,225.77h-3.96c-.82,0-1.49.67-1.49,1.49v3.96c0,.82.67,1.49,1.49,1.49h3.96c.82,0,1.49-.67,1.49-1.49v-3.96c0-.82-.67-1.49-1.49-1.49ZM135.41,225.77h-3.96c-.82,0-1.49.67-1.49,1.49v3.96c0,.82.67,1.49,1.49,1.49h3.96c.82,0,1.49-.67,1.49-1.49v-3.96c0-.82-.67-1.49-1.49-1.49ZM147.44,225.77h-3.96c-.82,0-1.49.67-1.49,1.49v3.96c0,.82.67,1.49,1.49,1.49h3.96c.82,0,1.49-.67,1.49-1.49v-3.96c0-.82-.67-1.49-1.49-1.49ZM159.47,225.77h-3.96c-.82,0-1.49.67-1.49,1.49v3.96c0,.82.67,1.49,1.49,1.49h3.96c.82,0,1.49-.67,1.49-1.49v-3.96c0-.82-.67-1.49-1.49-1.49ZM171.5,225.77h-3.96c-.82,0-1.49.67-1.49,1.49v3.96c0,.82.67,1.49,1.49,1.49h3.96c.82,0,1.49-.67,1.49-1.49v-3.96c0-.82-.67-1.49-1.49-1.49ZM207.58,225.77h-3.96c-.82,0-1.49.67-1.49,1.49v3.96c0,.82.67,1.49,1.49,1.49h3.96c.82,0,1.49-.67,1.49-1.49v-3.96c0-.82-.67-1.49-1.49-1.49ZM231.63,225.77h-3.96c-.82,0-1.49.67-1.49,1.49v3.96c0,.82.67,1.49,1.49,1.49h3.96c.82,0,1.49-.67,1.49-1.49v-3.96c0-.82-.67-1.49-1.49-1.49ZM145.14,33.28h-11.32c-2.08,0-3.76,1.68-3.76,3.76v11.53c0,2.08,1.68,3.76,3.76,3.76h11.32c2.08,0,3.76-1.68,3.76-3.76v-11.53c0-2.08-1.68-3.76-3.76-3.76ZM121.27,33.28h-11.53c-2.08,0-3.76,1.68-3.76,3.76v11.53c0,2.08,1.68,3.76,3.76,3.76h11.53c2.08,0,3.76-1.68,3.76-3.76v-11.53c0-2.08-1.68-3.76-3.76-3.76ZM145.14,201.62h-11.32c-2.08,0-3.76,1.68-3.76,3.76v11.53c0,2.08,1.68,3.76,3.76,3.76h11.32c2.08,0,3.76-1.68,3.76-3.76v-11.53c0-2.08-1.68-3.76-3.76-3.76ZM109.74,201.62c-2.08,0-3.76,1.68-3.76,3.76v11.53c0,2.08,1.68,3.76,3.76,3.76h11.32c2.08,0,3.76-1.68,3.76-3.76v-11.53c0-2.08-1.68-3.76-3.76-3.76h-11.32ZM157.69,100.49h11.53c2.08,0,3.76-1.68,3.76-3.76v-11.53c0-2.08-1.68-3.76-3.76-3.76h-11.53c-2.08,0-3.76,1.68-3.76,3.76v11.53c0,2.08,1.68,3.76,3.76,3.76ZM193.3,81.44h-11.53c-2.08,0-3.76,1.68-3.76,3.76v11.53c0,2.08,1.68,3.76,3.76,3.76h11.53c2.08,0,3.76-1.68,3.76-3.76v-11.53c0-2.08-1.68-3.76-3.76-3.76ZM217.34,105.52h-11.53c-2.08,0-3.76,1.68-3.76,3.76v11.32c0,2.08,1.68,3.76,3.76,3.76h11.53c2.08,0,3.76-1.68,3.76-3.76v-11.32c0-2.08-1.68-3.76-3.76-3.76ZM217.34,129.6h-11.53c-2.08,0-3.76,1.68-3.76,3.76v11.32c0,2.08,1.68,3.76,3.76,3.76h11.53c2.08,0,3.76-1.68,3.76-3.76v-11.32c0-2.08-1.68-3.76-3.76-3.76ZM49.04,105.52h-11.32c-2.08,0-3.76,1.68-3.76,3.76v11.32c0,2.08,1.68,3.76,3.76,3.76h11.32c2.08,0,3.76-1.68,3.76-3.76v-11.32c0-2.08-1.68-3.76-3.76-3.76ZM49.04,129.39h-11.53c-2.08,0-3.76,1.68-3.76,3.76v11.53c0,2.08,1.68,3.76,3.76,3.76h11.53c2.08,0,3.76-1.68,3.76-3.76v-11.53c0-2.08-1.68-3.76-3.76-3.76ZM157.69,76.41h11.53c2.08,0,3.76-1.68,3.76-3.76v-11.53c0-2.08-1.68-3.76-3.76-3.76h-11.53c-2.08,0-3.76,1.68-3.76,3.76v11.53c0,2.08,1.68,3.76,3.76,3.76ZM96.98,81.44h-11.32c-2.08,0-3.76,1.68-3.76,3.76v11.53c0,2.08,1.68,3.76,3.76,3.76h11.32c2.08,0,3.76-1.68,3.76-3.76v-11.53c0-2.08-1.68-3.76-3.76-3.76ZM72.91,81.44h-11.32c-2.08,0-3.76,1.68-3.76,3.76v11.53c0,2.08,1.68,3.76,3.76,3.76h11.32c2.08,0,3.76-1.68,3.76-3.76v-11.53c0-2.08-1.68-3.76-3.76-3.76ZM193.3,153.68h-11.53c-2.08,0-3.76,1.68-3.76,3.76v11.32c0,2.08,1.68,3.76,3.76,3.76h11.53c2.08,0,3.76-1.68,3.76-3.76v-11.32c0-2.08-1.68-3.76-3.76-3.76ZM61.58,153.68c-2.08,0-3.76,1.68-3.76,3.76v11.32c0,2.08,1.68,3.76,3.76,3.76h11.32c2.08,0,3.76-1.68,3.76-3.76v-11.32c0-2.08-1.68-3.76-3.76-3.76h-11.32ZM100.74,61.12c0-2.08-1.68-3.76-3.76-3.76h-11.32c-2.08,0-3.76,1.68-3.76,3.76v11.53c0,2.08,1.68,3.76,3.76,3.76h11.32c2.08,0,3.76-1.68,3.76-3.76v-11.53ZM96.98,177.76h-11.32c-2.08,0-3.76,1.68-3.76,3.76v11.32c0,2.08,1.68,3.76,3.76,3.76h11.32c2.08,0,3.76-1.68,3.76-3.76v-11.32c0-2.08-1.68-3.76-3.76-3.76ZM100.74,157.44c0-2.08-1.68-3.76-3.76-3.76h-11.32c-2.08,0-3.76,1.68-3.76,3.76v11.32c0,2.08,1.68,3.76,3.76,3.76h11.32c2.08,0,3.76-1.68,3.76-3.76v-11.32ZM157.86,196.6h11.32c2.08,0,3.76-1.68,3.76-3.76v-11.32c0-2.08-1.68-3.76-3.76-3.76h-11.32c-2.08,0-3.76,1.68-3.76,3.76v11.32c0,2.08,1.68,3.76,3.76,3.76ZM169.22,153.68h-11.53c-2.08,0-3.76,1.68-3.76,3.76v11.32c0,2.08,1.68,3.76,3.76,3.76h11.53c2.08,0,3.76-1.68,3.76-3.76v-11.32c0-2.08-1.68-3.76-3.76-3.76ZM65.25,148.44h40.73v40.67c0,4.14,3.35,7.49,7.49,7.49h27.89c4.14,0,7.49-3.35,7.49-7.49v-40.67h40.67c4.14,0,7.49-3.35,7.49-7.49v-27.87c0-4.14-3.35-7.49-7.49-7.49h-40.67v-40.69c0-4.14-3.35-7.49-7.49-7.49h-27.89c-4.14,0-7.49,3.35-7.49,7.49v40.69h-40.73c-4.14,0-7.49,3.35-7.49,7.49v27.87c0,4.14,3.35,7.49,7.49,7.49Z"/>
</svg>